M48
; DRILL file {KiCad 8.0.0} date 2025-02-04T21:38:57+0100
; FORMAT={-:-/ absolute / inch / decimal}
; #@! TF.CreationDate,2025-02-04T21:38:57+01:00
; #@! TF.GenerationSoftware,Kicad,Pcbnew,8.0.0
; #@! TF.FileFunction,Plated,1,2,PTH
FMAT,2
INCH
; #@! TA.AperFunction,Plated,PTH,ViaDrill
T1C0.0118
; #@! TA.AperFunction,Plated,PTH,ComponentDrill
T2C0.0295
; #@! TA.AperFunction,Plated,PTH,ComponentDrill
T3C0.0300
; #@! TA.AperFunction,Plated,PTH,ComponentDrill
T4C0.0433
%
G90
G05
T1
X2.1358Y-1.2008
X2.2146Y-1.2205
X2.874Y-2.2343
X3.4547Y-2.0571
T2
X3.2185Y-2.1752
X3.2972Y-2.1752
X3.376Y-2.1752
X3.4547Y-2.1752
X3.5335Y-2.1752
X3.8189Y-2.1752
X3.8681Y-1.1417
X3.8976Y-2.1752
X3.9469Y-1.1417
X3.9764Y-2.1752
X4.0256Y-1.1417
X4.0551Y-2.1752
X4.1339Y-2.1752
X4.4193Y-2.1752
X4.498Y-2.1752
X4.5768Y-2.1752
X4.6555Y-2.1752
X4.7343Y-2.1752
X5.0197Y-1.6831
X5.0197Y-2.1752
X5.0984Y-1.6831
X5.0984Y-2.1752
X5.1772Y-1.6831
X5.1772Y-2.1752
X5.2559Y-1.6831
X5.2559Y-2.1752
X5.3346Y-1.6831
X5.3346Y-2.1752
T3
X1.2992Y-1.5598
X1.2992Y-1.678
T4
X1.2713Y-1.3189
X1.2713Y-1.9189
X1.3713Y-1.3189
X1.3713Y-1.9189
X1.4713Y-1.3189
X1.4713Y-1.9189
X1.5713Y-1.3189
X1.5713Y-1.9189
X1.6713Y-1.3189
X1.6713Y-1.9189
X1.7713Y-1.3189
X1.7713Y-1.9189
X1.8713Y-1.3189
X1.8713Y-1.9189
X1.9713Y-1.3189
X1.9713Y-1.9189
X2.0713Y-1.3189
X2.0713Y-1.9189
X2.1713Y-1.3189
X2.1713Y-1.9189
X2.2713Y-1.3189
X2.2713Y-1.9189
X2.3713Y-1.3189
X2.3713Y-1.9189
X2.4713Y-1.3189
X2.4713Y-1.9189
X2.5713Y-1.3189
X2.5713Y-1.9189
X2.6713Y-1.3189
X2.6713Y-1.9189
X2.7713Y-1.3189
X2.7713Y-1.9189
X2.8713Y-1.3189
X2.8713Y-1.9189
X2.9713Y-1.3189
X2.9713Y-1.9189
X3.0713Y-1.3189
X3.0713Y-1.9189
X3.1713Y-1.3189
X3.1713Y-1.9189
X3.2713Y-1.3189
X3.2713Y-1.9189
X3.3713Y-1.3189
X3.3713Y-1.9189
X3.4713Y-1.3189
X3.4713Y-1.9189
X3.5713Y-1.3189
X3.5713Y-1.9189
M30
