M48
; DRILL file {KiCad 8.0.2} date 2024-10-21T17:53:25+0200
; FORMAT={-:-/ absolute / inch / decimal}
; #@! TF.CreationDate,2024-10-21T17:53:25+02:00
; #@! TF.GenerationSoftware,Kicad,Pcbnew,8.0.2
; #@! TF.FileFunction,Plated,1,4,PTH
FMAT,2
INCH
; #@! TA.AperFunction,Plated,PTH,ViaDrill
T1C0.0118
; #@! TA.AperFunction,Plated,PTH,ComponentDrill
T2C0.0236
; #@! TA.AperFunction,Plated,PTH,ComponentDrill
T3C0.0256
; #@! TA.AperFunction,Plated,PTH,ComponentDrill
T4C0.0295
; #@! TA.AperFunction,Plated,PTH,ComponentDrill
T5C0.0315
; #@! TA.AperFunction,Plated,PTH,ComponentDrill
T6C0.0394
; #@! TA.AperFunction,Plated,PTH,ComponentDrill
T7C0.0433
; #@! TA.AperFunction,Plated,PTH,ComponentDrill
T8C0.0512
; #@! TA.AperFunction,Plated,PTH,ComponentDrill
T9C0.0551
%
G90
G05
T1
X1.4374Y-2.0917
X1.4398Y-2.1192
X1.6051Y-2.0461
X1.6051Y-2.0839
X1.6051Y-2.1228
X1.6051Y-2.163
X1.689Y-2.2768
X1.6898Y-2.3209
X1.8878Y-1.3453
X2.0047Y-2.9394
X2.0744Y-1.5028
X2.2803Y-1.2953
X2.3201Y-2.8232
X2.5223Y-2.7319
X3.1504Y-1.9752
X3.6323Y-1.9685
X3.6736Y-1.9862
X3.7173Y-1.9543
X3.7248Y-1.9079
X3.7311Y-1.8173
X3.7626Y-1.4047
X3.8165Y-1.5449
X3.8559Y-1.3406
X3.8913Y-2.0551
X3.8969Y-1.8713
X3.9343Y-1.5441
X3.9496Y-2.1512
X3.9555Y-1.9622
X3.9941Y-1.5169
X4.0524Y-1.7142
X4.0652Y-1.7608
X4.0965Y-2.0882
X4.0988Y-1.9
X4.1071Y-1.298
X4.1291Y-1.8571
X4.1587Y-1.5016
X4.1598Y-1.9028
X4.1827Y-1.9894
X4.2291Y-1.9366
X4.2315Y-1.99
X4.2673Y-1.5449
X4.2898Y-1.9465
X4.3047Y-1.5004
X4.324Y-1.9402
X4.3374Y-1.9902
X4.3378Y-2.035
X4.3386Y-1.6492
X4.3398Y-1.6024
X4.3417Y-1.1126
X4.3937Y-1.4138
X4.4063Y-1.9299
X4.4492Y-1.172
X4.4937Y-1.7374
X4.4949Y-1.9189
X4.5193Y-1.3211
X4.5193Y-1.3506
X4.6531Y-2.3016
X4.7823Y-2.3016
X4.8484Y-2.4094
X4.85Y-1.1925
X4.8685Y-2.5512
X4.8823Y-2.3512
X4.9571Y-2.0807
X4.9579Y-2.2476
X4.9909Y-2.5453
X5.0059Y-2.0492
X5.0071Y-2.2539
X5.0276Y-2.4929
X5.1933Y-2.2465
X5.239Y-2.0866
X5.239Y-2.2094
X5.3165Y-1.2248
X5.3169Y-1.3327
X5.3602Y-1.2276
X5.3614Y-1.3339
X5.3799Y-1.9169
X5.5059Y-1.5476
X5.548Y-1.2256
X5.548Y-1.3484
X5.5744Y-1.9858
X5.6201Y-2.0929
X5.6535Y-2.061
X5.7512Y-1.3319
X5.7528Y-2.4193
X5.7567Y-1.5126
X5.9087Y-1.7606
X5.9803Y-2.111
X6.024Y-2.1236
X6.0929Y-1.5228
X6.1114Y-2.1157
X6.1512Y-1.8303
X6.1563Y-1.3177
X6.248Y-1.9626
X6.2941Y-1.8386
X6.3378Y-1.8835
X6.5626Y-1.2075
X6.687Y-1.5146
X6.8075Y-1.3646
X6.8138Y-2.2094
X6.8146Y-2.1181
X6.9268Y-1.4138
X7.0102Y-1.0433
X7.0142Y-1.1469
X7.0444Y-1.465
X7.0445Y-1.4988
X7.1492Y-1.1476
X7.2Y-1.1776
X7.3012Y-1.0429
T3
X4.065Y-2.7925
X4.1398Y-2.7925
T4
X1.6513Y-1.9193
X1.7301Y-1.9193
X1.8088Y-1.9193
X1.8875Y-1.9193
X1.9663Y-1.9193
X2.7031Y-2.8693
X2.7047Y-2.3854
X2.7819Y-2.8693
X2.7835Y-2.3854
X2.8606Y-2.8693
X2.8622Y-2.3854
X2.9394Y-2.8693
X2.9409Y-2.3854
X3.0181Y-2.8693
X3.0197Y-2.3854
X3.2585Y-1.9193
X3.3373Y-1.9193
X3.3457Y-1.2024
X3.416Y-1.9193
X3.4244Y-1.2024
X3.4948Y-1.9193
X3.5031Y-1.2024
X3.5735Y-1.9193
X4.8657Y-1.9193
X4.9445Y-1.9193
X5.0232Y-1.9193
X5.102Y-1.9193
X5.1807Y-1.9193
X6.473Y-1.9193
X6.5517Y-1.9193
X6.6304Y-1.9193
X6.7092Y-1.9193
X6.7879Y-1.9193
X7.3547Y-1.2535
X7.3547Y-1.3323
T5
X4.5783Y-1.3094
X4.5783Y-1.4094
X5.0602Y-1.1554
X5.0602Y-1.2342
X5.0602Y-1.3129
X5.139Y-1.1554
X5.139Y-1.2342
X5.139Y-1.3129
T6
X7.2606Y-1.6106
X7.2606Y-1.7681
X7.2606Y-1.9256
X7.3591Y-1.6106
X7.3591Y-1.7681
X7.3591Y-1.9256
T7
X4.5496Y-1.0594
X4.5496Y-1.6594
X4.6496Y-1.0594
X4.6496Y-1.1594
X4.6496Y-1.6594
X4.7496Y-1.0594
X4.7496Y-1.6594
X4.7976Y-1.5393
X4.8496Y-1.0594
X4.8496Y-1.6594
X4.8976Y-1.5393
X4.9496Y-1.0594
X4.9496Y-1.6594
X4.9976Y-1.5393
X5.0496Y-1.0594
X5.0496Y-1.6594
X5.0976Y-1.5393
X5.1496Y-1.0594
X5.1496Y-1.6594
X5.1976Y-1.5393
X5.2496Y-1.0594
X5.2496Y-1.6594
X5.3496Y-1.0594
X5.3496Y-1.6594
X5.4496Y-1.0594
X5.4496Y-1.6594
X5.5496Y-1.0594
X5.5496Y-1.6594
X5.6496Y-1.0594
X5.6496Y-1.6594
X5.7496Y-1.0594
X5.7496Y-1.6594
X5.8496Y-1.0594
X5.8496Y-1.6594
X5.9496Y-1.0594
X5.9496Y-1.6594
X6.0496Y-1.0594
X6.0496Y-1.6594
X6.1496Y-1.0594
X6.1496Y-1.6594
X6.2496Y-1.0594
X6.2496Y-1.6594
X6.3496Y-1.0594
X6.3496Y-1.1594
X6.3496Y-1.2594
X6.3496Y-1.3594
X6.3496Y-1.4594
X6.3496Y-1.5594
X6.3496Y-1.6594
X6.4496Y-1.0594
X6.4496Y-1.6594
X6.5496Y-1.0594
X6.5496Y-1.6594
X6.6496Y-1.0594
X6.6496Y-1.6594
X6.7496Y-1.0594
X6.7496Y-1.6594
X6.8496Y-1.0594
X6.8496Y-1.6594
T8
X7.1917Y-1.5319
X7.1917Y-2.0043
X7.428Y-1.5319
X7.428Y-2.0043
T9
X1.5156Y-1.0671
X1.5156Y-1.7061
X1.5191Y-2.4262
X1.5191Y-3.0652
X1.7656Y-1.0671
X1.7656Y-1.7061
X1.7691Y-2.4262
X1.7691Y-3.0652
X2.0156Y-1.0671
X2.0156Y-1.7061
X2.0191Y-2.4262
X2.0191Y-3.0652
X5.2713Y-2.3709
X5.2713Y-2.6209
X5.2713Y-2.8709
X5.9102Y-2.3709
X5.9102Y-2.6209
X5.9102Y-2.8709
X6.1671Y-2.3687
X6.1671Y-2.6187
X6.1671Y-2.8687
X6.8061Y-2.3687
X6.8061Y-2.6187
X6.8061Y-2.8687
T2
G00X1.3071Y-1.911
M15
G01X1.2835Y-1.911
M16
G05
G00X1.3071Y-2.2512
M15
G01X1.2835Y-2.2512
M16
G05
G00X1.4815Y-1.911
M15
G01X1.4382Y-1.911
M16
G05
G00X1.4815Y-2.2512
M15
G01X1.4382Y-2.2512
M16
G05
M30
