%TF.GenerationSoftware,KiCad,Pcbnew,8.0.2*%
%TF.CreationDate,2024-10-21T17:53:16+02:00*%
%TF.ProjectId,teensyAudioMidi,7465656e-7379-4417-9564-696f4d696469,rev?*%
%TF.SameCoordinates,Original*%
%TF.FileFunction,Soldermask,Top*%
%TF.FilePolarity,Negative*%
%FSLAX46Y46*%
G04 Gerber Fmt 4.6, Leading zero omitted, Abs format (unit mm)*
G04 Created by KiCad (PCBNEW 8.0.2) date 2024-10-21 17:53:16*
%MOMM*%
%LPD*%
G01*
G04 APERTURE LIST*
G04 Aperture macros list*
%AMRoundRect*
0 Rectangle with rounded corners*
0 $1 Rounding radius*
0 $2 $3 $4 $5 $6 $7 $8 $9 X,Y pos of 4 corners*
0 Add a 4 corners polygon primitive as box body*
4,1,4,$2,$3,$4,$5,$6,$7,$8,$9,$2,$3,0*
0 Add four circle primitives for the rounded corners*
1,1,$1+$1,$2,$3*
1,1,$1+$1,$4,$5*
1,1,$1+$1,$6,$7*
1,1,$1+$1,$8,$9*
0 Add four rect primitives between the rounded corners*
20,1,$1+$1,$2,$3,$4,$5,0*
20,1,$1+$1,$4,$5,$6,$7,0*
20,1,$1+$1,$6,$7,$8,$9,0*
20,1,$1+$1,$8,$9,$2,$3,0*%
%AMRotRect*
0 Rectangle, with rotation*
0 The origin of the aperture is its center*
0 $1 length*
0 $2 width*
0 $3 Rotation angle, in degrees counterclockwise*
0 Add horizontal line*
21,1,$1,$2,0,0,$3*%
G04 Aperture macros list end*
%ADD10RoundRect,0.135000X-0.135000X-0.185000X0.135000X-0.185000X0.135000X0.185000X-0.135000X0.185000X0*%
%ADD11RoundRect,0.150000X-0.512500X-0.150000X0.512500X-0.150000X0.512500X0.150000X-0.512500X0.150000X0*%
%ADD12RoundRect,0.200000X0.275000X-0.200000X0.275000X0.200000X-0.275000X0.200000X-0.275000X-0.200000X0*%
%ADD13RoundRect,0.200000X0.200000X0.275000X-0.200000X0.275000X-0.200000X-0.275000X0.200000X-0.275000X0*%
%ADD14RoundRect,0.150000X0.587500X0.150000X-0.587500X0.150000X-0.587500X-0.150000X0.587500X-0.150000X0*%
%ADD15RoundRect,0.250000X0.625000X-0.350000X0.625000X0.350000X-0.625000X0.350000X-0.625000X-0.350000X0*%
%ADD16O,1.750000X1.200000*%
%ADD17RoundRect,0.218750X-0.218750X-0.256250X0.218750X-0.256250X0.218750X0.256250X-0.218750X0.256250X0*%
%ADD18RoundRect,0.225000X-0.375000X0.225000X-0.375000X-0.225000X0.375000X-0.225000X0.375000X0.225000X0*%
%ADD19RoundRect,0.225000X0.250000X-0.225000X0.250000X0.225000X-0.250000X0.225000X-0.250000X-0.225000X0*%
%ADD20RoundRect,0.250000X-0.250000X-0.250000X0.250000X-0.250000X0.250000X0.250000X-0.250000X0.250000X0*%
%ADD21C,1.000000*%
%ADD22RoundRect,0.140000X0.140000X0.170000X-0.140000X0.170000X-0.140000X-0.170000X0.140000X-0.170000X0*%
%ADD23RoundRect,0.200000X-0.200000X-0.275000X0.200000X-0.275000X0.200000X0.275000X-0.200000X0.275000X0*%
%ADD24RoundRect,0.140000X0.170000X-0.140000X0.170000X0.140000X-0.170000X0.140000X-0.170000X-0.140000X0*%
%ADD25RoundRect,0.250000X-0.350000X-0.625000X0.350000X-0.625000X0.350000X0.625000X-0.350000X0.625000X0*%
%ADD26O,1.200000X1.750000*%
%ADD27RoundRect,0.225000X-0.250000X0.225000X-0.250000X-0.225000X0.250000X-0.225000X0.250000X0.225000X0*%
%ADD28RoundRect,0.200000X-0.275000X0.200000X-0.275000X-0.200000X0.275000X-0.200000X0.275000X0.200000X0*%
%ADD29RoundRect,0.225000X0.225000X0.250000X-0.225000X0.250000X-0.225000X-0.250000X0.225000X-0.250000X0*%
%ADD30C,0.650000*%
%ADD31R,1.450000X0.600000*%
%ADD32R,1.450000X0.300000*%
%ADD33O,2.100000X1.000000*%
%ADD34O,1.600000X1.000000*%
%ADD35RoundRect,0.135000X-0.185000X0.135000X-0.185000X-0.135000X0.185000X-0.135000X0.185000X0.135000X0*%
%ADD36RoundRect,0.140000X-0.170000X0.140000X-0.170000X-0.140000X0.170000X-0.140000X0.170000X0.140000X0*%
%ADD37RoundRect,0.140000X-0.140000X-0.170000X0.140000X-0.170000X0.140000X0.170000X-0.140000X0.170000X0*%
%ADD38RoundRect,0.225000X-0.225000X-0.250000X0.225000X-0.250000X0.225000X0.250000X-0.225000X0.250000X0*%
%ADD39R,1.208024X0.466344*%
%ADD40C,3.000000*%
%ADD41C,1.200000*%
%ADD42RoundRect,0.102000X0.750000X1.500000X-0.750000X1.500000X-0.750000X-1.500000X0.750000X-1.500000X0*%
%ADD43RoundRect,0.150000X-0.150000X0.512500X-0.150000X-0.512500X0.150000X-0.512500X0.150000X0.512500X0*%
%ADD44RoundRect,0.135000X0.135000X0.185000X-0.135000X0.185000X-0.135000X-0.185000X0.135000X-0.185000X0*%
%ADD45RoundRect,0.125000X-0.125000X0.125000X-0.125000X-0.125000X0.125000X-0.125000X0.125000X0.125000X0*%
%ADD46RoundRect,0.062500X0.062500X-0.337500X0.062500X0.337500X-0.062500X0.337500X-0.062500X-0.337500X0*%
%ADD47RoundRect,0.062500X0.337500X-0.062500X0.337500X0.062500X-0.337500X0.062500X-0.337500X-0.062500X0*%
%ADD48R,3.600000X3.600000*%
%ADD49R,0.700000X1.400000*%
%ADD50R,0.700000X1.200000*%
%ADD51R,1.200000X0.800000*%
%ADD52R,1.500000X1.900000*%
%ADD53RotRect,0.200000X0.200000X45.000000*%
%ADD54R,0.500000X0.500000*%
%ADD55R,1.000000X1.400000*%
%ADD56R,1.200000X1.200000*%
%ADD57R,1.200000X3.200000*%
%ADD58C,1.500000*%
%ADD59C,1.950000*%
%ADD60R,1.600000X1.600000*%
%ADD61C,1.600000*%
%ADD62R,1.300000X1.300000*%
%ADD63C,1.300000*%
G04 APERTURE END LIST*
D10*
X176690000Y-35920000D03*
X177710000Y-35920000D03*
D11*
X179255000Y-28205000D03*
X179255000Y-29155000D03*
X179255000Y-30105000D03*
X181530000Y-30105000D03*
X181530000Y-28205000D03*
D12*
X183770000Y-29900000D03*
X183770000Y-28250000D03*
D13*
X180965000Y-26460000D03*
X179315000Y-26460000D03*
D14*
X178940000Y-34005000D03*
X178940000Y-32105000D03*
X177065000Y-33055000D03*
D15*
X186810000Y-33840000D03*
D16*
X186810000Y-31840000D03*
D17*
X182742500Y-26460000D03*
X184317500Y-26460000D03*
D18*
X181352500Y-32062500D03*
X181352500Y-35362500D03*
D19*
X177030000Y-30110000D03*
X177030000Y-28560000D03*
D20*
X103250000Y-70930000D03*
D21*
X105150000Y-70930000D03*
D22*
X102347500Y-49840000D03*
X101387500Y-49840000D03*
D23*
X103385000Y-66190000D03*
X105035000Y-66190000D03*
D24*
X95565000Y-37552500D03*
X95565000Y-36592500D03*
D10*
X101165000Y-43540000D03*
X102185000Y-43540000D03*
D25*
X164413334Y-48750000D03*
D26*
X166413334Y-48750000D03*
X168413334Y-48750000D03*
X170413334Y-48750000D03*
X172413334Y-48750000D03*
D27*
X61500000Y-67900000D03*
X61500000Y-69450000D03*
D28*
X179500000Y-51595000D03*
X179500000Y-53245000D03*
D25*
X68660000Y-72880000D03*
D26*
X70660000Y-72880000D03*
X72660000Y-72880000D03*
X74660000Y-72880000D03*
X76660000Y-72880000D03*
D29*
X116830000Y-47850000D03*
X115280000Y-47850000D03*
D30*
X36550000Y-49970000D03*
X36550000Y-55750000D03*
D31*
X37995000Y-49610000D03*
X37995000Y-50410000D03*
D32*
X37995000Y-51610000D03*
X37995000Y-52610000D03*
X37995000Y-53110000D03*
X37995000Y-54110000D03*
D31*
X37995000Y-55310000D03*
X37995000Y-56110000D03*
X37995000Y-56110000D03*
X37995000Y-55310000D03*
D32*
X37995000Y-54610000D03*
X37995000Y-53610000D03*
X37995000Y-52110000D03*
X37995000Y-51110000D03*
D31*
X37995000Y-50410000D03*
X37995000Y-49610000D03*
D33*
X37080000Y-48540000D03*
D34*
X32900000Y-48540000D03*
D33*
X37080000Y-57180000D03*
D34*
X32900000Y-57180000D03*
D35*
X103920000Y-40840000D03*
X103920000Y-41860000D03*
D25*
X41943334Y-48750000D03*
D26*
X43943334Y-48750000D03*
X45943334Y-48750000D03*
X47943334Y-48750000D03*
X49943334Y-48750000D03*
D10*
X101150000Y-44680000D03*
X102170000Y-44680000D03*
D22*
X122410000Y-61220000D03*
X121450000Y-61220000D03*
D36*
X104065000Y-51245000D03*
X104065000Y-52205000D03*
D11*
X137632500Y-47740000D03*
X137632500Y-48690000D03*
X137632500Y-49640000D03*
X139907500Y-49640000D03*
X139907500Y-48690000D03*
X139907500Y-47740000D03*
D37*
X108380000Y-40700000D03*
X109340000Y-40700000D03*
D11*
X100012500Y-51250000D03*
X100012500Y-52200000D03*
X100012500Y-53150000D03*
X102287500Y-53150000D03*
X102287500Y-51250000D03*
D29*
X116845000Y-46310000D03*
X115295000Y-46310000D03*
D38*
X121455000Y-59700000D03*
X123005000Y-59700000D03*
D35*
X106140000Y-40850000D03*
X106140000Y-41870000D03*
D39*
X150276600Y-47320000D03*
X150276600Y-49860000D03*
X157160000Y-49860000D03*
X157160000Y-48590000D03*
X157160000Y-47320000D03*
D35*
X107230000Y-40820000D03*
X107230000Y-41840000D03*
D25*
X84980000Y-30540000D03*
D26*
X86980000Y-30540000D03*
X88980000Y-30540000D03*
D36*
X111900000Y-47320000D03*
X111900000Y-48280000D03*
D25*
X68700000Y-60590000D03*
D26*
X70700000Y-60590000D03*
X72700000Y-60590000D03*
X74700000Y-60590000D03*
X76700000Y-60590000D03*
D40*
X150120000Y-66570000D03*
X133890000Y-66570000D03*
X150120000Y-72920000D03*
X133890000Y-72920000D03*
X150120000Y-60220000D03*
X133890000Y-60220000D03*
D41*
X187950000Y-59652500D03*
X181950000Y-59652500D03*
D42*
X188350000Y-56152500D03*
X181450000Y-56152500D03*
X185750000Y-63152500D03*
X189350000Y-63152500D03*
X179850000Y-63152500D03*
D37*
X156210000Y-45760000D03*
X157170000Y-45760000D03*
D10*
X40860000Y-57830000D03*
X41880000Y-57830000D03*
D43*
X98880000Y-35285000D03*
X97930000Y-35285000D03*
X96980000Y-35285000D03*
X96980000Y-37560000D03*
X98880000Y-37560000D03*
D13*
X185735000Y-66170000D03*
X184085000Y-66170000D03*
D10*
X40850000Y-58940000D03*
X41870000Y-58940000D03*
D29*
X116840000Y-44790000D03*
X115290000Y-44790000D03*
D41*
X187880000Y-73550000D03*
X181880000Y-73550000D03*
D42*
X188280000Y-70050000D03*
X181380000Y-70050000D03*
X185680000Y-77050000D03*
X189280000Y-77050000D03*
X179780000Y-77050000D03*
D40*
X44935000Y-77855000D03*
X44935000Y-61625000D03*
X38585000Y-77855000D03*
X38585000Y-61625000D03*
X51285000Y-77855000D03*
X51285000Y-61625000D03*
D27*
X97897500Y-46640000D03*
X97897500Y-48190000D03*
X61560000Y-72290000D03*
X61560000Y-73840000D03*
D44*
X119240000Y-61440000D03*
X118220000Y-61440000D03*
D36*
X141567500Y-48690000D03*
X141567500Y-49650000D03*
D35*
X102870000Y-40825000D03*
X102870000Y-41845000D03*
D11*
X100080000Y-46590000D03*
X100080000Y-47540000D03*
X100080000Y-48490000D03*
X102355000Y-48490000D03*
X102355000Y-46590000D03*
D35*
X105050000Y-40860000D03*
X105050000Y-41880000D03*
D45*
X148276528Y-47347164D03*
X148276528Y-49547164D03*
D25*
X82766667Y-48750000D03*
D26*
X84766667Y-48750000D03*
X86766667Y-48750000D03*
X88766667Y-48750000D03*
X90766667Y-48750000D03*
D29*
X98880000Y-33022500D03*
X97330000Y-33022500D03*
D27*
X97755000Y-51250000D03*
X97755000Y-52800000D03*
D46*
X106410000Y-48320000D03*
X106910000Y-48320000D03*
X107410000Y-48320000D03*
X107910000Y-48320000D03*
X108410000Y-48320000D03*
X108910000Y-48320000D03*
X109410000Y-48320000D03*
X109910000Y-48320000D03*
D47*
X110610000Y-47620000D03*
X110610000Y-47120000D03*
X110610000Y-46620000D03*
X110610000Y-46120000D03*
X110610000Y-45620000D03*
X110610000Y-45120000D03*
X110610000Y-44620000D03*
X110610000Y-44120000D03*
D46*
X109910000Y-43420000D03*
X109410000Y-43420000D03*
X108910000Y-43420000D03*
X108410000Y-43420000D03*
X107910000Y-43420000D03*
X107410000Y-43420000D03*
X106910000Y-43420000D03*
X106410000Y-43420000D03*
D47*
X105710000Y-44120000D03*
X105710000Y-44620000D03*
X105710000Y-45120000D03*
X105710000Y-45620000D03*
X105710000Y-46120000D03*
X105710000Y-46620000D03*
X105710000Y-47120000D03*
X105710000Y-47620000D03*
D48*
X108160000Y-45870000D03*
D49*
X118125000Y-63430000D03*
X119225000Y-63430000D03*
X120325000Y-63430000D03*
X121425000Y-63430000D03*
X122525000Y-63430000D03*
X123625000Y-63430000D03*
X124725000Y-63430000D03*
X125825000Y-63430000D03*
D50*
X126775000Y-63330000D03*
D51*
X127625000Y-73830000D03*
D52*
X114325000Y-78430000D03*
D53*
X115075000Y-78880000D03*
D54*
X115325000Y-79130000D03*
D55*
X116225000Y-63430000D03*
D56*
X127625000Y-67630000D03*
D57*
X127625000Y-77430000D03*
D37*
X108390000Y-41890000D03*
X109350000Y-41890000D03*
D58*
X186920000Y-48910000D03*
X186920000Y-44910000D03*
X186920000Y-40910000D03*
X184420000Y-40910000D03*
X184420000Y-44910000D03*
X184420000Y-48910000D03*
D59*
X188670000Y-50910000D03*
X182670000Y-50910000D03*
X188670000Y-38910000D03*
X182670000Y-38910000D03*
D37*
X108400000Y-50520000D03*
X109360000Y-50520000D03*
D40*
X172875000Y-66515000D03*
X156645000Y-66515000D03*
X172875000Y-72865000D03*
X156645000Y-72865000D03*
X172875000Y-60165000D03*
X156645000Y-60165000D03*
D36*
X104087500Y-46595000D03*
X104087500Y-47555000D03*
D25*
X123590000Y-48750000D03*
D26*
X125590000Y-48750000D03*
X127590000Y-48750000D03*
X129590000Y-48750000D03*
X131590000Y-48750000D03*
D22*
X98895000Y-39232500D03*
X97935000Y-39232500D03*
X102295000Y-54655000D03*
X101335000Y-54655000D03*
D60*
X115560000Y-42150000D03*
D61*
X118100000Y-42150000D03*
X120640000Y-42150000D03*
X123180000Y-42150000D03*
X125720000Y-42150000D03*
X128260000Y-42150000D03*
X130800000Y-42150000D03*
X133340000Y-42150000D03*
X135880000Y-42150000D03*
X138420000Y-42150000D03*
X140960000Y-42150000D03*
X143500000Y-42150000D03*
X146040000Y-42150000D03*
X148580000Y-42150000D03*
X151120000Y-42150000D03*
X153660000Y-42150000D03*
X156200000Y-42150000D03*
X158740000Y-42150000D03*
X161280000Y-42150000D03*
X163820000Y-42150000D03*
X166360000Y-42150000D03*
X168900000Y-42150000D03*
X171440000Y-42150000D03*
X173980000Y-42150000D03*
X173980000Y-26910000D03*
X171440000Y-26910000D03*
X168900000Y-26910000D03*
X166360000Y-26910000D03*
X163820000Y-26910000D03*
X161280000Y-26910000D03*
X158740000Y-26910000D03*
X156200000Y-26910000D03*
X153660000Y-26910000D03*
X151120000Y-26910000D03*
X148580000Y-26910000D03*
X146040000Y-26910000D03*
X143500000Y-26910000D03*
X140960000Y-26910000D03*
X138420000Y-26910000D03*
X135880000Y-26910000D03*
X133340000Y-26910000D03*
X130800000Y-26910000D03*
X128260000Y-26910000D03*
X125720000Y-26910000D03*
X123180000Y-26910000D03*
X120640000Y-26910000D03*
X118100000Y-26910000D03*
X115560000Y-26910000D03*
X118100000Y-29450000D03*
X161280000Y-39610000D03*
X161280000Y-37070000D03*
X161280000Y-34530000D03*
X161280000Y-31990000D03*
X161280000Y-29450000D03*
D60*
X121859200Y-39099200D03*
D61*
X124399200Y-39099200D03*
X126939200Y-39099200D03*
X129479200Y-39099200D03*
X132019200Y-39099200D03*
D62*
X128530000Y-29348400D03*
D63*
X128530000Y-31348400D03*
X128530000Y-33348400D03*
X130530000Y-33348400D03*
X130530000Y-31348400D03*
X130530000Y-29348400D03*
X116290000Y-33260000D03*
X116290000Y-35800000D03*
D28*
X146340000Y-47635000D03*
X146340000Y-49285000D03*
D37*
X108440000Y-51680000D03*
X109400000Y-51680000D03*
D40*
X44845000Y-43335000D03*
X44845000Y-27105000D03*
X38495000Y-43335000D03*
X38495000Y-27105000D03*
X51195000Y-43335000D03*
X51195000Y-27105000D03*
M02*
