%TF.GenerationSoftware,KiCad,Pcbnew,8.0.2*%
%TF.CreationDate,2024-10-21T17:53:15+02:00*%
%TF.ProjectId,teensyAudioMidi,7465656e-7379-4417-9564-696f4d696469,rev?*%
%TF.SameCoordinates,Original*%
%TF.FileFunction,Legend,Top*%
%TF.FilePolarity,Positive*%
%FSLAX46Y46*%
G04 Gerber Fmt 4.6, Leading zero omitted, Abs format (unit mm)*
G04 Created by KiCad (PCBNEW 8.0.2) date 2024-10-21 17:53:15*
%MOMM*%
%LPD*%
G01*
G04 APERTURE LIST*
G04 Aperture macros list*
%AMRoundRect*
0 Rectangle with rounded corners*
0 $1 Rounding radius*
0 $2 $3 $4 $5 $6 $7 $8 $9 X,Y pos of 4 corners*
0 Add a 4 corners polygon primitive as box body*
4,1,4,$2,$3,$4,$5,$6,$7,$8,$9,$2,$3,0*
0 Add four circle primitives for the rounded corners*
1,1,$1+$1,$2,$3*
1,1,$1+$1,$4,$5*
1,1,$1+$1,$6,$7*
1,1,$1+$1,$8,$9*
0 Add four rect primitives between the rounded corners*
20,1,$1+$1,$2,$3,$4,$5,0*
20,1,$1+$1,$4,$5,$6,$7,0*
20,1,$1+$1,$6,$7,$8,$9,0*
20,1,$1+$1,$8,$9,$2,$3,0*%
%AMRotRect*
0 Rectangle, with rotation*
0 The origin of the aperture is its center*
0 $1 length*
0 $2 width*
0 $3 Rotation angle, in degrees counterclockwise*
0 Add horizontal line*
21,1,$1,$2,0,0,$3*%
G04 Aperture macros list end*
%ADD10C,0.100000*%
%ADD11C,0.150000*%
%ADD12C,0.175000*%
%ADD13C,0.120000*%
%ADD14C,0.152400*%
%ADD15C,0.127000*%
%ADD16C,0.200000*%
%ADD17RoundRect,0.135000X-0.135000X-0.185000X0.135000X-0.185000X0.135000X0.185000X-0.135000X0.185000X0*%
%ADD18RoundRect,0.150000X-0.512500X-0.150000X0.512500X-0.150000X0.512500X0.150000X-0.512500X0.150000X0*%
%ADD19RoundRect,0.200000X0.275000X-0.200000X0.275000X0.200000X-0.275000X0.200000X-0.275000X-0.200000X0*%
%ADD20RoundRect,0.200000X0.200000X0.275000X-0.200000X0.275000X-0.200000X-0.275000X0.200000X-0.275000X0*%
%ADD21RoundRect,0.150000X0.587500X0.150000X-0.587500X0.150000X-0.587500X-0.150000X0.587500X-0.150000X0*%
%ADD22RoundRect,0.250000X0.625000X-0.350000X0.625000X0.350000X-0.625000X0.350000X-0.625000X-0.350000X0*%
%ADD23O,1.750000X1.200000*%
%ADD24RoundRect,0.218750X-0.218750X-0.256250X0.218750X-0.256250X0.218750X0.256250X-0.218750X0.256250X0*%
%ADD25RoundRect,0.225000X-0.375000X0.225000X-0.375000X-0.225000X0.375000X-0.225000X0.375000X0.225000X0*%
%ADD26RoundRect,0.225000X0.250000X-0.225000X0.250000X0.225000X-0.250000X0.225000X-0.250000X-0.225000X0*%
%ADD27RoundRect,0.250000X-0.250000X-0.250000X0.250000X-0.250000X0.250000X0.250000X-0.250000X0.250000X0*%
%ADD28C,1.000000*%
%ADD29RoundRect,0.140000X0.140000X0.170000X-0.140000X0.170000X-0.140000X-0.170000X0.140000X-0.170000X0*%
%ADD30RoundRect,0.200000X-0.200000X-0.275000X0.200000X-0.275000X0.200000X0.275000X-0.200000X0.275000X0*%
%ADD31RoundRect,0.140000X0.170000X-0.140000X0.170000X0.140000X-0.170000X0.140000X-0.170000X-0.140000X0*%
%ADD32RoundRect,0.250000X-0.350000X-0.625000X0.350000X-0.625000X0.350000X0.625000X-0.350000X0.625000X0*%
%ADD33O,1.200000X1.750000*%
%ADD34RoundRect,0.225000X-0.250000X0.225000X-0.250000X-0.225000X0.250000X-0.225000X0.250000X0.225000X0*%
%ADD35RoundRect,0.200000X-0.275000X0.200000X-0.275000X-0.200000X0.275000X-0.200000X0.275000X0.200000X0*%
%ADD36RoundRect,0.225000X0.225000X0.250000X-0.225000X0.250000X-0.225000X-0.250000X0.225000X-0.250000X0*%
%ADD37C,0.650000*%
%ADD38R,1.450000X0.600000*%
%ADD39R,1.450000X0.300000*%
%ADD40O,2.100000X1.000000*%
%ADD41O,1.600000X1.000000*%
%ADD42RoundRect,0.135000X-0.185000X0.135000X-0.185000X-0.135000X0.185000X-0.135000X0.185000X0.135000X0*%
%ADD43RoundRect,0.140000X-0.170000X0.140000X-0.170000X-0.140000X0.170000X-0.140000X0.170000X0.140000X0*%
%ADD44RoundRect,0.140000X-0.140000X-0.170000X0.140000X-0.170000X0.140000X0.170000X-0.140000X0.170000X0*%
%ADD45RoundRect,0.225000X-0.225000X-0.250000X0.225000X-0.250000X0.225000X0.250000X-0.225000X0.250000X0*%
%ADD46R,1.208024X0.466344*%
%ADD47C,3.000000*%
%ADD48C,1.200000*%
%ADD49RoundRect,0.102000X0.750000X1.500000X-0.750000X1.500000X-0.750000X-1.500000X0.750000X-1.500000X0*%
%ADD50RoundRect,0.150000X-0.150000X0.512500X-0.150000X-0.512500X0.150000X-0.512500X0.150000X0.512500X0*%
%ADD51RoundRect,0.135000X0.135000X0.185000X-0.135000X0.185000X-0.135000X-0.185000X0.135000X-0.185000X0*%
%ADD52RoundRect,0.125000X-0.125000X0.125000X-0.125000X-0.125000X0.125000X-0.125000X0.125000X0.125000X0*%
%ADD53RoundRect,0.062500X0.062500X-0.337500X0.062500X0.337500X-0.062500X0.337500X-0.062500X-0.337500X0*%
%ADD54RoundRect,0.062500X0.337500X-0.062500X0.337500X0.062500X-0.337500X0.062500X-0.337500X-0.062500X0*%
%ADD55R,3.600000X3.600000*%
%ADD56R,0.700000X1.400000*%
%ADD57R,0.700000X1.200000*%
%ADD58R,1.200000X0.800000*%
%ADD59R,1.500000X1.900000*%
%ADD60RotRect,0.200000X0.200000X45.000000*%
%ADD61R,0.500000X0.500000*%
%ADD62R,1.000000X1.400000*%
%ADD63R,1.200000X1.200000*%
%ADD64R,1.200000X3.200000*%
%ADD65C,1.500000*%
%ADD66C,1.950000*%
%ADD67R,1.600000X1.600000*%
%ADD68C,1.600000*%
%ADD69R,1.300000X1.300000*%
%ADD70C,1.300000*%
G04 APERTURE END LIST*
D10*
X186277693Y-36330038D02*
X186182455Y-36282419D01*
X186182455Y-36282419D02*
X186039598Y-36282419D01*
X186039598Y-36282419D02*
X185896741Y-36330038D01*
X185896741Y-36330038D02*
X185801503Y-36425276D01*
X185801503Y-36425276D02*
X185753884Y-36520514D01*
X185753884Y-36520514D02*
X185706265Y-36710990D01*
X185706265Y-36710990D02*
X185706265Y-36853847D01*
X185706265Y-36853847D02*
X185753884Y-37044323D01*
X185753884Y-37044323D02*
X185801503Y-37139561D01*
X185801503Y-37139561D02*
X185896741Y-37234800D01*
X185896741Y-37234800D02*
X186039598Y-37282419D01*
X186039598Y-37282419D02*
X186134836Y-37282419D01*
X186134836Y-37282419D02*
X186277693Y-37234800D01*
X186277693Y-37234800D02*
X186325312Y-37187180D01*
X186325312Y-37187180D02*
X186325312Y-36853847D01*
X186325312Y-36853847D02*
X186134836Y-36853847D01*
X186753884Y-37282419D02*
X186753884Y-36282419D01*
X186753884Y-36282419D02*
X187325312Y-37282419D01*
X187325312Y-37282419D02*
X187325312Y-36282419D01*
X187801503Y-37282419D02*
X187801503Y-36282419D01*
X187801503Y-36282419D02*
X188039598Y-36282419D01*
X188039598Y-36282419D02*
X188182455Y-36330038D01*
X188182455Y-36330038D02*
X188277693Y-36425276D01*
X188277693Y-36425276D02*
X188325312Y-36520514D01*
X188325312Y-36520514D02*
X188372931Y-36710990D01*
X188372931Y-36710990D02*
X188372931Y-36853847D01*
X188372931Y-36853847D02*
X188325312Y-37044323D01*
X188325312Y-37044323D02*
X188277693Y-37139561D01*
X188277693Y-37139561D02*
X188182455Y-37234800D01*
X188182455Y-37234800D02*
X188039598Y-37282419D01*
X188039598Y-37282419D02*
X187801503Y-37282419D01*
X186177217Y-28668609D02*
X186320074Y-28716228D01*
X186320074Y-28716228D02*
X186367693Y-28763847D01*
X186367693Y-28763847D02*
X186415312Y-28859085D01*
X186415312Y-28859085D02*
X186415312Y-29001942D01*
X186415312Y-29001942D02*
X186367693Y-29097180D01*
X186367693Y-29097180D02*
X186320074Y-29144800D01*
X186320074Y-29144800D02*
X186224836Y-29192419D01*
X186224836Y-29192419D02*
X185843884Y-29192419D01*
X185843884Y-29192419D02*
X185843884Y-28192419D01*
X185843884Y-28192419D02*
X186177217Y-28192419D01*
X186177217Y-28192419D02*
X186272455Y-28240038D01*
X186272455Y-28240038D02*
X186320074Y-28287657D01*
X186320074Y-28287657D02*
X186367693Y-28382895D01*
X186367693Y-28382895D02*
X186367693Y-28478133D01*
X186367693Y-28478133D02*
X186320074Y-28573371D01*
X186320074Y-28573371D02*
X186272455Y-28620990D01*
X186272455Y-28620990D02*
X186177217Y-28668609D01*
X186177217Y-28668609D02*
X185843884Y-28668609D01*
X186796265Y-28906704D02*
X187272455Y-28906704D01*
X186701027Y-29192419D02*
X187034360Y-28192419D01*
X187034360Y-28192419D02*
X187367693Y-29192419D01*
X187558170Y-28192419D02*
X188129598Y-28192419D01*
X187843884Y-29192419D02*
X187843884Y-28192419D01*
X188462932Y-28811466D02*
X189224837Y-28811466D01*
X188843884Y-29192419D02*
X188843884Y-28430514D01*
D11*
X176854642Y-37862319D02*
X176521309Y-37386128D01*
X176283214Y-37862319D02*
X176283214Y-36862319D01*
X176283214Y-36862319D02*
X176664166Y-36862319D01*
X176664166Y-36862319D02*
X176759404Y-36909938D01*
X176759404Y-36909938D02*
X176807023Y-36957557D01*
X176807023Y-36957557D02*
X176854642Y-37052795D01*
X176854642Y-37052795D02*
X176854642Y-37195652D01*
X176854642Y-37195652D02*
X176807023Y-37290890D01*
X176807023Y-37290890D02*
X176759404Y-37338509D01*
X176759404Y-37338509D02*
X176664166Y-37386128D01*
X176664166Y-37386128D02*
X176283214Y-37386128D01*
X177807023Y-37862319D02*
X177235595Y-37862319D01*
X177521309Y-37862319D02*
X177521309Y-36862319D01*
X177521309Y-36862319D02*
X177426071Y-37005176D01*
X177426071Y-37005176D02*
X177330833Y-37100414D01*
X177330833Y-37100414D02*
X177235595Y-37148033D01*
X178140357Y-36862319D02*
X178807023Y-36862319D01*
X178807023Y-36862319D02*
X178378452Y-37862319D01*
X176988095Y-27084819D02*
X176988095Y-27894342D01*
X176988095Y-27894342D02*
X177035714Y-27989580D01*
X177035714Y-27989580D02*
X177083333Y-28037200D01*
X177083333Y-28037200D02*
X177178571Y-28084819D01*
X177178571Y-28084819D02*
X177369047Y-28084819D01*
X177369047Y-28084819D02*
X177464285Y-28037200D01*
X177464285Y-28037200D02*
X177511904Y-27989580D01*
X177511904Y-27989580D02*
X177559523Y-27894342D01*
X177559523Y-27894342D02*
X177559523Y-27084819D01*
X178178571Y-27513390D02*
X178083333Y-27465771D01*
X178083333Y-27465771D02*
X178035714Y-27418152D01*
X178035714Y-27418152D02*
X177988095Y-27322914D01*
X177988095Y-27322914D02*
X177988095Y-27275295D01*
X177988095Y-27275295D02*
X178035714Y-27180057D01*
X178035714Y-27180057D02*
X178083333Y-27132438D01*
X178083333Y-27132438D02*
X178178571Y-27084819D01*
X178178571Y-27084819D02*
X178369047Y-27084819D01*
X178369047Y-27084819D02*
X178464285Y-27132438D01*
X178464285Y-27132438D02*
X178511904Y-27180057D01*
X178511904Y-27180057D02*
X178559523Y-27275295D01*
X178559523Y-27275295D02*
X178559523Y-27322914D01*
X178559523Y-27322914D02*
X178511904Y-27418152D01*
X178511904Y-27418152D02*
X178464285Y-27465771D01*
X178464285Y-27465771D02*
X178369047Y-27513390D01*
X178369047Y-27513390D02*
X178178571Y-27513390D01*
X178178571Y-27513390D02*
X178083333Y-27561009D01*
X178083333Y-27561009D02*
X178035714Y-27608628D01*
X178035714Y-27608628D02*
X177988095Y-27703866D01*
X177988095Y-27703866D02*
X177988095Y-27894342D01*
X177988095Y-27894342D02*
X178035714Y-27989580D01*
X178035714Y-27989580D02*
X178083333Y-28037200D01*
X178083333Y-28037200D02*
X178178571Y-28084819D01*
X178178571Y-28084819D02*
X178369047Y-28084819D01*
X178369047Y-28084819D02*
X178464285Y-28037200D01*
X178464285Y-28037200D02*
X178511904Y-27989580D01*
X178511904Y-27989580D02*
X178559523Y-27894342D01*
X178559523Y-27894342D02*
X178559523Y-27703866D01*
X178559523Y-27703866D02*
X178511904Y-27608628D01*
X178511904Y-27608628D02*
X178464285Y-27561009D01*
X178464285Y-27561009D02*
X178369047Y-27513390D01*
X183194819Y-29752857D02*
X182718628Y-30086190D01*
X183194819Y-30324285D02*
X182194819Y-30324285D01*
X182194819Y-30324285D02*
X182194819Y-29943333D01*
X182194819Y-29943333D02*
X182242438Y-29848095D01*
X182242438Y-29848095D02*
X182290057Y-29800476D01*
X182290057Y-29800476D02*
X182385295Y-29752857D01*
X182385295Y-29752857D02*
X182528152Y-29752857D01*
X182528152Y-29752857D02*
X182623390Y-29800476D01*
X182623390Y-29800476D02*
X182671009Y-29848095D01*
X182671009Y-29848095D02*
X182718628Y-29943333D01*
X182718628Y-29943333D02*
X182718628Y-30324285D01*
X183194819Y-28800476D02*
X183194819Y-29371904D01*
X183194819Y-29086190D02*
X182194819Y-29086190D01*
X182194819Y-29086190D02*
X182337676Y-29181428D01*
X182337676Y-29181428D02*
X182432914Y-29276666D01*
X182432914Y-29276666D02*
X182480533Y-29371904D01*
X182623390Y-28229047D02*
X182575771Y-28324285D01*
X182575771Y-28324285D02*
X182528152Y-28371904D01*
X182528152Y-28371904D02*
X182432914Y-28419523D01*
X182432914Y-28419523D02*
X182385295Y-28419523D01*
X182385295Y-28419523D02*
X182290057Y-28371904D01*
X182290057Y-28371904D02*
X182242438Y-28324285D01*
X182242438Y-28324285D02*
X182194819Y-28229047D01*
X182194819Y-28229047D02*
X182194819Y-28038571D01*
X182194819Y-28038571D02*
X182242438Y-27943333D01*
X182242438Y-27943333D02*
X182290057Y-27895714D01*
X182290057Y-27895714D02*
X182385295Y-27848095D01*
X182385295Y-27848095D02*
X182432914Y-27848095D01*
X182432914Y-27848095D02*
X182528152Y-27895714D01*
X182528152Y-27895714D02*
X182575771Y-27943333D01*
X182575771Y-27943333D02*
X182623390Y-28038571D01*
X182623390Y-28038571D02*
X182623390Y-28229047D01*
X182623390Y-28229047D02*
X182671009Y-28324285D01*
X182671009Y-28324285D02*
X182718628Y-28371904D01*
X182718628Y-28371904D02*
X182813866Y-28419523D01*
X182813866Y-28419523D02*
X183004342Y-28419523D01*
X183004342Y-28419523D02*
X183099580Y-28371904D01*
X183099580Y-28371904D02*
X183147200Y-28324285D01*
X183147200Y-28324285D02*
X183194819Y-28229047D01*
X183194819Y-28229047D02*
X183194819Y-28038571D01*
X183194819Y-28038571D02*
X183147200Y-27943333D01*
X183147200Y-27943333D02*
X183099580Y-27895714D01*
X183099580Y-27895714D02*
X183004342Y-27848095D01*
X183004342Y-27848095D02*
X182813866Y-27848095D01*
X182813866Y-27848095D02*
X182718628Y-27895714D01*
X182718628Y-27895714D02*
X182671009Y-27943333D01*
X182671009Y-27943333D02*
X182623390Y-28038571D01*
X176617142Y-26884819D02*
X176283809Y-26408628D01*
X176045714Y-26884819D02*
X176045714Y-25884819D01*
X176045714Y-25884819D02*
X176426666Y-25884819D01*
X176426666Y-25884819D02*
X176521904Y-25932438D01*
X176521904Y-25932438D02*
X176569523Y-25980057D01*
X176569523Y-25980057D02*
X176617142Y-26075295D01*
X176617142Y-26075295D02*
X176617142Y-26218152D01*
X176617142Y-26218152D02*
X176569523Y-26313390D01*
X176569523Y-26313390D02*
X176521904Y-26361009D01*
X176521904Y-26361009D02*
X176426666Y-26408628D01*
X176426666Y-26408628D02*
X176045714Y-26408628D01*
X177569523Y-26884819D02*
X176998095Y-26884819D01*
X177283809Y-26884819D02*
X177283809Y-25884819D01*
X177283809Y-25884819D02*
X177188571Y-26027676D01*
X177188571Y-26027676D02*
X177093333Y-26122914D01*
X177093333Y-26122914D02*
X176998095Y-26170533D01*
X178426666Y-26218152D02*
X178426666Y-26884819D01*
X178188571Y-25837200D02*
X177950476Y-26551485D01*
X177950476Y-26551485D02*
X178569523Y-26551485D01*
X176414761Y-35160057D02*
X176319523Y-35112438D01*
X176319523Y-35112438D02*
X176224285Y-35017200D01*
X176224285Y-35017200D02*
X176081428Y-34874342D01*
X176081428Y-34874342D02*
X175986190Y-34826723D01*
X175986190Y-34826723D02*
X175890952Y-34826723D01*
X175938571Y-35064819D02*
X175843333Y-35017200D01*
X175843333Y-35017200D02*
X175748095Y-34921961D01*
X175748095Y-34921961D02*
X175700476Y-34731485D01*
X175700476Y-34731485D02*
X175700476Y-34398152D01*
X175700476Y-34398152D02*
X175748095Y-34207676D01*
X175748095Y-34207676D02*
X175843333Y-34112438D01*
X175843333Y-34112438D02*
X175938571Y-34064819D01*
X175938571Y-34064819D02*
X176129047Y-34064819D01*
X176129047Y-34064819D02*
X176224285Y-34112438D01*
X176224285Y-34112438D02*
X176319523Y-34207676D01*
X176319523Y-34207676D02*
X176367142Y-34398152D01*
X176367142Y-34398152D02*
X176367142Y-34731485D01*
X176367142Y-34731485D02*
X176319523Y-34921961D01*
X176319523Y-34921961D02*
X176224285Y-35017200D01*
X176224285Y-35017200D02*
X176129047Y-35064819D01*
X176129047Y-35064819D02*
X175938571Y-35064819D01*
X177319523Y-35064819D02*
X176748095Y-35064819D01*
X177033809Y-35064819D02*
X177033809Y-34064819D01*
X177033809Y-34064819D02*
X176938571Y-34207676D01*
X176938571Y-34207676D02*
X176843333Y-34302914D01*
X176843333Y-34302914D02*
X176748095Y-34350533D01*
X183194819Y-34119523D02*
X183909104Y-34119523D01*
X183909104Y-34119523D02*
X184051961Y-34167142D01*
X184051961Y-34167142D02*
X184147200Y-34262380D01*
X184147200Y-34262380D02*
X184194819Y-34405237D01*
X184194819Y-34405237D02*
X184194819Y-34500475D01*
X184194819Y-33119523D02*
X184194819Y-33690951D01*
X184194819Y-33405237D02*
X183194819Y-33405237D01*
X183194819Y-33405237D02*
X183337676Y-33500475D01*
X183337676Y-33500475D02*
X183432914Y-33595713D01*
X183432914Y-33595713D02*
X183480533Y-33690951D01*
X183194819Y-32262380D02*
X183194819Y-32452856D01*
X183194819Y-32452856D02*
X183242438Y-32548094D01*
X183242438Y-32548094D02*
X183290057Y-32595713D01*
X183290057Y-32595713D02*
X183432914Y-32690951D01*
X183432914Y-32690951D02*
X183623390Y-32738570D01*
X183623390Y-32738570D02*
X184004342Y-32738570D01*
X184004342Y-32738570D02*
X184099580Y-32690951D01*
X184099580Y-32690951D02*
X184147200Y-32643332D01*
X184147200Y-32643332D02*
X184194819Y-32548094D01*
X184194819Y-32548094D02*
X184194819Y-32357618D01*
X184194819Y-32357618D02*
X184147200Y-32262380D01*
X184147200Y-32262380D02*
X184099580Y-32214761D01*
X184099580Y-32214761D02*
X184004342Y-32167142D01*
X184004342Y-32167142D02*
X183766247Y-32167142D01*
X183766247Y-32167142D02*
X183671009Y-32214761D01*
X183671009Y-32214761D02*
X183623390Y-32262380D01*
X183623390Y-32262380D02*
X183575771Y-32357618D01*
X183575771Y-32357618D02*
X183575771Y-32548094D01*
X183575771Y-32548094D02*
X183623390Y-32643332D01*
X183623390Y-32643332D02*
X183671009Y-32690951D01*
X183671009Y-32690951D02*
X183766247Y-32738570D01*
X185211905Y-26934819D02*
X185211905Y-25934819D01*
X185211905Y-25934819D02*
X185450000Y-25934819D01*
X185450000Y-25934819D02*
X185592857Y-25982438D01*
X185592857Y-25982438D02*
X185688095Y-26077676D01*
X185688095Y-26077676D02*
X185735714Y-26172914D01*
X185735714Y-26172914D02*
X185783333Y-26363390D01*
X185783333Y-26363390D02*
X185783333Y-26506247D01*
X185783333Y-26506247D02*
X185735714Y-26696723D01*
X185735714Y-26696723D02*
X185688095Y-26791961D01*
X185688095Y-26791961D02*
X185592857Y-26887200D01*
X185592857Y-26887200D02*
X185450000Y-26934819D01*
X185450000Y-26934819D02*
X185211905Y-26934819D01*
X186116667Y-25934819D02*
X186735714Y-25934819D01*
X186735714Y-25934819D02*
X186402381Y-26315771D01*
X186402381Y-26315771D02*
X186545238Y-26315771D01*
X186545238Y-26315771D02*
X186640476Y-26363390D01*
X186640476Y-26363390D02*
X186688095Y-26411009D01*
X186688095Y-26411009D02*
X186735714Y-26506247D01*
X186735714Y-26506247D02*
X186735714Y-26744342D01*
X186735714Y-26744342D02*
X186688095Y-26839580D01*
X186688095Y-26839580D02*
X186640476Y-26887200D01*
X186640476Y-26887200D02*
X186545238Y-26934819D01*
X186545238Y-26934819D02*
X186259524Y-26934819D01*
X186259524Y-26934819D02*
X186164286Y-26887200D01*
X186164286Y-26887200D02*
X186116667Y-26839580D01*
X181734819Y-37738094D02*
X180734819Y-37738094D01*
X180734819Y-37738094D02*
X180734819Y-37499999D01*
X180734819Y-37499999D02*
X180782438Y-37357142D01*
X180782438Y-37357142D02*
X180877676Y-37261904D01*
X180877676Y-37261904D02*
X180972914Y-37214285D01*
X180972914Y-37214285D02*
X181163390Y-37166666D01*
X181163390Y-37166666D02*
X181306247Y-37166666D01*
X181306247Y-37166666D02*
X181496723Y-37214285D01*
X181496723Y-37214285D02*
X181591961Y-37261904D01*
X181591961Y-37261904D02*
X181687200Y-37357142D01*
X181687200Y-37357142D02*
X181734819Y-37499999D01*
X181734819Y-37499999D02*
X181734819Y-37738094D01*
X180830057Y-36785713D02*
X180782438Y-36738094D01*
X180782438Y-36738094D02*
X180734819Y-36642856D01*
X180734819Y-36642856D02*
X180734819Y-36404761D01*
X180734819Y-36404761D02*
X180782438Y-36309523D01*
X180782438Y-36309523D02*
X180830057Y-36261904D01*
X180830057Y-36261904D02*
X180925295Y-36214285D01*
X180925295Y-36214285D02*
X181020533Y-36214285D01*
X181020533Y-36214285D02*
X181163390Y-36261904D01*
X181163390Y-36261904D02*
X181734819Y-36833332D01*
X181734819Y-36833332D02*
X181734819Y-36214285D01*
X177389580Y-32246666D02*
X177437200Y-32294285D01*
X177437200Y-32294285D02*
X177484819Y-32437142D01*
X177484819Y-32437142D02*
X177484819Y-32532380D01*
X177484819Y-32532380D02*
X177437200Y-32675237D01*
X177437200Y-32675237D02*
X177341961Y-32770475D01*
X177341961Y-32770475D02*
X177246723Y-32818094D01*
X177246723Y-32818094D02*
X177056247Y-32865713D01*
X177056247Y-32865713D02*
X176913390Y-32865713D01*
X176913390Y-32865713D02*
X176722914Y-32818094D01*
X176722914Y-32818094D02*
X176627676Y-32770475D01*
X176627676Y-32770475D02*
X176532438Y-32675237D01*
X176532438Y-32675237D02*
X176484819Y-32532380D01*
X176484819Y-32532380D02*
X176484819Y-32437142D01*
X176484819Y-32437142D02*
X176532438Y-32294285D01*
X176532438Y-32294285D02*
X176580057Y-32246666D01*
X176484819Y-31341904D02*
X176484819Y-31818094D01*
X176484819Y-31818094D02*
X176961009Y-31865713D01*
X176961009Y-31865713D02*
X176913390Y-31818094D01*
X176913390Y-31818094D02*
X176865771Y-31722856D01*
X176865771Y-31722856D02*
X176865771Y-31484761D01*
X176865771Y-31484761D02*
X176913390Y-31389523D01*
X176913390Y-31389523D02*
X176961009Y-31341904D01*
X176961009Y-31341904D02*
X177056247Y-31294285D01*
X177056247Y-31294285D02*
X177294342Y-31294285D01*
X177294342Y-31294285D02*
X177389580Y-31341904D01*
X177389580Y-31341904D02*
X177437200Y-31389523D01*
X177437200Y-31389523D02*
X177484819Y-31484761D01*
X177484819Y-31484761D02*
X177484819Y-31722856D01*
X177484819Y-31722856D02*
X177437200Y-31818094D01*
X177437200Y-31818094D02*
X177389580Y-31865713D01*
X103283333Y-68246033D02*
X103283333Y-67546033D01*
X103283333Y-67546033D02*
X103516667Y-68046033D01*
X103516667Y-68046033D02*
X103750000Y-67546033D01*
X103750000Y-67546033D02*
X103750000Y-68246033D01*
X104083333Y-68246033D02*
X104083333Y-67546033D01*
X104483333Y-68246033D02*
X104183333Y-67846033D01*
X104483333Y-67546033D02*
X104083333Y-67946033D01*
X105150000Y-68246033D02*
X104750000Y-68246033D01*
X104950000Y-68246033D02*
X104950000Y-67546033D01*
X104950000Y-67546033D02*
X104883333Y-67646033D01*
X104883333Y-67646033D02*
X104816667Y-67712700D01*
X104816667Y-67712700D02*
X104750000Y-67746033D01*
X103430833Y-50079366D02*
X103397500Y-50112700D01*
X103397500Y-50112700D02*
X103297500Y-50146033D01*
X103297500Y-50146033D02*
X103230833Y-50146033D01*
X103230833Y-50146033D02*
X103130833Y-50112700D01*
X103130833Y-50112700D02*
X103064167Y-50046033D01*
X103064167Y-50046033D02*
X103030833Y-49979366D01*
X103030833Y-49979366D02*
X102997500Y-49846033D01*
X102997500Y-49846033D02*
X102997500Y-49746033D01*
X102997500Y-49746033D02*
X103030833Y-49612700D01*
X103030833Y-49612700D02*
X103064167Y-49546033D01*
X103064167Y-49546033D02*
X103130833Y-49479366D01*
X103130833Y-49479366D02*
X103230833Y-49446033D01*
X103230833Y-49446033D02*
X103297500Y-49446033D01*
X103297500Y-49446033D02*
X103397500Y-49479366D01*
X103397500Y-49479366D02*
X103430833Y-49512700D01*
X103830833Y-49746033D02*
X103764167Y-49712700D01*
X103764167Y-49712700D02*
X103730833Y-49679366D01*
X103730833Y-49679366D02*
X103697500Y-49612700D01*
X103697500Y-49612700D02*
X103697500Y-49579366D01*
X103697500Y-49579366D02*
X103730833Y-49512700D01*
X103730833Y-49512700D02*
X103764167Y-49479366D01*
X103764167Y-49479366D02*
X103830833Y-49446033D01*
X103830833Y-49446033D02*
X103964167Y-49446033D01*
X103964167Y-49446033D02*
X104030833Y-49479366D01*
X104030833Y-49479366D02*
X104064167Y-49512700D01*
X104064167Y-49512700D02*
X104097500Y-49579366D01*
X104097500Y-49579366D02*
X104097500Y-49612700D01*
X104097500Y-49612700D02*
X104064167Y-49679366D01*
X104064167Y-49679366D02*
X104030833Y-49712700D01*
X104030833Y-49712700D02*
X103964167Y-49746033D01*
X103964167Y-49746033D02*
X103830833Y-49746033D01*
X103830833Y-49746033D02*
X103764167Y-49779366D01*
X103764167Y-49779366D02*
X103730833Y-49812700D01*
X103730833Y-49812700D02*
X103697500Y-49879366D01*
X103697500Y-49879366D02*
X103697500Y-50012700D01*
X103697500Y-50012700D02*
X103730833Y-50079366D01*
X103730833Y-50079366D02*
X103764167Y-50112700D01*
X103764167Y-50112700D02*
X103830833Y-50146033D01*
X103830833Y-50146033D02*
X103964167Y-50146033D01*
X103964167Y-50146033D02*
X104030833Y-50112700D01*
X104030833Y-50112700D02*
X104064167Y-50079366D01*
X104064167Y-50079366D02*
X104097500Y-50012700D01*
X104097500Y-50012700D02*
X104097500Y-49879366D01*
X104097500Y-49879366D02*
X104064167Y-49812700D01*
X104064167Y-49812700D02*
X104030833Y-49779366D01*
X104030833Y-49779366D02*
X103964167Y-49746033D01*
X103759999Y-65076033D02*
X103526666Y-64742700D01*
X103359999Y-65076033D02*
X103359999Y-64376033D01*
X103359999Y-64376033D02*
X103626666Y-64376033D01*
X103626666Y-64376033D02*
X103693333Y-64409366D01*
X103693333Y-64409366D02*
X103726666Y-64442700D01*
X103726666Y-64442700D02*
X103759999Y-64509366D01*
X103759999Y-64509366D02*
X103759999Y-64609366D01*
X103759999Y-64609366D02*
X103726666Y-64676033D01*
X103726666Y-64676033D02*
X103693333Y-64709366D01*
X103693333Y-64709366D02*
X103626666Y-64742700D01*
X103626666Y-64742700D02*
X103359999Y-64742700D01*
X104426666Y-65076033D02*
X104026666Y-65076033D01*
X104226666Y-65076033D02*
X104226666Y-64376033D01*
X104226666Y-64376033D02*
X104159999Y-64476033D01*
X104159999Y-64476033D02*
X104093333Y-64542700D01*
X104093333Y-64542700D02*
X104026666Y-64576033D01*
X105093333Y-65076033D02*
X104693333Y-65076033D01*
X104893333Y-65076033D02*
X104893333Y-64376033D01*
X104893333Y-64376033D02*
X104826666Y-64476033D01*
X104826666Y-64476033D02*
X104760000Y-64542700D01*
X104760000Y-64542700D02*
X104693333Y-64576033D01*
X94654366Y-37522500D02*
X94687700Y-37555833D01*
X94687700Y-37555833D02*
X94721033Y-37655833D01*
X94721033Y-37655833D02*
X94721033Y-37722500D01*
X94721033Y-37722500D02*
X94687700Y-37822500D01*
X94687700Y-37822500D02*
X94621033Y-37889167D01*
X94621033Y-37889167D02*
X94554366Y-37922500D01*
X94554366Y-37922500D02*
X94421033Y-37955833D01*
X94421033Y-37955833D02*
X94321033Y-37955833D01*
X94321033Y-37955833D02*
X94187700Y-37922500D01*
X94187700Y-37922500D02*
X94121033Y-37889167D01*
X94121033Y-37889167D02*
X94054366Y-37822500D01*
X94054366Y-37822500D02*
X94021033Y-37722500D01*
X94021033Y-37722500D02*
X94021033Y-37655833D01*
X94021033Y-37655833D02*
X94054366Y-37555833D01*
X94054366Y-37555833D02*
X94087700Y-37522500D01*
X94087700Y-37255833D02*
X94054366Y-37222500D01*
X94054366Y-37222500D02*
X94021033Y-37155833D01*
X94021033Y-37155833D02*
X94021033Y-36989167D01*
X94021033Y-36989167D02*
X94054366Y-36922500D01*
X94054366Y-36922500D02*
X94087700Y-36889167D01*
X94087700Y-36889167D02*
X94154366Y-36855833D01*
X94154366Y-36855833D02*
X94221033Y-36855833D01*
X94221033Y-36855833D02*
X94321033Y-36889167D01*
X94321033Y-36889167D02*
X94721033Y-37289167D01*
X94721033Y-37289167D02*
X94721033Y-36855833D01*
X94021033Y-36222500D02*
X94021033Y-36555833D01*
X94021033Y-36555833D02*
X94354366Y-36589166D01*
X94354366Y-36589166D02*
X94321033Y-36555833D01*
X94321033Y-36555833D02*
X94287700Y-36489166D01*
X94287700Y-36489166D02*
X94287700Y-36322500D01*
X94287700Y-36322500D02*
X94321033Y-36255833D01*
X94321033Y-36255833D02*
X94354366Y-36222500D01*
X94354366Y-36222500D02*
X94421033Y-36189166D01*
X94421033Y-36189166D02*
X94587700Y-36189166D01*
X94587700Y-36189166D02*
X94654366Y-36222500D01*
X94654366Y-36222500D02*
X94687700Y-36255833D01*
X94687700Y-36255833D02*
X94721033Y-36322500D01*
X94721033Y-36322500D02*
X94721033Y-36489166D01*
X94721033Y-36489166D02*
X94687700Y-36555833D01*
X94687700Y-36555833D02*
X94654366Y-36589166D01*
X99189999Y-43806033D02*
X98956666Y-43472700D01*
X98789999Y-43806033D02*
X98789999Y-43106033D01*
X98789999Y-43106033D02*
X99056666Y-43106033D01*
X99056666Y-43106033D02*
X99123333Y-43139366D01*
X99123333Y-43139366D02*
X99156666Y-43172700D01*
X99156666Y-43172700D02*
X99189999Y-43239366D01*
X99189999Y-43239366D02*
X99189999Y-43339366D01*
X99189999Y-43339366D02*
X99156666Y-43406033D01*
X99156666Y-43406033D02*
X99123333Y-43439366D01*
X99123333Y-43439366D02*
X99056666Y-43472700D01*
X99056666Y-43472700D02*
X98789999Y-43472700D01*
X99856666Y-43806033D02*
X99456666Y-43806033D01*
X99656666Y-43806033D02*
X99656666Y-43106033D01*
X99656666Y-43106033D02*
X99589999Y-43206033D01*
X99589999Y-43206033D02*
X99523333Y-43272700D01*
X99523333Y-43272700D02*
X99456666Y-43306033D01*
X100123333Y-43172700D02*
X100156666Y-43139366D01*
X100156666Y-43139366D02*
X100223333Y-43106033D01*
X100223333Y-43106033D02*
X100390000Y-43106033D01*
X100390000Y-43106033D02*
X100456666Y-43139366D01*
X100456666Y-43139366D02*
X100490000Y-43172700D01*
X100490000Y-43172700D02*
X100523333Y-43239366D01*
X100523333Y-43239366D02*
X100523333Y-43306033D01*
X100523333Y-43306033D02*
X100490000Y-43406033D01*
X100490000Y-43406033D02*
X100090000Y-43806033D01*
X100090000Y-43806033D02*
X100523333Y-43806033D01*
X167846667Y-45466033D02*
X167846667Y-45966033D01*
X167846667Y-45966033D02*
X167813334Y-46066033D01*
X167813334Y-46066033D02*
X167746667Y-46132700D01*
X167746667Y-46132700D02*
X167646667Y-46166033D01*
X167646667Y-46166033D02*
X167580001Y-46166033D01*
X168546667Y-46166033D02*
X168146667Y-46166033D01*
X168346667Y-46166033D02*
X168346667Y-45466033D01*
X168346667Y-45466033D02*
X168280000Y-45566033D01*
X168280000Y-45566033D02*
X168213334Y-45632700D01*
X168213334Y-45632700D02*
X168146667Y-45666033D01*
X169180001Y-45466033D02*
X168846667Y-45466033D01*
X168846667Y-45466033D02*
X168813334Y-45799366D01*
X168813334Y-45799366D02*
X168846667Y-45766033D01*
X168846667Y-45766033D02*
X168913334Y-45732700D01*
X168913334Y-45732700D02*
X169080001Y-45732700D01*
X169080001Y-45732700D02*
X169146667Y-45766033D01*
X169146667Y-45766033D02*
X169180001Y-45799366D01*
X169180001Y-45799366D02*
X169213334Y-45866033D01*
X169213334Y-45866033D02*
X169213334Y-46032700D01*
X169213334Y-46032700D02*
X169180001Y-46099366D01*
X169180001Y-46099366D02*
X169146667Y-46132700D01*
X169146667Y-46132700D02*
X169080001Y-46166033D01*
X169080001Y-46166033D02*
X168913334Y-46166033D01*
X168913334Y-46166033D02*
X168846667Y-46132700D01*
X168846667Y-46132700D02*
X168813334Y-46099366D01*
X63179366Y-69125000D02*
X63212700Y-69158333D01*
X63212700Y-69158333D02*
X63246033Y-69258333D01*
X63246033Y-69258333D02*
X63246033Y-69325000D01*
X63246033Y-69325000D02*
X63212700Y-69425000D01*
X63212700Y-69425000D02*
X63146033Y-69491667D01*
X63146033Y-69491667D02*
X63079366Y-69525000D01*
X63079366Y-69525000D02*
X62946033Y-69558333D01*
X62946033Y-69558333D02*
X62846033Y-69558333D01*
X62846033Y-69558333D02*
X62712700Y-69525000D01*
X62712700Y-69525000D02*
X62646033Y-69491667D01*
X62646033Y-69491667D02*
X62579366Y-69425000D01*
X62579366Y-69425000D02*
X62546033Y-69325000D01*
X62546033Y-69325000D02*
X62546033Y-69258333D01*
X62546033Y-69258333D02*
X62579366Y-69158333D01*
X62579366Y-69158333D02*
X62612700Y-69125000D01*
X63246033Y-68458333D02*
X63246033Y-68858333D01*
X63246033Y-68658333D02*
X62546033Y-68658333D01*
X62546033Y-68658333D02*
X62646033Y-68725000D01*
X62646033Y-68725000D02*
X62712700Y-68791667D01*
X62712700Y-68791667D02*
X62746033Y-68858333D01*
X62546033Y-67858333D02*
X62546033Y-67991666D01*
X62546033Y-67991666D02*
X62579366Y-68058333D01*
X62579366Y-68058333D02*
X62612700Y-68091666D01*
X62612700Y-68091666D02*
X62712700Y-68158333D01*
X62712700Y-68158333D02*
X62846033Y-68191666D01*
X62846033Y-68191666D02*
X63112700Y-68191666D01*
X63112700Y-68191666D02*
X63179366Y-68158333D01*
X63179366Y-68158333D02*
X63212700Y-68125000D01*
X63212700Y-68125000D02*
X63246033Y-68058333D01*
X63246033Y-68058333D02*
X63246033Y-67925000D01*
X63246033Y-67925000D02*
X63212700Y-67858333D01*
X63212700Y-67858333D02*
X63179366Y-67825000D01*
X63179366Y-67825000D02*
X63112700Y-67791666D01*
X63112700Y-67791666D02*
X62946033Y-67791666D01*
X62946033Y-67791666D02*
X62879366Y-67825000D01*
X62879366Y-67825000D02*
X62846033Y-67858333D01*
X62846033Y-67858333D02*
X62812700Y-67925000D01*
X62812700Y-67925000D02*
X62812700Y-68058333D01*
X62812700Y-68058333D02*
X62846033Y-68125000D01*
X62846033Y-68125000D02*
X62879366Y-68158333D01*
X62879366Y-68158333D02*
X62946033Y-68191666D01*
X181246033Y-52536666D02*
X180912700Y-52769999D01*
X181246033Y-52936666D02*
X180546033Y-52936666D01*
X180546033Y-52936666D02*
X180546033Y-52669999D01*
X180546033Y-52669999D02*
X180579366Y-52603333D01*
X180579366Y-52603333D02*
X180612700Y-52569999D01*
X180612700Y-52569999D02*
X180679366Y-52536666D01*
X180679366Y-52536666D02*
X180779366Y-52536666D01*
X180779366Y-52536666D02*
X180846033Y-52569999D01*
X180846033Y-52569999D02*
X180879366Y-52603333D01*
X180879366Y-52603333D02*
X180912700Y-52669999D01*
X180912700Y-52669999D02*
X180912700Y-52936666D01*
X180546033Y-52303333D02*
X180546033Y-51836666D01*
X180546033Y-51836666D02*
X181246033Y-52136666D01*
X72093333Y-69596033D02*
X72093333Y-70096033D01*
X72093333Y-70096033D02*
X72060000Y-70196033D01*
X72060000Y-70196033D02*
X71993333Y-70262700D01*
X71993333Y-70262700D02*
X71893333Y-70296033D01*
X71893333Y-70296033D02*
X71826667Y-70296033D01*
X72793333Y-70296033D02*
X72393333Y-70296033D01*
X72593333Y-70296033D02*
X72593333Y-69596033D01*
X72593333Y-69596033D02*
X72526666Y-69696033D01*
X72526666Y-69696033D02*
X72460000Y-69762700D01*
X72460000Y-69762700D02*
X72393333Y-69796033D01*
X73460000Y-70296033D02*
X73060000Y-70296033D01*
X73260000Y-70296033D02*
X73260000Y-69596033D01*
X73260000Y-69596033D02*
X73193333Y-69696033D01*
X73193333Y-69696033D02*
X73126667Y-69762700D01*
X73126667Y-69762700D02*
X73060000Y-69796033D01*
X118184999Y-48049366D02*
X118151666Y-48082700D01*
X118151666Y-48082700D02*
X118051666Y-48116033D01*
X118051666Y-48116033D02*
X117984999Y-48116033D01*
X117984999Y-48116033D02*
X117884999Y-48082700D01*
X117884999Y-48082700D02*
X117818333Y-48016033D01*
X117818333Y-48016033D02*
X117784999Y-47949366D01*
X117784999Y-47949366D02*
X117751666Y-47816033D01*
X117751666Y-47816033D02*
X117751666Y-47716033D01*
X117751666Y-47716033D02*
X117784999Y-47582700D01*
X117784999Y-47582700D02*
X117818333Y-47516033D01*
X117818333Y-47516033D02*
X117884999Y-47449366D01*
X117884999Y-47449366D02*
X117984999Y-47416033D01*
X117984999Y-47416033D02*
X118051666Y-47416033D01*
X118051666Y-47416033D02*
X118151666Y-47449366D01*
X118151666Y-47449366D02*
X118184999Y-47482700D01*
X118851666Y-48116033D02*
X118451666Y-48116033D01*
X118651666Y-48116033D02*
X118651666Y-47416033D01*
X118651666Y-47416033D02*
X118584999Y-47516033D01*
X118584999Y-47516033D02*
X118518333Y-47582700D01*
X118518333Y-47582700D02*
X118451666Y-47616033D01*
X119251666Y-47716033D02*
X119185000Y-47682700D01*
X119185000Y-47682700D02*
X119151666Y-47649366D01*
X119151666Y-47649366D02*
X119118333Y-47582700D01*
X119118333Y-47582700D02*
X119118333Y-47549366D01*
X119118333Y-47549366D02*
X119151666Y-47482700D01*
X119151666Y-47482700D02*
X119185000Y-47449366D01*
X119185000Y-47449366D02*
X119251666Y-47416033D01*
X119251666Y-47416033D02*
X119385000Y-47416033D01*
X119385000Y-47416033D02*
X119451666Y-47449366D01*
X119451666Y-47449366D02*
X119485000Y-47482700D01*
X119485000Y-47482700D02*
X119518333Y-47549366D01*
X119518333Y-47549366D02*
X119518333Y-47582700D01*
X119518333Y-47582700D02*
X119485000Y-47649366D01*
X119485000Y-47649366D02*
X119451666Y-47682700D01*
X119451666Y-47682700D02*
X119385000Y-47716033D01*
X119385000Y-47716033D02*
X119251666Y-47716033D01*
X119251666Y-47716033D02*
X119185000Y-47749366D01*
X119185000Y-47749366D02*
X119151666Y-47782700D01*
X119151666Y-47782700D02*
X119118333Y-47849366D01*
X119118333Y-47849366D02*
X119118333Y-47982700D01*
X119118333Y-47982700D02*
X119151666Y-48049366D01*
X119151666Y-48049366D02*
X119185000Y-48082700D01*
X119185000Y-48082700D02*
X119251666Y-48116033D01*
X119251666Y-48116033D02*
X119385000Y-48116033D01*
X119385000Y-48116033D02*
X119451666Y-48082700D01*
X119451666Y-48082700D02*
X119485000Y-48049366D01*
X119485000Y-48049366D02*
X119518333Y-47982700D01*
X119518333Y-47982700D02*
X119518333Y-47849366D01*
X119518333Y-47849366D02*
X119485000Y-47782700D01*
X119485000Y-47782700D02*
X119451666Y-47749366D01*
X119451666Y-47749366D02*
X119385000Y-47716033D01*
X38866033Y-51283333D02*
X39366033Y-51283333D01*
X39366033Y-51283333D02*
X39466033Y-51316666D01*
X39466033Y-51316666D02*
X39532700Y-51383333D01*
X39532700Y-51383333D02*
X39566033Y-51483333D01*
X39566033Y-51483333D02*
X39566033Y-51550000D01*
X39099366Y-50650000D02*
X39566033Y-50650000D01*
X38832700Y-50816667D02*
X39332700Y-50983333D01*
X39332700Y-50983333D02*
X39332700Y-50550000D01*
X104236033Y-39616666D02*
X103902700Y-39849999D01*
X104236033Y-40016666D02*
X103536033Y-40016666D01*
X103536033Y-40016666D02*
X103536033Y-39749999D01*
X103536033Y-39749999D02*
X103569366Y-39683333D01*
X103569366Y-39683333D02*
X103602700Y-39649999D01*
X103602700Y-39649999D02*
X103669366Y-39616666D01*
X103669366Y-39616666D02*
X103769366Y-39616666D01*
X103769366Y-39616666D02*
X103836033Y-39649999D01*
X103836033Y-39649999D02*
X103869366Y-39683333D01*
X103869366Y-39683333D02*
X103902700Y-39749999D01*
X103902700Y-39749999D02*
X103902700Y-40016666D01*
X103769366Y-39016666D02*
X104236033Y-39016666D01*
X103502700Y-39183333D02*
X104002700Y-39349999D01*
X104002700Y-39349999D02*
X104002700Y-38916666D01*
X45376667Y-45466033D02*
X45376667Y-45966033D01*
X45376667Y-45966033D02*
X45343334Y-46066033D01*
X45343334Y-46066033D02*
X45276667Y-46132700D01*
X45276667Y-46132700D02*
X45176667Y-46166033D01*
X45176667Y-46166033D02*
X45110001Y-46166033D01*
X46076667Y-46166033D02*
X45676667Y-46166033D01*
X45876667Y-46166033D02*
X45876667Y-45466033D01*
X45876667Y-45466033D02*
X45810000Y-45566033D01*
X45810000Y-45566033D02*
X45743334Y-45632700D01*
X45743334Y-45632700D02*
X45676667Y-45666033D01*
X46343334Y-45532700D02*
X46376667Y-45499366D01*
X46376667Y-45499366D02*
X46443334Y-45466033D01*
X46443334Y-45466033D02*
X46610001Y-45466033D01*
X46610001Y-45466033D02*
X46676667Y-45499366D01*
X46676667Y-45499366D02*
X46710001Y-45532700D01*
X46710001Y-45532700D02*
X46743334Y-45599366D01*
X46743334Y-45599366D02*
X46743334Y-45666033D01*
X46743334Y-45666033D02*
X46710001Y-45766033D01*
X46710001Y-45766033D02*
X46310001Y-46166033D01*
X46310001Y-46166033D02*
X46743334Y-46166033D01*
X99082499Y-45046033D02*
X98849166Y-44712700D01*
X98682499Y-45046033D02*
X98682499Y-44346033D01*
X98682499Y-44346033D02*
X98949166Y-44346033D01*
X98949166Y-44346033D02*
X99015833Y-44379366D01*
X99015833Y-44379366D02*
X99049166Y-44412700D01*
X99049166Y-44412700D02*
X99082499Y-44479366D01*
X99082499Y-44479366D02*
X99082499Y-44579366D01*
X99082499Y-44579366D02*
X99049166Y-44646033D01*
X99049166Y-44646033D02*
X99015833Y-44679366D01*
X99015833Y-44679366D02*
X98949166Y-44712700D01*
X98949166Y-44712700D02*
X98682499Y-44712700D01*
X99749166Y-45046033D02*
X99349166Y-45046033D01*
X99549166Y-45046033D02*
X99549166Y-44346033D01*
X99549166Y-44346033D02*
X99482499Y-44446033D01*
X99482499Y-44446033D02*
X99415833Y-44512700D01*
X99415833Y-44512700D02*
X99349166Y-44546033D01*
X99982500Y-44346033D02*
X100415833Y-44346033D01*
X100415833Y-44346033D02*
X100182500Y-44612700D01*
X100182500Y-44612700D02*
X100282500Y-44612700D01*
X100282500Y-44612700D02*
X100349166Y-44646033D01*
X100349166Y-44646033D02*
X100382500Y-44679366D01*
X100382500Y-44679366D02*
X100415833Y-44746033D01*
X100415833Y-44746033D02*
X100415833Y-44912700D01*
X100415833Y-44912700D02*
X100382500Y-44979366D01*
X100382500Y-44979366D02*
X100349166Y-45012700D01*
X100349166Y-45012700D02*
X100282500Y-45046033D01*
X100282500Y-45046033D02*
X100082500Y-45046033D01*
X100082500Y-45046033D02*
X100015833Y-45012700D01*
X100015833Y-45012700D02*
X99982500Y-44979366D01*
X123439999Y-61479366D02*
X123406666Y-61512700D01*
X123406666Y-61512700D02*
X123306666Y-61546033D01*
X123306666Y-61546033D02*
X123239999Y-61546033D01*
X123239999Y-61546033D02*
X123139999Y-61512700D01*
X123139999Y-61512700D02*
X123073333Y-61446033D01*
X123073333Y-61446033D02*
X123039999Y-61379366D01*
X123039999Y-61379366D02*
X123006666Y-61246033D01*
X123006666Y-61246033D02*
X123006666Y-61146033D01*
X123006666Y-61146033D02*
X123039999Y-61012700D01*
X123039999Y-61012700D02*
X123073333Y-60946033D01*
X123073333Y-60946033D02*
X123139999Y-60879366D01*
X123139999Y-60879366D02*
X123239999Y-60846033D01*
X123239999Y-60846033D02*
X123306666Y-60846033D01*
X123306666Y-60846033D02*
X123406666Y-60879366D01*
X123406666Y-60879366D02*
X123439999Y-60912700D01*
X123706666Y-60912700D02*
X123739999Y-60879366D01*
X123739999Y-60879366D02*
X123806666Y-60846033D01*
X123806666Y-60846033D02*
X123973333Y-60846033D01*
X123973333Y-60846033D02*
X124039999Y-60879366D01*
X124039999Y-60879366D02*
X124073333Y-60912700D01*
X124073333Y-60912700D02*
X124106666Y-60979366D01*
X124106666Y-60979366D02*
X124106666Y-61046033D01*
X124106666Y-61046033D02*
X124073333Y-61146033D01*
X124073333Y-61146033D02*
X123673333Y-61546033D01*
X123673333Y-61546033D02*
X124106666Y-61546033D01*
X124773333Y-61546033D02*
X124373333Y-61546033D01*
X124573333Y-61546033D02*
X124573333Y-60846033D01*
X124573333Y-60846033D02*
X124506666Y-60946033D01*
X124506666Y-60946033D02*
X124440000Y-61012700D01*
X124440000Y-61012700D02*
X124373333Y-61046033D01*
X104301866Y-53536666D02*
X104335200Y-53569999D01*
X104335200Y-53569999D02*
X104368533Y-53669999D01*
X104368533Y-53669999D02*
X104368533Y-53736666D01*
X104368533Y-53736666D02*
X104335200Y-53836666D01*
X104335200Y-53836666D02*
X104268533Y-53903333D01*
X104268533Y-53903333D02*
X104201866Y-53936666D01*
X104201866Y-53936666D02*
X104068533Y-53969999D01*
X104068533Y-53969999D02*
X103968533Y-53969999D01*
X103968533Y-53969999D02*
X103835200Y-53936666D01*
X103835200Y-53936666D02*
X103768533Y-53903333D01*
X103768533Y-53903333D02*
X103701866Y-53836666D01*
X103701866Y-53836666D02*
X103668533Y-53736666D01*
X103668533Y-53736666D02*
X103668533Y-53669999D01*
X103668533Y-53669999D02*
X103701866Y-53569999D01*
X103701866Y-53569999D02*
X103735200Y-53536666D01*
X104368533Y-52869999D02*
X104368533Y-53269999D01*
X104368533Y-53069999D02*
X103668533Y-53069999D01*
X103668533Y-53069999D02*
X103768533Y-53136666D01*
X103768533Y-53136666D02*
X103835200Y-53203333D01*
X103835200Y-53203333D02*
X103868533Y-53269999D01*
X138236666Y-45906033D02*
X138236666Y-46472700D01*
X138236666Y-46472700D02*
X138270000Y-46539366D01*
X138270000Y-46539366D02*
X138303333Y-46572700D01*
X138303333Y-46572700D02*
X138370000Y-46606033D01*
X138370000Y-46606033D02*
X138503333Y-46606033D01*
X138503333Y-46606033D02*
X138570000Y-46572700D01*
X138570000Y-46572700D02*
X138603333Y-46539366D01*
X138603333Y-46539366D02*
X138636666Y-46472700D01*
X138636666Y-46472700D02*
X138636666Y-45906033D01*
X139303333Y-45906033D02*
X138969999Y-45906033D01*
X138969999Y-45906033D02*
X138936666Y-46239366D01*
X138936666Y-46239366D02*
X138969999Y-46206033D01*
X138969999Y-46206033D02*
X139036666Y-46172700D01*
X139036666Y-46172700D02*
X139203333Y-46172700D01*
X139203333Y-46172700D02*
X139269999Y-46206033D01*
X139269999Y-46206033D02*
X139303333Y-46239366D01*
X139303333Y-46239366D02*
X139336666Y-46306033D01*
X139336666Y-46306033D02*
X139336666Y-46472700D01*
X139336666Y-46472700D02*
X139303333Y-46539366D01*
X139303333Y-46539366D02*
X139269999Y-46572700D01*
X139269999Y-46572700D02*
X139203333Y-46606033D01*
X139203333Y-46606033D02*
X139036666Y-46606033D01*
X139036666Y-46606033D02*
X138969999Y-46572700D01*
X138969999Y-46572700D02*
X138936666Y-46539366D01*
X110389999Y-40959366D02*
X110356666Y-40992700D01*
X110356666Y-40992700D02*
X110256666Y-41026033D01*
X110256666Y-41026033D02*
X110189999Y-41026033D01*
X110189999Y-41026033D02*
X110089999Y-40992700D01*
X110089999Y-40992700D02*
X110023333Y-40926033D01*
X110023333Y-40926033D02*
X109989999Y-40859366D01*
X109989999Y-40859366D02*
X109956666Y-40726033D01*
X109956666Y-40726033D02*
X109956666Y-40626033D01*
X109956666Y-40626033D02*
X109989999Y-40492700D01*
X109989999Y-40492700D02*
X110023333Y-40426033D01*
X110023333Y-40426033D02*
X110089999Y-40359366D01*
X110089999Y-40359366D02*
X110189999Y-40326033D01*
X110189999Y-40326033D02*
X110256666Y-40326033D01*
X110256666Y-40326033D02*
X110356666Y-40359366D01*
X110356666Y-40359366D02*
X110389999Y-40392700D01*
X111056666Y-41026033D02*
X110656666Y-41026033D01*
X110856666Y-41026033D02*
X110856666Y-40326033D01*
X110856666Y-40326033D02*
X110789999Y-40426033D01*
X110789999Y-40426033D02*
X110723333Y-40492700D01*
X110723333Y-40492700D02*
X110656666Y-40526033D01*
X111323333Y-40392700D02*
X111356666Y-40359366D01*
X111356666Y-40359366D02*
X111423333Y-40326033D01*
X111423333Y-40326033D02*
X111590000Y-40326033D01*
X111590000Y-40326033D02*
X111656666Y-40359366D01*
X111656666Y-40359366D02*
X111690000Y-40392700D01*
X111690000Y-40392700D02*
X111723333Y-40459366D01*
X111723333Y-40459366D02*
X111723333Y-40526033D01*
X111723333Y-40526033D02*
X111690000Y-40626033D01*
X111690000Y-40626033D02*
X111290000Y-41026033D01*
X111290000Y-41026033D02*
X111723333Y-41026033D01*
X98514166Y-49806033D02*
X98514166Y-50372700D01*
X98514166Y-50372700D02*
X98547500Y-50439366D01*
X98547500Y-50439366D02*
X98580833Y-50472700D01*
X98580833Y-50472700D02*
X98647500Y-50506033D01*
X98647500Y-50506033D02*
X98780833Y-50506033D01*
X98780833Y-50506033D02*
X98847500Y-50472700D01*
X98847500Y-50472700D02*
X98880833Y-50439366D01*
X98880833Y-50439366D02*
X98914166Y-50372700D01*
X98914166Y-50372700D02*
X98914166Y-49806033D01*
X99614166Y-50506033D02*
X99214166Y-50506033D01*
X99414166Y-50506033D02*
X99414166Y-49806033D01*
X99414166Y-49806033D02*
X99347499Y-49906033D01*
X99347499Y-49906033D02*
X99280833Y-49972700D01*
X99280833Y-49972700D02*
X99214166Y-50006033D01*
X118114999Y-46559366D02*
X118081666Y-46592700D01*
X118081666Y-46592700D02*
X117981666Y-46626033D01*
X117981666Y-46626033D02*
X117914999Y-46626033D01*
X117914999Y-46626033D02*
X117814999Y-46592700D01*
X117814999Y-46592700D02*
X117748333Y-46526033D01*
X117748333Y-46526033D02*
X117714999Y-46459366D01*
X117714999Y-46459366D02*
X117681666Y-46326033D01*
X117681666Y-46326033D02*
X117681666Y-46226033D01*
X117681666Y-46226033D02*
X117714999Y-46092700D01*
X117714999Y-46092700D02*
X117748333Y-46026033D01*
X117748333Y-46026033D02*
X117814999Y-45959366D01*
X117814999Y-45959366D02*
X117914999Y-45926033D01*
X117914999Y-45926033D02*
X117981666Y-45926033D01*
X117981666Y-45926033D02*
X118081666Y-45959366D01*
X118081666Y-45959366D02*
X118114999Y-45992700D01*
X118781666Y-46626033D02*
X118381666Y-46626033D01*
X118581666Y-46626033D02*
X118581666Y-45926033D01*
X118581666Y-45926033D02*
X118514999Y-46026033D01*
X118514999Y-46026033D02*
X118448333Y-46092700D01*
X118448333Y-46092700D02*
X118381666Y-46126033D01*
X119115000Y-46626033D02*
X119248333Y-46626033D01*
X119248333Y-46626033D02*
X119315000Y-46592700D01*
X119315000Y-46592700D02*
X119348333Y-46559366D01*
X119348333Y-46559366D02*
X119415000Y-46459366D01*
X119415000Y-46459366D02*
X119448333Y-46326033D01*
X119448333Y-46326033D02*
X119448333Y-46059366D01*
X119448333Y-46059366D02*
X119415000Y-45992700D01*
X119415000Y-45992700D02*
X119381666Y-45959366D01*
X119381666Y-45959366D02*
X119315000Y-45926033D01*
X119315000Y-45926033D02*
X119181666Y-45926033D01*
X119181666Y-45926033D02*
X119115000Y-45959366D01*
X119115000Y-45959366D02*
X119081666Y-45992700D01*
X119081666Y-45992700D02*
X119048333Y-46059366D01*
X119048333Y-46059366D02*
X119048333Y-46226033D01*
X119048333Y-46226033D02*
X119081666Y-46292700D01*
X119081666Y-46292700D02*
X119115000Y-46326033D01*
X119115000Y-46326033D02*
X119181666Y-46359366D01*
X119181666Y-46359366D02*
X119315000Y-46359366D01*
X119315000Y-46359366D02*
X119381666Y-46326033D01*
X119381666Y-46326033D02*
X119415000Y-46292700D01*
X119415000Y-46292700D02*
X119448333Y-46226033D01*
X124299999Y-59889366D02*
X124266666Y-59922700D01*
X124266666Y-59922700D02*
X124166666Y-59956033D01*
X124166666Y-59956033D02*
X124099999Y-59956033D01*
X124099999Y-59956033D02*
X123999999Y-59922700D01*
X123999999Y-59922700D02*
X123933333Y-59856033D01*
X123933333Y-59856033D02*
X123899999Y-59789366D01*
X123899999Y-59789366D02*
X123866666Y-59656033D01*
X123866666Y-59656033D02*
X123866666Y-59556033D01*
X123866666Y-59556033D02*
X123899999Y-59422700D01*
X123899999Y-59422700D02*
X123933333Y-59356033D01*
X123933333Y-59356033D02*
X123999999Y-59289366D01*
X123999999Y-59289366D02*
X124099999Y-59256033D01*
X124099999Y-59256033D02*
X124166666Y-59256033D01*
X124166666Y-59256033D02*
X124266666Y-59289366D01*
X124266666Y-59289366D02*
X124299999Y-59322700D01*
X124566666Y-59322700D02*
X124599999Y-59289366D01*
X124599999Y-59289366D02*
X124666666Y-59256033D01*
X124666666Y-59256033D02*
X124833333Y-59256033D01*
X124833333Y-59256033D02*
X124899999Y-59289366D01*
X124899999Y-59289366D02*
X124933333Y-59322700D01*
X124933333Y-59322700D02*
X124966666Y-59389366D01*
X124966666Y-59389366D02*
X124966666Y-59456033D01*
X124966666Y-59456033D02*
X124933333Y-59556033D01*
X124933333Y-59556033D02*
X124533333Y-59956033D01*
X124533333Y-59956033D02*
X124966666Y-59956033D01*
X125233333Y-59322700D02*
X125266666Y-59289366D01*
X125266666Y-59289366D02*
X125333333Y-59256033D01*
X125333333Y-59256033D02*
X125500000Y-59256033D01*
X125500000Y-59256033D02*
X125566666Y-59289366D01*
X125566666Y-59289366D02*
X125600000Y-59322700D01*
X125600000Y-59322700D02*
X125633333Y-59389366D01*
X125633333Y-59389366D02*
X125633333Y-59456033D01*
X125633333Y-59456033D02*
X125600000Y-59556033D01*
X125600000Y-59556033D02*
X125200000Y-59956033D01*
X125200000Y-59956033D02*
X125633333Y-59956033D01*
X106446033Y-39646666D02*
X106112700Y-39879999D01*
X106446033Y-40046666D02*
X105746033Y-40046666D01*
X105746033Y-40046666D02*
X105746033Y-39779999D01*
X105746033Y-39779999D02*
X105779366Y-39713333D01*
X105779366Y-39713333D02*
X105812700Y-39679999D01*
X105812700Y-39679999D02*
X105879366Y-39646666D01*
X105879366Y-39646666D02*
X105979366Y-39646666D01*
X105979366Y-39646666D02*
X106046033Y-39679999D01*
X106046033Y-39679999D02*
X106079366Y-39713333D01*
X106079366Y-39713333D02*
X106112700Y-39779999D01*
X106112700Y-39779999D02*
X106112700Y-40046666D01*
X105812700Y-39379999D02*
X105779366Y-39346666D01*
X105779366Y-39346666D02*
X105746033Y-39279999D01*
X105746033Y-39279999D02*
X105746033Y-39113333D01*
X105746033Y-39113333D02*
X105779366Y-39046666D01*
X105779366Y-39046666D02*
X105812700Y-39013333D01*
X105812700Y-39013333D02*
X105879366Y-38979999D01*
X105879366Y-38979999D02*
X105946033Y-38979999D01*
X105946033Y-38979999D02*
X106046033Y-39013333D01*
X106046033Y-39013333D02*
X106446033Y-39413333D01*
X106446033Y-39413333D02*
X106446033Y-38979999D01*
X151483266Y-45246033D02*
X151483266Y-45812700D01*
X151483266Y-45812700D02*
X151516600Y-45879366D01*
X151516600Y-45879366D02*
X151549933Y-45912700D01*
X151549933Y-45912700D02*
X151616600Y-45946033D01*
X151616600Y-45946033D02*
X151749933Y-45946033D01*
X151749933Y-45946033D02*
X151816600Y-45912700D01*
X151816600Y-45912700D02*
X151849933Y-45879366D01*
X151849933Y-45879366D02*
X151883266Y-45812700D01*
X151883266Y-45812700D02*
X151883266Y-45246033D01*
X152516599Y-45479366D02*
X152516599Y-45946033D01*
X152349933Y-45212700D02*
X152183266Y-45712700D01*
X152183266Y-45712700D02*
X152616599Y-45712700D01*
X150728300Y-46234819D02*
X150728300Y-46472914D01*
X150490205Y-46377676D02*
X150728300Y-46472914D01*
X150728300Y-46472914D02*
X150966395Y-46377676D01*
X150585443Y-46663390D02*
X150728300Y-46472914D01*
X150728300Y-46472914D02*
X150871157Y-46663390D01*
X107566033Y-39716666D02*
X107232700Y-39949999D01*
X107566033Y-40116666D02*
X106866033Y-40116666D01*
X106866033Y-40116666D02*
X106866033Y-39849999D01*
X106866033Y-39849999D02*
X106899366Y-39783333D01*
X106899366Y-39783333D02*
X106932700Y-39749999D01*
X106932700Y-39749999D02*
X106999366Y-39716666D01*
X106999366Y-39716666D02*
X107099366Y-39716666D01*
X107099366Y-39716666D02*
X107166033Y-39749999D01*
X107166033Y-39749999D02*
X107199366Y-39783333D01*
X107199366Y-39783333D02*
X107232700Y-39849999D01*
X107232700Y-39849999D02*
X107232700Y-40116666D01*
X107566033Y-39049999D02*
X107566033Y-39449999D01*
X107566033Y-39249999D02*
X106866033Y-39249999D01*
X106866033Y-39249999D02*
X106966033Y-39316666D01*
X106966033Y-39316666D02*
X107032700Y-39383333D01*
X107032700Y-39383333D02*
X107066033Y-39449999D01*
X86746666Y-27256033D02*
X86746666Y-27756033D01*
X86746666Y-27756033D02*
X86713333Y-27856033D01*
X86713333Y-27856033D02*
X86646666Y-27922700D01*
X86646666Y-27922700D02*
X86546666Y-27956033D01*
X86546666Y-27956033D02*
X86480000Y-27956033D01*
X87113333Y-27956033D02*
X87246666Y-27956033D01*
X87246666Y-27956033D02*
X87313333Y-27922700D01*
X87313333Y-27922700D02*
X87346666Y-27889366D01*
X87346666Y-27889366D02*
X87413333Y-27789366D01*
X87413333Y-27789366D02*
X87446666Y-27656033D01*
X87446666Y-27656033D02*
X87446666Y-27389366D01*
X87446666Y-27389366D02*
X87413333Y-27322700D01*
X87413333Y-27322700D02*
X87379999Y-27289366D01*
X87379999Y-27289366D02*
X87313333Y-27256033D01*
X87313333Y-27256033D02*
X87179999Y-27256033D01*
X87179999Y-27256033D02*
X87113333Y-27289366D01*
X87113333Y-27289366D02*
X87079999Y-27322700D01*
X87079999Y-27322700D02*
X87046666Y-27389366D01*
X87046666Y-27389366D02*
X87046666Y-27556033D01*
X87046666Y-27556033D02*
X87079999Y-27622700D01*
X87079999Y-27622700D02*
X87113333Y-27656033D01*
X87113333Y-27656033D02*
X87179999Y-27689366D01*
X87179999Y-27689366D02*
X87313333Y-27689366D01*
X87313333Y-27689366D02*
X87379999Y-27656033D01*
X87379999Y-27656033D02*
X87413333Y-27622700D01*
X87413333Y-27622700D02*
X87446666Y-27556033D01*
X113309366Y-48250000D02*
X113342700Y-48283333D01*
X113342700Y-48283333D02*
X113376033Y-48383333D01*
X113376033Y-48383333D02*
X113376033Y-48450000D01*
X113376033Y-48450000D02*
X113342700Y-48550000D01*
X113342700Y-48550000D02*
X113276033Y-48616667D01*
X113276033Y-48616667D02*
X113209366Y-48650000D01*
X113209366Y-48650000D02*
X113076033Y-48683333D01*
X113076033Y-48683333D02*
X112976033Y-48683333D01*
X112976033Y-48683333D02*
X112842700Y-48650000D01*
X112842700Y-48650000D02*
X112776033Y-48616667D01*
X112776033Y-48616667D02*
X112709366Y-48550000D01*
X112709366Y-48550000D02*
X112676033Y-48450000D01*
X112676033Y-48450000D02*
X112676033Y-48383333D01*
X112676033Y-48383333D02*
X112709366Y-48283333D01*
X112709366Y-48283333D02*
X112742700Y-48250000D01*
X113376033Y-47583333D02*
X113376033Y-47983333D01*
X113376033Y-47783333D02*
X112676033Y-47783333D01*
X112676033Y-47783333D02*
X112776033Y-47850000D01*
X112776033Y-47850000D02*
X112842700Y-47916667D01*
X112842700Y-47916667D02*
X112876033Y-47983333D01*
X112676033Y-47350000D02*
X112676033Y-46916666D01*
X112676033Y-46916666D02*
X112942700Y-47150000D01*
X112942700Y-47150000D02*
X112942700Y-47050000D01*
X112942700Y-47050000D02*
X112976033Y-46983333D01*
X112976033Y-46983333D02*
X113009366Y-46950000D01*
X113009366Y-46950000D02*
X113076033Y-46916666D01*
X113076033Y-46916666D02*
X113242700Y-46916666D01*
X113242700Y-46916666D02*
X113309366Y-46950000D01*
X113309366Y-46950000D02*
X113342700Y-46983333D01*
X113342700Y-46983333D02*
X113376033Y-47050000D01*
X113376033Y-47050000D02*
X113376033Y-47250000D01*
X113376033Y-47250000D02*
X113342700Y-47316666D01*
X113342700Y-47316666D02*
X113309366Y-47350000D01*
X72133333Y-57306033D02*
X72133333Y-57806033D01*
X72133333Y-57806033D02*
X72100000Y-57906033D01*
X72100000Y-57906033D02*
X72033333Y-57972700D01*
X72033333Y-57972700D02*
X71933333Y-58006033D01*
X71933333Y-58006033D02*
X71866667Y-58006033D01*
X72833333Y-58006033D02*
X72433333Y-58006033D01*
X72633333Y-58006033D02*
X72633333Y-57306033D01*
X72633333Y-57306033D02*
X72566666Y-57406033D01*
X72566666Y-57406033D02*
X72500000Y-57472700D01*
X72500000Y-57472700D02*
X72433333Y-57506033D01*
X73266667Y-57306033D02*
X73333333Y-57306033D01*
X73333333Y-57306033D02*
X73400000Y-57339366D01*
X73400000Y-57339366D02*
X73433333Y-57372700D01*
X73433333Y-57372700D02*
X73466667Y-57439366D01*
X73466667Y-57439366D02*
X73500000Y-57572700D01*
X73500000Y-57572700D02*
X73500000Y-57739366D01*
X73500000Y-57739366D02*
X73466667Y-57872700D01*
X73466667Y-57872700D02*
X73433333Y-57939366D01*
X73433333Y-57939366D02*
X73400000Y-57972700D01*
X73400000Y-57972700D02*
X73333333Y-58006033D01*
X73333333Y-58006033D02*
X73266667Y-58006033D01*
X73266667Y-58006033D02*
X73200000Y-57972700D01*
X73200000Y-57972700D02*
X73166667Y-57939366D01*
X73166667Y-57939366D02*
X73133333Y-57872700D01*
X73133333Y-57872700D02*
X73100000Y-57739366D01*
X73100000Y-57739366D02*
X73100000Y-57572700D01*
X73100000Y-57572700D02*
X73133333Y-57439366D01*
X73133333Y-57439366D02*
X73166667Y-57372700D01*
X73166667Y-57372700D02*
X73200000Y-57339366D01*
X73200000Y-57339366D02*
X73266667Y-57306033D01*
X152736033Y-66803333D02*
X153236033Y-66803333D01*
X153236033Y-66803333D02*
X153336033Y-66836666D01*
X153336033Y-66836666D02*
X153402700Y-66903333D01*
X153402700Y-66903333D02*
X153436033Y-67003333D01*
X153436033Y-67003333D02*
X153436033Y-67070000D01*
X152736033Y-66536667D02*
X152736033Y-66070000D01*
X152736033Y-66070000D02*
X153436033Y-66370000D01*
X189799946Y-65914383D02*
X189799946Y-66414383D01*
X189799946Y-66414383D02*
X189766613Y-66514383D01*
X189766613Y-66514383D02*
X189699946Y-66581050D01*
X189699946Y-66581050D02*
X189599946Y-66614383D01*
X189599946Y-66614383D02*
X189533280Y-66614383D01*
X190066613Y-65914383D02*
X190499946Y-65914383D01*
X190499946Y-65914383D02*
X190266613Y-66181050D01*
X190266613Y-66181050D02*
X190366613Y-66181050D01*
X190366613Y-66181050D02*
X190433279Y-66214383D01*
X190433279Y-66214383D02*
X190466613Y-66247716D01*
X190466613Y-66247716D02*
X190499946Y-66314383D01*
X190499946Y-66314383D02*
X190499946Y-66481050D01*
X190499946Y-66481050D02*
X190466613Y-66547716D01*
X190466613Y-66547716D02*
X190433279Y-66581050D01*
X190433279Y-66581050D02*
X190366613Y-66614383D01*
X190366613Y-66614383D02*
X190166613Y-66614383D01*
X190166613Y-66614383D02*
X190099946Y-66581050D01*
X190099946Y-66581050D02*
X190066613Y-66547716D01*
X156239999Y-44849366D02*
X156206666Y-44882700D01*
X156206666Y-44882700D02*
X156106666Y-44916033D01*
X156106666Y-44916033D02*
X156039999Y-44916033D01*
X156039999Y-44916033D02*
X155939999Y-44882700D01*
X155939999Y-44882700D02*
X155873333Y-44816033D01*
X155873333Y-44816033D02*
X155839999Y-44749366D01*
X155839999Y-44749366D02*
X155806666Y-44616033D01*
X155806666Y-44616033D02*
X155806666Y-44516033D01*
X155806666Y-44516033D02*
X155839999Y-44382700D01*
X155839999Y-44382700D02*
X155873333Y-44316033D01*
X155873333Y-44316033D02*
X155939999Y-44249366D01*
X155939999Y-44249366D02*
X156039999Y-44216033D01*
X156039999Y-44216033D02*
X156106666Y-44216033D01*
X156106666Y-44216033D02*
X156206666Y-44249366D01*
X156206666Y-44249366D02*
X156239999Y-44282700D01*
X156906666Y-44916033D02*
X156506666Y-44916033D01*
X156706666Y-44916033D02*
X156706666Y-44216033D01*
X156706666Y-44216033D02*
X156639999Y-44316033D01*
X156639999Y-44316033D02*
X156573333Y-44382700D01*
X156573333Y-44382700D02*
X156506666Y-44416033D01*
X157506666Y-44449366D02*
X157506666Y-44916033D01*
X157340000Y-44182700D02*
X157173333Y-44682700D01*
X157173333Y-44682700D02*
X157606666Y-44682700D01*
X42889999Y-58096033D02*
X42656666Y-57762700D01*
X42489999Y-58096033D02*
X42489999Y-57396033D01*
X42489999Y-57396033D02*
X42756666Y-57396033D01*
X42756666Y-57396033D02*
X42823333Y-57429366D01*
X42823333Y-57429366D02*
X42856666Y-57462700D01*
X42856666Y-57462700D02*
X42889999Y-57529366D01*
X42889999Y-57529366D02*
X42889999Y-57629366D01*
X42889999Y-57629366D02*
X42856666Y-57696033D01*
X42856666Y-57696033D02*
X42823333Y-57729366D01*
X42823333Y-57729366D02*
X42756666Y-57762700D01*
X42756666Y-57762700D02*
X42489999Y-57762700D01*
X43556666Y-58096033D02*
X43156666Y-58096033D01*
X43356666Y-58096033D02*
X43356666Y-57396033D01*
X43356666Y-57396033D02*
X43289999Y-57496033D01*
X43289999Y-57496033D02*
X43223333Y-57562700D01*
X43223333Y-57562700D02*
X43156666Y-57596033D01*
X43990000Y-57396033D02*
X44056666Y-57396033D01*
X44056666Y-57396033D02*
X44123333Y-57429366D01*
X44123333Y-57429366D02*
X44156666Y-57462700D01*
X44156666Y-57462700D02*
X44190000Y-57529366D01*
X44190000Y-57529366D02*
X44223333Y-57662700D01*
X44223333Y-57662700D02*
X44223333Y-57829366D01*
X44223333Y-57829366D02*
X44190000Y-57962700D01*
X44190000Y-57962700D02*
X44156666Y-58029366D01*
X44156666Y-58029366D02*
X44123333Y-58062700D01*
X44123333Y-58062700D02*
X44056666Y-58096033D01*
X44056666Y-58096033D02*
X43990000Y-58096033D01*
X43990000Y-58096033D02*
X43923333Y-58062700D01*
X43923333Y-58062700D02*
X43890000Y-58029366D01*
X43890000Y-58029366D02*
X43856666Y-57962700D01*
X43856666Y-57962700D02*
X43823333Y-57829366D01*
X43823333Y-57829366D02*
X43823333Y-57662700D01*
X43823333Y-57662700D02*
X43856666Y-57529366D01*
X43856666Y-57529366D02*
X43890000Y-57462700D01*
X43890000Y-57462700D02*
X43923333Y-57429366D01*
X43923333Y-57429366D02*
X43990000Y-57396033D01*
X99946033Y-36955833D02*
X100512700Y-36955833D01*
X100512700Y-36955833D02*
X100579366Y-36922500D01*
X100579366Y-36922500D02*
X100612700Y-36889166D01*
X100612700Y-36889166D02*
X100646033Y-36822500D01*
X100646033Y-36822500D02*
X100646033Y-36689166D01*
X100646033Y-36689166D02*
X100612700Y-36622500D01*
X100612700Y-36622500D02*
X100579366Y-36589166D01*
X100579366Y-36589166D02*
X100512700Y-36555833D01*
X100512700Y-36555833D02*
X99946033Y-36555833D01*
X99946033Y-36289167D02*
X99946033Y-35822500D01*
X99946033Y-35822500D02*
X100646033Y-36122500D01*
X184793333Y-67916033D02*
X184560000Y-67582700D01*
X184393333Y-67916033D02*
X184393333Y-67216033D01*
X184393333Y-67216033D02*
X184660000Y-67216033D01*
X184660000Y-67216033D02*
X184726667Y-67249366D01*
X184726667Y-67249366D02*
X184760000Y-67282700D01*
X184760000Y-67282700D02*
X184793333Y-67349366D01*
X184793333Y-67349366D02*
X184793333Y-67449366D01*
X184793333Y-67449366D02*
X184760000Y-67516033D01*
X184760000Y-67516033D02*
X184726667Y-67549366D01*
X184726667Y-67549366D02*
X184660000Y-67582700D01*
X184660000Y-67582700D02*
X184393333Y-67582700D01*
X185193333Y-67516033D02*
X185126667Y-67482700D01*
X185126667Y-67482700D02*
X185093333Y-67449366D01*
X185093333Y-67449366D02*
X185060000Y-67382700D01*
X185060000Y-67382700D02*
X185060000Y-67349366D01*
X185060000Y-67349366D02*
X185093333Y-67282700D01*
X185093333Y-67282700D02*
X185126667Y-67249366D01*
X185126667Y-67249366D02*
X185193333Y-67216033D01*
X185193333Y-67216033D02*
X185326667Y-67216033D01*
X185326667Y-67216033D02*
X185393333Y-67249366D01*
X185393333Y-67249366D02*
X185426667Y-67282700D01*
X185426667Y-67282700D02*
X185460000Y-67349366D01*
X185460000Y-67349366D02*
X185460000Y-67382700D01*
X185460000Y-67382700D02*
X185426667Y-67449366D01*
X185426667Y-67449366D02*
X185393333Y-67482700D01*
X185393333Y-67482700D02*
X185326667Y-67516033D01*
X185326667Y-67516033D02*
X185193333Y-67516033D01*
X185193333Y-67516033D02*
X185126667Y-67549366D01*
X185126667Y-67549366D02*
X185093333Y-67582700D01*
X185093333Y-67582700D02*
X185060000Y-67649366D01*
X185060000Y-67649366D02*
X185060000Y-67782700D01*
X185060000Y-67782700D02*
X185093333Y-67849366D01*
X185093333Y-67849366D02*
X185126667Y-67882700D01*
X185126667Y-67882700D02*
X185193333Y-67916033D01*
X185193333Y-67916033D02*
X185326667Y-67916033D01*
X185326667Y-67916033D02*
X185393333Y-67882700D01*
X185393333Y-67882700D02*
X185426667Y-67849366D01*
X185426667Y-67849366D02*
X185460000Y-67782700D01*
X185460000Y-67782700D02*
X185460000Y-67649366D01*
X185460000Y-67649366D02*
X185426667Y-67582700D01*
X185426667Y-67582700D02*
X185393333Y-67549366D01*
X185393333Y-67549366D02*
X185326667Y-67516033D01*
X42913333Y-59176033D02*
X42680000Y-58842700D01*
X42513333Y-59176033D02*
X42513333Y-58476033D01*
X42513333Y-58476033D02*
X42780000Y-58476033D01*
X42780000Y-58476033D02*
X42846667Y-58509366D01*
X42846667Y-58509366D02*
X42880000Y-58542700D01*
X42880000Y-58542700D02*
X42913333Y-58609366D01*
X42913333Y-58609366D02*
X42913333Y-58709366D01*
X42913333Y-58709366D02*
X42880000Y-58776033D01*
X42880000Y-58776033D02*
X42846667Y-58809366D01*
X42846667Y-58809366D02*
X42780000Y-58842700D01*
X42780000Y-58842700D02*
X42513333Y-58842700D01*
X43246667Y-59176033D02*
X43380000Y-59176033D01*
X43380000Y-59176033D02*
X43446667Y-59142700D01*
X43446667Y-59142700D02*
X43480000Y-59109366D01*
X43480000Y-59109366D02*
X43546667Y-59009366D01*
X43546667Y-59009366D02*
X43580000Y-58876033D01*
X43580000Y-58876033D02*
X43580000Y-58609366D01*
X43580000Y-58609366D02*
X43546667Y-58542700D01*
X43546667Y-58542700D02*
X43513333Y-58509366D01*
X43513333Y-58509366D02*
X43446667Y-58476033D01*
X43446667Y-58476033D02*
X43313333Y-58476033D01*
X43313333Y-58476033D02*
X43246667Y-58509366D01*
X43246667Y-58509366D02*
X43213333Y-58542700D01*
X43213333Y-58542700D02*
X43180000Y-58609366D01*
X43180000Y-58609366D02*
X43180000Y-58776033D01*
X43180000Y-58776033D02*
X43213333Y-58842700D01*
X43213333Y-58842700D02*
X43246667Y-58876033D01*
X43246667Y-58876033D02*
X43313333Y-58909366D01*
X43313333Y-58909366D02*
X43446667Y-58909366D01*
X43446667Y-58909366D02*
X43513333Y-58876033D01*
X43513333Y-58876033D02*
X43546667Y-58842700D01*
X43546667Y-58842700D02*
X43580000Y-58776033D01*
X118139999Y-45049366D02*
X118106666Y-45082700D01*
X118106666Y-45082700D02*
X118006666Y-45116033D01*
X118006666Y-45116033D02*
X117939999Y-45116033D01*
X117939999Y-45116033D02*
X117839999Y-45082700D01*
X117839999Y-45082700D02*
X117773333Y-45016033D01*
X117773333Y-45016033D02*
X117739999Y-44949366D01*
X117739999Y-44949366D02*
X117706666Y-44816033D01*
X117706666Y-44816033D02*
X117706666Y-44716033D01*
X117706666Y-44716033D02*
X117739999Y-44582700D01*
X117739999Y-44582700D02*
X117773333Y-44516033D01*
X117773333Y-44516033D02*
X117839999Y-44449366D01*
X117839999Y-44449366D02*
X117939999Y-44416033D01*
X117939999Y-44416033D02*
X118006666Y-44416033D01*
X118006666Y-44416033D02*
X118106666Y-44449366D01*
X118106666Y-44449366D02*
X118139999Y-44482700D01*
X118406666Y-44482700D02*
X118439999Y-44449366D01*
X118439999Y-44449366D02*
X118506666Y-44416033D01*
X118506666Y-44416033D02*
X118673333Y-44416033D01*
X118673333Y-44416033D02*
X118739999Y-44449366D01*
X118739999Y-44449366D02*
X118773333Y-44482700D01*
X118773333Y-44482700D02*
X118806666Y-44549366D01*
X118806666Y-44549366D02*
X118806666Y-44616033D01*
X118806666Y-44616033D02*
X118773333Y-44716033D01*
X118773333Y-44716033D02*
X118373333Y-45116033D01*
X118373333Y-45116033D02*
X118806666Y-45116033D01*
X119240000Y-44416033D02*
X119306666Y-44416033D01*
X119306666Y-44416033D02*
X119373333Y-44449366D01*
X119373333Y-44449366D02*
X119406666Y-44482700D01*
X119406666Y-44482700D02*
X119440000Y-44549366D01*
X119440000Y-44549366D02*
X119473333Y-44682700D01*
X119473333Y-44682700D02*
X119473333Y-44849366D01*
X119473333Y-44849366D02*
X119440000Y-44982700D01*
X119440000Y-44982700D02*
X119406666Y-45049366D01*
X119406666Y-45049366D02*
X119373333Y-45082700D01*
X119373333Y-45082700D02*
X119306666Y-45116033D01*
X119306666Y-45116033D02*
X119240000Y-45116033D01*
X119240000Y-45116033D02*
X119173333Y-45082700D01*
X119173333Y-45082700D02*
X119140000Y-45049366D01*
X119140000Y-45049366D02*
X119106666Y-44982700D01*
X119106666Y-44982700D02*
X119073333Y-44849366D01*
X119073333Y-44849366D02*
X119073333Y-44682700D01*
X119073333Y-44682700D02*
X119106666Y-44549366D01*
X119106666Y-44549366D02*
X119140000Y-44482700D01*
X119140000Y-44482700D02*
X119173333Y-44449366D01*
X119173333Y-44449366D02*
X119240000Y-44416033D01*
X189729946Y-79811883D02*
X189729946Y-80311883D01*
X189729946Y-80311883D02*
X189696613Y-80411883D01*
X189696613Y-80411883D02*
X189629946Y-80478550D01*
X189629946Y-80478550D02*
X189529946Y-80511883D01*
X189529946Y-80511883D02*
X189463280Y-80511883D01*
X190029946Y-79878550D02*
X190063279Y-79845216D01*
X190063279Y-79845216D02*
X190129946Y-79811883D01*
X190129946Y-79811883D02*
X190296613Y-79811883D01*
X190296613Y-79811883D02*
X190363279Y-79845216D01*
X190363279Y-79845216D02*
X190396613Y-79878550D01*
X190396613Y-79878550D02*
X190429946Y-79945216D01*
X190429946Y-79945216D02*
X190429946Y-80011883D01*
X190429946Y-80011883D02*
X190396613Y-80111883D01*
X190396613Y-80111883D02*
X189996613Y-80511883D01*
X189996613Y-80511883D02*
X190429946Y-80511883D01*
X44701666Y-80471033D02*
X44701666Y-80971033D01*
X44701666Y-80971033D02*
X44668333Y-81071033D01*
X44668333Y-81071033D02*
X44601666Y-81137700D01*
X44601666Y-81137700D02*
X44501666Y-81171033D01*
X44501666Y-81171033D02*
X44435000Y-81171033D01*
X45368333Y-80471033D02*
X45034999Y-80471033D01*
X45034999Y-80471033D02*
X45001666Y-80804366D01*
X45001666Y-80804366D02*
X45034999Y-80771033D01*
X45034999Y-80771033D02*
X45101666Y-80737700D01*
X45101666Y-80737700D02*
X45268333Y-80737700D01*
X45268333Y-80737700D02*
X45334999Y-80771033D01*
X45334999Y-80771033D02*
X45368333Y-80804366D01*
X45368333Y-80804366D02*
X45401666Y-80871033D01*
X45401666Y-80871033D02*
X45401666Y-81037700D01*
X45401666Y-81037700D02*
X45368333Y-81104366D01*
X45368333Y-81104366D02*
X45334999Y-81137700D01*
X45334999Y-81137700D02*
X45268333Y-81171033D01*
X45268333Y-81171033D02*
X45101666Y-81171033D01*
X45101666Y-81171033D02*
X45034999Y-81137700D01*
X45034999Y-81137700D02*
X45001666Y-81104366D01*
X96966866Y-47531666D02*
X97000200Y-47564999D01*
X97000200Y-47564999D02*
X97033533Y-47664999D01*
X97033533Y-47664999D02*
X97033533Y-47731666D01*
X97033533Y-47731666D02*
X97000200Y-47831666D01*
X97000200Y-47831666D02*
X96933533Y-47898333D01*
X96933533Y-47898333D02*
X96866866Y-47931666D01*
X96866866Y-47931666D02*
X96733533Y-47964999D01*
X96733533Y-47964999D02*
X96633533Y-47964999D01*
X96633533Y-47964999D02*
X96500200Y-47931666D01*
X96500200Y-47931666D02*
X96433533Y-47898333D01*
X96433533Y-47898333D02*
X96366866Y-47831666D01*
X96366866Y-47831666D02*
X96333533Y-47731666D01*
X96333533Y-47731666D02*
X96333533Y-47664999D01*
X96333533Y-47664999D02*
X96366866Y-47564999D01*
X96366866Y-47564999D02*
X96400200Y-47531666D01*
X96566866Y-46931666D02*
X97033533Y-46931666D01*
X96300200Y-47098333D02*
X96800200Y-47264999D01*
X96800200Y-47264999D02*
X96800200Y-46831666D01*
X63239366Y-73515000D02*
X63272700Y-73548333D01*
X63272700Y-73548333D02*
X63306033Y-73648333D01*
X63306033Y-73648333D02*
X63306033Y-73715000D01*
X63306033Y-73715000D02*
X63272700Y-73815000D01*
X63272700Y-73815000D02*
X63206033Y-73881667D01*
X63206033Y-73881667D02*
X63139366Y-73915000D01*
X63139366Y-73915000D02*
X63006033Y-73948333D01*
X63006033Y-73948333D02*
X62906033Y-73948333D01*
X62906033Y-73948333D02*
X62772700Y-73915000D01*
X62772700Y-73915000D02*
X62706033Y-73881667D01*
X62706033Y-73881667D02*
X62639366Y-73815000D01*
X62639366Y-73815000D02*
X62606033Y-73715000D01*
X62606033Y-73715000D02*
X62606033Y-73648333D01*
X62606033Y-73648333D02*
X62639366Y-73548333D01*
X62639366Y-73548333D02*
X62672700Y-73515000D01*
X63306033Y-72848333D02*
X63306033Y-73248333D01*
X63306033Y-73048333D02*
X62606033Y-73048333D01*
X62606033Y-73048333D02*
X62706033Y-73115000D01*
X62706033Y-73115000D02*
X62772700Y-73181667D01*
X62772700Y-73181667D02*
X62806033Y-73248333D01*
X62606033Y-72615000D02*
X62606033Y-72148333D01*
X62606033Y-72148333D02*
X63306033Y-72448333D01*
X118279999Y-62926033D02*
X118046666Y-62592700D01*
X117879999Y-62926033D02*
X117879999Y-62226033D01*
X117879999Y-62226033D02*
X118146666Y-62226033D01*
X118146666Y-62226033D02*
X118213333Y-62259366D01*
X118213333Y-62259366D02*
X118246666Y-62292700D01*
X118246666Y-62292700D02*
X118279999Y-62359366D01*
X118279999Y-62359366D02*
X118279999Y-62459366D01*
X118279999Y-62459366D02*
X118246666Y-62526033D01*
X118246666Y-62526033D02*
X118213333Y-62559366D01*
X118213333Y-62559366D02*
X118146666Y-62592700D01*
X118146666Y-62592700D02*
X117879999Y-62592700D01*
X118946666Y-62926033D02*
X118546666Y-62926033D01*
X118746666Y-62926033D02*
X118746666Y-62226033D01*
X118746666Y-62226033D02*
X118679999Y-62326033D01*
X118679999Y-62326033D02*
X118613333Y-62392700D01*
X118613333Y-62392700D02*
X118546666Y-62426033D01*
X119546666Y-62226033D02*
X119413333Y-62226033D01*
X119413333Y-62226033D02*
X119346666Y-62259366D01*
X119346666Y-62259366D02*
X119313333Y-62292700D01*
X119313333Y-62292700D02*
X119246666Y-62392700D01*
X119246666Y-62392700D02*
X119213333Y-62526033D01*
X119213333Y-62526033D02*
X119213333Y-62792700D01*
X119213333Y-62792700D02*
X119246666Y-62859366D01*
X119246666Y-62859366D02*
X119280000Y-62892700D01*
X119280000Y-62892700D02*
X119346666Y-62926033D01*
X119346666Y-62926033D02*
X119480000Y-62926033D01*
X119480000Y-62926033D02*
X119546666Y-62892700D01*
X119546666Y-62892700D02*
X119580000Y-62859366D01*
X119580000Y-62859366D02*
X119613333Y-62792700D01*
X119613333Y-62792700D02*
X119613333Y-62626033D01*
X119613333Y-62626033D02*
X119580000Y-62559366D01*
X119580000Y-62559366D02*
X119546666Y-62526033D01*
X119546666Y-62526033D02*
X119480000Y-62492700D01*
X119480000Y-62492700D02*
X119346666Y-62492700D01*
X119346666Y-62492700D02*
X119280000Y-62526033D01*
X119280000Y-62526033D02*
X119246666Y-62559366D01*
X119246666Y-62559366D02*
X119213333Y-62626033D01*
X142976866Y-49620000D02*
X143010200Y-49653333D01*
X143010200Y-49653333D02*
X143043533Y-49753333D01*
X143043533Y-49753333D02*
X143043533Y-49820000D01*
X143043533Y-49820000D02*
X143010200Y-49920000D01*
X143010200Y-49920000D02*
X142943533Y-49986667D01*
X142943533Y-49986667D02*
X142876866Y-50020000D01*
X142876866Y-50020000D02*
X142743533Y-50053333D01*
X142743533Y-50053333D02*
X142643533Y-50053333D01*
X142643533Y-50053333D02*
X142510200Y-50020000D01*
X142510200Y-50020000D02*
X142443533Y-49986667D01*
X142443533Y-49986667D02*
X142376866Y-49920000D01*
X142376866Y-49920000D02*
X142343533Y-49820000D01*
X142343533Y-49820000D02*
X142343533Y-49753333D01*
X142343533Y-49753333D02*
X142376866Y-49653333D01*
X142376866Y-49653333D02*
X142410200Y-49620000D01*
X143043533Y-48953333D02*
X143043533Y-49353333D01*
X143043533Y-49153333D02*
X142343533Y-49153333D01*
X142343533Y-49153333D02*
X142443533Y-49220000D01*
X142443533Y-49220000D02*
X142510200Y-49286667D01*
X142510200Y-49286667D02*
X142543533Y-49353333D01*
X142343533Y-48320000D02*
X142343533Y-48653333D01*
X142343533Y-48653333D02*
X142676866Y-48686666D01*
X142676866Y-48686666D02*
X142643533Y-48653333D01*
X142643533Y-48653333D02*
X142610200Y-48586666D01*
X142610200Y-48586666D02*
X142610200Y-48420000D01*
X142610200Y-48420000D02*
X142643533Y-48353333D01*
X142643533Y-48353333D02*
X142676866Y-48320000D01*
X142676866Y-48320000D02*
X142743533Y-48286666D01*
X142743533Y-48286666D02*
X142910200Y-48286666D01*
X142910200Y-48286666D02*
X142976866Y-48320000D01*
X142976866Y-48320000D02*
X143010200Y-48353333D01*
X143010200Y-48353333D02*
X143043533Y-48420000D01*
X143043533Y-48420000D02*
X143043533Y-48586666D01*
X143043533Y-48586666D02*
X143010200Y-48653333D01*
X143010200Y-48653333D02*
X142976866Y-48686666D01*
X103206033Y-39576666D02*
X102872700Y-39809999D01*
X103206033Y-39976666D02*
X102506033Y-39976666D01*
X102506033Y-39976666D02*
X102506033Y-39709999D01*
X102506033Y-39709999D02*
X102539366Y-39643333D01*
X102539366Y-39643333D02*
X102572700Y-39609999D01*
X102572700Y-39609999D02*
X102639366Y-39576666D01*
X102639366Y-39576666D02*
X102739366Y-39576666D01*
X102739366Y-39576666D02*
X102806033Y-39609999D01*
X102806033Y-39609999D02*
X102839366Y-39643333D01*
X102839366Y-39643333D02*
X102872700Y-39709999D01*
X102872700Y-39709999D02*
X102872700Y-39976666D01*
X102506033Y-38943333D02*
X102506033Y-39276666D01*
X102506033Y-39276666D02*
X102839366Y-39309999D01*
X102839366Y-39309999D02*
X102806033Y-39276666D01*
X102806033Y-39276666D02*
X102772700Y-39209999D01*
X102772700Y-39209999D02*
X102772700Y-39043333D01*
X102772700Y-39043333D02*
X102806033Y-38976666D01*
X102806033Y-38976666D02*
X102839366Y-38943333D01*
X102839366Y-38943333D02*
X102906033Y-38909999D01*
X102906033Y-38909999D02*
X103072700Y-38909999D01*
X103072700Y-38909999D02*
X103139366Y-38943333D01*
X103139366Y-38943333D02*
X103172700Y-38976666D01*
X103172700Y-38976666D02*
X103206033Y-39043333D01*
X103206033Y-39043333D02*
X103206033Y-39209999D01*
X103206033Y-39209999D02*
X103172700Y-39276666D01*
X103172700Y-39276666D02*
X103139366Y-39309999D01*
X98334166Y-45216033D02*
X98334166Y-45782700D01*
X98334166Y-45782700D02*
X98367500Y-45849366D01*
X98367500Y-45849366D02*
X98400833Y-45882700D01*
X98400833Y-45882700D02*
X98467500Y-45916033D01*
X98467500Y-45916033D02*
X98600833Y-45916033D01*
X98600833Y-45916033D02*
X98667500Y-45882700D01*
X98667500Y-45882700D02*
X98700833Y-45849366D01*
X98700833Y-45849366D02*
X98734166Y-45782700D01*
X98734166Y-45782700D02*
X98734166Y-45216033D01*
X99034166Y-45282700D02*
X99067499Y-45249366D01*
X99067499Y-45249366D02*
X99134166Y-45216033D01*
X99134166Y-45216033D02*
X99300833Y-45216033D01*
X99300833Y-45216033D02*
X99367499Y-45249366D01*
X99367499Y-45249366D02*
X99400833Y-45282700D01*
X99400833Y-45282700D02*
X99434166Y-45349366D01*
X99434166Y-45349366D02*
X99434166Y-45416033D01*
X99434166Y-45416033D02*
X99400833Y-45516033D01*
X99400833Y-45516033D02*
X99000833Y-45916033D01*
X99000833Y-45916033D02*
X99434166Y-45916033D01*
X105386033Y-39626666D02*
X105052700Y-39859999D01*
X105386033Y-40026666D02*
X104686033Y-40026666D01*
X104686033Y-40026666D02*
X104686033Y-39759999D01*
X104686033Y-39759999D02*
X104719366Y-39693333D01*
X104719366Y-39693333D02*
X104752700Y-39659999D01*
X104752700Y-39659999D02*
X104819366Y-39626666D01*
X104819366Y-39626666D02*
X104919366Y-39626666D01*
X104919366Y-39626666D02*
X104986033Y-39659999D01*
X104986033Y-39659999D02*
X105019366Y-39693333D01*
X105019366Y-39693333D02*
X105052700Y-39759999D01*
X105052700Y-39759999D02*
X105052700Y-40026666D01*
X104686033Y-39393333D02*
X104686033Y-38959999D01*
X104686033Y-38959999D02*
X104952700Y-39193333D01*
X104952700Y-39193333D02*
X104952700Y-39093333D01*
X104952700Y-39093333D02*
X104986033Y-39026666D01*
X104986033Y-39026666D02*
X105019366Y-38993333D01*
X105019366Y-38993333D02*
X105086033Y-38959999D01*
X105086033Y-38959999D02*
X105252700Y-38959999D01*
X105252700Y-38959999D02*
X105319366Y-38993333D01*
X105319366Y-38993333D02*
X105352700Y-39026666D01*
X105352700Y-39026666D02*
X105386033Y-39093333D01*
X105386033Y-39093333D02*
X105386033Y-39293333D01*
X105386033Y-39293333D02*
X105352700Y-39359999D01*
X105352700Y-39359999D02*
X105319366Y-39393333D01*
X148642561Y-46331330D02*
X147942561Y-46331330D01*
X147942561Y-46331330D02*
X147942561Y-46164663D01*
X147942561Y-46164663D02*
X147975894Y-46064663D01*
X147975894Y-46064663D02*
X148042561Y-45997997D01*
X148042561Y-45997997D02*
X148109228Y-45964663D01*
X148109228Y-45964663D02*
X148242561Y-45931330D01*
X148242561Y-45931330D02*
X148342561Y-45931330D01*
X148342561Y-45931330D02*
X148475894Y-45964663D01*
X148475894Y-45964663D02*
X148542561Y-45997997D01*
X148542561Y-45997997D02*
X148609228Y-46064663D01*
X148609228Y-46064663D02*
X148642561Y-46164663D01*
X148642561Y-46164663D02*
X148642561Y-46331330D01*
X148642561Y-45264663D02*
X148642561Y-45664663D01*
X148642561Y-45464663D02*
X147942561Y-45464663D01*
X147942561Y-45464663D02*
X148042561Y-45531330D01*
X148042561Y-45531330D02*
X148109228Y-45597997D01*
X148109228Y-45597997D02*
X148142561Y-45664663D01*
X86200000Y-45466033D02*
X86200000Y-45966033D01*
X86200000Y-45966033D02*
X86166667Y-46066033D01*
X86166667Y-46066033D02*
X86100000Y-46132700D01*
X86100000Y-46132700D02*
X86000000Y-46166033D01*
X86000000Y-46166033D02*
X85933334Y-46166033D01*
X86900000Y-46166033D02*
X86500000Y-46166033D01*
X86700000Y-46166033D02*
X86700000Y-45466033D01*
X86700000Y-45466033D02*
X86633333Y-45566033D01*
X86633333Y-45566033D02*
X86566667Y-45632700D01*
X86566667Y-45632700D02*
X86500000Y-45666033D01*
X87133334Y-45466033D02*
X87566667Y-45466033D01*
X87566667Y-45466033D02*
X87333334Y-45732700D01*
X87333334Y-45732700D02*
X87433334Y-45732700D01*
X87433334Y-45732700D02*
X87500000Y-45766033D01*
X87500000Y-45766033D02*
X87533334Y-45799366D01*
X87533334Y-45799366D02*
X87566667Y-45866033D01*
X87566667Y-45866033D02*
X87566667Y-46032700D01*
X87566667Y-46032700D02*
X87533334Y-46099366D01*
X87533334Y-46099366D02*
X87500000Y-46132700D01*
X87500000Y-46132700D02*
X87433334Y-46166033D01*
X87433334Y-46166033D02*
X87233334Y-46166033D01*
X87233334Y-46166033D02*
X87166667Y-46132700D01*
X87166667Y-46132700D02*
X87133334Y-46099366D01*
X97714999Y-32031866D02*
X97681666Y-32065200D01*
X97681666Y-32065200D02*
X97581666Y-32098533D01*
X97581666Y-32098533D02*
X97514999Y-32098533D01*
X97514999Y-32098533D02*
X97414999Y-32065200D01*
X97414999Y-32065200D02*
X97348333Y-31998533D01*
X97348333Y-31998533D02*
X97314999Y-31931866D01*
X97314999Y-31931866D02*
X97281666Y-31798533D01*
X97281666Y-31798533D02*
X97281666Y-31698533D01*
X97281666Y-31698533D02*
X97314999Y-31565200D01*
X97314999Y-31565200D02*
X97348333Y-31498533D01*
X97348333Y-31498533D02*
X97414999Y-31431866D01*
X97414999Y-31431866D02*
X97514999Y-31398533D01*
X97514999Y-31398533D02*
X97581666Y-31398533D01*
X97581666Y-31398533D02*
X97681666Y-31431866D01*
X97681666Y-31431866D02*
X97714999Y-31465200D01*
X97981666Y-31465200D02*
X98014999Y-31431866D01*
X98014999Y-31431866D02*
X98081666Y-31398533D01*
X98081666Y-31398533D02*
X98248333Y-31398533D01*
X98248333Y-31398533D02*
X98314999Y-31431866D01*
X98314999Y-31431866D02*
X98348333Y-31465200D01*
X98348333Y-31465200D02*
X98381666Y-31531866D01*
X98381666Y-31531866D02*
X98381666Y-31598533D01*
X98381666Y-31598533D02*
X98348333Y-31698533D01*
X98348333Y-31698533D02*
X97948333Y-32098533D01*
X97948333Y-32098533D02*
X98381666Y-32098533D01*
X98981666Y-31631866D02*
X98981666Y-32098533D01*
X98815000Y-31365200D02*
X98648333Y-31865200D01*
X98648333Y-31865200D02*
X99081666Y-31865200D01*
X96864366Y-52161666D02*
X96897700Y-52194999D01*
X96897700Y-52194999D02*
X96931033Y-52294999D01*
X96931033Y-52294999D02*
X96931033Y-52361666D01*
X96931033Y-52361666D02*
X96897700Y-52461666D01*
X96897700Y-52461666D02*
X96831033Y-52528333D01*
X96831033Y-52528333D02*
X96764366Y-52561666D01*
X96764366Y-52561666D02*
X96631033Y-52594999D01*
X96631033Y-52594999D02*
X96531033Y-52594999D01*
X96531033Y-52594999D02*
X96397700Y-52561666D01*
X96397700Y-52561666D02*
X96331033Y-52528333D01*
X96331033Y-52528333D02*
X96264366Y-52461666D01*
X96264366Y-52461666D02*
X96231033Y-52361666D01*
X96231033Y-52361666D02*
X96231033Y-52294999D01*
X96231033Y-52294999D02*
X96264366Y-52194999D01*
X96264366Y-52194999D02*
X96297700Y-52161666D01*
X96231033Y-51928333D02*
X96231033Y-51494999D01*
X96231033Y-51494999D02*
X96497700Y-51728333D01*
X96497700Y-51728333D02*
X96497700Y-51628333D01*
X96497700Y-51628333D02*
X96531033Y-51561666D01*
X96531033Y-51561666D02*
X96564366Y-51528333D01*
X96564366Y-51528333D02*
X96631033Y-51494999D01*
X96631033Y-51494999D02*
X96797700Y-51494999D01*
X96797700Y-51494999D02*
X96864366Y-51528333D01*
X96864366Y-51528333D02*
X96897700Y-51561666D01*
X96897700Y-51561666D02*
X96931033Y-51628333D01*
X96931033Y-51628333D02*
X96931033Y-51828333D01*
X96931033Y-51828333D02*
X96897700Y-51894999D01*
X96897700Y-51894999D02*
X96864366Y-51928333D01*
X105006033Y-50093333D02*
X105572700Y-50093333D01*
X105572700Y-50093333D02*
X105639366Y-50060000D01*
X105639366Y-50060000D02*
X105672700Y-50026666D01*
X105672700Y-50026666D02*
X105706033Y-49960000D01*
X105706033Y-49960000D02*
X105706033Y-49826666D01*
X105706033Y-49826666D02*
X105672700Y-49760000D01*
X105672700Y-49760000D02*
X105639366Y-49726666D01*
X105639366Y-49726666D02*
X105572700Y-49693333D01*
X105572700Y-49693333D02*
X105006033Y-49693333D01*
X105006033Y-49426667D02*
X105006033Y-48993333D01*
X105006033Y-48993333D02*
X105272700Y-49226667D01*
X105272700Y-49226667D02*
X105272700Y-49126667D01*
X105272700Y-49126667D02*
X105306033Y-49060000D01*
X105306033Y-49060000D02*
X105339366Y-49026667D01*
X105339366Y-49026667D02*
X105406033Y-48993333D01*
X105406033Y-48993333D02*
X105572700Y-48993333D01*
X105572700Y-48993333D02*
X105639366Y-49026667D01*
X105639366Y-49026667D02*
X105672700Y-49060000D01*
X105672700Y-49060000D02*
X105706033Y-49126667D01*
X105706033Y-49126667D02*
X105706033Y-49326667D01*
X105706033Y-49326667D02*
X105672700Y-49393333D01*
X105672700Y-49393333D02*
X105639366Y-49426667D01*
X112316666Y-64946033D02*
X112316666Y-65446033D01*
X112316666Y-65446033D02*
X112283333Y-65546033D01*
X112283333Y-65546033D02*
X112216666Y-65612700D01*
X112216666Y-65612700D02*
X112116666Y-65646033D01*
X112116666Y-65646033D02*
X112050000Y-65646033D01*
X112749999Y-65246033D02*
X112683333Y-65212700D01*
X112683333Y-65212700D02*
X112649999Y-65179366D01*
X112649999Y-65179366D02*
X112616666Y-65112700D01*
X112616666Y-65112700D02*
X112616666Y-65079366D01*
X112616666Y-65079366D02*
X112649999Y-65012700D01*
X112649999Y-65012700D02*
X112683333Y-64979366D01*
X112683333Y-64979366D02*
X112749999Y-64946033D01*
X112749999Y-64946033D02*
X112883333Y-64946033D01*
X112883333Y-64946033D02*
X112949999Y-64979366D01*
X112949999Y-64979366D02*
X112983333Y-65012700D01*
X112983333Y-65012700D02*
X113016666Y-65079366D01*
X113016666Y-65079366D02*
X113016666Y-65112700D01*
X113016666Y-65112700D02*
X112983333Y-65179366D01*
X112983333Y-65179366D02*
X112949999Y-65212700D01*
X112949999Y-65212700D02*
X112883333Y-65246033D01*
X112883333Y-65246033D02*
X112749999Y-65246033D01*
X112749999Y-65246033D02*
X112683333Y-65279366D01*
X112683333Y-65279366D02*
X112649999Y-65312700D01*
X112649999Y-65312700D02*
X112616666Y-65379366D01*
X112616666Y-65379366D02*
X112616666Y-65512700D01*
X112616666Y-65512700D02*
X112649999Y-65579366D01*
X112649999Y-65579366D02*
X112683333Y-65612700D01*
X112683333Y-65612700D02*
X112749999Y-65646033D01*
X112749999Y-65646033D02*
X112883333Y-65646033D01*
X112883333Y-65646033D02*
X112949999Y-65612700D01*
X112949999Y-65612700D02*
X112983333Y-65579366D01*
X112983333Y-65579366D02*
X113016666Y-65512700D01*
X113016666Y-65512700D02*
X113016666Y-65379366D01*
X113016666Y-65379366D02*
X112983333Y-65312700D01*
X112983333Y-65312700D02*
X112949999Y-65279366D01*
X112949999Y-65279366D02*
X112883333Y-65246033D01*
X110419999Y-42169366D02*
X110386666Y-42202700D01*
X110386666Y-42202700D02*
X110286666Y-42236033D01*
X110286666Y-42236033D02*
X110219999Y-42236033D01*
X110219999Y-42236033D02*
X110119999Y-42202700D01*
X110119999Y-42202700D02*
X110053333Y-42136033D01*
X110053333Y-42136033D02*
X110019999Y-42069366D01*
X110019999Y-42069366D02*
X109986666Y-41936033D01*
X109986666Y-41936033D02*
X109986666Y-41836033D01*
X109986666Y-41836033D02*
X110019999Y-41702700D01*
X110019999Y-41702700D02*
X110053333Y-41636033D01*
X110053333Y-41636033D02*
X110119999Y-41569366D01*
X110119999Y-41569366D02*
X110219999Y-41536033D01*
X110219999Y-41536033D02*
X110286666Y-41536033D01*
X110286666Y-41536033D02*
X110386666Y-41569366D01*
X110386666Y-41569366D02*
X110419999Y-41602700D01*
X111086666Y-42236033D02*
X110686666Y-42236033D01*
X110886666Y-42236033D02*
X110886666Y-41536033D01*
X110886666Y-41536033D02*
X110819999Y-41636033D01*
X110819999Y-41636033D02*
X110753333Y-41702700D01*
X110753333Y-41702700D02*
X110686666Y-41736033D01*
X111753333Y-42236033D02*
X111353333Y-42236033D01*
X111553333Y-42236033D02*
X111553333Y-41536033D01*
X111553333Y-41536033D02*
X111486666Y-41636033D01*
X111486666Y-41636033D02*
X111420000Y-41702700D01*
X111420000Y-41702700D02*
X111353333Y-41736033D01*
D12*
X192076400Y-47593333D02*
X192109733Y-47493333D01*
X192109733Y-47493333D02*
X192109733Y-47326667D01*
X192109733Y-47326667D02*
X192076400Y-47260000D01*
X192076400Y-47260000D02*
X192043066Y-47226667D01*
X192043066Y-47226667D02*
X191976400Y-47193333D01*
X191976400Y-47193333D02*
X191909733Y-47193333D01*
X191909733Y-47193333D02*
X191843066Y-47226667D01*
X191843066Y-47226667D02*
X191809733Y-47260000D01*
X191809733Y-47260000D02*
X191776400Y-47326667D01*
X191776400Y-47326667D02*
X191743066Y-47460000D01*
X191743066Y-47460000D02*
X191709733Y-47526667D01*
X191709733Y-47526667D02*
X191676400Y-47560000D01*
X191676400Y-47560000D02*
X191609733Y-47593333D01*
X191609733Y-47593333D02*
X191543066Y-47593333D01*
X191543066Y-47593333D02*
X191476400Y-47560000D01*
X191476400Y-47560000D02*
X191443066Y-47526667D01*
X191443066Y-47526667D02*
X191409733Y-47460000D01*
X191409733Y-47460000D02*
X191409733Y-47293333D01*
X191409733Y-47293333D02*
X191443066Y-47193333D01*
X191409733Y-46960000D02*
X192109733Y-46793333D01*
X192109733Y-46793333D02*
X191609733Y-46660000D01*
X191609733Y-46660000D02*
X192109733Y-46526666D01*
X192109733Y-46526666D02*
X191409733Y-46360000D01*
X192109733Y-45726666D02*
X192109733Y-46126666D01*
X192109733Y-45926666D02*
X191409733Y-45926666D01*
X191409733Y-45926666D02*
X191509733Y-45993333D01*
X191509733Y-45993333D02*
X191576400Y-46060000D01*
X191576400Y-46060000D02*
X191609733Y-46126666D01*
D11*
X110509999Y-50769366D02*
X110476666Y-50802700D01*
X110476666Y-50802700D02*
X110376666Y-50836033D01*
X110376666Y-50836033D02*
X110309999Y-50836033D01*
X110309999Y-50836033D02*
X110209999Y-50802700D01*
X110209999Y-50802700D02*
X110143333Y-50736033D01*
X110143333Y-50736033D02*
X110109999Y-50669366D01*
X110109999Y-50669366D02*
X110076666Y-50536033D01*
X110076666Y-50536033D02*
X110076666Y-50436033D01*
X110076666Y-50436033D02*
X110109999Y-50302700D01*
X110109999Y-50302700D02*
X110143333Y-50236033D01*
X110143333Y-50236033D02*
X110209999Y-50169366D01*
X110209999Y-50169366D02*
X110309999Y-50136033D01*
X110309999Y-50136033D02*
X110376666Y-50136033D01*
X110376666Y-50136033D02*
X110476666Y-50169366D01*
X110476666Y-50169366D02*
X110509999Y-50202700D01*
X111176666Y-50836033D02*
X110776666Y-50836033D01*
X110976666Y-50836033D02*
X110976666Y-50136033D01*
X110976666Y-50136033D02*
X110909999Y-50236033D01*
X110909999Y-50236033D02*
X110843333Y-50302700D01*
X110843333Y-50302700D02*
X110776666Y-50336033D01*
X111610000Y-50136033D02*
X111676666Y-50136033D01*
X111676666Y-50136033D02*
X111743333Y-50169366D01*
X111743333Y-50169366D02*
X111776666Y-50202700D01*
X111776666Y-50202700D02*
X111810000Y-50269366D01*
X111810000Y-50269366D02*
X111843333Y-50402700D01*
X111843333Y-50402700D02*
X111843333Y-50569366D01*
X111843333Y-50569366D02*
X111810000Y-50702700D01*
X111810000Y-50702700D02*
X111776666Y-50769366D01*
X111776666Y-50769366D02*
X111743333Y-50802700D01*
X111743333Y-50802700D02*
X111676666Y-50836033D01*
X111676666Y-50836033D02*
X111610000Y-50836033D01*
X111610000Y-50836033D02*
X111543333Y-50802700D01*
X111543333Y-50802700D02*
X111510000Y-50769366D01*
X111510000Y-50769366D02*
X111476666Y-50702700D01*
X111476666Y-50702700D02*
X111443333Y-50569366D01*
X111443333Y-50569366D02*
X111443333Y-50402700D01*
X111443333Y-50402700D02*
X111476666Y-50269366D01*
X111476666Y-50269366D02*
X111510000Y-50202700D01*
X111510000Y-50202700D02*
X111543333Y-50169366D01*
X111543333Y-50169366D02*
X111610000Y-50136033D01*
X175491033Y-66748333D02*
X175991033Y-66748333D01*
X175991033Y-66748333D02*
X176091033Y-66781666D01*
X176091033Y-66781666D02*
X176157700Y-66848333D01*
X176157700Y-66848333D02*
X176191033Y-66948333D01*
X176191033Y-66948333D02*
X176191033Y-67015000D01*
X175491033Y-66115000D02*
X175491033Y-66248333D01*
X175491033Y-66248333D02*
X175524366Y-66315000D01*
X175524366Y-66315000D02*
X175557700Y-66348333D01*
X175557700Y-66348333D02*
X175657700Y-66415000D01*
X175657700Y-66415000D02*
X175791033Y-66448333D01*
X175791033Y-66448333D02*
X176057700Y-66448333D01*
X176057700Y-66448333D02*
X176124366Y-66415000D01*
X176124366Y-66415000D02*
X176157700Y-66381667D01*
X176157700Y-66381667D02*
X176191033Y-66315000D01*
X176191033Y-66315000D02*
X176191033Y-66181667D01*
X176191033Y-66181667D02*
X176157700Y-66115000D01*
X176157700Y-66115000D02*
X176124366Y-66081667D01*
X176124366Y-66081667D02*
X176057700Y-66048333D01*
X176057700Y-66048333D02*
X175891033Y-66048333D01*
X175891033Y-66048333D02*
X175824366Y-66081667D01*
X175824366Y-66081667D02*
X175791033Y-66115000D01*
X175791033Y-66115000D02*
X175757700Y-66181667D01*
X175757700Y-66181667D02*
X175757700Y-66315000D01*
X175757700Y-66315000D02*
X175791033Y-66381667D01*
X175791033Y-66381667D02*
X175824366Y-66415000D01*
X175824366Y-66415000D02*
X175891033Y-66448333D01*
X104309366Y-48776666D02*
X104342700Y-48809999D01*
X104342700Y-48809999D02*
X104376033Y-48909999D01*
X104376033Y-48909999D02*
X104376033Y-48976666D01*
X104376033Y-48976666D02*
X104342700Y-49076666D01*
X104342700Y-49076666D02*
X104276033Y-49143333D01*
X104276033Y-49143333D02*
X104209366Y-49176666D01*
X104209366Y-49176666D02*
X104076033Y-49209999D01*
X104076033Y-49209999D02*
X103976033Y-49209999D01*
X103976033Y-49209999D02*
X103842700Y-49176666D01*
X103842700Y-49176666D02*
X103776033Y-49143333D01*
X103776033Y-49143333D02*
X103709366Y-49076666D01*
X103709366Y-49076666D02*
X103676033Y-48976666D01*
X103676033Y-48976666D02*
X103676033Y-48909999D01*
X103676033Y-48909999D02*
X103709366Y-48809999D01*
X103709366Y-48809999D02*
X103742700Y-48776666D01*
X103742700Y-48509999D02*
X103709366Y-48476666D01*
X103709366Y-48476666D02*
X103676033Y-48409999D01*
X103676033Y-48409999D02*
X103676033Y-48243333D01*
X103676033Y-48243333D02*
X103709366Y-48176666D01*
X103709366Y-48176666D02*
X103742700Y-48143333D01*
X103742700Y-48143333D02*
X103809366Y-48109999D01*
X103809366Y-48109999D02*
X103876033Y-48109999D01*
X103876033Y-48109999D02*
X103976033Y-48143333D01*
X103976033Y-48143333D02*
X104376033Y-48543333D01*
X104376033Y-48543333D02*
X104376033Y-48109999D01*
X127023333Y-45466033D02*
X127023333Y-45966033D01*
X127023333Y-45966033D02*
X126990000Y-46066033D01*
X126990000Y-46066033D02*
X126923333Y-46132700D01*
X126923333Y-46132700D02*
X126823333Y-46166033D01*
X126823333Y-46166033D02*
X126756667Y-46166033D01*
X127723333Y-46166033D02*
X127323333Y-46166033D01*
X127523333Y-46166033D02*
X127523333Y-45466033D01*
X127523333Y-45466033D02*
X127456666Y-45566033D01*
X127456666Y-45566033D02*
X127390000Y-45632700D01*
X127390000Y-45632700D02*
X127323333Y-45666033D01*
X128323333Y-45699366D02*
X128323333Y-46166033D01*
X128156667Y-45432700D02*
X127990000Y-45932700D01*
X127990000Y-45932700D02*
X128423333Y-45932700D01*
X97964999Y-40641866D02*
X97931666Y-40675200D01*
X97931666Y-40675200D02*
X97831666Y-40708533D01*
X97831666Y-40708533D02*
X97764999Y-40708533D01*
X97764999Y-40708533D02*
X97664999Y-40675200D01*
X97664999Y-40675200D02*
X97598333Y-40608533D01*
X97598333Y-40608533D02*
X97564999Y-40541866D01*
X97564999Y-40541866D02*
X97531666Y-40408533D01*
X97531666Y-40408533D02*
X97531666Y-40308533D01*
X97531666Y-40308533D02*
X97564999Y-40175200D01*
X97564999Y-40175200D02*
X97598333Y-40108533D01*
X97598333Y-40108533D02*
X97664999Y-40041866D01*
X97664999Y-40041866D02*
X97764999Y-40008533D01*
X97764999Y-40008533D02*
X97831666Y-40008533D01*
X97831666Y-40008533D02*
X97931666Y-40041866D01*
X97931666Y-40041866D02*
X97964999Y-40075200D01*
X98231666Y-40075200D02*
X98264999Y-40041866D01*
X98264999Y-40041866D02*
X98331666Y-40008533D01*
X98331666Y-40008533D02*
X98498333Y-40008533D01*
X98498333Y-40008533D02*
X98564999Y-40041866D01*
X98564999Y-40041866D02*
X98598333Y-40075200D01*
X98598333Y-40075200D02*
X98631666Y-40141866D01*
X98631666Y-40141866D02*
X98631666Y-40208533D01*
X98631666Y-40208533D02*
X98598333Y-40308533D01*
X98598333Y-40308533D02*
X98198333Y-40708533D01*
X98198333Y-40708533D02*
X98631666Y-40708533D01*
X98865000Y-40008533D02*
X99298333Y-40008533D01*
X99298333Y-40008533D02*
X99065000Y-40275200D01*
X99065000Y-40275200D02*
X99165000Y-40275200D01*
X99165000Y-40275200D02*
X99231666Y-40308533D01*
X99231666Y-40308533D02*
X99265000Y-40341866D01*
X99265000Y-40341866D02*
X99298333Y-40408533D01*
X99298333Y-40408533D02*
X99298333Y-40575200D01*
X99298333Y-40575200D02*
X99265000Y-40641866D01*
X99265000Y-40641866D02*
X99231666Y-40675200D01*
X99231666Y-40675200D02*
X99165000Y-40708533D01*
X99165000Y-40708533D02*
X98965000Y-40708533D01*
X98965000Y-40708533D02*
X98898333Y-40675200D01*
X98898333Y-40675200D02*
X98865000Y-40641866D01*
X101698333Y-56064366D02*
X101665000Y-56097700D01*
X101665000Y-56097700D02*
X101565000Y-56131033D01*
X101565000Y-56131033D02*
X101498333Y-56131033D01*
X101498333Y-56131033D02*
X101398333Y-56097700D01*
X101398333Y-56097700D02*
X101331667Y-56031033D01*
X101331667Y-56031033D02*
X101298333Y-55964366D01*
X101298333Y-55964366D02*
X101265000Y-55831033D01*
X101265000Y-55831033D02*
X101265000Y-55731033D01*
X101265000Y-55731033D02*
X101298333Y-55597700D01*
X101298333Y-55597700D02*
X101331667Y-55531033D01*
X101331667Y-55531033D02*
X101398333Y-55464366D01*
X101398333Y-55464366D02*
X101498333Y-55431033D01*
X101498333Y-55431033D02*
X101565000Y-55431033D01*
X101565000Y-55431033D02*
X101665000Y-55464366D01*
X101665000Y-55464366D02*
X101698333Y-55497700D01*
X101931667Y-55431033D02*
X102398333Y-55431033D01*
X102398333Y-55431033D02*
X102098333Y-56131033D01*
X144236666Y-23986033D02*
X144236666Y-24552700D01*
X144236666Y-24552700D02*
X144270000Y-24619366D01*
X144270000Y-24619366D02*
X144303333Y-24652700D01*
X144303333Y-24652700D02*
X144370000Y-24686033D01*
X144370000Y-24686033D02*
X144503333Y-24686033D01*
X144503333Y-24686033D02*
X144570000Y-24652700D01*
X144570000Y-24652700D02*
X144603333Y-24619366D01*
X144603333Y-24619366D02*
X144636666Y-24552700D01*
X144636666Y-24552700D02*
X144636666Y-23986033D01*
X145269999Y-23986033D02*
X145136666Y-23986033D01*
X145136666Y-23986033D02*
X145069999Y-24019366D01*
X145069999Y-24019366D02*
X145036666Y-24052700D01*
X145036666Y-24052700D02*
X144969999Y-24152700D01*
X144969999Y-24152700D02*
X144936666Y-24286033D01*
X144936666Y-24286033D02*
X144936666Y-24552700D01*
X144936666Y-24552700D02*
X144969999Y-24619366D01*
X144969999Y-24619366D02*
X145003333Y-24652700D01*
X145003333Y-24652700D02*
X145069999Y-24686033D01*
X145069999Y-24686033D02*
X145203333Y-24686033D01*
X145203333Y-24686033D02*
X145269999Y-24652700D01*
X145269999Y-24652700D02*
X145303333Y-24619366D01*
X145303333Y-24619366D02*
X145336666Y-24552700D01*
X145336666Y-24552700D02*
X145336666Y-24386033D01*
X145336666Y-24386033D02*
X145303333Y-24319366D01*
X145303333Y-24319366D02*
X145269999Y-24286033D01*
X145269999Y-24286033D02*
X145203333Y-24252700D01*
X145203333Y-24252700D02*
X145069999Y-24252700D01*
X145069999Y-24252700D02*
X145003333Y-24286033D01*
X145003333Y-24286033D02*
X144969999Y-24319366D01*
X144969999Y-24319366D02*
X144936666Y-24386033D01*
X117554819Y-35791904D02*
X118364342Y-35791904D01*
X118364342Y-35791904D02*
X118459580Y-35744285D01*
X118459580Y-35744285D02*
X118507200Y-35696666D01*
X118507200Y-35696666D02*
X118554819Y-35601428D01*
X118554819Y-35601428D02*
X118554819Y-35410952D01*
X118554819Y-35410952D02*
X118507200Y-35315714D01*
X118507200Y-35315714D02*
X118459580Y-35268095D01*
X118459580Y-35268095D02*
X118364342Y-35220476D01*
X118364342Y-35220476D02*
X117554819Y-35220476D01*
X118507200Y-34791904D02*
X118554819Y-34649047D01*
X118554819Y-34649047D02*
X118554819Y-34410952D01*
X118554819Y-34410952D02*
X118507200Y-34315714D01*
X118507200Y-34315714D02*
X118459580Y-34268095D01*
X118459580Y-34268095D02*
X118364342Y-34220476D01*
X118364342Y-34220476D02*
X118269104Y-34220476D01*
X118269104Y-34220476D02*
X118173866Y-34268095D01*
X118173866Y-34268095D02*
X118126247Y-34315714D01*
X118126247Y-34315714D02*
X118078628Y-34410952D01*
X118078628Y-34410952D02*
X118031009Y-34601428D01*
X118031009Y-34601428D02*
X117983390Y-34696666D01*
X117983390Y-34696666D02*
X117935771Y-34744285D01*
X117935771Y-34744285D02*
X117840533Y-34791904D01*
X117840533Y-34791904D02*
X117745295Y-34791904D01*
X117745295Y-34791904D02*
X117650057Y-34744285D01*
X117650057Y-34744285D02*
X117602438Y-34696666D01*
X117602438Y-34696666D02*
X117554819Y-34601428D01*
X117554819Y-34601428D02*
X117554819Y-34363333D01*
X117554819Y-34363333D02*
X117602438Y-34220476D01*
X118031009Y-33458571D02*
X118078628Y-33315714D01*
X118078628Y-33315714D02*
X118126247Y-33268095D01*
X118126247Y-33268095D02*
X118221485Y-33220476D01*
X118221485Y-33220476D02*
X118364342Y-33220476D01*
X118364342Y-33220476D02*
X118459580Y-33268095D01*
X118459580Y-33268095D02*
X118507200Y-33315714D01*
X118507200Y-33315714D02*
X118554819Y-33410952D01*
X118554819Y-33410952D02*
X118554819Y-33791904D01*
X118554819Y-33791904D02*
X117554819Y-33791904D01*
X117554819Y-33791904D02*
X117554819Y-33458571D01*
X117554819Y-33458571D02*
X117602438Y-33363333D01*
X117602438Y-33363333D02*
X117650057Y-33315714D01*
X117650057Y-33315714D02*
X117745295Y-33268095D01*
X117745295Y-33268095D02*
X117840533Y-33268095D01*
X117840533Y-33268095D02*
X117935771Y-33315714D01*
X117935771Y-33315714D02*
X117983390Y-33363333D01*
X117983390Y-33363333D02*
X118031009Y-33458571D01*
X118031009Y-33458571D02*
X118031009Y-33791904D01*
X142546033Y-35733333D02*
X141846033Y-35733333D01*
X141846033Y-35733333D02*
X141846033Y-35566666D01*
X141846033Y-35566666D02*
X141879366Y-35466666D01*
X141879366Y-35466666D02*
X141946033Y-35400000D01*
X141946033Y-35400000D02*
X142012700Y-35366666D01*
X142012700Y-35366666D02*
X142146033Y-35333333D01*
X142146033Y-35333333D02*
X142246033Y-35333333D01*
X142246033Y-35333333D02*
X142379366Y-35366666D01*
X142379366Y-35366666D02*
X142446033Y-35400000D01*
X142446033Y-35400000D02*
X142512700Y-35466666D01*
X142512700Y-35466666D02*
X142546033Y-35566666D01*
X142546033Y-35566666D02*
X142546033Y-35733333D01*
X141846033Y-35133333D02*
X142546033Y-34900000D01*
X142546033Y-34900000D02*
X141846033Y-34666666D01*
X141846033Y-34233333D02*
X142346033Y-34233333D01*
X142346033Y-34233333D02*
X142446033Y-34266666D01*
X142446033Y-34266666D02*
X142512700Y-34333333D01*
X142512700Y-34333333D02*
X142546033Y-34433333D01*
X142546033Y-34433333D02*
X142546033Y-34500000D01*
X141846033Y-33600000D02*
X141846033Y-33733333D01*
X141846033Y-33733333D02*
X141879366Y-33800000D01*
X141879366Y-33800000D02*
X141912700Y-33833333D01*
X141912700Y-33833333D02*
X142012700Y-33900000D01*
X142012700Y-33900000D02*
X142146033Y-33933333D01*
X142146033Y-33933333D02*
X142412700Y-33933333D01*
X142412700Y-33933333D02*
X142479366Y-33900000D01*
X142479366Y-33900000D02*
X142512700Y-33866667D01*
X142512700Y-33866667D02*
X142546033Y-33800000D01*
X142546033Y-33800000D02*
X142546033Y-33666667D01*
X142546033Y-33666667D02*
X142512700Y-33600000D01*
X142512700Y-33600000D02*
X142479366Y-33566667D01*
X142479366Y-33566667D02*
X142412700Y-33533333D01*
X142412700Y-33533333D02*
X142246033Y-33533333D01*
X142246033Y-33533333D02*
X142179366Y-33566667D01*
X142179366Y-33566667D02*
X142146033Y-33600000D01*
X142146033Y-33600000D02*
X142112700Y-33666667D01*
X142112700Y-33666667D02*
X142112700Y-33800000D01*
X142112700Y-33800000D02*
X142146033Y-33866667D01*
X142146033Y-33866667D02*
X142179366Y-33900000D01*
X142179366Y-33900000D02*
X142246033Y-33933333D01*
X142346033Y-33266666D02*
X142346033Y-32933333D01*
X142546033Y-33333333D02*
X141846033Y-33100000D01*
X141846033Y-33100000D02*
X142546033Y-32866666D01*
X165780952Y-34984819D02*
X165780952Y-33984819D01*
X165780952Y-33984819D02*
X166114285Y-34699104D01*
X166114285Y-34699104D02*
X166447618Y-33984819D01*
X166447618Y-33984819D02*
X166447618Y-34984819D01*
X166923809Y-34984819D02*
X166923809Y-34318152D01*
X166923809Y-33984819D02*
X166876190Y-34032438D01*
X166876190Y-34032438D02*
X166923809Y-34080057D01*
X166923809Y-34080057D02*
X166971428Y-34032438D01*
X166971428Y-34032438D02*
X166923809Y-33984819D01*
X166923809Y-33984819D02*
X166923809Y-34080057D01*
X167828570Y-34937200D02*
X167733332Y-34984819D01*
X167733332Y-34984819D02*
X167542856Y-34984819D01*
X167542856Y-34984819D02*
X167447618Y-34937200D01*
X167447618Y-34937200D02*
X167399999Y-34889580D01*
X167399999Y-34889580D02*
X167352380Y-34794342D01*
X167352380Y-34794342D02*
X167352380Y-34508628D01*
X167352380Y-34508628D02*
X167399999Y-34413390D01*
X167399999Y-34413390D02*
X167447618Y-34365771D01*
X167447618Y-34365771D02*
X167542856Y-34318152D01*
X167542856Y-34318152D02*
X167733332Y-34318152D01*
X167733332Y-34318152D02*
X167828570Y-34365771D01*
X168257142Y-34984819D02*
X168257142Y-34318152D01*
X168257142Y-34508628D02*
X168304761Y-34413390D01*
X168304761Y-34413390D02*
X168352380Y-34365771D01*
X168352380Y-34365771D02*
X168447618Y-34318152D01*
X168447618Y-34318152D02*
X168542856Y-34318152D01*
X169019047Y-34984819D02*
X168923809Y-34937200D01*
X168923809Y-34937200D02*
X168876190Y-34889580D01*
X168876190Y-34889580D02*
X168828571Y-34794342D01*
X168828571Y-34794342D02*
X168828571Y-34508628D01*
X168828571Y-34508628D02*
X168876190Y-34413390D01*
X168876190Y-34413390D02*
X168923809Y-34365771D01*
X168923809Y-34365771D02*
X169019047Y-34318152D01*
X169019047Y-34318152D02*
X169161904Y-34318152D01*
X169161904Y-34318152D02*
X169257142Y-34365771D01*
X169257142Y-34365771D02*
X169304761Y-34413390D01*
X169304761Y-34413390D02*
X169352380Y-34508628D01*
X169352380Y-34508628D02*
X169352380Y-34794342D01*
X169352380Y-34794342D02*
X169304761Y-34889580D01*
X169304761Y-34889580D02*
X169257142Y-34937200D01*
X169257142Y-34937200D02*
X169161904Y-34984819D01*
X169161904Y-34984819D02*
X169019047Y-34984819D01*
X170495238Y-34937200D02*
X170638095Y-34984819D01*
X170638095Y-34984819D02*
X170876190Y-34984819D01*
X170876190Y-34984819D02*
X170971428Y-34937200D01*
X170971428Y-34937200D02*
X171019047Y-34889580D01*
X171019047Y-34889580D02*
X171066666Y-34794342D01*
X171066666Y-34794342D02*
X171066666Y-34699104D01*
X171066666Y-34699104D02*
X171019047Y-34603866D01*
X171019047Y-34603866D02*
X170971428Y-34556247D01*
X170971428Y-34556247D02*
X170876190Y-34508628D01*
X170876190Y-34508628D02*
X170685714Y-34461009D01*
X170685714Y-34461009D02*
X170590476Y-34413390D01*
X170590476Y-34413390D02*
X170542857Y-34365771D01*
X170542857Y-34365771D02*
X170495238Y-34270533D01*
X170495238Y-34270533D02*
X170495238Y-34175295D01*
X170495238Y-34175295D02*
X170542857Y-34080057D01*
X170542857Y-34080057D02*
X170590476Y-34032438D01*
X170590476Y-34032438D02*
X170685714Y-33984819D01*
X170685714Y-33984819D02*
X170923809Y-33984819D01*
X170923809Y-33984819D02*
X171066666Y-34032438D01*
X171495238Y-34984819D02*
X171495238Y-33984819D01*
X171495238Y-33984819D02*
X171733333Y-33984819D01*
X171733333Y-33984819D02*
X171876190Y-34032438D01*
X171876190Y-34032438D02*
X171971428Y-34127676D01*
X171971428Y-34127676D02*
X172019047Y-34222914D01*
X172019047Y-34222914D02*
X172066666Y-34413390D01*
X172066666Y-34413390D02*
X172066666Y-34556247D01*
X172066666Y-34556247D02*
X172019047Y-34746723D01*
X172019047Y-34746723D02*
X171971428Y-34841961D01*
X171971428Y-34841961D02*
X171876190Y-34937200D01*
X171876190Y-34937200D02*
X171733333Y-34984819D01*
X171733333Y-34984819D02*
X171495238Y-34984819D01*
X132636009Y-34110543D02*
X132636009Y-33777210D01*
X133159819Y-33634353D02*
X133159819Y-34110543D01*
X133159819Y-34110543D02*
X132159819Y-34110543D01*
X132159819Y-34110543D02*
X132159819Y-33634353D01*
X132493152Y-33348638D02*
X132493152Y-32967686D01*
X132159819Y-33205781D02*
X133016961Y-33205781D01*
X133016961Y-33205781D02*
X133112200Y-33158162D01*
X133112200Y-33158162D02*
X133159819Y-33062924D01*
X133159819Y-33062924D02*
X133159819Y-32967686D01*
X133159819Y-32634352D02*
X132159819Y-32634352D01*
X133159819Y-32205781D02*
X132636009Y-32205781D01*
X132636009Y-32205781D02*
X132540771Y-32253400D01*
X132540771Y-32253400D02*
X132493152Y-32348638D01*
X132493152Y-32348638D02*
X132493152Y-32491495D01*
X132493152Y-32491495D02*
X132540771Y-32586733D01*
X132540771Y-32586733D02*
X132588390Y-32634352D01*
X133112200Y-31348638D02*
X133159819Y-31443876D01*
X133159819Y-31443876D02*
X133159819Y-31634352D01*
X133159819Y-31634352D02*
X133112200Y-31729590D01*
X133112200Y-31729590D02*
X133016961Y-31777209D01*
X133016961Y-31777209D02*
X132636009Y-31777209D01*
X132636009Y-31777209D02*
X132540771Y-31729590D01*
X132540771Y-31729590D02*
X132493152Y-31634352D01*
X132493152Y-31634352D02*
X132493152Y-31443876D01*
X132493152Y-31443876D02*
X132540771Y-31348638D01*
X132540771Y-31348638D02*
X132636009Y-31301019D01*
X132636009Y-31301019D02*
X132731247Y-31301019D01*
X132731247Y-31301019D02*
X132826485Y-31777209D01*
X133159819Y-30872447D02*
X132493152Y-30872447D01*
X132683628Y-30872447D02*
X132588390Y-30824828D01*
X132588390Y-30824828D02*
X132540771Y-30777209D01*
X132540771Y-30777209D02*
X132493152Y-30681971D01*
X132493152Y-30681971D02*
X132493152Y-30586733D01*
X132493152Y-30253399D02*
X133159819Y-30253399D01*
X132588390Y-30253399D02*
X132540771Y-30205780D01*
X132540771Y-30205780D02*
X132493152Y-30110542D01*
X132493152Y-30110542D02*
X132493152Y-29967685D01*
X132493152Y-29967685D02*
X132540771Y-29872447D01*
X132540771Y-29872447D02*
X132636009Y-29824828D01*
X132636009Y-29824828D02*
X133159819Y-29824828D01*
X133112200Y-28967685D02*
X133159819Y-29062923D01*
X133159819Y-29062923D02*
X133159819Y-29253399D01*
X133159819Y-29253399D02*
X133112200Y-29348637D01*
X133112200Y-29348637D02*
X133016961Y-29396256D01*
X133016961Y-29396256D02*
X132636009Y-29396256D01*
X132636009Y-29396256D02*
X132540771Y-29348637D01*
X132540771Y-29348637D02*
X132493152Y-29253399D01*
X132493152Y-29253399D02*
X132493152Y-29062923D01*
X132493152Y-29062923D02*
X132540771Y-28967685D01*
X132540771Y-28967685D02*
X132636009Y-28920066D01*
X132636009Y-28920066D02*
X132731247Y-28920066D01*
X132731247Y-28920066D02*
X132826485Y-29396256D01*
X132493152Y-28634351D02*
X132493152Y-28253399D01*
X132159819Y-28491494D02*
X133016961Y-28491494D01*
X133016961Y-28491494D02*
X133112200Y-28443875D01*
X133112200Y-28443875D02*
X133159819Y-28348637D01*
X133159819Y-28348637D02*
X133159819Y-28253399D01*
X143816033Y-37613333D02*
X143116033Y-37613333D01*
X143116033Y-37613333D02*
X143616033Y-37380000D01*
X143616033Y-37380000D02*
X143116033Y-37146666D01*
X143116033Y-37146666D02*
X143816033Y-37146666D01*
X143816033Y-36813333D02*
X143116033Y-36813333D01*
X143816033Y-36480000D02*
X143116033Y-36480000D01*
X143116033Y-36480000D02*
X143616033Y-36246667D01*
X143616033Y-36246667D02*
X143116033Y-36013333D01*
X143116033Y-36013333D02*
X143816033Y-36013333D01*
X143116033Y-35746667D02*
X143816033Y-35280000D01*
X143116033Y-35280000D02*
X143816033Y-35746667D01*
X143816033Y-34613333D02*
X143482700Y-34846666D01*
X143816033Y-35013333D02*
X143116033Y-35013333D01*
X143116033Y-35013333D02*
X143116033Y-34746666D01*
X143116033Y-34746666D02*
X143149366Y-34680000D01*
X143149366Y-34680000D02*
X143182700Y-34646666D01*
X143182700Y-34646666D02*
X143249366Y-34613333D01*
X143249366Y-34613333D02*
X143349366Y-34613333D01*
X143349366Y-34613333D02*
X143416033Y-34646666D01*
X143416033Y-34646666D02*
X143449366Y-34680000D01*
X143449366Y-34680000D02*
X143482700Y-34746666D01*
X143482700Y-34746666D02*
X143482700Y-35013333D01*
X143116033Y-34413333D02*
X143116033Y-34013333D01*
X143816033Y-34213333D02*
X143116033Y-34213333D01*
X143816033Y-33413333D02*
X143816033Y-33813333D01*
X143816033Y-33613333D02*
X143116033Y-33613333D01*
X143116033Y-33613333D02*
X143216033Y-33680000D01*
X143216033Y-33680000D02*
X143282700Y-33746667D01*
X143282700Y-33746667D02*
X143316033Y-33813333D01*
X143116033Y-32980000D02*
X143116033Y-32913333D01*
X143116033Y-32913333D02*
X143149366Y-32846666D01*
X143149366Y-32846666D02*
X143182700Y-32813333D01*
X143182700Y-32813333D02*
X143249366Y-32780000D01*
X143249366Y-32780000D02*
X143382700Y-32746666D01*
X143382700Y-32746666D02*
X143549366Y-32746666D01*
X143549366Y-32746666D02*
X143682700Y-32780000D01*
X143682700Y-32780000D02*
X143749366Y-32813333D01*
X143749366Y-32813333D02*
X143782700Y-32846666D01*
X143782700Y-32846666D02*
X143816033Y-32913333D01*
X143816033Y-32913333D02*
X143816033Y-32980000D01*
X143816033Y-32980000D02*
X143782700Y-33046666D01*
X143782700Y-33046666D02*
X143749366Y-33080000D01*
X143749366Y-33080000D02*
X143682700Y-33113333D01*
X143682700Y-33113333D02*
X143549366Y-33146666D01*
X143549366Y-33146666D02*
X143382700Y-33146666D01*
X143382700Y-33146666D02*
X143249366Y-33113333D01*
X143249366Y-33113333D02*
X143182700Y-33080000D01*
X143182700Y-33080000D02*
X143149366Y-33046666D01*
X143149366Y-33046666D02*
X143116033Y-32980000D01*
X143116033Y-32146666D02*
X143116033Y-32279999D01*
X143116033Y-32279999D02*
X143149366Y-32346666D01*
X143149366Y-32346666D02*
X143182700Y-32379999D01*
X143182700Y-32379999D02*
X143282700Y-32446666D01*
X143282700Y-32446666D02*
X143416033Y-32479999D01*
X143416033Y-32479999D02*
X143682700Y-32479999D01*
X143682700Y-32479999D02*
X143749366Y-32446666D01*
X143749366Y-32446666D02*
X143782700Y-32413333D01*
X143782700Y-32413333D02*
X143816033Y-32346666D01*
X143816033Y-32346666D02*
X143816033Y-32213333D01*
X143816033Y-32213333D02*
X143782700Y-32146666D01*
X143782700Y-32146666D02*
X143749366Y-32113333D01*
X143749366Y-32113333D02*
X143682700Y-32079999D01*
X143682700Y-32079999D02*
X143516033Y-32079999D01*
X143516033Y-32079999D02*
X143449366Y-32113333D01*
X143449366Y-32113333D02*
X143416033Y-32146666D01*
X143416033Y-32146666D02*
X143382700Y-32213333D01*
X143382700Y-32213333D02*
X143382700Y-32346666D01*
X143382700Y-32346666D02*
X143416033Y-32413333D01*
X143416033Y-32413333D02*
X143449366Y-32446666D01*
X143449366Y-32446666D02*
X143516033Y-32479999D01*
X143182700Y-31813332D02*
X143149366Y-31779999D01*
X143149366Y-31779999D02*
X143116033Y-31713332D01*
X143116033Y-31713332D02*
X143116033Y-31546666D01*
X143116033Y-31546666D02*
X143149366Y-31479999D01*
X143149366Y-31479999D02*
X143182700Y-31446666D01*
X143182700Y-31446666D02*
X143249366Y-31413332D01*
X143249366Y-31413332D02*
X143316033Y-31413332D01*
X143316033Y-31413332D02*
X143416033Y-31446666D01*
X143416033Y-31446666D02*
X143816033Y-31846666D01*
X143816033Y-31846666D02*
X143816033Y-31413332D01*
X122994676Y-36474019D02*
X122994676Y-37283542D01*
X122994676Y-37283542D02*
X123042295Y-37378780D01*
X123042295Y-37378780D02*
X123089914Y-37426400D01*
X123089914Y-37426400D02*
X123185152Y-37474019D01*
X123185152Y-37474019D02*
X123375628Y-37474019D01*
X123375628Y-37474019D02*
X123470866Y-37426400D01*
X123470866Y-37426400D02*
X123518485Y-37378780D01*
X123518485Y-37378780D02*
X123566104Y-37283542D01*
X123566104Y-37283542D02*
X123566104Y-36474019D01*
X123994676Y-37426400D02*
X124137533Y-37474019D01*
X124137533Y-37474019D02*
X124375628Y-37474019D01*
X124375628Y-37474019D02*
X124470866Y-37426400D01*
X124470866Y-37426400D02*
X124518485Y-37378780D01*
X124518485Y-37378780D02*
X124566104Y-37283542D01*
X124566104Y-37283542D02*
X124566104Y-37188304D01*
X124566104Y-37188304D02*
X124518485Y-37093066D01*
X124518485Y-37093066D02*
X124470866Y-37045447D01*
X124470866Y-37045447D02*
X124375628Y-36997828D01*
X124375628Y-36997828D02*
X124185152Y-36950209D01*
X124185152Y-36950209D02*
X124089914Y-36902590D01*
X124089914Y-36902590D02*
X124042295Y-36854971D01*
X124042295Y-36854971D02*
X123994676Y-36759733D01*
X123994676Y-36759733D02*
X123994676Y-36664495D01*
X123994676Y-36664495D02*
X124042295Y-36569257D01*
X124042295Y-36569257D02*
X124089914Y-36521638D01*
X124089914Y-36521638D02*
X124185152Y-36474019D01*
X124185152Y-36474019D02*
X124423247Y-36474019D01*
X124423247Y-36474019D02*
X124566104Y-36521638D01*
X125328009Y-36950209D02*
X125470866Y-36997828D01*
X125470866Y-36997828D02*
X125518485Y-37045447D01*
X125518485Y-37045447D02*
X125566104Y-37140685D01*
X125566104Y-37140685D02*
X125566104Y-37283542D01*
X125566104Y-37283542D02*
X125518485Y-37378780D01*
X125518485Y-37378780D02*
X125470866Y-37426400D01*
X125470866Y-37426400D02*
X125375628Y-37474019D01*
X125375628Y-37474019D02*
X124994676Y-37474019D01*
X124994676Y-37474019D02*
X124994676Y-36474019D01*
X124994676Y-36474019D02*
X125328009Y-36474019D01*
X125328009Y-36474019D02*
X125423247Y-36521638D01*
X125423247Y-36521638D02*
X125470866Y-36569257D01*
X125470866Y-36569257D02*
X125518485Y-36664495D01*
X125518485Y-36664495D02*
X125518485Y-36759733D01*
X125518485Y-36759733D02*
X125470866Y-36854971D01*
X125470866Y-36854971D02*
X125423247Y-36902590D01*
X125423247Y-36902590D02*
X125328009Y-36950209D01*
X125328009Y-36950209D02*
X124994676Y-36950209D01*
X126756581Y-37474019D02*
X126756581Y-36474019D01*
X126756581Y-36950209D02*
X127328009Y-36950209D01*
X127328009Y-37474019D02*
X127328009Y-36474019D01*
X127947057Y-37474019D02*
X127851819Y-37426400D01*
X127851819Y-37426400D02*
X127804200Y-37378780D01*
X127804200Y-37378780D02*
X127756581Y-37283542D01*
X127756581Y-37283542D02*
X127756581Y-36997828D01*
X127756581Y-36997828D02*
X127804200Y-36902590D01*
X127804200Y-36902590D02*
X127851819Y-36854971D01*
X127851819Y-36854971D02*
X127947057Y-36807352D01*
X127947057Y-36807352D02*
X128089914Y-36807352D01*
X128089914Y-36807352D02*
X128185152Y-36854971D01*
X128185152Y-36854971D02*
X128232771Y-36902590D01*
X128232771Y-36902590D02*
X128280390Y-36997828D01*
X128280390Y-36997828D02*
X128280390Y-37283542D01*
X128280390Y-37283542D02*
X128232771Y-37378780D01*
X128232771Y-37378780D02*
X128185152Y-37426400D01*
X128185152Y-37426400D02*
X128089914Y-37474019D01*
X128089914Y-37474019D02*
X127947057Y-37474019D01*
X128661343Y-37426400D02*
X128756581Y-37474019D01*
X128756581Y-37474019D02*
X128947057Y-37474019D01*
X128947057Y-37474019D02*
X129042295Y-37426400D01*
X129042295Y-37426400D02*
X129089914Y-37331161D01*
X129089914Y-37331161D02*
X129089914Y-37283542D01*
X129089914Y-37283542D02*
X129042295Y-37188304D01*
X129042295Y-37188304D02*
X128947057Y-37140685D01*
X128947057Y-37140685D02*
X128804200Y-37140685D01*
X128804200Y-37140685D02*
X128708962Y-37093066D01*
X128708962Y-37093066D02*
X128661343Y-36997828D01*
X128661343Y-36997828D02*
X128661343Y-36950209D01*
X128661343Y-36950209D02*
X128708962Y-36854971D01*
X128708962Y-36854971D02*
X128804200Y-36807352D01*
X128804200Y-36807352D02*
X128947057Y-36807352D01*
X128947057Y-36807352D02*
X129042295Y-36854971D01*
X129375629Y-36807352D02*
X129756581Y-36807352D01*
X129518486Y-36474019D02*
X129518486Y-37331161D01*
X129518486Y-37331161D02*
X129566105Y-37426400D01*
X129566105Y-37426400D02*
X129661343Y-37474019D01*
X129661343Y-37474019D02*
X129756581Y-37474019D01*
X146786033Y-45926666D02*
X146452700Y-46159999D01*
X146786033Y-46326666D02*
X146086033Y-46326666D01*
X146086033Y-46326666D02*
X146086033Y-46059999D01*
X146086033Y-46059999D02*
X146119366Y-45993333D01*
X146119366Y-45993333D02*
X146152700Y-45959999D01*
X146152700Y-45959999D02*
X146219366Y-45926666D01*
X146219366Y-45926666D02*
X146319366Y-45926666D01*
X146319366Y-45926666D02*
X146386033Y-45959999D01*
X146386033Y-45959999D02*
X146419366Y-45993333D01*
X146419366Y-45993333D02*
X146452700Y-46059999D01*
X146452700Y-46059999D02*
X146452700Y-46326666D01*
X146086033Y-45326666D02*
X146086033Y-45459999D01*
X146086033Y-45459999D02*
X146119366Y-45526666D01*
X146119366Y-45526666D02*
X146152700Y-45559999D01*
X146152700Y-45559999D02*
X146252700Y-45626666D01*
X146252700Y-45626666D02*
X146386033Y-45659999D01*
X146386033Y-45659999D02*
X146652700Y-45659999D01*
X146652700Y-45659999D02*
X146719366Y-45626666D01*
X146719366Y-45626666D02*
X146752700Y-45593333D01*
X146752700Y-45593333D02*
X146786033Y-45526666D01*
X146786033Y-45526666D02*
X146786033Y-45393333D01*
X146786033Y-45393333D02*
X146752700Y-45326666D01*
X146752700Y-45326666D02*
X146719366Y-45293333D01*
X146719366Y-45293333D02*
X146652700Y-45259999D01*
X146652700Y-45259999D02*
X146486033Y-45259999D01*
X146486033Y-45259999D02*
X146419366Y-45293333D01*
X146419366Y-45293333D02*
X146386033Y-45326666D01*
X146386033Y-45326666D02*
X146352700Y-45393333D01*
X146352700Y-45393333D02*
X146352700Y-45526666D01*
X146352700Y-45526666D02*
X146386033Y-45593333D01*
X146386033Y-45593333D02*
X146419366Y-45626666D01*
X146419366Y-45626666D02*
X146486033Y-45659999D01*
X110543333Y-51929366D02*
X110510000Y-51962700D01*
X110510000Y-51962700D02*
X110410000Y-51996033D01*
X110410000Y-51996033D02*
X110343333Y-51996033D01*
X110343333Y-51996033D02*
X110243333Y-51962700D01*
X110243333Y-51962700D02*
X110176667Y-51896033D01*
X110176667Y-51896033D02*
X110143333Y-51829366D01*
X110143333Y-51829366D02*
X110110000Y-51696033D01*
X110110000Y-51696033D02*
X110110000Y-51596033D01*
X110110000Y-51596033D02*
X110143333Y-51462700D01*
X110143333Y-51462700D02*
X110176667Y-51396033D01*
X110176667Y-51396033D02*
X110243333Y-51329366D01*
X110243333Y-51329366D02*
X110343333Y-51296033D01*
X110343333Y-51296033D02*
X110410000Y-51296033D01*
X110410000Y-51296033D02*
X110510000Y-51329366D01*
X110510000Y-51329366D02*
X110543333Y-51362700D01*
X110876667Y-51996033D02*
X111010000Y-51996033D01*
X111010000Y-51996033D02*
X111076667Y-51962700D01*
X111076667Y-51962700D02*
X111110000Y-51929366D01*
X111110000Y-51929366D02*
X111176667Y-51829366D01*
X111176667Y-51829366D02*
X111210000Y-51696033D01*
X111210000Y-51696033D02*
X111210000Y-51429366D01*
X111210000Y-51429366D02*
X111176667Y-51362700D01*
X111176667Y-51362700D02*
X111143333Y-51329366D01*
X111143333Y-51329366D02*
X111076667Y-51296033D01*
X111076667Y-51296033D02*
X110943333Y-51296033D01*
X110943333Y-51296033D02*
X110876667Y-51329366D01*
X110876667Y-51329366D02*
X110843333Y-51362700D01*
X110843333Y-51362700D02*
X110810000Y-51429366D01*
X110810000Y-51429366D02*
X110810000Y-51596033D01*
X110810000Y-51596033D02*
X110843333Y-51662700D01*
X110843333Y-51662700D02*
X110876667Y-51696033D01*
X110876667Y-51696033D02*
X110943333Y-51729366D01*
X110943333Y-51729366D02*
X111076667Y-51729366D01*
X111076667Y-51729366D02*
X111143333Y-51696033D01*
X111143333Y-51696033D02*
X111176667Y-51662700D01*
X111176667Y-51662700D02*
X111210000Y-51596033D01*
X44611666Y-45951033D02*
X44611666Y-46451033D01*
X44611666Y-46451033D02*
X44578333Y-46551033D01*
X44578333Y-46551033D02*
X44511666Y-46617700D01*
X44511666Y-46617700D02*
X44411666Y-46651033D01*
X44411666Y-46651033D02*
X44345000Y-46651033D01*
X45311666Y-46651033D02*
X44911666Y-46651033D01*
X45111666Y-46651033D02*
X45111666Y-45951033D01*
X45111666Y-45951033D02*
X45044999Y-46051033D01*
X45044999Y-46051033D02*
X44978333Y-46117700D01*
X44978333Y-46117700D02*
X44911666Y-46151033D01*
D13*
X177046359Y-35540000D02*
X177353641Y-35540000D01*
X177046359Y-36300000D02*
X177353641Y-36300000D01*
X180392500Y-27595000D02*
X179592500Y-27595000D01*
X180392500Y-27595000D02*
X181192500Y-27595000D01*
X180392500Y-30715000D02*
X179592500Y-30715000D01*
X180392500Y-30715000D02*
X181192500Y-30715000D01*
X179092500Y-27645000D02*
X178852500Y-27315000D01*
X179332500Y-27315000D01*
X179092500Y-27645000D01*
G36*
X179092500Y-27645000D02*
G01*
X178852500Y-27315000D01*
X179332500Y-27315000D01*
X179092500Y-27645000D01*
G37*
X183247500Y-29312258D02*
X183247500Y-28837742D01*
X184292500Y-29312258D02*
X184292500Y-28837742D01*
X180377258Y-26982500D02*
X179902742Y-26982500D01*
X180377258Y-25937500D02*
X179902742Y-25937500D01*
X178002500Y-34615000D02*
X178652500Y-34615000D01*
X178002500Y-34615000D02*
X177352500Y-34615000D01*
X178002500Y-31495000D02*
X178652500Y-31495000D01*
X178002500Y-31495000D02*
X177352500Y-31495000D01*
X179405000Y-34895000D02*
X178925000Y-34895000D01*
X179165000Y-34565000D01*
X179405000Y-34895000D01*
G36*
X179405000Y-34895000D02*
G01*
X178925000Y-34895000D01*
X179165000Y-34565000D01*
X179405000Y-34895000D01*
G37*
X184700000Y-36200000D02*
X185950000Y-36200000D01*
X185000000Y-35900000D02*
X189720000Y-35900000D01*
X186310000Y-35900000D02*
X186310000Y-35290000D01*
X187610000Y-35900000D02*
X187610000Y-35290000D01*
X189720000Y-35900000D02*
X189720000Y-29780000D01*
X185610000Y-35290000D02*
X189110000Y-35290000D01*
X189110000Y-35290000D02*
X189110000Y-30390000D01*
X184700000Y-34950000D02*
X184700000Y-36200000D01*
X184800000Y-34440000D02*
X185000000Y-34440000D01*
X184800000Y-34140000D02*
X184800000Y-34440000D01*
X184900000Y-34140000D02*
X184900000Y-34440000D01*
X185000000Y-34140000D02*
X184800000Y-34140000D01*
X185000000Y-33340000D02*
X185610000Y-33340000D01*
X185610000Y-33340000D02*
X185610000Y-35290000D01*
X188610000Y-32940000D02*
X188610000Y-32740000D01*
X189110000Y-32940000D02*
X188610000Y-32940000D01*
X189110000Y-32840000D02*
X188610000Y-32840000D01*
X188610000Y-32740000D02*
X189110000Y-32740000D01*
X185610000Y-32340000D02*
X185000000Y-32340000D01*
X185610000Y-30390000D02*
X185610000Y-32340000D01*
X189110000Y-30390000D02*
X185610000Y-30390000D01*
X185000000Y-29780000D02*
X185000000Y-35900000D01*
X186310000Y-29780000D02*
X186310000Y-30390000D01*
X187610000Y-29780000D02*
X187610000Y-30390000D01*
X189720000Y-29780000D02*
X185000000Y-29780000D01*
X182045000Y-25725000D02*
X182045000Y-27195000D01*
X182045000Y-27195000D02*
X184330000Y-27195000D01*
X184330000Y-25725000D02*
X182045000Y-25725000D01*
X182352500Y-31352500D02*
X180352500Y-31352500D01*
X182352500Y-31352500D02*
X182352500Y-35362500D01*
X180352500Y-31352500D02*
X180352500Y-35362500D01*
X176520000Y-29475580D02*
X176520000Y-29194420D01*
X177540000Y-29475580D02*
X177540000Y-29194420D01*
X107550000Y-69730000D02*
X107550000Y-70330000D01*
X107550000Y-70030000D02*
X107250000Y-70030000D01*
X107550000Y-70030000D02*
X107850000Y-70030000D01*
X107310000Y-71930000D02*
G75*
G02*
X101090000Y-71930000I-3110000J0D01*
G01*
X101090000Y-71930000D02*
G75*
G02*
X107310000Y-71930000I3110000J0D01*
G01*
X101975336Y-49480000D02*
X101759664Y-49480000D01*
X101975336Y-50200000D02*
X101759664Y-50200000D01*
X103972742Y-65667500D02*
X104447258Y-65667500D01*
X103972742Y-66712500D02*
X104447258Y-66712500D01*
X95205000Y-37180336D02*
X95205000Y-36964664D01*
X95925000Y-37180336D02*
X95925000Y-36964664D01*
X101521359Y-43160000D02*
X101828641Y-43160000D01*
X101521359Y-43920000D02*
X101828641Y-43920000D01*
X162053334Y-46640000D02*
X162053334Y-47890000D01*
X162353334Y-46940000D02*
X162353334Y-51660000D01*
X162353334Y-48250000D02*
X162963334Y-48250000D01*
X162353334Y-49550000D02*
X162963334Y-49550000D01*
X162353334Y-51660000D02*
X174473334Y-51660000D01*
X162963334Y-47550000D02*
X162963334Y-51050000D01*
X162963334Y-51050000D02*
X173863334Y-51050000D01*
X163303334Y-46640000D02*
X162053334Y-46640000D01*
X163813334Y-46740000D02*
X163813334Y-46940000D01*
X164113334Y-46740000D02*
X163813334Y-46740000D01*
X164113334Y-46840000D02*
X163813334Y-46840000D01*
X164113334Y-46940000D02*
X164113334Y-46740000D01*
X164913334Y-46940000D02*
X164913334Y-47550000D01*
X164913334Y-47550000D02*
X162963334Y-47550000D01*
X165313334Y-50550000D02*
X165513334Y-50550000D01*
X165313334Y-51050000D02*
X165313334Y-50550000D01*
X165413334Y-51050000D02*
X165413334Y-50550000D01*
X165513334Y-50550000D02*
X165513334Y-51050000D01*
X167313334Y-50550000D02*
X167513334Y-50550000D01*
X167313334Y-51050000D02*
X167313334Y-50550000D01*
X167413334Y-51050000D02*
X167413334Y-50550000D01*
X167513334Y-50550000D02*
X167513334Y-51050000D01*
X169313334Y-50550000D02*
X169513334Y-50550000D01*
X169313334Y-51050000D02*
X169313334Y-50550000D01*
X169413334Y-51050000D02*
X169413334Y-50550000D01*
X169513334Y-50550000D02*
X169513334Y-51050000D01*
X171313334Y-50550000D02*
X171513334Y-50550000D01*
X171313334Y-51050000D02*
X171313334Y-50550000D01*
X171413334Y-51050000D02*
X171413334Y-50550000D01*
X171513334Y-50550000D02*
X171513334Y-51050000D01*
X171913334Y-47550000D02*
X171913334Y-46940000D01*
X173863334Y-47550000D02*
X171913334Y-47550000D01*
X173863334Y-51050000D02*
X173863334Y-47550000D01*
X174473334Y-46940000D02*
X162353334Y-46940000D01*
X174473334Y-48250000D02*
X173863334Y-48250000D01*
X174473334Y-49550000D02*
X173863334Y-49550000D01*
X174473334Y-51660000D02*
X174473334Y-46940000D01*
X60990000Y-68534420D02*
X60990000Y-68815580D01*
X62010000Y-68534420D02*
X62010000Y-68815580D01*
X178977500Y-52182742D02*
X178977500Y-52657258D01*
X180022500Y-52182742D02*
X180022500Y-52657258D01*
X66300000Y-70770000D02*
X66300000Y-72020000D01*
X66600000Y-71070000D02*
X66600000Y-75790000D01*
X66600000Y-72380000D02*
X67210000Y-72380000D01*
X66600000Y-73680000D02*
X67210000Y-73680000D01*
X66600000Y-75790000D02*
X78720000Y-75790000D01*
X67210000Y-71680000D02*
X67210000Y-75180000D01*
X67210000Y-75180000D02*
X78110000Y-75180000D01*
X67550000Y-70770000D02*
X66300000Y-70770000D01*
X68060000Y-70870000D02*
X68060000Y-71070000D01*
X68360000Y-70870000D02*
X68060000Y-70870000D01*
X68360000Y-70970000D02*
X68060000Y-70970000D01*
X68360000Y-71070000D02*
X68360000Y-70870000D01*
X69160000Y-71070000D02*
X69160000Y-71680000D01*
X69160000Y-71680000D02*
X67210000Y-71680000D01*
X69560000Y-74680000D02*
X69760000Y-74680000D01*
X69560000Y-75180000D02*
X69560000Y-74680000D01*
X69660000Y-75180000D02*
X69660000Y-74680000D01*
X69760000Y-74680000D02*
X69760000Y-75180000D01*
X71560000Y-74680000D02*
X71760000Y-74680000D01*
X71560000Y-75180000D02*
X71560000Y-74680000D01*
X71660000Y-75180000D02*
X71660000Y-74680000D01*
X71760000Y-74680000D02*
X71760000Y-75180000D01*
X73560000Y-74680000D02*
X73760000Y-74680000D01*
X73560000Y-75180000D02*
X73560000Y-74680000D01*
X73660000Y-75180000D02*
X73660000Y-74680000D01*
X73760000Y-74680000D02*
X73760000Y-75180000D01*
X75560000Y-74680000D02*
X75760000Y-74680000D01*
X75560000Y-75180000D02*
X75560000Y-74680000D01*
X75660000Y-75180000D02*
X75660000Y-74680000D01*
X75760000Y-74680000D02*
X75760000Y-75180000D01*
X76160000Y-71680000D02*
X76160000Y-71070000D01*
X78110000Y-71680000D02*
X76160000Y-71680000D01*
X78110000Y-75180000D02*
X78110000Y-71680000D01*
X78720000Y-71070000D02*
X66600000Y-71070000D01*
X78720000Y-72380000D02*
X78110000Y-72380000D01*
X78720000Y-73680000D02*
X78110000Y-73680000D01*
X78720000Y-75790000D02*
X78720000Y-71070000D01*
X116195580Y-47340000D02*
X115914420Y-47340000D01*
X116195580Y-48360000D02*
X115914420Y-48360000D01*
X35850000Y-57560000D02*
X33850000Y-57560000D01*
X35850000Y-48160000D02*
X33850000Y-48160000D01*
X31950000Y-57560000D02*
X30050000Y-57560000D01*
X31950000Y-48160000D02*
X30050000Y-48160000D01*
X30050000Y-48160000D02*
X30050000Y-57560000D01*
X103540000Y-41196359D02*
X103540000Y-41503641D01*
X104300000Y-41196359D02*
X104300000Y-41503641D01*
X39583334Y-46640000D02*
X39583334Y-47890000D01*
X39883334Y-46940000D02*
X39883334Y-51660000D01*
X39883334Y-48250000D02*
X40493334Y-48250000D01*
X39883334Y-49550000D02*
X40493334Y-49550000D01*
X39883334Y-51660000D02*
X52003334Y-51660000D01*
X40493334Y-47550000D02*
X40493334Y-51050000D01*
X40493334Y-51050000D02*
X51393334Y-51050000D01*
X40833334Y-46640000D02*
X39583334Y-46640000D01*
X41343334Y-46740000D02*
X41343334Y-46940000D01*
X41643334Y-46740000D02*
X41343334Y-46740000D01*
X41643334Y-46840000D02*
X41343334Y-46840000D01*
X41643334Y-46940000D02*
X41643334Y-46740000D01*
X42443334Y-46940000D02*
X42443334Y-47550000D01*
X42443334Y-47550000D02*
X40493334Y-47550000D01*
X42843334Y-50550000D02*
X43043334Y-50550000D01*
X42843334Y-51050000D02*
X42843334Y-50550000D01*
X42943334Y-51050000D02*
X42943334Y-50550000D01*
X43043334Y-50550000D02*
X43043334Y-51050000D01*
X44843334Y-50550000D02*
X45043334Y-50550000D01*
X44843334Y-51050000D02*
X44843334Y-50550000D01*
X44943334Y-51050000D02*
X44943334Y-50550000D01*
X45043334Y-50550000D02*
X45043334Y-51050000D01*
X46843334Y-50550000D02*
X47043334Y-50550000D01*
X46843334Y-51050000D02*
X46843334Y-50550000D01*
X46943334Y-51050000D02*
X46943334Y-50550000D01*
X47043334Y-50550000D02*
X47043334Y-51050000D01*
X48843334Y-50550000D02*
X49043334Y-50550000D01*
X48843334Y-51050000D02*
X48843334Y-50550000D01*
X48943334Y-51050000D02*
X48943334Y-50550000D01*
X49043334Y-50550000D02*
X49043334Y-51050000D01*
X49443334Y-47550000D02*
X49443334Y-46940000D01*
X51393334Y-47550000D02*
X49443334Y-47550000D01*
X51393334Y-51050000D02*
X51393334Y-47550000D01*
X52003334Y-46940000D02*
X39883334Y-46940000D01*
X52003334Y-48250000D02*
X51393334Y-48250000D01*
X52003334Y-49550000D02*
X51393334Y-49550000D01*
X52003334Y-51660000D02*
X52003334Y-46940000D01*
X101506359Y-44300000D02*
X101813641Y-44300000D01*
X101506359Y-45060000D02*
X101813641Y-45060000D01*
X122037836Y-60860000D02*
X121822164Y-60860000D01*
X122037836Y-61580000D02*
X121822164Y-61580000D01*
X103705000Y-51617164D02*
X103705000Y-51832836D01*
X104425000Y-51617164D02*
X104425000Y-51832836D01*
X138770000Y-47130000D02*
X137970000Y-47130000D01*
X138770000Y-47130000D02*
X139570000Y-47130000D01*
X138770000Y-50250000D02*
X137970000Y-50250000D01*
X138770000Y-50250000D02*
X139570000Y-50250000D01*
X137470000Y-47180000D02*
X137230000Y-46850000D01*
X137710000Y-46850000D01*
X137470000Y-47180000D01*
G36*
X137470000Y-47180000D02*
G01*
X137230000Y-46850000D01*
X137710000Y-46850000D01*
X137470000Y-47180000D01*
G37*
X108752164Y-40340000D02*
X108967836Y-40340000D01*
X108752164Y-41060000D02*
X108967836Y-41060000D01*
X101150000Y-50640000D02*
X100350000Y-50640000D01*
X101150000Y-50640000D02*
X101950000Y-50640000D01*
X101150000Y-53760000D02*
X100350000Y-53760000D01*
X101150000Y-53760000D02*
X101950000Y-53760000D01*
X99850000Y-50690000D02*
X99610000Y-50360000D01*
X100090000Y-50360000D01*
X99850000Y-50690000D01*
G36*
X99850000Y-50690000D02*
G01*
X99610000Y-50360000D01*
X100090000Y-50360000D01*
X99850000Y-50690000D01*
G37*
X116210580Y-45800000D02*
X115929420Y-45800000D01*
X116210580Y-46820000D02*
X115929420Y-46820000D01*
X122089420Y-59190000D02*
X122370580Y-59190000D01*
X122089420Y-60210000D02*
X122370580Y-60210000D01*
X105760000Y-41206359D02*
X105760000Y-41513641D01*
X106520000Y-41206359D02*
X106520000Y-41513641D01*
D14*
X151318000Y-46608800D02*
X151318000Y-50571200D01*
X151318000Y-50571200D02*
X156118600Y-50571200D01*
X156118600Y-46608800D02*
X151318000Y-46608800D01*
X156118600Y-50571200D02*
X156118600Y-46608800D01*
D13*
X106850000Y-41176359D02*
X106850000Y-41483641D01*
X107610000Y-41176359D02*
X107610000Y-41483641D01*
X82620000Y-28430000D02*
X82620000Y-29680000D01*
X82920000Y-28730000D02*
X82920000Y-33450000D01*
X82920000Y-30040000D02*
X83530000Y-30040000D01*
X82920000Y-31340000D02*
X83530000Y-31340000D01*
X82920000Y-33450000D02*
X91040000Y-33450000D01*
X83530000Y-29340000D02*
X83530000Y-32840000D01*
X83530000Y-32840000D02*
X90430000Y-32840000D01*
X83870000Y-28430000D02*
X82620000Y-28430000D01*
X84380000Y-28530000D02*
X84380000Y-28730000D01*
X84680000Y-28530000D02*
X84380000Y-28530000D01*
X84680000Y-28630000D02*
X84380000Y-28630000D01*
X84680000Y-28730000D02*
X84680000Y-28530000D01*
X85480000Y-28730000D02*
X85480000Y-29340000D01*
X85480000Y-29340000D02*
X83530000Y-29340000D01*
X85880000Y-32340000D02*
X86080000Y-32340000D01*
X85880000Y-32840000D02*
X85880000Y-32340000D01*
X85980000Y-32840000D02*
X85980000Y-32340000D01*
X86080000Y-32340000D02*
X86080000Y-32840000D01*
X87880000Y-32340000D02*
X88080000Y-32340000D01*
X87880000Y-32840000D02*
X87880000Y-32340000D01*
X87980000Y-32840000D02*
X87980000Y-32340000D01*
X88080000Y-32340000D02*
X88080000Y-32840000D01*
X88480000Y-29340000D02*
X88480000Y-28730000D01*
X90430000Y-29340000D02*
X88480000Y-29340000D01*
X90430000Y-32840000D02*
X90430000Y-29340000D01*
X91040000Y-28730000D02*
X82920000Y-28730000D01*
X91040000Y-30040000D02*
X90430000Y-30040000D01*
X91040000Y-31340000D02*
X90430000Y-31340000D01*
X91040000Y-33450000D02*
X91040000Y-28730000D01*
X111540000Y-47692164D02*
X111540000Y-47907836D01*
X112260000Y-47692164D02*
X112260000Y-47907836D01*
X66340000Y-58480000D02*
X66340000Y-59730000D01*
X66640000Y-58780000D02*
X66640000Y-63500000D01*
X66640000Y-60090000D02*
X67250000Y-60090000D01*
X66640000Y-61390000D02*
X67250000Y-61390000D01*
X66640000Y-63500000D02*
X78760000Y-63500000D01*
X67250000Y-59390000D02*
X67250000Y-62890000D01*
X67250000Y-62890000D02*
X78150000Y-62890000D01*
X67590000Y-58480000D02*
X66340000Y-58480000D01*
X68100000Y-58580000D02*
X68100000Y-58780000D01*
X68400000Y-58580000D02*
X68100000Y-58580000D01*
X68400000Y-58680000D02*
X68100000Y-58680000D01*
X68400000Y-58780000D02*
X68400000Y-58580000D01*
X69200000Y-58780000D02*
X69200000Y-59390000D01*
X69200000Y-59390000D02*
X67250000Y-59390000D01*
X69600000Y-62390000D02*
X69800000Y-62390000D01*
X69600000Y-62890000D02*
X69600000Y-62390000D01*
X69700000Y-62890000D02*
X69700000Y-62390000D01*
X69800000Y-62390000D02*
X69800000Y-62890000D01*
X71600000Y-62390000D02*
X71800000Y-62390000D01*
X71600000Y-62890000D02*
X71600000Y-62390000D01*
X71700000Y-62890000D02*
X71700000Y-62390000D01*
X71800000Y-62390000D02*
X71800000Y-62890000D01*
X73600000Y-62390000D02*
X73800000Y-62390000D01*
X73600000Y-62890000D02*
X73600000Y-62390000D01*
X73700000Y-62890000D02*
X73700000Y-62390000D01*
X73800000Y-62390000D02*
X73800000Y-62890000D01*
X75600000Y-62390000D02*
X75800000Y-62390000D01*
X75600000Y-62890000D02*
X75600000Y-62390000D01*
X75700000Y-62890000D02*
X75700000Y-62390000D01*
X75800000Y-62390000D02*
X75800000Y-62890000D01*
X76200000Y-59390000D02*
X76200000Y-58780000D01*
X78150000Y-59390000D02*
X76200000Y-59390000D01*
X78150000Y-62890000D02*
X78150000Y-59390000D01*
X78760000Y-58780000D02*
X66640000Y-58780000D01*
X78760000Y-60090000D02*
X78150000Y-60090000D01*
X78760000Y-61390000D02*
X78150000Y-61390000D01*
X78760000Y-63500000D02*
X78760000Y-58780000D01*
X132785000Y-56190000D02*
X137535000Y-56190000D01*
X132785000Y-58820000D02*
X132785000Y-56190000D01*
X132785000Y-65220000D02*
X132785000Y-61620000D01*
X132785000Y-71520000D02*
X132785000Y-67920000D01*
X132785000Y-77040000D02*
X132785000Y-74320000D01*
X132785000Y-77040000D02*
X136185000Y-77040000D01*
X136185000Y-77040000D02*
X136185000Y-80040000D01*
X136185000Y-80040000D02*
X147825000Y-80040000D01*
X137535000Y-53270000D02*
X137535000Y-56190000D01*
X137575000Y-53270000D02*
X146475000Y-53270000D01*
X146475000Y-53270000D02*
X146475000Y-56190000D01*
X146475000Y-56190000D02*
X151225000Y-56190000D01*
X147825000Y-77040000D02*
X147825000Y-80040000D01*
X147825000Y-77040000D02*
X151225000Y-77040000D01*
X151225000Y-56190000D02*
X151225000Y-58820000D01*
X151225000Y-61620000D02*
X151225000Y-65220000D01*
X151225000Y-67920000D02*
X151225000Y-71520000D01*
X151225000Y-77040000D02*
X151225000Y-74320000D01*
D15*
X178950000Y-56502500D02*
X178950000Y-61152500D01*
X180250000Y-56502500D02*
X178950000Y-56502500D01*
X184550000Y-62802500D02*
X181050000Y-62802500D01*
X187100000Y-56502500D02*
X182650000Y-56502500D01*
X188150000Y-62802500D02*
X186900000Y-62802500D01*
X190500000Y-62802500D02*
X190950000Y-62802500D01*
X190950000Y-56502500D02*
X189600000Y-56502500D01*
X190950000Y-56502500D02*
X190950000Y-62802500D01*
D16*
X188550000Y-53952500D02*
G75*
G02*
X188350000Y-53952500I-100000J0D01*
G01*
X188350000Y-53952500D02*
G75*
G02*
X188550000Y-53952500I100000J0D01*
G01*
D13*
X156582164Y-45400000D02*
X156797836Y-45400000D01*
X156582164Y-46120000D02*
X156797836Y-46120000D01*
X41216359Y-58210000D02*
X41523641Y-58210000D01*
X41216359Y-57450000D02*
X41523641Y-57450000D01*
X96370000Y-36422500D02*
X96370000Y-35622500D01*
X96370000Y-36422500D02*
X96370000Y-37222500D01*
X99490000Y-36422500D02*
X99490000Y-35622500D01*
X99490000Y-36422500D02*
X99490000Y-37222500D01*
X99770000Y-35362500D02*
X99440000Y-35122500D01*
X99770000Y-34882500D01*
X99770000Y-35362500D01*
G36*
X99770000Y-35362500D02*
G01*
X99440000Y-35122500D01*
X99770000Y-34882500D01*
X99770000Y-35362500D01*
G37*
X185147258Y-65647500D02*
X184672742Y-65647500D01*
X185147258Y-66692500D02*
X184672742Y-66692500D01*
X41206359Y-59320000D02*
X41513641Y-59320000D01*
X41206359Y-58560000D02*
X41513641Y-58560000D01*
X116205580Y-44280000D02*
X115924420Y-44280000D01*
X116205580Y-45300000D02*
X115924420Y-45300000D01*
D15*
X178880000Y-70400000D02*
X178880000Y-75050000D01*
X180180000Y-70400000D02*
X178880000Y-70400000D01*
X184480000Y-76700000D02*
X180980000Y-76700000D01*
X187030000Y-70400000D02*
X182580000Y-70400000D01*
X188080000Y-76700000D02*
X186830000Y-76700000D01*
X190430000Y-76700000D02*
X190880000Y-76700000D01*
X190880000Y-70400000D02*
X189530000Y-70400000D01*
X190880000Y-70400000D02*
X190880000Y-76700000D01*
D16*
X188480000Y-67850000D02*
G75*
G02*
X188280000Y-67850000I-100000J0D01*
G01*
X188280000Y-67850000D02*
G75*
G02*
X188480000Y-67850000I100000J0D01*
G01*
D13*
X31465000Y-63920000D02*
X31465000Y-75560000D01*
X34465000Y-60520000D02*
X34465000Y-63920000D01*
X34465000Y-60520000D02*
X37185000Y-60520000D01*
X34465000Y-63920000D02*
X31465000Y-63920000D01*
X34465000Y-75560000D02*
X31465000Y-75560000D01*
X34465000Y-75560000D02*
X34465000Y-78960000D01*
X34465000Y-78960000D02*
X37185000Y-78960000D01*
X39985000Y-60520000D02*
X43585000Y-60520000D01*
X43585000Y-78960000D02*
X39985000Y-78960000D01*
X46285000Y-60520000D02*
X49885000Y-60520000D01*
X49885000Y-78960000D02*
X46285000Y-78960000D01*
X52685000Y-60520000D02*
X55315000Y-60520000D01*
X55315000Y-60520000D02*
X55315000Y-65270000D01*
X55315000Y-74210000D02*
X55315000Y-78960000D01*
X55315000Y-78960000D02*
X52685000Y-78960000D01*
X58235000Y-65270000D02*
X55315000Y-65270000D01*
X58235000Y-65310000D02*
X58235000Y-74210000D01*
X58235000Y-74210000D02*
X55315000Y-74210000D01*
X97387500Y-47274420D02*
X97387500Y-47555580D01*
X98407500Y-47274420D02*
X98407500Y-47555580D01*
X61050000Y-72924420D02*
X61050000Y-73205580D01*
X62070000Y-72924420D02*
X62070000Y-73205580D01*
X118883641Y-61060000D02*
X118576359Y-61060000D01*
X118883641Y-61820000D02*
X118576359Y-61820000D01*
X141207500Y-49062164D02*
X141207500Y-49277836D01*
X141927500Y-49062164D02*
X141927500Y-49277836D01*
X102490000Y-41181359D02*
X102490000Y-41488641D01*
X103250000Y-41181359D02*
X103250000Y-41488641D01*
X101217500Y-45980000D02*
X100417500Y-45980000D01*
X101217500Y-45980000D02*
X102017500Y-45980000D01*
X101217500Y-49100000D02*
X100417500Y-49100000D01*
X101217500Y-49100000D02*
X102017500Y-49100000D01*
X99917500Y-46030000D02*
X99677500Y-45700000D01*
X100157500Y-45700000D01*
X99917500Y-46030000D01*
G36*
X99917500Y-46030000D02*
G01*
X99677500Y-45700000D01*
X100157500Y-45700000D01*
X99917500Y-46030000D01*
G37*
X104670000Y-41216359D02*
X104670000Y-41523641D01*
X105430000Y-41216359D02*
X105430000Y-41523641D01*
X147426528Y-46837164D02*
X147426528Y-49497164D01*
X149126528Y-46837164D02*
X147426528Y-46837164D01*
X149126528Y-46837164D02*
X149126528Y-49497164D01*
X80406667Y-46640000D02*
X80406667Y-47890000D01*
X80706667Y-46940000D02*
X80706667Y-51660000D01*
X80706667Y-48250000D02*
X81316667Y-48250000D01*
X80706667Y-49550000D02*
X81316667Y-49550000D01*
X80706667Y-51660000D02*
X92826667Y-51660000D01*
X81316667Y-47550000D02*
X81316667Y-51050000D01*
X81316667Y-51050000D02*
X92216667Y-51050000D01*
X81656667Y-46640000D02*
X80406667Y-46640000D01*
X82166667Y-46740000D02*
X82166667Y-46940000D01*
X82466667Y-46740000D02*
X82166667Y-46740000D01*
X82466667Y-46840000D02*
X82166667Y-46840000D01*
X82466667Y-46940000D02*
X82466667Y-46740000D01*
X83266667Y-46940000D02*
X83266667Y-47550000D01*
X83266667Y-47550000D02*
X81316667Y-47550000D01*
X83666667Y-50550000D02*
X83866667Y-50550000D01*
X83666667Y-51050000D02*
X83666667Y-50550000D01*
X83766667Y-51050000D02*
X83766667Y-50550000D01*
X83866667Y-50550000D02*
X83866667Y-51050000D01*
X85666667Y-50550000D02*
X85866667Y-50550000D01*
X85666667Y-51050000D02*
X85666667Y-50550000D01*
X85766667Y-51050000D02*
X85766667Y-50550000D01*
X85866667Y-50550000D02*
X85866667Y-51050000D01*
X87666667Y-50550000D02*
X87866667Y-50550000D01*
X87666667Y-51050000D02*
X87666667Y-50550000D01*
X87766667Y-51050000D02*
X87766667Y-50550000D01*
X87866667Y-50550000D02*
X87866667Y-51050000D01*
X89666667Y-50550000D02*
X89866667Y-50550000D01*
X89666667Y-51050000D02*
X89666667Y-50550000D01*
X89766667Y-51050000D02*
X89766667Y-50550000D01*
X89866667Y-50550000D02*
X89866667Y-51050000D01*
X90266667Y-47550000D02*
X90266667Y-46940000D01*
X92216667Y-47550000D02*
X90266667Y-47550000D01*
X92216667Y-51050000D02*
X92216667Y-47550000D01*
X92826667Y-46940000D02*
X80706667Y-46940000D01*
X92826667Y-48250000D02*
X92216667Y-48250000D01*
X92826667Y-49550000D02*
X92216667Y-49550000D01*
X92826667Y-51660000D02*
X92826667Y-46940000D01*
X98245580Y-32512500D02*
X97964420Y-32512500D01*
X98245580Y-33532500D02*
X97964420Y-33532500D01*
X97245000Y-51884420D02*
X97245000Y-52165580D01*
X98265000Y-51884420D02*
X98265000Y-52165580D01*
X105550000Y-43260000D02*
X106025000Y-43260000D01*
X105550000Y-43735000D02*
X105550000Y-43260000D01*
X105550000Y-48005000D02*
X105550000Y-48180000D01*
X106025000Y-48480000D02*
X105790000Y-48480000D01*
X110770000Y-43260000D02*
X110295000Y-43260000D01*
X110770000Y-43735000D02*
X110770000Y-43260000D01*
X110770000Y-48005000D02*
X110770000Y-48480000D01*
X110770000Y-48480000D02*
X110295000Y-48480000D01*
X105550000Y-48480000D02*
X105220000Y-48720000D01*
X105220000Y-48240000D01*
X105550000Y-48480000D01*
G36*
X105550000Y-48480000D02*
G01*
X105220000Y-48720000D01*
X105220000Y-48240000D01*
X105550000Y-48480000D01*
G37*
X113915000Y-63170000D02*
X113915000Y-77230000D01*
X113915000Y-63170000D02*
X115475000Y-63170000D01*
X115825000Y-79340000D02*
X118225000Y-79340000D01*
X117525000Y-63170000D02*
X116975000Y-63170000D01*
X118235000Y-79330000D02*
X118735000Y-78840000D01*
X118735000Y-78390000D02*
X118735000Y-78840000D01*
X126765000Y-78390000D02*
X118735000Y-78390000D01*
X126765000Y-78390000D02*
X126765000Y-78840000D01*
X127375000Y-63170000D02*
X127885000Y-63170000D01*
X127885000Y-63170000D02*
X127885000Y-66780000D01*
X127885000Y-68480000D02*
X127885000Y-73180000D01*
X127885000Y-74480000D02*
X127885000Y-75580000D01*
X108762164Y-41530000D02*
X108977836Y-41530000D01*
X108762164Y-42250000D02*
X108977836Y-42250000D01*
D10*
X182420000Y-49410000D02*
X182420000Y-40410000D01*
X183920000Y-38010000D02*
X187420000Y-38010000D01*
X183920000Y-51810000D02*
X187420000Y-51810000D01*
X188920000Y-48410000D02*
X197920000Y-48410000D01*
X188920000Y-49410000D02*
X188920000Y-40410000D01*
X197920000Y-43410000D02*
X188920000Y-43410000D01*
X197920000Y-48410000D02*
X197920000Y-43410000D01*
D13*
X108772164Y-50160000D02*
X108987836Y-50160000D01*
X108772164Y-50880000D02*
X108987836Y-50880000D01*
X155540000Y-56135000D02*
X160290000Y-56135000D01*
X155540000Y-58765000D02*
X155540000Y-56135000D01*
X155540000Y-65165000D02*
X155540000Y-61565000D01*
X155540000Y-71465000D02*
X155540000Y-67865000D01*
X155540000Y-76985000D02*
X155540000Y-74265000D01*
X155540000Y-76985000D02*
X158940000Y-76985000D01*
X158940000Y-76985000D02*
X158940000Y-79985000D01*
X158940000Y-79985000D02*
X170580000Y-79985000D01*
X160290000Y-53215000D02*
X160290000Y-56135000D01*
X160330000Y-53215000D02*
X169230000Y-53215000D01*
X169230000Y-53215000D02*
X169230000Y-56135000D01*
X169230000Y-56135000D02*
X173980000Y-56135000D01*
X170580000Y-76985000D02*
X170580000Y-79985000D01*
X170580000Y-76985000D02*
X173980000Y-76985000D01*
X173980000Y-56135000D02*
X173980000Y-58765000D01*
X173980000Y-61565000D02*
X173980000Y-65165000D01*
X173980000Y-67865000D02*
X173980000Y-71465000D01*
X173980000Y-76985000D02*
X173980000Y-74265000D01*
X103727500Y-46967164D02*
X103727500Y-47182836D01*
X104447500Y-46967164D02*
X104447500Y-47182836D01*
X121230000Y-46640000D02*
X121230000Y-47890000D01*
X121530000Y-46940000D02*
X121530000Y-51660000D01*
X121530000Y-48250000D02*
X122140000Y-48250000D01*
X121530000Y-49550000D02*
X122140000Y-49550000D01*
X121530000Y-51660000D02*
X133650000Y-51660000D01*
X122140000Y-47550000D02*
X122140000Y-51050000D01*
X122140000Y-51050000D02*
X133040000Y-51050000D01*
X122480000Y-46640000D02*
X121230000Y-46640000D01*
X122990000Y-46740000D02*
X122990000Y-46940000D01*
X123290000Y-46740000D02*
X122990000Y-46740000D01*
X123290000Y-46840000D02*
X122990000Y-46840000D01*
X123290000Y-46940000D02*
X123290000Y-46740000D01*
X124090000Y-46940000D02*
X124090000Y-47550000D01*
X124090000Y-47550000D02*
X122140000Y-47550000D01*
X124490000Y-50550000D02*
X124690000Y-50550000D01*
X124490000Y-51050000D02*
X124490000Y-50550000D01*
X124590000Y-51050000D02*
X124590000Y-50550000D01*
X124690000Y-50550000D02*
X124690000Y-51050000D01*
X126490000Y-50550000D02*
X126690000Y-50550000D01*
X126490000Y-51050000D02*
X126490000Y-50550000D01*
X126590000Y-51050000D02*
X126590000Y-50550000D01*
X126690000Y-50550000D02*
X126690000Y-51050000D01*
X128490000Y-50550000D02*
X128690000Y-50550000D01*
X128490000Y-51050000D02*
X128490000Y-50550000D01*
X128590000Y-51050000D02*
X128590000Y-50550000D01*
X128690000Y-50550000D02*
X128690000Y-51050000D01*
X130490000Y-50550000D02*
X130690000Y-50550000D01*
X130490000Y-51050000D02*
X130490000Y-50550000D01*
X130590000Y-51050000D02*
X130590000Y-50550000D01*
X130690000Y-50550000D02*
X130690000Y-51050000D01*
X131090000Y-47550000D02*
X131090000Y-46940000D01*
X133040000Y-47550000D02*
X131090000Y-47550000D01*
X133040000Y-51050000D02*
X133040000Y-47550000D01*
X133650000Y-46940000D02*
X121530000Y-46940000D01*
X133650000Y-48250000D02*
X133040000Y-48250000D01*
X133650000Y-49550000D02*
X133040000Y-49550000D01*
X133650000Y-51660000D02*
X133650000Y-46940000D01*
X98522836Y-38872500D02*
X98307164Y-38872500D01*
X98522836Y-39592500D02*
X98307164Y-39592500D01*
X101922836Y-54295000D02*
X101707164Y-54295000D01*
X101922836Y-55015000D02*
X101707164Y-55015000D01*
D11*
X113020000Y-30720000D02*
X114290000Y-30720000D01*
X113020000Y-38340000D02*
X113020000Y-30720000D01*
X114290000Y-25640000D02*
X175250000Y-25640000D01*
X114290000Y-38340000D02*
X113020000Y-38340000D01*
X114290000Y-43420000D02*
X114290000Y-25640000D01*
X119370000Y-30720000D02*
X114290000Y-30720000D01*
X119370000Y-38340000D02*
X114290000Y-38340000D01*
X119370000Y-38340000D02*
X119370000Y-30720000D01*
X120589200Y-37829200D02*
X123129200Y-37829200D01*
X120589200Y-37829200D02*
X133289200Y-37829200D01*
X120589200Y-40369200D02*
X120589200Y-37829200D01*
X123129200Y-37829200D02*
X123129200Y-40369200D01*
X127520000Y-28178400D02*
X127520000Y-28428400D01*
X127520000Y-28428400D02*
X127520000Y-34428400D01*
X127520000Y-34428400D02*
X131520000Y-34428400D01*
X131520000Y-28178400D02*
X127520000Y-28178400D01*
X131520000Y-34428400D02*
X131520000Y-28178400D01*
X133289200Y-37829200D02*
X133289200Y-40369200D01*
X133289200Y-40369200D02*
X120589200Y-40369200D01*
X137150000Y-28180000D02*
X137150000Y-40880000D01*
X137150000Y-40880000D02*
X149850000Y-40880000D01*
X149850000Y-28180000D02*
X137150000Y-28180000D01*
X149850000Y-40880000D02*
X149850000Y-28180000D01*
X154930000Y-33260000D02*
X158740000Y-33260000D01*
X154930000Y-35800000D02*
X154930000Y-33260000D01*
X158740000Y-33260000D02*
X158740000Y-35800000D01*
X158740000Y-35800000D02*
X154930000Y-35800000D01*
X162550000Y-28180000D02*
X162550000Y-40880000D01*
X162550000Y-40880000D02*
X175250000Y-40880000D01*
X173980000Y-29450000D02*
X173980000Y-39610000D01*
X173980000Y-39610000D02*
X175250000Y-39610000D01*
X175250000Y-25640000D02*
X175250000Y-43420000D01*
X175250000Y-28180000D02*
X162550000Y-28180000D01*
X175250000Y-29450000D02*
X173980000Y-29450000D01*
X175250000Y-43420000D02*
X114290000Y-43420000D01*
X157733026Y-34530000D02*
G75*
G02*
X155936974Y-34530000I-898026J0D01*
G01*
X155936974Y-34530000D02*
G75*
G02*
X157733026Y-34530000I898026J0D01*
G01*
D10*
X145681000Y-33842000D02*
X145427000Y-34096000D01*
X145173000Y-33715000D01*
X145427000Y-33461000D01*
X145681000Y-33842000D01*
G36*
X145681000Y-33842000D02*
G01*
X145427000Y-34096000D01*
X145173000Y-33715000D01*
X145427000Y-33461000D01*
X145681000Y-33842000D01*
G37*
X146062000Y-34350000D02*
X145808000Y-34604000D01*
X145554000Y-34223000D01*
X145808000Y-33969000D01*
X146062000Y-34350000D01*
G36*
X146062000Y-34350000D02*
G01*
X145808000Y-34604000D01*
X145554000Y-34223000D01*
X145808000Y-33969000D01*
X146062000Y-34350000D01*
G37*
X146443000Y-33969000D02*
X146189000Y-34223000D01*
X145935000Y-33842000D01*
X146189000Y-33588000D01*
X146443000Y-33969000D01*
G36*
X146443000Y-33969000D02*
G01*
X146189000Y-34223000D01*
X145935000Y-33842000D01*
X146189000Y-33588000D01*
X146443000Y-33969000D01*
G37*
X146443000Y-34858000D02*
X146189000Y-35112000D01*
X145935000Y-34731000D01*
X146189000Y-34477000D01*
X146443000Y-34858000D01*
G36*
X146443000Y-34858000D02*
G01*
X146189000Y-35112000D01*
X145935000Y-34731000D01*
X146189000Y-34477000D01*
X146443000Y-34858000D01*
G37*
X146824000Y-34477000D02*
X146570000Y-34731000D01*
X146316000Y-34350000D01*
X146570000Y-34096000D01*
X146824000Y-34477000D01*
G36*
X146824000Y-34477000D02*
G01*
X146570000Y-34731000D01*
X146316000Y-34350000D01*
X146570000Y-34096000D01*
X146824000Y-34477000D01*
G37*
X147205000Y-34985000D02*
X146951000Y-35239000D01*
X146697000Y-34858000D01*
X146951000Y-34604000D01*
X147205000Y-34985000D01*
G36*
X147205000Y-34985000D02*
G01*
X146951000Y-35239000D01*
X146697000Y-34858000D01*
X146951000Y-34604000D01*
X147205000Y-34985000D01*
G37*
X147586000Y-34604000D02*
X147332000Y-34858000D01*
X147078000Y-34477000D01*
X147332000Y-34223000D01*
X147586000Y-34604000D01*
G36*
X147586000Y-34604000D02*
G01*
X147332000Y-34858000D01*
X147078000Y-34477000D01*
X147332000Y-34223000D01*
X147586000Y-34604000D01*
G37*
X147967000Y-34223000D02*
X147713000Y-34477000D01*
X147459000Y-34096000D01*
X147713000Y-33842000D01*
X147967000Y-34223000D01*
G36*
X147967000Y-34223000D02*
G01*
X147713000Y-34477000D01*
X147459000Y-34096000D01*
X147713000Y-33842000D01*
X147967000Y-34223000D01*
G37*
D13*
X145817500Y-48222742D02*
X145817500Y-48697258D01*
X146862500Y-48222742D02*
X146862500Y-48697258D01*
X108812164Y-51320000D02*
X109027836Y-51320000D01*
X108812164Y-52040000D02*
X109027836Y-52040000D01*
X31375000Y-29400000D02*
X31375000Y-41040000D01*
X34375000Y-26000000D02*
X34375000Y-29400000D01*
X34375000Y-26000000D02*
X37095000Y-26000000D01*
X34375000Y-29400000D02*
X31375000Y-29400000D01*
X34375000Y-41040000D02*
X31375000Y-41040000D01*
X34375000Y-41040000D02*
X34375000Y-44440000D01*
X34375000Y-44440000D02*
X37095000Y-44440000D01*
X39895000Y-26000000D02*
X43495000Y-26000000D01*
X43495000Y-44440000D02*
X39895000Y-44440000D01*
X46195000Y-26000000D02*
X49795000Y-26000000D01*
X49795000Y-44440000D02*
X46195000Y-44440000D01*
X52595000Y-26000000D02*
X55225000Y-26000000D01*
X55225000Y-26000000D02*
X55225000Y-30750000D01*
X55225000Y-39690000D02*
X55225000Y-44440000D01*
X55225000Y-44440000D02*
X52595000Y-44440000D01*
X58145000Y-30750000D02*
X55225000Y-30750000D01*
X58145000Y-30790000D02*
X58145000Y-39690000D01*
X58145000Y-39690000D02*
X55225000Y-39690000D01*
%LPC*%
D17*
X176690000Y-35920000D03*
X177710000Y-35920000D03*
D18*
X179255000Y-28205000D03*
X179255000Y-29155000D03*
X179255000Y-30105000D03*
X181530000Y-30105000D03*
X181530000Y-28205000D03*
D19*
X183770000Y-29900000D03*
X183770000Y-28250000D03*
D20*
X180965000Y-26460000D03*
X179315000Y-26460000D03*
D21*
X178940000Y-34005000D03*
X178940000Y-32105000D03*
X177065000Y-33055000D03*
D22*
X186810000Y-33840000D03*
D23*
X186810000Y-31840000D03*
D24*
X182742500Y-26460000D03*
X184317500Y-26460000D03*
D25*
X181352500Y-32062500D03*
X181352500Y-35362500D03*
D26*
X177030000Y-30110000D03*
X177030000Y-28560000D03*
D27*
X103250000Y-70930000D03*
D28*
X105150000Y-70930000D03*
D29*
X102347500Y-49840000D03*
X101387500Y-49840000D03*
D30*
X103385000Y-66190000D03*
X105035000Y-66190000D03*
D31*
X95565000Y-37552500D03*
X95565000Y-36592500D03*
D17*
X101165000Y-43540000D03*
X102185000Y-43540000D03*
D32*
X164413334Y-48750000D03*
D33*
X166413334Y-48750000D03*
X168413334Y-48750000D03*
X170413334Y-48750000D03*
X172413334Y-48750000D03*
D34*
X61500000Y-67900000D03*
X61500000Y-69450000D03*
D35*
X179500000Y-51595000D03*
X179500000Y-53245000D03*
D32*
X68660000Y-72880000D03*
D33*
X70660000Y-72880000D03*
X72660000Y-72880000D03*
X74660000Y-72880000D03*
X76660000Y-72880000D03*
D36*
X116830000Y-47850000D03*
X115280000Y-47850000D03*
D37*
X36550000Y-49970000D03*
X36550000Y-55750000D03*
D38*
X37995000Y-49610000D03*
X37995000Y-50410000D03*
D39*
X37995000Y-51610000D03*
X37995000Y-52610000D03*
X37995000Y-53110000D03*
X37995000Y-54110000D03*
D38*
X37995000Y-55310000D03*
X37995000Y-56110000D03*
X37995000Y-56110000D03*
X37995000Y-55310000D03*
D39*
X37995000Y-54610000D03*
X37995000Y-53610000D03*
X37995000Y-52110000D03*
X37995000Y-51110000D03*
D38*
X37995000Y-50410000D03*
X37995000Y-49610000D03*
D40*
X37080000Y-48540000D03*
D41*
X32900000Y-48540000D03*
D40*
X37080000Y-57180000D03*
D41*
X32900000Y-57180000D03*
D42*
X103920000Y-40840000D03*
X103920000Y-41860000D03*
D32*
X41943334Y-48750000D03*
D33*
X43943334Y-48750000D03*
X45943334Y-48750000D03*
X47943334Y-48750000D03*
X49943334Y-48750000D03*
D17*
X101150000Y-44680000D03*
X102170000Y-44680000D03*
D29*
X122410000Y-61220000D03*
X121450000Y-61220000D03*
D43*
X104065000Y-51245000D03*
X104065000Y-52205000D03*
D18*
X137632500Y-47740000D03*
X137632500Y-48690000D03*
X137632500Y-49640000D03*
X139907500Y-49640000D03*
X139907500Y-48690000D03*
X139907500Y-47740000D03*
D44*
X108380000Y-40700000D03*
X109340000Y-40700000D03*
D18*
X100012500Y-51250000D03*
X100012500Y-52200000D03*
X100012500Y-53150000D03*
X102287500Y-53150000D03*
X102287500Y-51250000D03*
D36*
X116845000Y-46310000D03*
X115295000Y-46310000D03*
D45*
X121455000Y-59700000D03*
X123005000Y-59700000D03*
D42*
X106140000Y-40850000D03*
X106140000Y-41870000D03*
D46*
X150276600Y-47320000D03*
X150276600Y-49860000D03*
X157160000Y-49860000D03*
X157160000Y-48590000D03*
X157160000Y-47320000D03*
D42*
X107230000Y-40820000D03*
X107230000Y-41840000D03*
D32*
X84980000Y-30540000D03*
D33*
X86980000Y-30540000D03*
X88980000Y-30540000D03*
D43*
X111900000Y-47320000D03*
X111900000Y-48280000D03*
D32*
X68700000Y-60590000D03*
D33*
X70700000Y-60590000D03*
X72700000Y-60590000D03*
X74700000Y-60590000D03*
X76700000Y-60590000D03*
D47*
X150120000Y-66570000D03*
X133890000Y-66570000D03*
X150120000Y-72920000D03*
X133890000Y-72920000D03*
X150120000Y-60220000D03*
X133890000Y-60220000D03*
D48*
X187950000Y-59652500D03*
X181950000Y-59652500D03*
D49*
X188350000Y-56152500D03*
X181450000Y-56152500D03*
X185750000Y-63152500D03*
X189350000Y-63152500D03*
X179850000Y-63152500D03*
D44*
X156210000Y-45760000D03*
X157170000Y-45760000D03*
D17*
X40860000Y-57830000D03*
X41880000Y-57830000D03*
D50*
X98880000Y-35285000D03*
X97930000Y-35285000D03*
X96980000Y-35285000D03*
X96980000Y-37560000D03*
X98880000Y-37560000D03*
D20*
X185735000Y-66170000D03*
X184085000Y-66170000D03*
D17*
X40850000Y-58940000D03*
X41870000Y-58940000D03*
D36*
X116840000Y-44790000D03*
X115290000Y-44790000D03*
D48*
X187880000Y-73550000D03*
X181880000Y-73550000D03*
D49*
X188280000Y-70050000D03*
X181380000Y-70050000D03*
X185680000Y-77050000D03*
X189280000Y-77050000D03*
X179780000Y-77050000D03*
D47*
X44935000Y-77855000D03*
X44935000Y-61625000D03*
X38585000Y-77855000D03*
X38585000Y-61625000D03*
X51285000Y-77855000D03*
X51285000Y-61625000D03*
D34*
X97897500Y-46640000D03*
X97897500Y-48190000D03*
X61560000Y-72290000D03*
X61560000Y-73840000D03*
D51*
X119240000Y-61440000D03*
X118220000Y-61440000D03*
D43*
X141567500Y-48690000D03*
X141567500Y-49650000D03*
D42*
X102870000Y-40825000D03*
X102870000Y-41845000D03*
D18*
X100080000Y-46590000D03*
X100080000Y-47540000D03*
X100080000Y-48490000D03*
X102355000Y-48490000D03*
X102355000Y-46590000D03*
D42*
X105050000Y-40860000D03*
X105050000Y-41880000D03*
D52*
X148276528Y-47347164D03*
X148276528Y-49547164D03*
D32*
X82766667Y-48750000D03*
D33*
X84766667Y-48750000D03*
X86766667Y-48750000D03*
X88766667Y-48750000D03*
X90766667Y-48750000D03*
D36*
X98880000Y-33022500D03*
X97330000Y-33022500D03*
D34*
X97755000Y-51250000D03*
X97755000Y-52800000D03*
D53*
X106410000Y-48320000D03*
X106910000Y-48320000D03*
X107410000Y-48320000D03*
X107910000Y-48320000D03*
X108410000Y-48320000D03*
X108910000Y-48320000D03*
X109410000Y-48320000D03*
X109910000Y-48320000D03*
D54*
X110610000Y-47620000D03*
X110610000Y-47120000D03*
X110610000Y-46620000D03*
X110610000Y-46120000D03*
X110610000Y-45620000D03*
X110610000Y-45120000D03*
X110610000Y-44620000D03*
X110610000Y-44120000D03*
D53*
X109910000Y-43420000D03*
X109410000Y-43420000D03*
X108910000Y-43420000D03*
X108410000Y-43420000D03*
X107910000Y-43420000D03*
X107410000Y-43420000D03*
X106910000Y-43420000D03*
X106410000Y-43420000D03*
D54*
X105710000Y-44120000D03*
X105710000Y-44620000D03*
X105710000Y-45120000D03*
X105710000Y-45620000D03*
X105710000Y-46120000D03*
X105710000Y-46620000D03*
X105710000Y-47120000D03*
X105710000Y-47620000D03*
D55*
X108160000Y-45870000D03*
D56*
X118125000Y-63430000D03*
X119225000Y-63430000D03*
X120325000Y-63430000D03*
X121425000Y-63430000D03*
X122525000Y-63430000D03*
X123625000Y-63430000D03*
X124725000Y-63430000D03*
X125825000Y-63430000D03*
D57*
X126775000Y-63330000D03*
D58*
X127625000Y-73830000D03*
D59*
X114325000Y-78430000D03*
D60*
X115075000Y-78880000D03*
D61*
X115325000Y-79130000D03*
D62*
X116225000Y-63430000D03*
D63*
X127625000Y-67630000D03*
D64*
X127625000Y-77430000D03*
D44*
X108390000Y-41890000D03*
X109350000Y-41890000D03*
D65*
X186920000Y-48910000D03*
X186920000Y-44910000D03*
X186920000Y-40910000D03*
X184420000Y-40910000D03*
X184420000Y-44910000D03*
X184420000Y-48910000D03*
D66*
X188670000Y-50910000D03*
X182670000Y-50910000D03*
X188670000Y-38910000D03*
X182670000Y-38910000D03*
D44*
X108400000Y-50520000D03*
X109360000Y-50520000D03*
D47*
X172875000Y-66515000D03*
X156645000Y-66515000D03*
X172875000Y-72865000D03*
X156645000Y-72865000D03*
X172875000Y-60165000D03*
X156645000Y-60165000D03*
D43*
X104087500Y-46595000D03*
X104087500Y-47555000D03*
D32*
X123590000Y-48750000D03*
D33*
X125590000Y-48750000D03*
X127590000Y-48750000D03*
X129590000Y-48750000D03*
X131590000Y-48750000D03*
D29*
X98895000Y-39232500D03*
X97935000Y-39232500D03*
X102295000Y-54655000D03*
X101335000Y-54655000D03*
D67*
X115560000Y-42150000D03*
D68*
X118100000Y-42150000D03*
X120640000Y-42150000D03*
X123180000Y-42150000D03*
X125720000Y-42150000D03*
X128260000Y-42150000D03*
X130800000Y-42150000D03*
X133340000Y-42150000D03*
X135880000Y-42150000D03*
X138420000Y-42150000D03*
X140960000Y-42150000D03*
X143500000Y-42150000D03*
X146040000Y-42150000D03*
X148580000Y-42150000D03*
X151120000Y-42150000D03*
X153660000Y-42150000D03*
X156200000Y-42150000D03*
X158740000Y-42150000D03*
X161280000Y-42150000D03*
X163820000Y-42150000D03*
X166360000Y-42150000D03*
X168900000Y-42150000D03*
X171440000Y-42150000D03*
X173980000Y-42150000D03*
X173980000Y-26910000D03*
X171440000Y-26910000D03*
X168900000Y-26910000D03*
X166360000Y-26910000D03*
X163820000Y-26910000D03*
X161280000Y-26910000D03*
X158740000Y-26910000D03*
X156200000Y-26910000D03*
X153660000Y-26910000D03*
X151120000Y-26910000D03*
X148580000Y-26910000D03*
X146040000Y-26910000D03*
X143500000Y-26910000D03*
X140960000Y-26910000D03*
X138420000Y-26910000D03*
X135880000Y-26910000D03*
X133340000Y-26910000D03*
X130800000Y-26910000D03*
X128260000Y-26910000D03*
X125720000Y-26910000D03*
X123180000Y-26910000D03*
X120640000Y-26910000D03*
X118100000Y-26910000D03*
X115560000Y-26910000D03*
X118100000Y-29450000D03*
X161280000Y-39610000D03*
X161280000Y-37070000D03*
X161280000Y-34530000D03*
X161280000Y-31990000D03*
X161280000Y-29450000D03*
D67*
X121859200Y-39099200D03*
D68*
X124399200Y-39099200D03*
X126939200Y-39099200D03*
X129479200Y-39099200D03*
X132019200Y-39099200D03*
D69*
X128530000Y-29348400D03*
D70*
X128530000Y-31348400D03*
X128530000Y-33348400D03*
X130530000Y-33348400D03*
X130530000Y-31348400D03*
X130530000Y-29348400D03*
X116290000Y-33260000D03*
X116290000Y-35800000D03*
D35*
X146340000Y-47635000D03*
X146340000Y-49285000D03*
D44*
X108440000Y-51680000D03*
X109400000Y-51680000D03*
D47*
X44845000Y-43335000D03*
X44845000Y-27105000D03*
X38495000Y-43335000D03*
X38495000Y-27105000D03*
X51195000Y-43335000D03*
X51195000Y-27105000D03*
%LPD*%
M02*
