%TF.GenerationSoftware,KiCad,Pcbnew,8.0.2*%
%TF.CreationDate,2024-10-21T17:53:26+02:00*%
%TF.ProjectId,teensyAudioMidi,7465656e-7379-4417-9564-696f4d696469,rev?*%
%TF.SameCoordinates,Original*%
%TF.FileFunction,Drillmap*%
%TF.FilePolarity,Positive*%
%FSLAX45Y45*%
G04 Gerber Fmt 4.5, Leading zero omitted, Abs format (unit mm)*
G04 Created by KiCad (PCBNEW 8.0.2) date 2024-10-21 17:53:26*
%MOMM*%
%LPD*%
G01*
G04 APERTURE LIST*
%ADD10C,0.050000*%
%ADD11C,0.200000*%
%ADD12C,0.100000*%
%ADD13C,0.120000*%
G04 APERTURE END LIST*
D10*
X3098000Y-2504000D02*
X19098000Y-2504000D01*
X19098000Y-8004000D01*
X3098000Y-8004000D01*
X3098000Y-2504000D01*
D11*
D12*
X3622500Y-4964500D02*
X3687500Y-5029500D01*
X3687500Y-4964500D02*
X3622500Y-5029500D01*
X3622500Y-5542500D02*
X3687500Y-5607500D01*
X3687500Y-5542500D02*
X3622500Y-5607500D01*
D13*
X18248000Y-7355000D02*
G75*
G02*
X18128000Y-7355000I-60000J0D01*
G01*
X18128000Y-7355000D02*
G75*
G02*
X18248000Y-7355000I60000J0D01*
G01*
X18255000Y-5965250D02*
G75*
G02*
X18135000Y-5965250I-60000J0D01*
G01*
X18135000Y-5965250D02*
G75*
G02*
X18255000Y-5965250I60000J0D01*
G01*
X18848000Y-7355000D02*
G75*
G02*
X18728000Y-7355000I-60000J0D01*
G01*
X18728000Y-7355000D02*
G75*
G02*
X18848000Y-7355000I60000J0D01*
G01*
X18855000Y-5965250D02*
G75*
G02*
X18735000Y-5965250I-60000J0D01*
G01*
X18735000Y-5965250D02*
G75*
G02*
X18855000Y-5965250I60000J0D01*
G01*
D11*
X3356277Y-8317984D02*
X3356277Y-8117984D01*
X3356277Y-8117984D02*
X3403896Y-8117984D01*
X3403896Y-8117984D02*
X3432467Y-8127508D01*
X3432467Y-8127508D02*
X3451515Y-8146555D01*
X3451515Y-8146555D02*
X3461039Y-8165603D01*
X3461039Y-8165603D02*
X3470562Y-8203698D01*
X3470562Y-8203698D02*
X3470562Y-8232269D01*
X3470562Y-8232269D02*
X3461039Y-8270365D01*
X3461039Y-8270365D02*
X3451515Y-8289412D01*
X3451515Y-8289412D02*
X3432467Y-8308460D01*
X3432467Y-8308460D02*
X3403896Y-8317984D01*
X3403896Y-8317984D02*
X3356277Y-8317984D01*
X3556277Y-8317984D02*
X3556277Y-8184650D01*
X3556277Y-8222746D02*
X3565801Y-8203698D01*
X3565801Y-8203698D02*
X3575324Y-8194174D01*
X3575324Y-8194174D02*
X3594372Y-8184650D01*
X3594372Y-8184650D02*
X3613420Y-8184650D01*
X3680086Y-8317984D02*
X3680086Y-8184650D01*
X3680086Y-8117984D02*
X3670562Y-8127508D01*
X3670562Y-8127508D02*
X3680086Y-8137031D01*
X3680086Y-8137031D02*
X3689610Y-8127508D01*
X3689610Y-8127508D02*
X3680086Y-8117984D01*
X3680086Y-8117984D02*
X3680086Y-8137031D01*
X3803896Y-8317984D02*
X3784848Y-8308460D01*
X3784848Y-8308460D02*
X3775324Y-8289412D01*
X3775324Y-8289412D02*
X3775324Y-8117984D01*
X3908658Y-8317984D02*
X3889610Y-8308460D01*
X3889610Y-8308460D02*
X3880086Y-8289412D01*
X3880086Y-8289412D02*
X3880086Y-8117984D01*
X4137229Y-8317984D02*
X4137229Y-8117984D01*
X4137229Y-8117984D02*
X4203896Y-8260841D01*
X4203896Y-8260841D02*
X4270563Y-8117984D01*
X4270563Y-8117984D02*
X4270563Y-8317984D01*
X4451515Y-8317984D02*
X4451515Y-8213222D01*
X4451515Y-8213222D02*
X4441991Y-8194174D01*
X4441991Y-8194174D02*
X4422944Y-8184650D01*
X4422944Y-8184650D02*
X4384848Y-8184650D01*
X4384848Y-8184650D02*
X4365801Y-8194174D01*
X4451515Y-8308460D02*
X4432467Y-8317984D01*
X4432467Y-8317984D02*
X4384848Y-8317984D01*
X4384848Y-8317984D02*
X4365801Y-8308460D01*
X4365801Y-8308460D02*
X4356277Y-8289412D01*
X4356277Y-8289412D02*
X4356277Y-8270365D01*
X4356277Y-8270365D02*
X4365801Y-8251317D01*
X4365801Y-8251317D02*
X4384848Y-8241793D01*
X4384848Y-8241793D02*
X4432467Y-8241793D01*
X4432467Y-8241793D02*
X4451515Y-8232269D01*
X4546753Y-8184650D02*
X4546753Y-8384650D01*
X4546753Y-8194174D02*
X4565801Y-8184650D01*
X4565801Y-8184650D02*
X4603896Y-8184650D01*
X4603896Y-8184650D02*
X4622944Y-8194174D01*
X4622944Y-8194174D02*
X4632467Y-8203698D01*
X4632467Y-8203698D02*
X4641991Y-8222746D01*
X4641991Y-8222746D02*
X4641991Y-8279888D01*
X4641991Y-8279888D02*
X4632467Y-8298936D01*
X4632467Y-8298936D02*
X4622944Y-8308460D01*
X4622944Y-8308460D02*
X4603896Y-8317984D01*
X4603896Y-8317984D02*
X4565801Y-8317984D01*
X4565801Y-8317984D02*
X4546753Y-8308460D01*
X4727705Y-8298936D02*
X4737229Y-8308460D01*
X4737229Y-8308460D02*
X4727705Y-8317984D01*
X4727705Y-8317984D02*
X4718182Y-8308460D01*
X4718182Y-8308460D02*
X4727705Y-8298936D01*
X4727705Y-8298936D02*
X4727705Y-8317984D01*
X4727705Y-8194174D02*
X4737229Y-8203698D01*
X4737229Y-8203698D02*
X4727705Y-8213222D01*
X4727705Y-8213222D02*
X4718182Y-8203698D01*
X4718182Y-8203698D02*
X4727705Y-8194174D01*
X4727705Y-8194174D02*
X4727705Y-8213222D01*
D12*
X3030500Y-8614000D02*
X3095500Y-8679000D01*
X3095500Y-8614000D02*
X3030500Y-8679000D01*
D11*
X3394372Y-8537984D02*
X3413420Y-8537984D01*
X3413420Y-8537984D02*
X3432467Y-8547508D01*
X3432467Y-8547508D02*
X3441991Y-8557031D01*
X3441991Y-8557031D02*
X3451515Y-8576079D01*
X3451515Y-8576079D02*
X3461039Y-8614174D01*
X3461039Y-8614174D02*
X3461039Y-8661793D01*
X3461039Y-8661793D02*
X3451515Y-8699889D01*
X3451515Y-8699889D02*
X3441991Y-8718936D01*
X3441991Y-8718936D02*
X3432467Y-8728460D01*
X3432467Y-8728460D02*
X3413420Y-8737984D01*
X3413420Y-8737984D02*
X3394372Y-8737984D01*
X3394372Y-8737984D02*
X3375324Y-8728460D01*
X3375324Y-8728460D02*
X3365801Y-8718936D01*
X3365801Y-8718936D02*
X3356277Y-8699889D01*
X3356277Y-8699889D02*
X3346753Y-8661793D01*
X3346753Y-8661793D02*
X3346753Y-8614174D01*
X3346753Y-8614174D02*
X3356277Y-8576079D01*
X3356277Y-8576079D02*
X3365801Y-8557031D01*
X3365801Y-8557031D02*
X3375324Y-8547508D01*
X3375324Y-8547508D02*
X3394372Y-8537984D01*
X3546753Y-8718936D02*
X3556277Y-8728460D01*
X3556277Y-8728460D02*
X3546753Y-8737984D01*
X3546753Y-8737984D02*
X3537229Y-8728460D01*
X3537229Y-8728460D02*
X3546753Y-8718936D01*
X3546753Y-8718936D02*
X3546753Y-8737984D01*
X3727705Y-8537984D02*
X3689610Y-8537984D01*
X3689610Y-8537984D02*
X3670562Y-8547508D01*
X3670562Y-8547508D02*
X3661039Y-8557031D01*
X3661039Y-8557031D02*
X3641991Y-8585603D01*
X3641991Y-8585603D02*
X3632467Y-8623698D01*
X3632467Y-8623698D02*
X3632467Y-8699889D01*
X3632467Y-8699889D02*
X3641991Y-8718936D01*
X3641991Y-8718936D02*
X3651515Y-8728460D01*
X3651515Y-8728460D02*
X3670562Y-8737984D01*
X3670562Y-8737984D02*
X3708658Y-8737984D01*
X3708658Y-8737984D02*
X3727705Y-8728460D01*
X3727705Y-8728460D02*
X3737229Y-8718936D01*
X3737229Y-8718936D02*
X3746753Y-8699889D01*
X3746753Y-8699889D02*
X3746753Y-8652270D01*
X3746753Y-8652270D02*
X3737229Y-8633222D01*
X3737229Y-8633222D02*
X3727705Y-8623698D01*
X3727705Y-8623698D02*
X3708658Y-8614174D01*
X3708658Y-8614174D02*
X3670562Y-8614174D01*
X3670562Y-8614174D02*
X3651515Y-8623698D01*
X3651515Y-8623698D02*
X3641991Y-8633222D01*
X3641991Y-8633222D02*
X3632467Y-8652270D01*
X3927705Y-8537984D02*
X3832467Y-8537984D01*
X3832467Y-8537984D02*
X3822943Y-8633222D01*
X3822943Y-8633222D02*
X3832467Y-8623698D01*
X3832467Y-8623698D02*
X3851515Y-8614174D01*
X3851515Y-8614174D02*
X3899134Y-8614174D01*
X3899134Y-8614174D02*
X3918182Y-8623698D01*
X3918182Y-8623698D02*
X3927705Y-8633222D01*
X3927705Y-8633222D02*
X3937229Y-8652270D01*
X3937229Y-8652270D02*
X3937229Y-8699889D01*
X3937229Y-8699889D02*
X3927705Y-8718936D01*
X3927705Y-8718936D02*
X3918182Y-8728460D01*
X3918182Y-8728460D02*
X3899134Y-8737984D01*
X3899134Y-8737984D02*
X3851515Y-8737984D01*
X3851515Y-8737984D02*
X3832467Y-8728460D01*
X3832467Y-8728460D02*
X3822943Y-8718936D01*
X4061039Y-8537984D02*
X4080086Y-8537984D01*
X4080086Y-8537984D02*
X4099134Y-8547508D01*
X4099134Y-8547508D02*
X4108658Y-8557031D01*
X4108658Y-8557031D02*
X4118182Y-8576079D01*
X4118182Y-8576079D02*
X4127705Y-8614174D01*
X4127705Y-8614174D02*
X4127705Y-8661793D01*
X4127705Y-8661793D02*
X4118182Y-8699889D01*
X4118182Y-8699889D02*
X4108658Y-8718936D01*
X4108658Y-8718936D02*
X4099134Y-8728460D01*
X4099134Y-8728460D02*
X4080086Y-8737984D01*
X4080086Y-8737984D02*
X4061039Y-8737984D01*
X4061039Y-8737984D02*
X4041991Y-8728460D01*
X4041991Y-8728460D02*
X4032467Y-8718936D01*
X4032467Y-8718936D02*
X4022943Y-8699889D01*
X4022943Y-8699889D02*
X4013420Y-8661793D01*
X4013420Y-8661793D02*
X4013420Y-8614174D01*
X4013420Y-8614174D02*
X4022943Y-8576079D01*
X4022943Y-8576079D02*
X4032467Y-8557031D01*
X4032467Y-8557031D02*
X4041991Y-8547508D01*
X4041991Y-8547508D02*
X4061039Y-8537984D01*
X4213420Y-8737984D02*
X4213420Y-8604650D01*
X4213420Y-8623698D02*
X4222944Y-8614174D01*
X4222944Y-8614174D02*
X4241991Y-8604650D01*
X4241991Y-8604650D02*
X4270563Y-8604650D01*
X4270563Y-8604650D02*
X4289610Y-8614174D01*
X4289610Y-8614174D02*
X4299134Y-8633222D01*
X4299134Y-8633222D02*
X4299134Y-8737984D01*
X4299134Y-8633222D02*
X4308658Y-8614174D01*
X4308658Y-8614174D02*
X4327705Y-8604650D01*
X4327705Y-8604650D02*
X4356277Y-8604650D01*
X4356277Y-8604650D02*
X4375325Y-8614174D01*
X4375325Y-8614174D02*
X4384848Y-8633222D01*
X4384848Y-8633222D02*
X4384848Y-8737984D01*
X4480086Y-8737984D02*
X4480086Y-8604650D01*
X4480086Y-8623698D02*
X4489610Y-8614174D01*
X4489610Y-8614174D02*
X4508658Y-8604650D01*
X4508658Y-8604650D02*
X4537229Y-8604650D01*
X4537229Y-8604650D02*
X4556277Y-8614174D01*
X4556277Y-8614174D02*
X4565801Y-8633222D01*
X4565801Y-8633222D02*
X4565801Y-8737984D01*
X4565801Y-8633222D02*
X4575325Y-8614174D01*
X4575325Y-8614174D02*
X4594372Y-8604650D01*
X4594372Y-8604650D02*
X4622944Y-8604650D01*
X4622944Y-8604650D02*
X4641991Y-8614174D01*
X4641991Y-8614174D02*
X4651515Y-8633222D01*
X4651515Y-8633222D02*
X4651515Y-8737984D01*
X5041991Y-8528460D02*
X4870563Y-8785603D01*
X5299134Y-8537984D02*
X5318182Y-8537984D01*
X5318182Y-8537984D02*
X5337229Y-8547508D01*
X5337229Y-8547508D02*
X5346753Y-8557031D01*
X5346753Y-8557031D02*
X5356277Y-8576079D01*
X5356277Y-8576079D02*
X5365801Y-8614174D01*
X5365801Y-8614174D02*
X5365801Y-8661793D01*
X5365801Y-8661793D02*
X5356277Y-8699889D01*
X5356277Y-8699889D02*
X5346753Y-8718936D01*
X5346753Y-8718936D02*
X5337229Y-8728460D01*
X5337229Y-8728460D02*
X5318182Y-8737984D01*
X5318182Y-8737984D02*
X5299134Y-8737984D01*
X5299134Y-8737984D02*
X5280087Y-8728460D01*
X5280087Y-8728460D02*
X5270563Y-8718936D01*
X5270563Y-8718936D02*
X5261039Y-8699889D01*
X5261039Y-8699889D02*
X5251515Y-8661793D01*
X5251515Y-8661793D02*
X5251515Y-8614174D01*
X5251515Y-8614174D02*
X5261039Y-8576079D01*
X5261039Y-8576079D02*
X5270563Y-8557031D01*
X5270563Y-8557031D02*
X5280087Y-8547508D01*
X5280087Y-8547508D02*
X5299134Y-8537984D01*
X5451515Y-8718936D02*
X5461039Y-8728460D01*
X5461039Y-8728460D02*
X5451515Y-8737984D01*
X5451515Y-8737984D02*
X5441991Y-8728460D01*
X5441991Y-8728460D02*
X5451515Y-8718936D01*
X5451515Y-8718936D02*
X5451515Y-8737984D01*
X5584848Y-8537984D02*
X5603896Y-8537984D01*
X5603896Y-8537984D02*
X5622944Y-8547508D01*
X5622944Y-8547508D02*
X5632467Y-8557031D01*
X5632467Y-8557031D02*
X5641991Y-8576079D01*
X5641991Y-8576079D02*
X5651515Y-8614174D01*
X5651515Y-8614174D02*
X5651515Y-8661793D01*
X5651515Y-8661793D02*
X5641991Y-8699889D01*
X5641991Y-8699889D02*
X5632467Y-8718936D01*
X5632467Y-8718936D02*
X5622944Y-8728460D01*
X5622944Y-8728460D02*
X5603896Y-8737984D01*
X5603896Y-8737984D02*
X5584848Y-8737984D01*
X5584848Y-8737984D02*
X5565801Y-8728460D01*
X5565801Y-8728460D02*
X5556277Y-8718936D01*
X5556277Y-8718936D02*
X5546753Y-8699889D01*
X5546753Y-8699889D02*
X5537229Y-8661793D01*
X5537229Y-8661793D02*
X5537229Y-8614174D01*
X5537229Y-8614174D02*
X5546753Y-8576079D01*
X5546753Y-8576079D02*
X5556277Y-8557031D01*
X5556277Y-8557031D02*
X5565801Y-8547508D01*
X5565801Y-8547508D02*
X5584848Y-8537984D01*
X5727706Y-8557031D02*
X5737229Y-8547508D01*
X5737229Y-8547508D02*
X5756277Y-8537984D01*
X5756277Y-8537984D02*
X5803896Y-8537984D01*
X5803896Y-8537984D02*
X5822944Y-8547508D01*
X5822944Y-8547508D02*
X5832467Y-8557031D01*
X5832467Y-8557031D02*
X5841991Y-8576079D01*
X5841991Y-8576079D02*
X5841991Y-8595127D01*
X5841991Y-8595127D02*
X5832467Y-8623698D01*
X5832467Y-8623698D02*
X5718182Y-8737984D01*
X5718182Y-8737984D02*
X5841991Y-8737984D01*
X6022944Y-8537984D02*
X5927706Y-8537984D01*
X5927706Y-8537984D02*
X5918182Y-8633222D01*
X5918182Y-8633222D02*
X5927706Y-8623698D01*
X5927706Y-8623698D02*
X5946753Y-8614174D01*
X5946753Y-8614174D02*
X5994372Y-8614174D01*
X5994372Y-8614174D02*
X6013420Y-8623698D01*
X6013420Y-8623698D02*
X6022944Y-8633222D01*
X6022944Y-8633222D02*
X6032467Y-8652270D01*
X6032467Y-8652270D02*
X6032467Y-8699889D01*
X6032467Y-8699889D02*
X6022944Y-8718936D01*
X6022944Y-8718936D02*
X6013420Y-8728460D01*
X6013420Y-8728460D02*
X5994372Y-8737984D01*
X5994372Y-8737984D02*
X5946753Y-8737984D01*
X5946753Y-8737984D02*
X5927706Y-8728460D01*
X5927706Y-8728460D02*
X5918182Y-8718936D01*
X6203896Y-8537984D02*
X6165801Y-8537984D01*
X6165801Y-8537984D02*
X6146753Y-8547508D01*
X6146753Y-8547508D02*
X6137229Y-8557031D01*
X6137229Y-8557031D02*
X6118182Y-8585603D01*
X6118182Y-8585603D02*
X6108658Y-8623698D01*
X6108658Y-8623698D02*
X6108658Y-8699889D01*
X6108658Y-8699889D02*
X6118182Y-8718936D01*
X6118182Y-8718936D02*
X6127706Y-8728460D01*
X6127706Y-8728460D02*
X6146753Y-8737984D01*
X6146753Y-8737984D02*
X6184848Y-8737984D01*
X6184848Y-8737984D02*
X6203896Y-8728460D01*
X6203896Y-8728460D02*
X6213420Y-8718936D01*
X6213420Y-8718936D02*
X6222944Y-8699889D01*
X6222944Y-8699889D02*
X6222944Y-8652270D01*
X6222944Y-8652270D02*
X6213420Y-8633222D01*
X6213420Y-8633222D02*
X6203896Y-8623698D01*
X6203896Y-8623698D02*
X6184848Y-8614174D01*
X6184848Y-8614174D02*
X6146753Y-8614174D01*
X6146753Y-8614174D02*
X6127706Y-8623698D01*
X6127706Y-8623698D02*
X6118182Y-8633222D01*
X6118182Y-8633222D02*
X6108658Y-8652270D01*
X6299134Y-8537984D02*
X6299134Y-8576079D01*
X6375325Y-8537984D02*
X6375325Y-8576079D01*
X6670563Y-8814174D02*
X6661039Y-8804650D01*
X6661039Y-8804650D02*
X6641991Y-8776079D01*
X6641991Y-8776079D02*
X6632468Y-8757031D01*
X6632468Y-8757031D02*
X6622944Y-8728460D01*
X6622944Y-8728460D02*
X6613420Y-8680841D01*
X6613420Y-8680841D02*
X6613420Y-8642746D01*
X6613420Y-8642746D02*
X6622944Y-8595127D01*
X6622944Y-8595127D02*
X6632468Y-8566555D01*
X6632468Y-8566555D02*
X6641991Y-8547508D01*
X6641991Y-8547508D02*
X6661039Y-8518936D01*
X6661039Y-8518936D02*
X6670563Y-8509412D01*
X6737229Y-8557031D02*
X6746753Y-8547508D01*
X6746753Y-8547508D02*
X6765801Y-8537984D01*
X6765801Y-8537984D02*
X6813420Y-8537984D01*
X6813420Y-8537984D02*
X6832468Y-8547508D01*
X6832468Y-8547508D02*
X6841991Y-8557031D01*
X6841991Y-8557031D02*
X6851515Y-8576079D01*
X6851515Y-8576079D02*
X6851515Y-8595127D01*
X6851515Y-8595127D02*
X6841991Y-8623698D01*
X6841991Y-8623698D02*
X6727706Y-8737984D01*
X6727706Y-8737984D02*
X6851515Y-8737984D01*
X7089610Y-8737984D02*
X7089610Y-8537984D01*
X7175325Y-8737984D02*
X7175325Y-8633222D01*
X7175325Y-8633222D02*
X7165801Y-8614174D01*
X7165801Y-8614174D02*
X7146753Y-8604650D01*
X7146753Y-8604650D02*
X7118182Y-8604650D01*
X7118182Y-8604650D02*
X7099134Y-8614174D01*
X7099134Y-8614174D02*
X7089610Y-8623698D01*
X7299134Y-8737984D02*
X7280087Y-8728460D01*
X7280087Y-8728460D02*
X7270563Y-8718936D01*
X7270563Y-8718936D02*
X7261039Y-8699889D01*
X7261039Y-8699889D02*
X7261039Y-8642746D01*
X7261039Y-8642746D02*
X7270563Y-8623698D01*
X7270563Y-8623698D02*
X7280087Y-8614174D01*
X7280087Y-8614174D02*
X7299134Y-8604650D01*
X7299134Y-8604650D02*
X7327706Y-8604650D01*
X7327706Y-8604650D02*
X7346753Y-8614174D01*
X7346753Y-8614174D02*
X7356277Y-8623698D01*
X7356277Y-8623698D02*
X7365801Y-8642746D01*
X7365801Y-8642746D02*
X7365801Y-8699889D01*
X7365801Y-8699889D02*
X7356277Y-8718936D01*
X7356277Y-8718936D02*
X7346753Y-8728460D01*
X7346753Y-8728460D02*
X7327706Y-8737984D01*
X7327706Y-8737984D02*
X7299134Y-8737984D01*
X7480087Y-8737984D02*
X7461039Y-8728460D01*
X7461039Y-8728460D02*
X7451515Y-8709412D01*
X7451515Y-8709412D02*
X7451515Y-8537984D01*
X7632468Y-8728460D02*
X7613420Y-8737984D01*
X7613420Y-8737984D02*
X7575325Y-8737984D01*
X7575325Y-8737984D02*
X7556277Y-8728460D01*
X7556277Y-8728460D02*
X7546753Y-8709412D01*
X7546753Y-8709412D02*
X7546753Y-8633222D01*
X7546753Y-8633222D02*
X7556277Y-8614174D01*
X7556277Y-8614174D02*
X7575325Y-8604650D01*
X7575325Y-8604650D02*
X7613420Y-8604650D01*
X7613420Y-8604650D02*
X7632468Y-8614174D01*
X7632468Y-8614174D02*
X7641991Y-8633222D01*
X7641991Y-8633222D02*
X7641991Y-8652270D01*
X7641991Y-8652270D02*
X7546753Y-8671317D01*
X7718182Y-8728460D02*
X7737230Y-8737984D01*
X7737230Y-8737984D02*
X7775325Y-8737984D01*
X7775325Y-8737984D02*
X7794372Y-8728460D01*
X7794372Y-8728460D02*
X7803896Y-8709412D01*
X7803896Y-8709412D02*
X7803896Y-8699889D01*
X7803896Y-8699889D02*
X7794372Y-8680841D01*
X7794372Y-8680841D02*
X7775325Y-8671317D01*
X7775325Y-8671317D02*
X7746753Y-8671317D01*
X7746753Y-8671317D02*
X7727706Y-8661793D01*
X7727706Y-8661793D02*
X7718182Y-8642746D01*
X7718182Y-8642746D02*
X7718182Y-8633222D01*
X7718182Y-8633222D02*
X7727706Y-8614174D01*
X7727706Y-8614174D02*
X7746753Y-8604650D01*
X7746753Y-8604650D02*
X7775325Y-8604650D01*
X7775325Y-8604650D02*
X7794372Y-8614174D01*
X7870563Y-8814174D02*
X7880087Y-8804650D01*
X7880087Y-8804650D02*
X7899134Y-8776079D01*
X7899134Y-8776079D02*
X7908658Y-8757031D01*
X7908658Y-8757031D02*
X7918182Y-8728460D01*
X7918182Y-8728460D02*
X7927706Y-8680841D01*
X7927706Y-8680841D02*
X7927706Y-8642746D01*
X7927706Y-8642746D02*
X7918182Y-8595127D01*
X7918182Y-8595127D02*
X7908658Y-8566555D01*
X7908658Y-8566555D02*
X7899134Y-8547508D01*
X7899134Y-8547508D02*
X7880087Y-8518936D01*
X7880087Y-8518936D02*
X7870563Y-8509412D01*
X8232468Y-8814174D02*
X8222944Y-8804650D01*
X8222944Y-8804650D02*
X8203896Y-8776079D01*
X8203896Y-8776079D02*
X8194372Y-8757031D01*
X8194372Y-8757031D02*
X8184849Y-8728460D01*
X8184849Y-8728460D02*
X8175325Y-8680841D01*
X8175325Y-8680841D02*
X8175325Y-8642746D01*
X8175325Y-8642746D02*
X8184849Y-8595127D01*
X8184849Y-8595127D02*
X8194372Y-8566555D01*
X8194372Y-8566555D02*
X8203896Y-8547508D01*
X8203896Y-8547508D02*
X8222944Y-8518936D01*
X8222944Y-8518936D02*
X8232468Y-8509412D01*
X8308658Y-8604650D02*
X8308658Y-8737984D01*
X8308658Y-8623698D02*
X8318182Y-8614174D01*
X8318182Y-8614174D02*
X8337230Y-8604650D01*
X8337230Y-8604650D02*
X8365801Y-8604650D01*
X8365801Y-8604650D02*
X8384849Y-8614174D01*
X8384849Y-8614174D02*
X8394373Y-8633222D01*
X8394373Y-8633222D02*
X8394373Y-8737984D01*
X8518182Y-8737984D02*
X8499134Y-8728460D01*
X8499134Y-8728460D02*
X8489611Y-8718936D01*
X8489611Y-8718936D02*
X8480087Y-8699889D01*
X8480087Y-8699889D02*
X8480087Y-8642746D01*
X8480087Y-8642746D02*
X8489611Y-8623698D01*
X8489611Y-8623698D02*
X8499134Y-8614174D01*
X8499134Y-8614174D02*
X8518182Y-8604650D01*
X8518182Y-8604650D02*
X8546754Y-8604650D01*
X8546754Y-8604650D02*
X8565801Y-8614174D01*
X8565801Y-8614174D02*
X8575325Y-8623698D01*
X8575325Y-8623698D02*
X8584849Y-8642746D01*
X8584849Y-8642746D02*
X8584849Y-8699889D01*
X8584849Y-8699889D02*
X8575325Y-8718936D01*
X8575325Y-8718936D02*
X8565801Y-8728460D01*
X8565801Y-8728460D02*
X8546754Y-8737984D01*
X8546754Y-8737984D02*
X8518182Y-8737984D01*
X8641992Y-8604650D02*
X8718182Y-8604650D01*
X8670563Y-8537984D02*
X8670563Y-8709412D01*
X8670563Y-8709412D02*
X8680087Y-8728460D01*
X8680087Y-8728460D02*
X8699134Y-8737984D01*
X8699134Y-8737984D02*
X8718182Y-8737984D01*
X8937230Y-8604650D02*
X8937230Y-8804650D01*
X8937230Y-8614174D02*
X8956277Y-8604650D01*
X8956277Y-8604650D02*
X8994373Y-8604650D01*
X8994373Y-8604650D02*
X9013420Y-8614174D01*
X9013420Y-8614174D02*
X9022944Y-8623698D01*
X9022944Y-8623698D02*
X9032468Y-8642746D01*
X9032468Y-8642746D02*
X9032468Y-8699889D01*
X9032468Y-8699889D02*
X9022944Y-8718936D01*
X9022944Y-8718936D02*
X9013420Y-8728460D01*
X9013420Y-8728460D02*
X8994373Y-8737984D01*
X8994373Y-8737984D02*
X8956277Y-8737984D01*
X8956277Y-8737984D02*
X8937230Y-8728460D01*
X9146754Y-8737984D02*
X9127706Y-8728460D01*
X9127706Y-8728460D02*
X9118182Y-8709412D01*
X9118182Y-8709412D02*
X9118182Y-8537984D01*
X9308658Y-8737984D02*
X9308658Y-8633222D01*
X9308658Y-8633222D02*
X9299135Y-8614174D01*
X9299135Y-8614174D02*
X9280087Y-8604650D01*
X9280087Y-8604650D02*
X9241992Y-8604650D01*
X9241992Y-8604650D02*
X9222944Y-8614174D01*
X9308658Y-8728460D02*
X9289611Y-8737984D01*
X9289611Y-8737984D02*
X9241992Y-8737984D01*
X9241992Y-8737984D02*
X9222944Y-8728460D01*
X9222944Y-8728460D02*
X9213420Y-8709412D01*
X9213420Y-8709412D02*
X9213420Y-8690365D01*
X9213420Y-8690365D02*
X9222944Y-8671317D01*
X9222944Y-8671317D02*
X9241992Y-8661793D01*
X9241992Y-8661793D02*
X9289611Y-8661793D01*
X9289611Y-8661793D02*
X9308658Y-8652270D01*
X9375325Y-8604650D02*
X9451515Y-8604650D01*
X9403896Y-8537984D02*
X9403896Y-8709412D01*
X9403896Y-8709412D02*
X9413420Y-8728460D01*
X9413420Y-8728460D02*
X9432468Y-8737984D01*
X9432468Y-8737984D02*
X9451515Y-8737984D01*
X9594373Y-8728460D02*
X9575325Y-8737984D01*
X9575325Y-8737984D02*
X9537230Y-8737984D01*
X9537230Y-8737984D02*
X9518182Y-8728460D01*
X9518182Y-8728460D02*
X9508658Y-8709412D01*
X9508658Y-8709412D02*
X9508658Y-8633222D01*
X9508658Y-8633222D02*
X9518182Y-8614174D01*
X9518182Y-8614174D02*
X9537230Y-8604650D01*
X9537230Y-8604650D02*
X9575325Y-8604650D01*
X9575325Y-8604650D02*
X9594373Y-8614174D01*
X9594373Y-8614174D02*
X9603896Y-8633222D01*
X9603896Y-8633222D02*
X9603896Y-8652270D01*
X9603896Y-8652270D02*
X9508658Y-8671317D01*
X9775325Y-8737984D02*
X9775325Y-8537984D01*
X9775325Y-8728460D02*
X9756277Y-8737984D01*
X9756277Y-8737984D02*
X9718182Y-8737984D01*
X9718182Y-8737984D02*
X9699135Y-8728460D01*
X9699135Y-8728460D02*
X9689611Y-8718936D01*
X9689611Y-8718936D02*
X9680087Y-8699889D01*
X9680087Y-8699889D02*
X9680087Y-8642746D01*
X9680087Y-8642746D02*
X9689611Y-8623698D01*
X9689611Y-8623698D02*
X9699135Y-8614174D01*
X9699135Y-8614174D02*
X9718182Y-8604650D01*
X9718182Y-8604650D02*
X9756277Y-8604650D01*
X9756277Y-8604650D02*
X9775325Y-8614174D01*
X9851516Y-8814174D02*
X9861039Y-8804650D01*
X9861039Y-8804650D02*
X9880087Y-8776079D01*
X9880087Y-8776079D02*
X9889611Y-8757031D01*
X9889611Y-8757031D02*
X9899135Y-8728460D01*
X9899135Y-8728460D02*
X9908658Y-8680841D01*
X9908658Y-8680841D02*
X9908658Y-8642746D01*
X9908658Y-8642746D02*
X9899135Y-8595127D01*
X9899135Y-8595127D02*
X9889611Y-8566555D01*
X9889611Y-8566555D02*
X9880087Y-8547508D01*
X9880087Y-8547508D02*
X9861039Y-8518936D01*
X9861039Y-8518936D02*
X9851516Y-8509412D01*
D13*
X3095500Y-8910500D02*
G75*
G02*
X2975500Y-8910500I-60000J0D01*
G01*
X2975500Y-8910500D02*
G75*
G02*
X3095500Y-8910500I60000J0D01*
G01*
D11*
X3461039Y-9001984D02*
X3346753Y-9001984D01*
X3403896Y-9001984D02*
X3403896Y-8801984D01*
X3403896Y-8801984D02*
X3384848Y-8830555D01*
X3384848Y-8830555D02*
X3365801Y-8849603D01*
X3365801Y-8849603D02*
X3346753Y-8859127D01*
X3546753Y-8982936D02*
X3556277Y-8992460D01*
X3556277Y-8992460D02*
X3546753Y-9001984D01*
X3546753Y-9001984D02*
X3537229Y-8992460D01*
X3537229Y-8992460D02*
X3546753Y-8982936D01*
X3546753Y-8982936D02*
X3546753Y-9001984D01*
X3632467Y-8821031D02*
X3641991Y-8811508D01*
X3641991Y-8811508D02*
X3661039Y-8801984D01*
X3661039Y-8801984D02*
X3708658Y-8801984D01*
X3708658Y-8801984D02*
X3727705Y-8811508D01*
X3727705Y-8811508D02*
X3737229Y-8821031D01*
X3737229Y-8821031D02*
X3746753Y-8840079D01*
X3746753Y-8840079D02*
X3746753Y-8859127D01*
X3746753Y-8859127D02*
X3737229Y-8887698D01*
X3737229Y-8887698D02*
X3622943Y-9001984D01*
X3622943Y-9001984D02*
X3746753Y-9001984D01*
X3870562Y-8801984D02*
X3889610Y-8801984D01*
X3889610Y-8801984D02*
X3908658Y-8811508D01*
X3908658Y-8811508D02*
X3918182Y-8821031D01*
X3918182Y-8821031D02*
X3927705Y-8840079D01*
X3927705Y-8840079D02*
X3937229Y-8878174D01*
X3937229Y-8878174D02*
X3937229Y-8925793D01*
X3937229Y-8925793D02*
X3927705Y-8963889D01*
X3927705Y-8963889D02*
X3918182Y-8982936D01*
X3918182Y-8982936D02*
X3908658Y-8992460D01*
X3908658Y-8992460D02*
X3889610Y-9001984D01*
X3889610Y-9001984D02*
X3870562Y-9001984D01*
X3870562Y-9001984D02*
X3851515Y-8992460D01*
X3851515Y-8992460D02*
X3841991Y-8982936D01*
X3841991Y-8982936D02*
X3832467Y-8963889D01*
X3832467Y-8963889D02*
X3822943Y-8925793D01*
X3822943Y-8925793D02*
X3822943Y-8878174D01*
X3822943Y-8878174D02*
X3832467Y-8840079D01*
X3832467Y-8840079D02*
X3841991Y-8821031D01*
X3841991Y-8821031D02*
X3851515Y-8811508D01*
X3851515Y-8811508D02*
X3870562Y-8801984D01*
X4061039Y-8801984D02*
X4080086Y-8801984D01*
X4080086Y-8801984D02*
X4099134Y-8811508D01*
X4099134Y-8811508D02*
X4108658Y-8821031D01*
X4108658Y-8821031D02*
X4118182Y-8840079D01*
X4118182Y-8840079D02*
X4127705Y-8878174D01*
X4127705Y-8878174D02*
X4127705Y-8925793D01*
X4127705Y-8925793D02*
X4118182Y-8963889D01*
X4118182Y-8963889D02*
X4108658Y-8982936D01*
X4108658Y-8982936D02*
X4099134Y-8992460D01*
X4099134Y-8992460D02*
X4080086Y-9001984D01*
X4080086Y-9001984D02*
X4061039Y-9001984D01*
X4061039Y-9001984D02*
X4041991Y-8992460D01*
X4041991Y-8992460D02*
X4032467Y-8982936D01*
X4032467Y-8982936D02*
X4022943Y-8963889D01*
X4022943Y-8963889D02*
X4013420Y-8925793D01*
X4013420Y-8925793D02*
X4013420Y-8878174D01*
X4013420Y-8878174D02*
X4022943Y-8840079D01*
X4022943Y-8840079D02*
X4032467Y-8821031D01*
X4032467Y-8821031D02*
X4041991Y-8811508D01*
X4041991Y-8811508D02*
X4061039Y-8801984D01*
X4213420Y-9001984D02*
X4213420Y-8868650D01*
X4213420Y-8887698D02*
X4222944Y-8878174D01*
X4222944Y-8878174D02*
X4241991Y-8868650D01*
X4241991Y-8868650D02*
X4270563Y-8868650D01*
X4270563Y-8868650D02*
X4289610Y-8878174D01*
X4289610Y-8878174D02*
X4299134Y-8897222D01*
X4299134Y-8897222D02*
X4299134Y-9001984D01*
X4299134Y-8897222D02*
X4308658Y-8878174D01*
X4308658Y-8878174D02*
X4327705Y-8868650D01*
X4327705Y-8868650D02*
X4356277Y-8868650D01*
X4356277Y-8868650D02*
X4375325Y-8878174D01*
X4375325Y-8878174D02*
X4384848Y-8897222D01*
X4384848Y-8897222D02*
X4384848Y-9001984D01*
X4480086Y-9001984D02*
X4480086Y-8868650D01*
X4480086Y-8887698D02*
X4489610Y-8878174D01*
X4489610Y-8878174D02*
X4508658Y-8868650D01*
X4508658Y-8868650D02*
X4537229Y-8868650D01*
X4537229Y-8868650D02*
X4556277Y-8878174D01*
X4556277Y-8878174D02*
X4565801Y-8897222D01*
X4565801Y-8897222D02*
X4565801Y-9001984D01*
X4565801Y-8897222D02*
X4575325Y-8878174D01*
X4575325Y-8878174D02*
X4594372Y-8868650D01*
X4594372Y-8868650D02*
X4622944Y-8868650D01*
X4622944Y-8868650D02*
X4641991Y-8878174D01*
X4641991Y-8878174D02*
X4651515Y-8897222D01*
X4651515Y-8897222D02*
X4651515Y-9001984D01*
X5041991Y-8792460D02*
X4870563Y-9049603D01*
X5299134Y-8801984D02*
X5318182Y-8801984D01*
X5318182Y-8801984D02*
X5337229Y-8811508D01*
X5337229Y-8811508D02*
X5346753Y-8821031D01*
X5346753Y-8821031D02*
X5356277Y-8840079D01*
X5356277Y-8840079D02*
X5365801Y-8878174D01*
X5365801Y-8878174D02*
X5365801Y-8925793D01*
X5365801Y-8925793D02*
X5356277Y-8963889D01*
X5356277Y-8963889D02*
X5346753Y-8982936D01*
X5346753Y-8982936D02*
X5337229Y-8992460D01*
X5337229Y-8992460D02*
X5318182Y-9001984D01*
X5318182Y-9001984D02*
X5299134Y-9001984D01*
X5299134Y-9001984D02*
X5280087Y-8992460D01*
X5280087Y-8992460D02*
X5270563Y-8982936D01*
X5270563Y-8982936D02*
X5261039Y-8963889D01*
X5261039Y-8963889D02*
X5251515Y-8925793D01*
X5251515Y-8925793D02*
X5251515Y-8878174D01*
X5251515Y-8878174D02*
X5261039Y-8840079D01*
X5261039Y-8840079D02*
X5270563Y-8821031D01*
X5270563Y-8821031D02*
X5280087Y-8811508D01*
X5280087Y-8811508D02*
X5299134Y-8801984D01*
X5451515Y-8982936D02*
X5461039Y-8992460D01*
X5461039Y-8992460D02*
X5451515Y-9001984D01*
X5451515Y-9001984D02*
X5441991Y-8992460D01*
X5441991Y-8992460D02*
X5451515Y-8982936D01*
X5451515Y-8982936D02*
X5451515Y-9001984D01*
X5584848Y-8801984D02*
X5603896Y-8801984D01*
X5603896Y-8801984D02*
X5622944Y-8811508D01*
X5622944Y-8811508D02*
X5632467Y-8821031D01*
X5632467Y-8821031D02*
X5641991Y-8840079D01*
X5641991Y-8840079D02*
X5651515Y-8878174D01*
X5651515Y-8878174D02*
X5651515Y-8925793D01*
X5651515Y-8925793D02*
X5641991Y-8963889D01*
X5641991Y-8963889D02*
X5632467Y-8982936D01*
X5632467Y-8982936D02*
X5622944Y-8992460D01*
X5622944Y-8992460D02*
X5603896Y-9001984D01*
X5603896Y-9001984D02*
X5584848Y-9001984D01*
X5584848Y-9001984D02*
X5565801Y-8992460D01*
X5565801Y-8992460D02*
X5556277Y-8982936D01*
X5556277Y-8982936D02*
X5546753Y-8963889D01*
X5546753Y-8963889D02*
X5537229Y-8925793D01*
X5537229Y-8925793D02*
X5537229Y-8878174D01*
X5537229Y-8878174D02*
X5546753Y-8840079D01*
X5546753Y-8840079D02*
X5556277Y-8821031D01*
X5556277Y-8821031D02*
X5565801Y-8811508D01*
X5565801Y-8811508D02*
X5584848Y-8801984D01*
X5822944Y-8868650D02*
X5822944Y-9001984D01*
X5775325Y-8792460D02*
X5727706Y-8935317D01*
X5727706Y-8935317D02*
X5851515Y-8935317D01*
X5908658Y-8801984D02*
X6041991Y-8801984D01*
X6041991Y-8801984D02*
X5956277Y-9001984D01*
X6108658Y-8821031D02*
X6118182Y-8811508D01*
X6118182Y-8811508D02*
X6137229Y-8801984D01*
X6137229Y-8801984D02*
X6184848Y-8801984D01*
X6184848Y-8801984D02*
X6203896Y-8811508D01*
X6203896Y-8811508D02*
X6213420Y-8821031D01*
X6213420Y-8821031D02*
X6222944Y-8840079D01*
X6222944Y-8840079D02*
X6222944Y-8859127D01*
X6222944Y-8859127D02*
X6213420Y-8887698D01*
X6213420Y-8887698D02*
X6099134Y-9001984D01*
X6099134Y-9001984D02*
X6222944Y-9001984D01*
X6299134Y-8801984D02*
X6299134Y-8840079D01*
X6375325Y-8801984D02*
X6375325Y-8840079D01*
X6670563Y-9078174D02*
X6661039Y-9068650D01*
X6661039Y-9068650D02*
X6641991Y-9040079D01*
X6641991Y-9040079D02*
X6632468Y-9021031D01*
X6632468Y-9021031D02*
X6622944Y-8992460D01*
X6622944Y-8992460D02*
X6613420Y-8944841D01*
X6613420Y-8944841D02*
X6613420Y-8906746D01*
X6613420Y-8906746D02*
X6622944Y-8859127D01*
X6622944Y-8859127D02*
X6632468Y-8830555D01*
X6632468Y-8830555D02*
X6641991Y-8811508D01*
X6641991Y-8811508D02*
X6661039Y-8782936D01*
X6661039Y-8782936D02*
X6670563Y-8773412D01*
X6832468Y-8868650D02*
X6832468Y-9001984D01*
X6784848Y-8792460D02*
X6737229Y-8935317D01*
X6737229Y-8935317D02*
X6861039Y-8935317D01*
X7089610Y-9001984D02*
X7089610Y-8801984D01*
X7175325Y-9001984D02*
X7175325Y-8897222D01*
X7175325Y-8897222D02*
X7165801Y-8878174D01*
X7165801Y-8878174D02*
X7146753Y-8868650D01*
X7146753Y-8868650D02*
X7118182Y-8868650D01*
X7118182Y-8868650D02*
X7099134Y-8878174D01*
X7099134Y-8878174D02*
X7089610Y-8887698D01*
X7299134Y-9001984D02*
X7280087Y-8992460D01*
X7280087Y-8992460D02*
X7270563Y-8982936D01*
X7270563Y-8982936D02*
X7261039Y-8963889D01*
X7261039Y-8963889D02*
X7261039Y-8906746D01*
X7261039Y-8906746D02*
X7270563Y-8887698D01*
X7270563Y-8887698D02*
X7280087Y-8878174D01*
X7280087Y-8878174D02*
X7299134Y-8868650D01*
X7299134Y-8868650D02*
X7327706Y-8868650D01*
X7327706Y-8868650D02*
X7346753Y-8878174D01*
X7346753Y-8878174D02*
X7356277Y-8887698D01*
X7356277Y-8887698D02*
X7365801Y-8906746D01*
X7365801Y-8906746D02*
X7365801Y-8963889D01*
X7365801Y-8963889D02*
X7356277Y-8982936D01*
X7356277Y-8982936D02*
X7346753Y-8992460D01*
X7346753Y-8992460D02*
X7327706Y-9001984D01*
X7327706Y-9001984D02*
X7299134Y-9001984D01*
X7480087Y-9001984D02*
X7461039Y-8992460D01*
X7461039Y-8992460D02*
X7451515Y-8973412D01*
X7451515Y-8973412D02*
X7451515Y-8801984D01*
X7632468Y-8992460D02*
X7613420Y-9001984D01*
X7613420Y-9001984D02*
X7575325Y-9001984D01*
X7575325Y-9001984D02*
X7556277Y-8992460D01*
X7556277Y-8992460D02*
X7546753Y-8973412D01*
X7546753Y-8973412D02*
X7546753Y-8897222D01*
X7546753Y-8897222D02*
X7556277Y-8878174D01*
X7556277Y-8878174D02*
X7575325Y-8868650D01*
X7575325Y-8868650D02*
X7613420Y-8868650D01*
X7613420Y-8868650D02*
X7632468Y-8878174D01*
X7632468Y-8878174D02*
X7641991Y-8897222D01*
X7641991Y-8897222D02*
X7641991Y-8916270D01*
X7641991Y-8916270D02*
X7546753Y-8935317D01*
X7718182Y-8992460D02*
X7737230Y-9001984D01*
X7737230Y-9001984D02*
X7775325Y-9001984D01*
X7775325Y-9001984D02*
X7794372Y-8992460D01*
X7794372Y-8992460D02*
X7803896Y-8973412D01*
X7803896Y-8973412D02*
X7803896Y-8963889D01*
X7803896Y-8963889D02*
X7794372Y-8944841D01*
X7794372Y-8944841D02*
X7775325Y-8935317D01*
X7775325Y-8935317D02*
X7746753Y-8935317D01*
X7746753Y-8935317D02*
X7727706Y-8925793D01*
X7727706Y-8925793D02*
X7718182Y-8906746D01*
X7718182Y-8906746D02*
X7718182Y-8897222D01*
X7718182Y-8897222D02*
X7727706Y-8878174D01*
X7727706Y-8878174D02*
X7746753Y-8868650D01*
X7746753Y-8868650D02*
X7775325Y-8868650D01*
X7775325Y-8868650D02*
X7794372Y-8878174D01*
X7870563Y-9078174D02*
X7880087Y-9068650D01*
X7880087Y-9068650D02*
X7899134Y-9040079D01*
X7899134Y-9040079D02*
X7908658Y-9021031D01*
X7908658Y-9021031D02*
X7918182Y-8992460D01*
X7918182Y-8992460D02*
X7927706Y-8944841D01*
X7927706Y-8944841D02*
X7927706Y-8906746D01*
X7927706Y-8906746D02*
X7918182Y-8859127D01*
X7918182Y-8859127D02*
X7908658Y-8830555D01*
X7908658Y-8830555D02*
X7899134Y-8811508D01*
X7899134Y-8811508D02*
X7880087Y-8782936D01*
X7880087Y-8782936D02*
X7870563Y-8773412D01*
X8232468Y-9078174D02*
X8222944Y-9068650D01*
X8222944Y-9068650D02*
X8203896Y-9040079D01*
X8203896Y-9040079D02*
X8194372Y-9021031D01*
X8194372Y-9021031D02*
X8184849Y-8992460D01*
X8184849Y-8992460D02*
X8175325Y-8944841D01*
X8175325Y-8944841D02*
X8175325Y-8906746D01*
X8175325Y-8906746D02*
X8184849Y-8859127D01*
X8184849Y-8859127D02*
X8194372Y-8830555D01*
X8194372Y-8830555D02*
X8203896Y-8811508D01*
X8203896Y-8811508D02*
X8222944Y-8782936D01*
X8222944Y-8782936D02*
X8232468Y-8773412D01*
X8308658Y-8868650D02*
X8308658Y-9001984D01*
X8308658Y-8887698D02*
X8318182Y-8878174D01*
X8318182Y-8878174D02*
X8337230Y-8868650D01*
X8337230Y-8868650D02*
X8365801Y-8868650D01*
X8365801Y-8868650D02*
X8384849Y-8878174D01*
X8384849Y-8878174D02*
X8394373Y-8897222D01*
X8394373Y-8897222D02*
X8394373Y-9001984D01*
X8518182Y-9001984D02*
X8499134Y-8992460D01*
X8499134Y-8992460D02*
X8489611Y-8982936D01*
X8489611Y-8982936D02*
X8480087Y-8963889D01*
X8480087Y-8963889D02*
X8480087Y-8906746D01*
X8480087Y-8906746D02*
X8489611Y-8887698D01*
X8489611Y-8887698D02*
X8499134Y-8878174D01*
X8499134Y-8878174D02*
X8518182Y-8868650D01*
X8518182Y-8868650D02*
X8546754Y-8868650D01*
X8546754Y-8868650D02*
X8565801Y-8878174D01*
X8565801Y-8878174D02*
X8575325Y-8887698D01*
X8575325Y-8887698D02*
X8584849Y-8906746D01*
X8584849Y-8906746D02*
X8584849Y-8963889D01*
X8584849Y-8963889D02*
X8575325Y-8982936D01*
X8575325Y-8982936D02*
X8565801Y-8992460D01*
X8565801Y-8992460D02*
X8546754Y-9001984D01*
X8546754Y-9001984D02*
X8518182Y-9001984D01*
X8641992Y-8868650D02*
X8718182Y-8868650D01*
X8670563Y-8801984D02*
X8670563Y-8973412D01*
X8670563Y-8973412D02*
X8680087Y-8992460D01*
X8680087Y-8992460D02*
X8699134Y-9001984D01*
X8699134Y-9001984D02*
X8718182Y-9001984D01*
X8937230Y-8868650D02*
X8937230Y-9068650D01*
X8937230Y-8878174D02*
X8956277Y-8868650D01*
X8956277Y-8868650D02*
X8994373Y-8868650D01*
X8994373Y-8868650D02*
X9013420Y-8878174D01*
X9013420Y-8878174D02*
X9022944Y-8887698D01*
X9022944Y-8887698D02*
X9032468Y-8906746D01*
X9032468Y-8906746D02*
X9032468Y-8963889D01*
X9032468Y-8963889D02*
X9022944Y-8982936D01*
X9022944Y-8982936D02*
X9013420Y-8992460D01*
X9013420Y-8992460D02*
X8994373Y-9001984D01*
X8994373Y-9001984D02*
X8956277Y-9001984D01*
X8956277Y-9001984D02*
X8937230Y-8992460D01*
X9146754Y-9001984D02*
X9127706Y-8992460D01*
X9127706Y-8992460D02*
X9118182Y-8973412D01*
X9118182Y-8973412D02*
X9118182Y-8801984D01*
X9308658Y-9001984D02*
X9308658Y-8897222D01*
X9308658Y-8897222D02*
X9299135Y-8878174D01*
X9299135Y-8878174D02*
X9280087Y-8868650D01*
X9280087Y-8868650D02*
X9241992Y-8868650D01*
X9241992Y-8868650D02*
X9222944Y-8878174D01*
X9308658Y-8992460D02*
X9289611Y-9001984D01*
X9289611Y-9001984D02*
X9241992Y-9001984D01*
X9241992Y-9001984D02*
X9222944Y-8992460D01*
X9222944Y-8992460D02*
X9213420Y-8973412D01*
X9213420Y-8973412D02*
X9213420Y-8954365D01*
X9213420Y-8954365D02*
X9222944Y-8935317D01*
X9222944Y-8935317D02*
X9241992Y-8925793D01*
X9241992Y-8925793D02*
X9289611Y-8925793D01*
X9289611Y-8925793D02*
X9308658Y-8916270D01*
X9375325Y-8868650D02*
X9451515Y-8868650D01*
X9403896Y-8801984D02*
X9403896Y-8973412D01*
X9403896Y-8973412D02*
X9413420Y-8992460D01*
X9413420Y-8992460D02*
X9432468Y-9001984D01*
X9432468Y-9001984D02*
X9451515Y-9001984D01*
X9594373Y-8992460D02*
X9575325Y-9001984D01*
X9575325Y-9001984D02*
X9537230Y-9001984D01*
X9537230Y-9001984D02*
X9518182Y-8992460D01*
X9518182Y-8992460D02*
X9508658Y-8973412D01*
X9508658Y-8973412D02*
X9508658Y-8897222D01*
X9508658Y-8897222D02*
X9518182Y-8878174D01*
X9518182Y-8878174D02*
X9537230Y-8868650D01*
X9537230Y-8868650D02*
X9575325Y-8868650D01*
X9575325Y-8868650D02*
X9594373Y-8878174D01*
X9594373Y-8878174D02*
X9603896Y-8897222D01*
X9603896Y-8897222D02*
X9603896Y-8916270D01*
X9603896Y-8916270D02*
X9508658Y-8935317D01*
X9775325Y-9001984D02*
X9775325Y-8801984D01*
X9775325Y-8992460D02*
X9756277Y-9001984D01*
X9756277Y-9001984D02*
X9718182Y-9001984D01*
X9718182Y-9001984D02*
X9699135Y-8992460D01*
X9699135Y-8992460D02*
X9689611Y-8982936D01*
X9689611Y-8982936D02*
X9680087Y-8963889D01*
X9680087Y-8963889D02*
X9680087Y-8906746D01*
X9680087Y-8906746D02*
X9689611Y-8887698D01*
X9689611Y-8887698D02*
X9699135Y-8878174D01*
X9699135Y-8878174D02*
X9718182Y-8868650D01*
X9718182Y-8868650D02*
X9756277Y-8868650D01*
X9756277Y-8868650D02*
X9775325Y-8878174D01*
X9851516Y-9078174D02*
X9861039Y-9068650D01*
X9861039Y-9068650D02*
X9880087Y-9040079D01*
X9880087Y-9040079D02*
X9889611Y-9021031D01*
X9889611Y-9021031D02*
X9899135Y-8992460D01*
X9899135Y-8992460D02*
X9908658Y-8944841D01*
X9908658Y-8944841D02*
X9908658Y-8906746D01*
X9908658Y-8906746D02*
X9899135Y-8859127D01*
X9899135Y-8859127D02*
X9889611Y-8830555D01*
X9889611Y-8830555D02*
X9880087Y-8811508D01*
X9880087Y-8811508D02*
X9861039Y-8782936D01*
X9861039Y-8782936D02*
X9851516Y-8773412D01*
M02*
