%TF.GenerationSoftware,KiCad,Pcbnew,8.0.0*%
%TF.CreationDate,2025-02-04T21:38:50+01:00*%
%TF.ProjectId,ni404,6e693430-342e-46b6-9963-61645f706362,rev?*%
%TF.SameCoordinates,Original*%
%TF.FileFunction,Copper,L2,Bot*%
%TF.FilePolarity,Positive*%
%FSLAX46Y46*%
G04 Gerber Fmt 4.6, Leading zero omitted, Abs format (unit mm)*
G04 Created by KiCad (PCBNEW 8.0.0) date 2025-02-04 21:38:50*
%MOMM*%
%LPD*%
G01*
G04 APERTURE LIST*
G04 Aperture macros list*
%AMRoundRect*
0 Rectangle with rounded corners*
0 $1 Rounding radius*
0 $2 $3 $4 $5 $6 $7 $8 $9 X,Y pos of 4 corners*
0 Add a 4 corners polygon primitive as box body*
4,1,4,$2,$3,$4,$5,$6,$7,$8,$9,$2,$3,0*
0 Add four circle primitives for the rounded corners*
1,1,$1+$1,$2,$3*
1,1,$1+$1,$4,$5*
1,1,$1+$1,$6,$7*
1,1,$1+$1,$8,$9*
0 Add four rect primitives between the rounded corners*
20,1,$1+$1,$2,$3,$4,$5,0*
20,1,$1+$1,$4,$5,$6,$7,0*
20,1,$1+$1,$6,$7,$8,$9,0*
20,1,$1+$1,$8,$9,$2,$3,0*%
G04 Aperture macros list end*
%TA.AperFunction,ComponentPad*%
%ADD10R,1.600000X1.600000*%
%TD*%
%TA.AperFunction,ComponentPad*%
%ADD11C,1.600000*%
%TD*%
%TA.AperFunction,ComponentPad*%
%ADD12C,1.524000*%
%TD*%
%TA.AperFunction,ComponentPad*%
%ADD13RoundRect,0.250000X-0.350000X-0.625000X0.350000X-0.625000X0.350000X0.625000X-0.350000X0.625000X0*%
%TD*%
%TA.AperFunction,ComponentPad*%
%ADD14O,1.200000X1.750000*%
%TD*%
%TA.AperFunction,ViaPad*%
%ADD15C,0.500000*%
%TD*%
%TA.AperFunction,Conductor*%
%ADD16C,0.500000*%
%TD*%
%TA.AperFunction,Conductor*%
%ADD17C,0.200000*%
%TD*%
G04 APERTURE END LIST*
D10*
X32290000Y-48740000D03*
D11*
X34830000Y-48740000D03*
X37370000Y-48740000D03*
X39910000Y-48740000D03*
X42450000Y-48740000D03*
X44990000Y-48740000D03*
X47530000Y-48740000D03*
X50070000Y-48740000D03*
X52610000Y-48740000D03*
X55150000Y-48740000D03*
X57690000Y-48740000D03*
X60230000Y-48740000D03*
X62770000Y-48740000D03*
X65310000Y-48740000D03*
X67850000Y-48740000D03*
X70390000Y-48740000D03*
X72930000Y-48740000D03*
X75470000Y-48740000D03*
X78010000Y-48740000D03*
X80550000Y-48740000D03*
X83090000Y-48740000D03*
X85630000Y-48740000D03*
X88170000Y-48740000D03*
X90710000Y-48740000D03*
X90710000Y-33500000D03*
X88170000Y-33500000D03*
X85630000Y-33500000D03*
X83090000Y-33500000D03*
X80550000Y-33500000D03*
X78010000Y-33500000D03*
X75470000Y-33500000D03*
X72930000Y-33500000D03*
X70390000Y-33500000D03*
X67850000Y-33500000D03*
X65310000Y-33500000D03*
X62770000Y-33500000D03*
X60230000Y-33500000D03*
X57690000Y-33500000D03*
X55150000Y-33500000D03*
X52610000Y-33500000D03*
X50070000Y-33500000D03*
X47530000Y-33500000D03*
X44990000Y-33500000D03*
X42450000Y-33500000D03*
X39910000Y-33500000D03*
X37370000Y-33500000D03*
X34830000Y-33500000D03*
X32290000Y-33500000D03*
D12*
X33000000Y-39620000D03*
X33000000Y-42620000D03*
D13*
X112250000Y-55250000D03*
D14*
X114250000Y-55250000D03*
X116250000Y-55250000D03*
X118250000Y-55250000D03*
X120250000Y-55250000D03*
X135500000Y-42750000D03*
X133500000Y-42750000D03*
X131500000Y-42750000D03*
X129500000Y-42750000D03*
D13*
X127500000Y-42750000D03*
X81750000Y-55250000D03*
D14*
X83750000Y-55250000D03*
X85750000Y-55250000D03*
X87750000Y-55250000D03*
X89750000Y-55250000D03*
D13*
X98250000Y-29000000D03*
D14*
X100250000Y-29000000D03*
X102250000Y-29000000D03*
X135500000Y-55250000D03*
X133500000Y-55250000D03*
X131500000Y-55250000D03*
X129500000Y-55250000D03*
D13*
X127500000Y-55250000D03*
X97000000Y-55250000D03*
D14*
X99000000Y-55250000D03*
X101000000Y-55250000D03*
X103000000Y-55250000D03*
X105000000Y-55250000D03*
D15*
X87750000Y-52250000D03*
X54250000Y-30500000D03*
X56250000Y-31000000D03*
X73000000Y-56750000D03*
D16*
X87750000Y-52250000D02*
X87750000Y-55250000D01*
D17*
X51620000Y-60450000D02*
X39910000Y-48740000D01*
X136393502Y-60450000D02*
X51620000Y-60450000D01*
X138700000Y-58143504D02*
X136393502Y-60450000D01*
X130600000Y-42102208D02*
X131527208Y-41175000D01*
X138700000Y-43836523D02*
X138700000Y-58143504D01*
X132600000Y-45397792D02*
X130600000Y-43397792D01*
X136038478Y-41175000D02*
X138700000Y-43836523D01*
X130600000Y-43397792D02*
X130600000Y-42102208D01*
X131527208Y-41175000D02*
X136038478Y-41175000D01*
X127500000Y-55250000D02*
X127500000Y-57250000D01*
X132600000Y-57150000D02*
X132600000Y-45397792D01*
X132000000Y-57750000D02*
X132600000Y-57150000D01*
X128000000Y-57750000D02*
X132000000Y-57750000D01*
X127500000Y-57250000D02*
X128000000Y-57750000D01*
X98250000Y-29000000D02*
X55750000Y-29000000D01*
X55750000Y-29000000D02*
X54250000Y-30500000D01*
X56250000Y-31000000D02*
X56500000Y-30750000D01*
X56500000Y-30750000D02*
X115500000Y-30750000D01*
X115500000Y-30750000D02*
X127500000Y-42750000D01*
X73000000Y-56750000D02*
X72930000Y-56680000D01*
X72930000Y-56680000D02*
X72930000Y-48740000D01*
X81750000Y-55250000D02*
X79500000Y-57500000D01*
X60920000Y-57500000D02*
X53710000Y-50290000D01*
X79500000Y-57500000D02*
X60920000Y-57500000D01*
X53710000Y-50290000D02*
X53710000Y-44760000D01*
X53710000Y-44760000D02*
X42450000Y-33500000D01*
X131500000Y-42750000D02*
X132675000Y-41575000D01*
X132675000Y-41575000D02*
X135872792Y-41575000D01*
X135872792Y-41575000D02*
X138300000Y-44002208D01*
X138300000Y-44002208D02*
X138300000Y-57977818D01*
X136227817Y-60050000D02*
X88522182Y-60050000D01*
X138300000Y-57977818D02*
X136227817Y-60050000D01*
X88522182Y-60050000D02*
X86850000Y-58377818D01*
X86850000Y-58377818D02*
X86850000Y-50060000D01*
X86850000Y-50060000D02*
X88170000Y-48740000D01*
X83750000Y-55250000D02*
X83750000Y-56500000D01*
X83750000Y-56500000D02*
X81000000Y-59250000D01*
X81000000Y-59250000D02*
X58040000Y-59250000D01*
X58040000Y-59250000D02*
X47530000Y-48740000D01*
X131500000Y-55250000D02*
X108650000Y-32400000D01*
X108650000Y-32400000D02*
X41994365Y-32400000D01*
X41994365Y-32400000D02*
X41350000Y-33044365D01*
X41350000Y-33044365D02*
X41350000Y-47640000D01*
X41350000Y-47640000D02*
X42450000Y-48740000D01*
D16*
X133500000Y-55250000D02*
X133500000Y-59500000D01*
X133500000Y-59500000D02*
X136000000Y-59500000D01*
X137750000Y-47000000D02*
X133500000Y-42750000D01*
X136000000Y-59500000D02*
X137750000Y-57750000D01*
X137750000Y-57750000D02*
X137750000Y-47000000D01*
X135250000Y-59500000D02*
X118500000Y-59500000D01*
D17*
X116250000Y-55250000D02*
X95600000Y-34600000D01*
X95600000Y-34600000D02*
X71490000Y-34600000D01*
X71490000Y-34600000D02*
X70390000Y-33500000D01*
X114250000Y-55250000D02*
X113075000Y-54075000D01*
X113075000Y-54075000D02*
X98215256Y-54075000D01*
X98215256Y-54075000D02*
X97900000Y-54390256D01*
X97900000Y-54390256D02*
X97900000Y-56109744D01*
X97584744Y-56425000D02*
X96415256Y-56425000D01*
X97900000Y-56109744D02*
X97584744Y-56425000D01*
X96415256Y-56425000D02*
X90710000Y-50719744D01*
X90710000Y-50719744D02*
X90710000Y-48740000D01*
X97000000Y-55250000D02*
X97000000Y-48250000D01*
X97000000Y-48250000D02*
X89600000Y-40850000D01*
X89600000Y-40850000D02*
X70120000Y-40850000D01*
X70120000Y-40850000D02*
X62770000Y-33500000D01*
X80000000Y-53750000D02*
X76750000Y-50500000D01*
X84250000Y-53750000D02*
X80000000Y-53750000D01*
X76750000Y-50500000D02*
X76750000Y-47250000D01*
X76750000Y-47250000D02*
X70750000Y-41250000D01*
X85750000Y-55250000D02*
X84250000Y-53750000D01*
X70750000Y-41250000D02*
X67980000Y-41250000D01*
X67980000Y-41250000D02*
X60230000Y-33500000D01*
D16*
X118500000Y-59500000D02*
X103000000Y-59500000D01*
X118250000Y-59250000D02*
X118500000Y-59500000D01*
X118250000Y-55250000D02*
X118250000Y-59250000D01*
X103000000Y-59500000D02*
X88750000Y-59500000D01*
X103000000Y-55250000D02*
X103000000Y-59500000D01*
X88750000Y-59500000D02*
X87750000Y-58500000D01*
X87750000Y-58500000D02*
X87750000Y-55250000D01*
D17*
X55150000Y-33210000D02*
X55150000Y-33500000D01*
X67850000Y-33210000D02*
X67850000Y-33500000D01*
X57690000Y-48740000D02*
X57400000Y-48740000D01*
X72640000Y-48450000D02*
X72930000Y-48740000D01*
%TA.AperFunction,Conductor*%
G36*
X32540000Y-50040000D02*
G01*
X33137828Y-50040000D01*
X33137844Y-50039999D01*
X33197372Y-50033598D01*
X33197379Y-50033596D01*
X33332086Y-49983354D01*
X33332093Y-49983350D01*
X33447187Y-49897190D01*
X33447190Y-49897187D01*
X33533350Y-49782093D01*
X33533354Y-49782086D01*
X33583596Y-49647380D01*
X33587424Y-49611781D01*
X33614162Y-49547230D01*
X33671555Y-49507382D01*
X33741380Y-49504888D01*
X33801469Y-49540540D01*
X33812289Y-49553912D01*
X33829956Y-49579143D01*
X33990858Y-49740045D01*
X33990861Y-49740047D01*
X34177266Y-49870568D01*
X34383504Y-49966739D01*
X34383509Y-49966740D01*
X34383511Y-49966741D01*
X34436415Y-49980916D01*
X34603308Y-50025635D01*
X34745361Y-50038063D01*
X34829998Y-50045468D01*
X34830000Y-50045468D01*
X34830002Y-50045468D01*
X34892511Y-50039999D01*
X35056692Y-50025635D01*
X35276496Y-49966739D01*
X35482734Y-49870568D01*
X35669139Y-49740047D01*
X35830047Y-49579139D01*
X35960568Y-49392734D01*
X35987618Y-49334724D01*
X36033790Y-49282285D01*
X36100983Y-49263133D01*
X36167865Y-49283348D01*
X36212382Y-49334725D01*
X36239429Y-49392728D01*
X36239432Y-49392734D01*
X36369954Y-49579141D01*
X36530858Y-49740045D01*
X36530861Y-49740047D01*
X36717266Y-49870568D01*
X36923504Y-49966739D01*
X36923509Y-49966740D01*
X36923511Y-49966741D01*
X36976415Y-49980916D01*
X37143308Y-50025635D01*
X37285361Y-50038063D01*
X37369998Y-50045468D01*
X37370000Y-50045468D01*
X37370002Y-50045468D01*
X37432511Y-50039999D01*
X37596692Y-50025635D01*
X37816496Y-49966739D01*
X38022734Y-49870568D01*
X38209139Y-49740047D01*
X38370047Y-49579139D01*
X38500568Y-49392734D01*
X38527618Y-49334724D01*
X38573790Y-49282285D01*
X38640983Y-49263133D01*
X38707865Y-49283348D01*
X38752382Y-49334725D01*
X38779429Y-49392728D01*
X38779432Y-49392734D01*
X38909954Y-49579141D01*
X39070858Y-49740045D01*
X39070861Y-49740047D01*
X39257266Y-49870568D01*
X39463504Y-49966739D01*
X39463509Y-49966740D01*
X39463511Y-49966741D01*
X39516415Y-49980916D01*
X39683308Y-50025635D01*
X39825361Y-50038063D01*
X39909998Y-50045468D01*
X39910000Y-50045468D01*
X39910002Y-50045468D01*
X39972511Y-50039999D01*
X40136692Y-50025635D01*
X40232932Y-49999847D01*
X40302781Y-50001510D01*
X40352706Y-50031941D01*
X51108584Y-60787819D01*
X51142069Y-60849142D01*
X51137085Y-60918834D01*
X51095213Y-60974767D01*
X51029749Y-60999184D01*
X51020903Y-60999500D01*
X31604500Y-60999500D01*
X31537461Y-60979815D01*
X31491706Y-60927011D01*
X31480500Y-60875500D01*
X31480500Y-50164000D01*
X31500185Y-50096961D01*
X31552989Y-50051206D01*
X31604500Y-50040000D01*
X32040000Y-50040000D01*
X32040000Y-49230747D01*
X32077708Y-49252518D01*
X32217591Y-49290000D01*
X32362409Y-49290000D01*
X32502292Y-49252518D01*
X32540000Y-49230747D01*
X32540000Y-50040000D01*
G37*
%TD.AperFunction*%
%TA.AperFunction,Conductor*%
G36*
X89507865Y-49283348D02*
G01*
X89552382Y-49334725D01*
X89579429Y-49392728D01*
X89579432Y-49392734D01*
X89709954Y-49579141D01*
X89870858Y-49740045D01*
X89870861Y-49740047D01*
X90056624Y-49870118D01*
X90100248Y-49924693D01*
X90109500Y-49971692D01*
X90109500Y-50633074D01*
X90109499Y-50633092D01*
X90109499Y-50798798D01*
X90109498Y-50798798D01*
X90150424Y-50951533D01*
X90150425Y-50951534D01*
X90167160Y-50980519D01*
X90167161Y-50980520D01*
X90229477Y-51088456D01*
X90229481Y-51088461D01*
X90348349Y-51207329D01*
X90348355Y-51207334D01*
X95930395Y-56789374D01*
X95930405Y-56789385D01*
X95934735Y-56793715D01*
X95934736Y-56793716D01*
X96046540Y-56905520D01*
X96046542Y-56905521D01*
X96046546Y-56905524D01*
X96169066Y-56976260D01*
X96183472Y-56984577D01*
X96295275Y-57014534D01*
X96336198Y-57025500D01*
X96336199Y-57025500D01*
X97498075Y-57025500D01*
X97498091Y-57025501D01*
X97505687Y-57025501D01*
X97663798Y-57025501D01*
X97663801Y-57025501D01*
X97816529Y-56984577D01*
X97866648Y-56955639D01*
X97953460Y-56905520D01*
X98065264Y-56793716D01*
X98065264Y-56793714D01*
X98075472Y-56783507D01*
X98075474Y-56783504D01*
X98258506Y-56600472D01*
X98258511Y-56600468D01*
X98268714Y-56590264D01*
X98268716Y-56590264D01*
X98339327Y-56519653D01*
X98400650Y-56486168D01*
X98470342Y-56491152D01*
X98483294Y-56496845D01*
X98577555Y-56544873D01*
X98742299Y-56598402D01*
X98913389Y-56625500D01*
X98913390Y-56625500D01*
X99086610Y-56625500D01*
X99086611Y-56625500D01*
X99257701Y-56598402D01*
X99422445Y-56544873D01*
X99576788Y-56466232D01*
X99716928Y-56364414D01*
X99839414Y-56241928D01*
X99899682Y-56158975D01*
X99955012Y-56116311D01*
X100024626Y-56110332D01*
X100086421Y-56142938D01*
X100100315Y-56158973D01*
X100160586Y-56241928D01*
X100283072Y-56364414D01*
X100423212Y-56466232D01*
X100577555Y-56544873D01*
X100742299Y-56598402D01*
X100913389Y-56625500D01*
X100913390Y-56625500D01*
X101086610Y-56625500D01*
X101086611Y-56625500D01*
X101257701Y-56598402D01*
X101422445Y-56544873D01*
X101576788Y-56466232D01*
X101716928Y-56364414D01*
X101839414Y-56241928D01*
X101899682Y-56158975D01*
X101955012Y-56116311D01*
X102024626Y-56110332D01*
X102086421Y-56142938D01*
X102100315Y-56158973D01*
X102160586Y-56241928D01*
X102160588Y-56241930D01*
X102213181Y-56294523D01*
X102246666Y-56355846D01*
X102249500Y-56382204D01*
X102249500Y-58625500D01*
X102229815Y-58692539D01*
X102177011Y-58738294D01*
X102125500Y-58749500D01*
X89112229Y-58749500D01*
X89045190Y-58729815D01*
X89024548Y-58713181D01*
X88536819Y-58225451D01*
X88503334Y-58164128D01*
X88500500Y-58137770D01*
X88500500Y-56382204D01*
X88520185Y-56315165D01*
X88536819Y-56294523D01*
X88552968Y-56278374D01*
X88589414Y-56241928D01*
X88649991Y-56158550D01*
X88705321Y-56115885D01*
X88774934Y-56109906D01*
X88836729Y-56142512D01*
X88850628Y-56158551D01*
X88910967Y-56241602D01*
X89033397Y-56364032D01*
X89173475Y-56465804D01*
X89327744Y-56544408D01*
X89492415Y-56597914D01*
X89492414Y-56597914D01*
X89499999Y-56599115D01*
X89500000Y-56599114D01*
X89500000Y-55530330D01*
X89519745Y-55550075D01*
X89605255Y-55599444D01*
X89700630Y-55625000D01*
X89799370Y-55625000D01*
X89894745Y-55599444D01*
X89980255Y-55550075D01*
X90000000Y-55530330D01*
X90000000Y-56599115D01*
X90007584Y-56597914D01*
X90172255Y-56544408D01*
X90326524Y-56465804D01*
X90466602Y-56364032D01*
X90589032Y-56241602D01*
X90690804Y-56101524D01*
X90769408Y-55947257D01*
X90822914Y-55782584D01*
X90850000Y-55611571D01*
X90850000Y-55500000D01*
X90030330Y-55500000D01*
X90050075Y-55480255D01*
X90099444Y-55394745D01*
X90125000Y-55299370D01*
X90125000Y-55200630D01*
X90099444Y-55105255D01*
X90050075Y-55019745D01*
X90030330Y-55000000D01*
X90850000Y-55000000D01*
X90850000Y-54888428D01*
X90822914Y-54717415D01*
X90769408Y-54552742D01*
X90690804Y-54398475D01*
X90589032Y-54258397D01*
X90466602Y-54135967D01*
X90326524Y-54034195D01*
X90172257Y-53955591D01*
X90007589Y-53902087D01*
X90007581Y-53902085D01*
X90000000Y-53900884D01*
X90000000Y-54969670D01*
X89980255Y-54949925D01*
X89894745Y-54900556D01*
X89799370Y-54875000D01*
X89700630Y-54875000D01*
X89605255Y-54900556D01*
X89519745Y-54949925D01*
X89500000Y-54969670D01*
X89500000Y-53900884D01*
X89499999Y-53900884D01*
X89492418Y-53902085D01*
X89492410Y-53902087D01*
X89327742Y-53955591D01*
X89173475Y-54034195D01*
X89033397Y-54135967D01*
X88910965Y-54258399D01*
X88910961Y-54258404D01*
X88850627Y-54341448D01*
X88795297Y-54384114D01*
X88725684Y-54390093D01*
X88663889Y-54357488D01*
X88649991Y-54341449D01*
X88649990Y-54341448D01*
X88589414Y-54258072D01*
X88536819Y-54205477D01*
X88503334Y-54144154D01*
X88500500Y-54117796D01*
X88500500Y-52299108D01*
X88501280Y-52285223D01*
X88505249Y-52250000D01*
X88505249Y-52249997D01*
X88501280Y-52214774D01*
X88500500Y-52200890D01*
X88500500Y-52176081D01*
X88493261Y-52139692D01*
X88491659Y-52129398D01*
X88486313Y-52081941D01*
X88486312Y-52081938D01*
X88478671Y-52060101D01*
X88474094Y-52043332D01*
X88471660Y-52031095D01*
X88471658Y-52031087D01*
X88452766Y-51985477D01*
X88450285Y-51978979D01*
X88449358Y-51976332D01*
X88430456Y-51922310D01*
X88424708Y-51913162D01*
X88415143Y-51894648D01*
X88415084Y-51894505D01*
X88380834Y-51843247D01*
X88378949Y-51840338D01*
X88340476Y-51779109D01*
X88220889Y-51659522D01*
X88159677Y-51621060D01*
X88156760Y-51619169D01*
X88105495Y-51584916D01*
X88105488Y-51584912D01*
X88105340Y-51584851D01*
X88086844Y-51575295D01*
X88077694Y-51569546D01*
X88077691Y-51569544D01*
X88077690Y-51569544D01*
X88021003Y-51549708D01*
X88014532Y-51547238D01*
X87968913Y-51528342D01*
X87968911Y-51528341D01*
X87968910Y-51528341D01*
X87962799Y-51527125D01*
X87956659Y-51525904D01*
X87939902Y-51521330D01*
X87918059Y-51513687D01*
X87918060Y-51513687D01*
X87886794Y-51510163D01*
X87870614Y-51508340D01*
X87860312Y-51506739D01*
X87823918Y-51499500D01*
X87823917Y-51499500D01*
X87799110Y-51499500D01*
X87785226Y-51498720D01*
X87750002Y-51494751D01*
X87749998Y-51494751D01*
X87714774Y-51498720D01*
X87700890Y-51499500D01*
X87676082Y-51499500D01*
X87639685Y-51506739D01*
X87629382Y-51508341D01*
X87621158Y-51509267D01*
X87588385Y-51512960D01*
X87519564Y-51500908D01*
X87468184Y-51453560D01*
X87450500Y-51389741D01*
X87450500Y-50360096D01*
X87470185Y-50293057D01*
X87486815Y-50272419D01*
X87727294Y-50031939D01*
X87788615Y-49998456D01*
X87847066Y-49999847D01*
X87853273Y-50001510D01*
X87943308Y-50025635D01*
X88085361Y-50038063D01*
X88169998Y-50045468D01*
X88170000Y-50045468D01*
X88170002Y-50045468D01*
X88232511Y-50039999D01*
X88396692Y-50025635D01*
X88616496Y-49966739D01*
X88822734Y-49870568D01*
X89009139Y-49740047D01*
X89170047Y-49579139D01*
X89300568Y-49392734D01*
X89327618Y-49334724D01*
X89373790Y-49282285D01*
X89440983Y-49263133D01*
X89507865Y-49283348D01*
G37*
%TD.AperFunction*%
%TA.AperFunction,Conductor*%
G36*
X111092539Y-54695185D02*
G01*
X111138294Y-54747989D01*
X111149500Y-54799500D01*
X111149500Y-55925001D01*
X111149501Y-55925018D01*
X111160000Y-56027796D01*
X111160001Y-56027799D01*
X111215185Y-56194331D01*
X111215187Y-56194336D01*
X111238870Y-56232732D01*
X111307288Y-56343656D01*
X111431344Y-56467712D01*
X111580666Y-56559814D01*
X111747203Y-56614999D01*
X111849991Y-56625500D01*
X112650008Y-56625499D01*
X112650016Y-56625498D01*
X112650019Y-56625498D01*
X112706302Y-56619748D01*
X112752797Y-56614999D01*
X112919334Y-56559814D01*
X113068656Y-56467712D01*
X113192712Y-56343656D01*
X113232310Y-56279456D01*
X113284258Y-56232732D01*
X113353220Y-56221509D01*
X113417303Y-56249352D01*
X113425530Y-56256872D01*
X113533072Y-56364414D01*
X113673212Y-56466232D01*
X113827555Y-56544873D01*
X113992299Y-56598402D01*
X114163389Y-56625500D01*
X114163390Y-56625500D01*
X114336610Y-56625500D01*
X114336611Y-56625500D01*
X114507701Y-56598402D01*
X114672445Y-56544873D01*
X114826788Y-56466232D01*
X114966928Y-56364414D01*
X115089414Y-56241928D01*
X115149682Y-56158975D01*
X115205012Y-56116311D01*
X115274626Y-56110332D01*
X115336421Y-56142938D01*
X115350315Y-56158973D01*
X115410586Y-56241928D01*
X115533072Y-56364414D01*
X115673212Y-56466232D01*
X115827555Y-56544873D01*
X115992299Y-56598402D01*
X116163389Y-56625500D01*
X116163390Y-56625500D01*
X116336610Y-56625500D01*
X116336611Y-56625500D01*
X116507701Y-56598402D01*
X116672445Y-56544873D01*
X116826788Y-56466232D01*
X116966928Y-56364414D01*
X117089414Y-56241928D01*
X117149682Y-56158975D01*
X117205012Y-56116311D01*
X117274626Y-56110332D01*
X117336421Y-56142938D01*
X117350315Y-56158973D01*
X117410586Y-56241928D01*
X117410588Y-56241930D01*
X117463181Y-56294523D01*
X117496666Y-56355846D01*
X117499500Y-56382204D01*
X117499500Y-58625500D01*
X117479815Y-58692539D01*
X117427011Y-58738294D01*
X117375500Y-58749500D01*
X103874500Y-58749500D01*
X103807461Y-58729815D01*
X103761706Y-58677011D01*
X103750500Y-58625500D01*
X103750500Y-56382204D01*
X103770185Y-56315165D01*
X103786819Y-56294523D01*
X103802968Y-56278374D01*
X103839414Y-56241928D01*
X103899991Y-56158550D01*
X103955321Y-56115885D01*
X104024934Y-56109906D01*
X104086729Y-56142512D01*
X104100628Y-56158551D01*
X104160967Y-56241602D01*
X104283397Y-56364032D01*
X104423475Y-56465804D01*
X104577744Y-56544408D01*
X104742415Y-56597914D01*
X104742414Y-56597914D01*
X104749999Y-56599115D01*
X104750000Y-56599114D01*
X104750000Y-55530330D01*
X104769745Y-55550075D01*
X104855255Y-55599444D01*
X104950630Y-55625000D01*
X105049370Y-55625000D01*
X105144745Y-55599444D01*
X105230255Y-55550075D01*
X105250000Y-55530330D01*
X105250000Y-56599115D01*
X105257584Y-56597914D01*
X105422255Y-56544408D01*
X105576524Y-56465804D01*
X105716602Y-56364032D01*
X105839032Y-56241602D01*
X105940804Y-56101524D01*
X106019408Y-55947257D01*
X106072914Y-55782584D01*
X106100000Y-55611571D01*
X106100000Y-55500000D01*
X105280330Y-55500000D01*
X105300075Y-55480255D01*
X105349444Y-55394745D01*
X105375000Y-55299370D01*
X105375000Y-55200630D01*
X105349444Y-55105255D01*
X105300075Y-55019745D01*
X105280330Y-55000000D01*
X106100000Y-55000000D01*
X106100000Y-54888429D01*
X106088987Y-54818898D01*
X106097941Y-54749605D01*
X106142937Y-54696153D01*
X106209689Y-54675513D01*
X106211460Y-54675500D01*
X111025500Y-54675500D01*
X111092539Y-54695185D01*
G37*
%TD.AperFunction*%
%TA.AperFunction,Conductor*%
G36*
X108416942Y-33020185D02*
G01*
X108437584Y-33036819D01*
X129144550Y-53743785D01*
X129178035Y-53805108D01*
X129173051Y-53874800D01*
X129131179Y-53930733D01*
X129095194Y-53949395D01*
X129077552Y-53955128D01*
X128923211Y-54033768D01*
X128783073Y-54135585D01*
X128675530Y-54243128D01*
X128614207Y-54276612D01*
X128544515Y-54271628D01*
X128488582Y-54229756D01*
X128482310Y-54220543D01*
X128473017Y-54205477D01*
X128442712Y-54156344D01*
X128318656Y-54032288D01*
X128193559Y-53955128D01*
X128169336Y-53940187D01*
X128169331Y-53940185D01*
X128160724Y-53937333D01*
X128002797Y-53885001D01*
X128002795Y-53885000D01*
X127900010Y-53874500D01*
X127099998Y-53874500D01*
X127099980Y-53874501D01*
X126997203Y-53885000D01*
X126997200Y-53885001D01*
X126830668Y-53940185D01*
X126830663Y-53940187D01*
X126681342Y-54032289D01*
X126557289Y-54156342D01*
X126465187Y-54305663D01*
X126465185Y-54305668D01*
X126450330Y-54350499D01*
X126410001Y-54472203D01*
X126410001Y-54472204D01*
X126410000Y-54472204D01*
X126399500Y-54574983D01*
X126399500Y-55925001D01*
X126399501Y-55925018D01*
X126410000Y-56027796D01*
X126410001Y-56027799D01*
X126465185Y-56194331D01*
X126465187Y-56194336D01*
X126488870Y-56232732D01*
X126557288Y-56343656D01*
X126681344Y-56467712D01*
X126830666Y-56559814D01*
X126830667Y-56559814D01*
X126836813Y-56563605D01*
X126835706Y-56565399D01*
X126880337Y-56604687D01*
X126899500Y-56670908D01*
X126899500Y-57163330D01*
X126899499Y-57163348D01*
X126899499Y-57329054D01*
X126899498Y-57329054D01*
X126938725Y-57475451D01*
X126940423Y-57481785D01*
X126968888Y-57531087D01*
X127019480Y-57618716D01*
X127131284Y-57730520D01*
X127131285Y-57730521D01*
X127631284Y-58230520D01*
X127631286Y-58230521D01*
X127631290Y-58230524D01*
X127736327Y-58291166D01*
X127768216Y-58309577D01*
X127920943Y-58350501D01*
X127920945Y-58350501D01*
X128086654Y-58350501D01*
X128086670Y-58350500D01*
X131913331Y-58350500D01*
X131913347Y-58350501D01*
X131920943Y-58350501D01*
X132079054Y-58350501D01*
X132079057Y-58350501D01*
X132231785Y-58309577D01*
X132281904Y-58280639D01*
X132368716Y-58230520D01*
X132480520Y-58118716D01*
X132480520Y-58118714D01*
X132490728Y-58108507D01*
X132490730Y-58108503D01*
X132537820Y-58061413D01*
X132599143Y-58027930D01*
X132668835Y-58032915D01*
X132724768Y-58074787D01*
X132749184Y-58140251D01*
X132749500Y-58149096D01*
X132749500Y-58625500D01*
X132729815Y-58692539D01*
X132677011Y-58738294D01*
X132625500Y-58749500D01*
X119124500Y-58749500D01*
X119057461Y-58729815D01*
X119011706Y-58677011D01*
X119000500Y-58625500D01*
X119000500Y-56382204D01*
X119020185Y-56315165D01*
X119036819Y-56294523D01*
X119052968Y-56278374D01*
X119089414Y-56241928D01*
X119149991Y-56158550D01*
X119205321Y-56115885D01*
X119274934Y-56109906D01*
X119336729Y-56142512D01*
X119350628Y-56158551D01*
X119410967Y-56241602D01*
X119533397Y-56364032D01*
X119673475Y-56465804D01*
X119827744Y-56544408D01*
X119992415Y-56597914D01*
X119992414Y-56597914D01*
X119999999Y-56599115D01*
X120000000Y-56599114D01*
X120000000Y-55530330D01*
X120019745Y-55550075D01*
X120105255Y-55599444D01*
X120200630Y-55625000D01*
X120299370Y-55625000D01*
X120394745Y-55599444D01*
X120480255Y-55550075D01*
X120500000Y-55530330D01*
X120500000Y-56599115D01*
X120507584Y-56597914D01*
X120672255Y-56544408D01*
X120826524Y-56465804D01*
X120966602Y-56364032D01*
X121089032Y-56241602D01*
X121190804Y-56101524D01*
X121269408Y-55947257D01*
X121322914Y-55782584D01*
X121350000Y-55611571D01*
X121350000Y-55500000D01*
X120530330Y-55500000D01*
X120550075Y-55480255D01*
X120599444Y-55394745D01*
X120625000Y-55299370D01*
X120625000Y-55200630D01*
X120599444Y-55105255D01*
X120550075Y-55019745D01*
X120530330Y-55000000D01*
X121350000Y-55000000D01*
X121350000Y-54888428D01*
X121322914Y-54717415D01*
X121269408Y-54552742D01*
X121190804Y-54398475D01*
X121089032Y-54258397D01*
X120966602Y-54135967D01*
X120826524Y-54034195D01*
X120672257Y-53955591D01*
X120507589Y-53902087D01*
X120507581Y-53902085D01*
X120500000Y-53900884D01*
X120500000Y-54969670D01*
X120480255Y-54949925D01*
X120394745Y-54900556D01*
X120299370Y-54875000D01*
X120200630Y-54875000D01*
X120105255Y-54900556D01*
X120019745Y-54949925D01*
X120000000Y-54969670D01*
X120000000Y-53900884D01*
X119999999Y-53900884D01*
X119992418Y-53902085D01*
X119992410Y-53902087D01*
X119827742Y-53955591D01*
X119673475Y-54034195D01*
X119533397Y-54135967D01*
X119410965Y-54258399D01*
X119410961Y-54258404D01*
X119350627Y-54341448D01*
X119295297Y-54384114D01*
X119225684Y-54390093D01*
X119163889Y-54357488D01*
X119149991Y-54341449D01*
X119149990Y-54341448D01*
X119089414Y-54258072D01*
X118966928Y-54135586D01*
X118826788Y-54033768D01*
X118672445Y-53955127D01*
X118507701Y-53901598D01*
X118507699Y-53901597D01*
X118507698Y-53901597D01*
X118376271Y-53880781D01*
X118336611Y-53874500D01*
X118163389Y-53874500D01*
X118123728Y-53880781D01*
X117992302Y-53901597D01*
X117827552Y-53955128D01*
X117673211Y-54033768D01*
X117593256Y-54091859D01*
X117533072Y-54135586D01*
X117533070Y-54135588D01*
X117533069Y-54135588D01*
X117410588Y-54258069D01*
X117410581Y-54258078D01*
X117350317Y-54341023D01*
X117294987Y-54383689D01*
X117225374Y-54389667D01*
X117163579Y-54357061D01*
X117149683Y-54341023D01*
X117089655Y-54258404D01*
X117089414Y-54258072D01*
X116966928Y-54135586D01*
X116826788Y-54033768D01*
X116672445Y-53955127D01*
X116507701Y-53901598D01*
X116507699Y-53901597D01*
X116507698Y-53901597D01*
X116376271Y-53880781D01*
X116336611Y-53874500D01*
X116163389Y-53874500D01*
X116131192Y-53879599D01*
X115992301Y-53901597D01*
X115992297Y-53901598D01*
X115882316Y-53937333D01*
X115812475Y-53939328D01*
X115756318Y-53907083D01*
X96087590Y-34238355D01*
X96087588Y-34238352D01*
X95968717Y-34119481D01*
X95968716Y-34119480D01*
X95864960Y-34059577D01*
X95864959Y-34059576D01*
X95831783Y-34040422D01*
X95765057Y-34022543D01*
X95679057Y-33999499D01*
X95520943Y-33999499D01*
X95513347Y-33999499D01*
X95513331Y-33999500D01*
X92084137Y-33999500D01*
X92017098Y-33979815D01*
X91971343Y-33927011D01*
X91961399Y-33857853D01*
X91964362Y-33843407D01*
X91980000Y-33785042D01*
X91995635Y-33726692D01*
X92015468Y-33500000D01*
X91995635Y-33273308D01*
X91965889Y-33162292D01*
X91964362Y-33156593D01*
X91966025Y-33086743D01*
X92005188Y-33028881D01*
X92069417Y-33001377D01*
X92084137Y-33000500D01*
X108349903Y-33000500D01*
X108416942Y-33020185D01*
G37*
%TD.AperFunction*%
%TA.AperFunction,Conductor*%
G36*
X132586421Y-43642938D02*
G01*
X132600315Y-43658973D01*
X132660586Y-43741928D01*
X132783072Y-43864414D01*
X132923212Y-43966232D01*
X133077555Y-44044873D01*
X133242299Y-44098402D01*
X133413389Y-44125500D01*
X133413390Y-44125500D01*
X133586610Y-44125500D01*
X133586611Y-44125500D01*
X133720620Y-44104275D01*
X133789914Y-44113230D01*
X133827699Y-44139067D01*
X136963181Y-47274548D01*
X136996666Y-47335871D01*
X136999500Y-47362229D01*
X136999500Y-57387770D01*
X136979815Y-57454809D01*
X136963181Y-57475451D01*
X135725451Y-58713181D01*
X135664128Y-58746666D01*
X135637770Y-58749500D01*
X134374500Y-58749500D01*
X134307461Y-58729815D01*
X134261706Y-58677011D01*
X134250500Y-58625500D01*
X134250500Y-56382204D01*
X134270185Y-56315165D01*
X134286819Y-56294523D01*
X134302968Y-56278374D01*
X134339414Y-56241928D01*
X134399991Y-56158550D01*
X134455321Y-56115885D01*
X134524934Y-56109906D01*
X134586729Y-56142512D01*
X134600628Y-56158551D01*
X134660967Y-56241602D01*
X134783397Y-56364032D01*
X134923475Y-56465804D01*
X135077744Y-56544408D01*
X135242415Y-56597914D01*
X135242414Y-56597914D01*
X135249999Y-56599115D01*
X135250000Y-56599114D01*
X135250000Y-55530330D01*
X135269745Y-55550075D01*
X135355255Y-55599444D01*
X135450630Y-55625000D01*
X135549370Y-55625000D01*
X135644745Y-55599444D01*
X135730255Y-55550075D01*
X135750000Y-55530330D01*
X135750000Y-56599115D01*
X135757584Y-56597914D01*
X135922255Y-56544408D01*
X136076524Y-56465804D01*
X136216602Y-56364032D01*
X136339032Y-56241602D01*
X136440804Y-56101524D01*
X136519408Y-55947257D01*
X136572914Y-55782584D01*
X136600000Y-55611571D01*
X136600000Y-55500000D01*
X135780330Y-55500000D01*
X135800075Y-55480255D01*
X135849444Y-55394745D01*
X135875000Y-55299370D01*
X135875000Y-55200630D01*
X135849444Y-55105255D01*
X135800075Y-55019745D01*
X135780330Y-55000000D01*
X136600000Y-55000000D01*
X136600000Y-54888428D01*
X136572914Y-54717415D01*
X136519408Y-54552742D01*
X136440804Y-54398475D01*
X136339032Y-54258397D01*
X136216602Y-54135967D01*
X136076524Y-54034195D01*
X135922257Y-53955591D01*
X135757589Y-53902087D01*
X135757581Y-53902085D01*
X135750000Y-53900884D01*
X135750000Y-54969670D01*
X135730255Y-54949925D01*
X135644745Y-54900556D01*
X135549370Y-54875000D01*
X135450630Y-54875000D01*
X135355255Y-54900556D01*
X135269745Y-54949925D01*
X135250000Y-54969670D01*
X135250000Y-53900884D01*
X135249999Y-53900884D01*
X135242418Y-53902085D01*
X135242410Y-53902087D01*
X135077742Y-53955591D01*
X134923475Y-54034195D01*
X134783397Y-54135967D01*
X134660965Y-54258399D01*
X134660961Y-54258404D01*
X134600627Y-54341448D01*
X134545297Y-54384114D01*
X134475684Y-54390093D01*
X134413889Y-54357488D01*
X134399991Y-54341449D01*
X134399990Y-54341448D01*
X134339414Y-54258072D01*
X134216928Y-54135586D01*
X134076788Y-54033768D01*
X133922445Y-53955127D01*
X133757701Y-53901598D01*
X133757699Y-53901597D01*
X133757698Y-53901597D01*
X133626271Y-53880781D01*
X133586611Y-53874500D01*
X133413389Y-53874500D01*
X133343897Y-53885506D01*
X133274604Y-53876551D01*
X133221152Y-53831555D01*
X133200513Y-53764803D01*
X133200500Y-53763033D01*
X133200500Y-45318737D01*
X133200500Y-45318735D01*
X133159577Y-45166007D01*
X133130639Y-45115887D01*
X133080520Y-45029076D01*
X132968716Y-44917272D01*
X132968715Y-44917271D01*
X132964385Y-44912941D01*
X132964374Y-44912931D01*
X132145211Y-44093768D01*
X132111726Y-44032445D01*
X132116710Y-43962753D01*
X132158582Y-43906820D01*
X132159865Y-43905872D01*
X132216928Y-43864414D01*
X132339414Y-43741928D01*
X132399682Y-43658975D01*
X132455012Y-43616311D01*
X132524626Y-43610332D01*
X132586421Y-43642938D01*
G37*
%TD.AperFunction*%
%TA.AperFunction,Conductor*%
G36*
X68929024Y-34225471D02*
G01*
X68980133Y-34152482D01*
X69007341Y-34094135D01*
X69053513Y-34041696D01*
X69120707Y-34022543D01*
X69187588Y-34042758D01*
X69232105Y-34094132D01*
X69259432Y-34152734D01*
X69259433Y-34152735D01*
X69389954Y-34339141D01*
X69550858Y-34500045D01*
X69550861Y-34500047D01*
X69737266Y-34630568D01*
X69943504Y-34726739D01*
X69943509Y-34726740D01*
X69943511Y-34726741D01*
X69996415Y-34740916D01*
X70163308Y-34785635D01*
X70305361Y-34798063D01*
X70389998Y-34805468D01*
X70390000Y-34805468D01*
X70390002Y-34805468D01*
X70446673Y-34800509D01*
X70616692Y-34785635D01*
X70712932Y-34759847D01*
X70782781Y-34761510D01*
X70832706Y-34791941D01*
X71005139Y-34964374D01*
X71005149Y-34964385D01*
X71009479Y-34968715D01*
X71009480Y-34968716D01*
X71121284Y-35080520D01*
X71208095Y-35130639D01*
X71208097Y-35130641D01*
X71246151Y-35152611D01*
X71258215Y-35159577D01*
X71410943Y-35200501D01*
X71410946Y-35200501D01*
X71576653Y-35200501D01*
X71576669Y-35200500D01*
X95299903Y-35200500D01*
X95366942Y-35220185D01*
X95387584Y-35236819D01*
X113491139Y-53340374D01*
X113524624Y-53401697D01*
X113519640Y-53471389D01*
X113477768Y-53527322D01*
X113412304Y-53551739D01*
X113344031Y-53536887D01*
X113341457Y-53535441D01*
X113306787Y-53515424D01*
X113306786Y-53515423D01*
X113306785Y-53515423D01*
X113154057Y-53474499D01*
X112995943Y-53474499D01*
X112988347Y-53474499D01*
X112988331Y-53474500D01*
X98294313Y-53474500D01*
X98136198Y-53474500D01*
X97983471Y-53515423D01*
X97983470Y-53515423D01*
X97983468Y-53515424D01*
X97983465Y-53515425D01*
X97933352Y-53544359D01*
X97933351Y-53544360D01*
X97889945Y-53569420D01*
X97846541Y-53594479D01*
X97846538Y-53594481D01*
X97812181Y-53628839D01*
X97750858Y-53662324D01*
X97681166Y-53657340D01*
X97625233Y-53615468D01*
X97600816Y-53550004D01*
X97600500Y-53541158D01*
X97600500Y-48170945D01*
X97600500Y-48170943D01*
X97559577Y-48018216D01*
X97535726Y-47976904D01*
X97480524Y-47881290D01*
X97480521Y-47881286D01*
X97480520Y-47881284D01*
X97368716Y-47769480D01*
X97368715Y-47769479D01*
X97364385Y-47765149D01*
X97364374Y-47765139D01*
X90087590Y-40488355D01*
X90087588Y-40488352D01*
X89968717Y-40369481D01*
X89968716Y-40369480D01*
X89881904Y-40319360D01*
X89881904Y-40319359D01*
X89881900Y-40319358D01*
X89831785Y-40290423D01*
X89679057Y-40249499D01*
X89520943Y-40249499D01*
X89513347Y-40249499D01*
X89513331Y-40249500D01*
X70420098Y-40249500D01*
X70353059Y-40229815D01*
X70332417Y-40213181D01*
X65128663Y-35009428D01*
X65095178Y-34948105D01*
X65100162Y-34878413D01*
X65142034Y-34822480D01*
X65207498Y-34798063D01*
X65227142Y-34798218D01*
X65310000Y-34805468D01*
X65310002Y-34805468D01*
X65366673Y-34800509D01*
X65536692Y-34785635D01*
X65756496Y-34726739D01*
X65962734Y-34630568D01*
X66149139Y-34500047D01*
X66310047Y-34339139D01*
X66440568Y-34152734D01*
X66467893Y-34094134D01*
X66514065Y-34041695D01*
X66581258Y-34022543D01*
X66648139Y-34042758D01*
X66692657Y-34094134D01*
X66719864Y-34152480D01*
X66770974Y-34225472D01*
X67326212Y-33670234D01*
X67337482Y-33712292D01*
X67409890Y-33837708D01*
X67512292Y-33940110D01*
X67637708Y-34012518D01*
X67679765Y-34023787D01*
X67124526Y-34579025D01*
X67197513Y-34630132D01*
X67197521Y-34630136D01*
X67403668Y-34726264D01*
X67403682Y-34726269D01*
X67623389Y-34785139D01*
X67623400Y-34785141D01*
X67849998Y-34804966D01*
X67850002Y-34804966D01*
X68076599Y-34785141D01*
X68076610Y-34785139D01*
X68296317Y-34726269D01*
X68296331Y-34726264D01*
X68502478Y-34630136D01*
X68575471Y-34579024D01*
X68020234Y-34023787D01*
X68062292Y-34012518D01*
X68187708Y-33940110D01*
X68290110Y-33837708D01*
X68362518Y-33712292D01*
X68373787Y-33670234D01*
X68929024Y-34225471D01*
G37*
%TD.AperFunction*%
%TA.AperFunction,Conductor*%
G36*
X35909024Y-34225471D02*
G01*
X35960133Y-34152482D01*
X35987341Y-34094135D01*
X36033513Y-34041696D01*
X36100707Y-34022543D01*
X36167588Y-34042758D01*
X36212105Y-34094132D01*
X36239432Y-34152734D01*
X36239433Y-34152735D01*
X36369954Y-34339141D01*
X36530858Y-34500045D01*
X36530861Y-34500047D01*
X36717266Y-34630568D01*
X36923504Y-34726739D01*
X36923509Y-34726740D01*
X36923511Y-34726741D01*
X36976415Y-34740916D01*
X37143308Y-34785635D01*
X37285361Y-34798063D01*
X37369998Y-34805468D01*
X37370000Y-34805468D01*
X37370002Y-34805468D01*
X37426673Y-34800509D01*
X37596692Y-34785635D01*
X37816496Y-34726739D01*
X38022734Y-34630568D01*
X38209139Y-34500047D01*
X38370047Y-34339139D01*
X38500568Y-34152734D01*
X38527618Y-34094724D01*
X38573790Y-34042285D01*
X38640983Y-34023133D01*
X38707865Y-34043348D01*
X38752382Y-34094725D01*
X38779429Y-34152728D01*
X38779432Y-34152734D01*
X38909954Y-34339141D01*
X39070858Y-34500045D01*
X39070861Y-34500047D01*
X39257266Y-34630568D01*
X39463504Y-34726739D01*
X39463509Y-34726740D01*
X39463511Y-34726741D01*
X39516415Y-34740916D01*
X39683308Y-34785635D01*
X39825361Y-34798063D01*
X39909998Y-34805468D01*
X39910000Y-34805468D01*
X39910002Y-34805468D01*
X39966673Y-34800509D01*
X40136692Y-34785635D01*
X40356496Y-34726739D01*
X40562734Y-34630568D01*
X40562746Y-34630559D01*
X40563492Y-34630130D01*
X40563868Y-34630038D01*
X40567640Y-34628280D01*
X40567993Y-34629037D01*
X40631391Y-34613652D01*
X40697419Y-34636499D01*
X40740614Y-34691417D01*
X40749500Y-34737512D01*
X40749500Y-47502487D01*
X40729815Y-47569526D01*
X40677011Y-47615281D01*
X40607853Y-47625225D01*
X40567805Y-47611365D01*
X40567640Y-47611720D01*
X40564216Y-47610123D01*
X40563507Y-47609878D01*
X40562738Y-47609434D01*
X40356497Y-47513261D01*
X40356488Y-47513258D01*
X40136697Y-47454366D01*
X40136693Y-47454365D01*
X40136692Y-47454365D01*
X40136691Y-47454364D01*
X40136686Y-47454364D01*
X39910002Y-47434532D01*
X39909998Y-47434532D01*
X39683313Y-47454364D01*
X39683302Y-47454366D01*
X39463511Y-47513258D01*
X39463502Y-47513261D01*
X39257267Y-47609431D01*
X39257265Y-47609432D01*
X39070858Y-47739954D01*
X38909954Y-47900858D01*
X38779432Y-48087265D01*
X38779431Y-48087267D01*
X38752382Y-48145275D01*
X38706209Y-48197714D01*
X38639016Y-48216866D01*
X38572135Y-48196650D01*
X38527618Y-48145275D01*
X38500568Y-48087267D01*
X38500567Y-48087265D01*
X38370045Y-47900858D01*
X38209141Y-47739954D01*
X38022734Y-47609432D01*
X38022732Y-47609431D01*
X37816497Y-47513261D01*
X37816488Y-47513258D01*
X37596697Y-47454366D01*
X37596693Y-47454365D01*
X37596692Y-47454365D01*
X37596691Y-47454364D01*
X37596686Y-47454364D01*
X37370002Y-47434532D01*
X37369998Y-47434532D01*
X37143313Y-47454364D01*
X37143302Y-47454366D01*
X36923511Y-47513258D01*
X36923502Y-47513261D01*
X36717267Y-47609431D01*
X36717265Y-47609432D01*
X36530858Y-47739954D01*
X36369954Y-47900858D01*
X36239432Y-48087265D01*
X36239431Y-48087267D01*
X36212382Y-48145275D01*
X36166209Y-48197714D01*
X36099016Y-48216866D01*
X36032135Y-48196650D01*
X35987618Y-48145275D01*
X35960568Y-48087267D01*
X35960567Y-48087265D01*
X35830045Y-47900858D01*
X35669141Y-47739954D01*
X35482734Y-47609432D01*
X35482732Y-47609431D01*
X35276497Y-47513261D01*
X35276488Y-47513258D01*
X35056697Y-47454366D01*
X35056693Y-47454365D01*
X35056692Y-47454365D01*
X35056691Y-47454364D01*
X35056686Y-47454364D01*
X34830002Y-47434532D01*
X34829998Y-47434532D01*
X34603313Y-47454364D01*
X34603302Y-47454366D01*
X34383511Y-47513258D01*
X34383502Y-47513261D01*
X34177267Y-47609431D01*
X34177265Y-47609432D01*
X33990858Y-47739954D01*
X33829951Y-47900861D01*
X33812287Y-47926088D01*
X33757710Y-47969712D01*
X33688211Y-47976904D01*
X33625857Y-47945380D01*
X33590445Y-47885150D01*
X33587425Y-47868218D01*
X33583598Y-47832627D01*
X33583596Y-47832620D01*
X33533354Y-47697913D01*
X33533350Y-47697906D01*
X33447190Y-47582812D01*
X33447187Y-47582809D01*
X33332093Y-47496649D01*
X33332086Y-47496645D01*
X33197379Y-47446403D01*
X33197372Y-47446401D01*
X33137844Y-47440000D01*
X32540000Y-47440000D01*
X32540000Y-48249252D01*
X32502292Y-48227482D01*
X32362409Y-48190000D01*
X32217591Y-48190000D01*
X32077708Y-48227482D01*
X32040000Y-48249252D01*
X32040000Y-47440000D01*
X31604500Y-47440000D01*
X31537461Y-47420315D01*
X31491706Y-47367511D01*
X31480500Y-47316000D01*
X31480500Y-42620002D01*
X31732677Y-42620002D01*
X31751929Y-42840062D01*
X31751930Y-42840070D01*
X31809104Y-43053445D01*
X31809105Y-43053447D01*
X31809106Y-43053450D01*
X31902466Y-43253662D01*
X31902468Y-43253666D01*
X32029170Y-43434615D01*
X32029175Y-43434621D01*
X32185378Y-43590824D01*
X32185384Y-43590829D01*
X32366333Y-43717531D01*
X32366335Y-43717532D01*
X32366338Y-43717534D01*
X32566550Y-43810894D01*
X32779932Y-43868070D01*
X32937123Y-43881822D01*
X32999998Y-43887323D01*
X33000000Y-43887323D01*
X33000002Y-43887323D01*
X33055017Y-43882509D01*
X33220068Y-43868070D01*
X33433450Y-43810894D01*
X33633662Y-43717534D01*
X33814620Y-43590826D01*
X33970826Y-43434620D01*
X34097534Y-43253662D01*
X34190894Y-43053450D01*
X34248070Y-42840068D01*
X34267323Y-42620000D01*
X34248070Y-42399932D01*
X34190894Y-42186550D01*
X34097534Y-41986339D01*
X34002419Y-41850500D01*
X33970827Y-41805381D01*
X33895202Y-41729756D01*
X33814620Y-41649174D01*
X33814616Y-41649171D01*
X33814615Y-41649170D01*
X33633666Y-41522468D01*
X33633662Y-41522466D01*
X33532370Y-41475233D01*
X33433450Y-41429106D01*
X33433447Y-41429105D01*
X33433445Y-41429104D01*
X33220070Y-41371930D01*
X33220062Y-41371929D01*
X33000002Y-41352677D01*
X32999998Y-41352677D01*
X32779937Y-41371929D01*
X32779929Y-41371930D01*
X32566554Y-41429104D01*
X32566548Y-41429107D01*
X32366340Y-41522465D01*
X32366338Y-41522466D01*
X32185377Y-41649175D01*
X32029175Y-41805377D01*
X31902466Y-41986338D01*
X31902465Y-41986340D01*
X31809107Y-42186548D01*
X31809104Y-42186554D01*
X31751930Y-42399929D01*
X31751929Y-42399937D01*
X31732677Y-42619997D01*
X31732677Y-42620002D01*
X31480500Y-42620002D01*
X31480500Y-39620002D01*
X31732677Y-39620002D01*
X31751929Y-39840062D01*
X31751930Y-39840070D01*
X31809104Y-40053445D01*
X31809105Y-40053447D01*
X31809106Y-40053450D01*
X31891346Y-40229815D01*
X31902466Y-40253662D01*
X31902468Y-40253666D01*
X32029170Y-40434615D01*
X32029175Y-40434621D01*
X32185378Y-40590824D01*
X32185384Y-40590829D01*
X32366333Y-40717531D01*
X32366335Y-40717532D01*
X32366338Y-40717534D01*
X32566550Y-40810894D01*
X32779932Y-40868070D01*
X32937123Y-40881822D01*
X32999998Y-40887323D01*
X33000000Y-40887323D01*
X33000002Y-40887323D01*
X33055017Y-40882509D01*
X33220068Y-40868070D01*
X33433450Y-40810894D01*
X33633662Y-40717534D01*
X33814620Y-40590826D01*
X33970826Y-40434620D01*
X34097534Y-40253662D01*
X34190894Y-40053450D01*
X34248070Y-39840068D01*
X34267323Y-39620000D01*
X34248070Y-39399932D01*
X34190894Y-39186550D01*
X34097534Y-38986339D01*
X33970826Y-38805380D01*
X33814620Y-38649174D01*
X33814616Y-38649171D01*
X33814615Y-38649170D01*
X33633666Y-38522468D01*
X33633662Y-38522466D01*
X33633660Y-38522465D01*
X33433450Y-38429106D01*
X33433447Y-38429105D01*
X33433445Y-38429104D01*
X33220070Y-38371930D01*
X33220062Y-38371929D01*
X33000002Y-38352677D01*
X32999998Y-38352677D01*
X32779937Y-38371929D01*
X32779929Y-38371930D01*
X32566554Y-38429104D01*
X32566548Y-38429107D01*
X32366340Y-38522465D01*
X32366338Y-38522466D01*
X32185377Y-38649175D01*
X32029175Y-38805377D01*
X31902466Y-38986338D01*
X31902465Y-38986340D01*
X31809107Y-39186548D01*
X31809104Y-39186554D01*
X31751930Y-39399929D01*
X31751929Y-39399937D01*
X31732677Y-39619997D01*
X31732677Y-39620002D01*
X31480500Y-39620002D01*
X31480500Y-34752107D01*
X31500185Y-34685068D01*
X31552989Y-34639313D01*
X31622147Y-34629369D01*
X31656899Y-34639723D01*
X31843504Y-34726739D01*
X31843509Y-34726740D01*
X31843511Y-34726741D01*
X31896415Y-34740916D01*
X32063308Y-34785635D01*
X32205361Y-34798063D01*
X32289998Y-34805468D01*
X32290000Y-34805468D01*
X32290002Y-34805468D01*
X32346673Y-34800509D01*
X32516692Y-34785635D01*
X32736496Y-34726739D01*
X32942734Y-34630568D01*
X33129139Y-34500047D01*
X33290047Y-34339139D01*
X33420568Y-34152734D01*
X33447893Y-34094134D01*
X33494065Y-34041695D01*
X33561258Y-34022543D01*
X33628139Y-34042758D01*
X33672657Y-34094134D01*
X33699864Y-34152480D01*
X33750974Y-34225472D01*
X34306212Y-33670234D01*
X34317482Y-33712292D01*
X34389890Y-33837708D01*
X34492292Y-33940110D01*
X34617708Y-34012518D01*
X34659765Y-34023787D01*
X34104526Y-34579025D01*
X34177513Y-34630132D01*
X34177521Y-34630136D01*
X34383668Y-34726264D01*
X34383682Y-34726269D01*
X34603389Y-34785139D01*
X34603400Y-34785141D01*
X34829998Y-34804966D01*
X34830002Y-34804966D01*
X35056599Y-34785141D01*
X35056610Y-34785139D01*
X35276317Y-34726269D01*
X35276331Y-34726264D01*
X35482478Y-34630136D01*
X35555471Y-34579024D01*
X35000234Y-34023787D01*
X35042292Y-34012518D01*
X35167708Y-33940110D01*
X35270110Y-33837708D01*
X35342518Y-33712292D01*
X35353787Y-33670234D01*
X35909024Y-34225471D01*
G37*
%TD.AperFunction*%
%TA.AperFunction,Conductor*%
G36*
X138922539Y-25560185D02*
G01*
X138968294Y-25612989D01*
X138979500Y-25664500D01*
X138979500Y-42967425D01*
X138959815Y-43034464D01*
X138907011Y-43080219D01*
X138837853Y-43090163D01*
X138774297Y-43061138D01*
X138767819Y-43055106D01*
X136526068Y-40813355D01*
X136526066Y-40813352D01*
X136407195Y-40694481D01*
X136407194Y-40694480D01*
X136320382Y-40644360D01*
X136320382Y-40644359D01*
X136320378Y-40644358D01*
X136270263Y-40615423D01*
X136117535Y-40574499D01*
X135959421Y-40574499D01*
X135951825Y-40574499D01*
X135951809Y-40574500D01*
X131606265Y-40574500D01*
X131448151Y-40574500D01*
X131295423Y-40615423D01*
X131295422Y-40615423D01*
X131295420Y-40615424D01*
X131295417Y-40615425D01*
X131245304Y-40644359D01*
X131245303Y-40644360D01*
X131201897Y-40669420D01*
X131158493Y-40694479D01*
X131158490Y-40694481D01*
X131046686Y-40806286D01*
X130292080Y-41560891D01*
X130230757Y-41594376D01*
X130161065Y-41589392D01*
X130131514Y-41573528D01*
X130076791Y-41533770D01*
X130076790Y-41533769D01*
X130076788Y-41533768D01*
X129922445Y-41455127D01*
X129757701Y-41401598D01*
X129757699Y-41401597D01*
X129757698Y-41401597D01*
X129622688Y-41380214D01*
X129586611Y-41374500D01*
X129413389Y-41374500D01*
X129377312Y-41380214D01*
X129242302Y-41401597D01*
X129077552Y-41455128D01*
X128923211Y-41533768D01*
X128783073Y-41635585D01*
X128675530Y-41743128D01*
X128614207Y-41776612D01*
X128544515Y-41771628D01*
X128488582Y-41729756D01*
X128482310Y-41720543D01*
X128446312Y-41662181D01*
X128442712Y-41656344D01*
X128318656Y-41532288D01*
X128193559Y-41455128D01*
X128169336Y-41440187D01*
X128169331Y-41440185D01*
X128167862Y-41439698D01*
X128002797Y-41385001D01*
X128002795Y-41385000D01*
X127900010Y-41374500D01*
X127099998Y-41374500D01*
X127099977Y-41374502D01*
X127044054Y-41380214D01*
X126975361Y-41367443D01*
X126943773Y-41344537D01*
X115987590Y-30388355D01*
X115987588Y-30388352D01*
X115868717Y-30269481D01*
X115868716Y-30269480D01*
X115776487Y-30216232D01*
X115776485Y-30216230D01*
X115731788Y-30190424D01*
X115731787Y-30190423D01*
X115664169Y-30172305D01*
X115579057Y-30149499D01*
X115420943Y-30149499D01*
X115413347Y-30149499D01*
X115413331Y-30149500D01*
X103217677Y-30149500D01*
X103150638Y-30129815D01*
X103104883Y-30077011D01*
X103094939Y-30007853D01*
X103117359Y-29952615D01*
X103190801Y-29851528D01*
X103269408Y-29697257D01*
X103322914Y-29532584D01*
X103350000Y-29361571D01*
X103350000Y-29250000D01*
X102530330Y-29250000D01*
X102550075Y-29230255D01*
X102599444Y-29144745D01*
X102625000Y-29049370D01*
X102625000Y-28950630D01*
X102599444Y-28855255D01*
X102550075Y-28769745D01*
X102530330Y-28750000D01*
X103350000Y-28750000D01*
X103350000Y-28638428D01*
X103322914Y-28467415D01*
X103269408Y-28302742D01*
X103190804Y-28148475D01*
X103089032Y-28008397D01*
X102966602Y-27885967D01*
X102826524Y-27784195D01*
X102672257Y-27705591D01*
X102507589Y-27652087D01*
X102507581Y-27652085D01*
X102500000Y-27650884D01*
X102500000Y-28719670D01*
X102480255Y-28699925D01*
X102394745Y-28650556D01*
X102299370Y-28625000D01*
X102200630Y-28625000D01*
X102105255Y-28650556D01*
X102019745Y-28699925D01*
X102000000Y-28719670D01*
X102000000Y-27650884D01*
X101999999Y-27650884D01*
X101992418Y-27652085D01*
X101992410Y-27652087D01*
X101827742Y-27705591D01*
X101673475Y-27784195D01*
X101533397Y-27885967D01*
X101410965Y-28008399D01*
X101410961Y-28008404D01*
X101350627Y-28091448D01*
X101295297Y-28134114D01*
X101225684Y-28140093D01*
X101163889Y-28107488D01*
X101149991Y-28091449D01*
X101149990Y-28091448D01*
X101089414Y-28008072D01*
X100966928Y-27885586D01*
X100826788Y-27783768D01*
X100672445Y-27705127D01*
X100507701Y-27651598D01*
X100507699Y-27651597D01*
X100507698Y-27651597D01*
X100376271Y-27630781D01*
X100336611Y-27624500D01*
X100163389Y-27624500D01*
X100123728Y-27630781D01*
X99992302Y-27651597D01*
X99827552Y-27705128D01*
X99673211Y-27783768D01*
X99533073Y-27885585D01*
X99425530Y-27993128D01*
X99364207Y-28026612D01*
X99294515Y-28021628D01*
X99238582Y-27979756D01*
X99232310Y-27970543D01*
X99192712Y-27906344D01*
X99068656Y-27782288D01*
X98943559Y-27705128D01*
X98919336Y-27690187D01*
X98919331Y-27690185D01*
X98917862Y-27689698D01*
X98752797Y-27635001D01*
X98752795Y-27635000D01*
X98650010Y-27624500D01*
X97849998Y-27624500D01*
X97849980Y-27624501D01*
X97747203Y-27635000D01*
X97747200Y-27635001D01*
X97580668Y-27690185D01*
X97580663Y-27690187D01*
X97431342Y-27782289D01*
X97307289Y-27906342D01*
X97215187Y-28055663D01*
X97215185Y-28055668D01*
X97160001Y-28222204D01*
X97160000Y-28222205D01*
X97153268Y-28288103D01*
X97126871Y-28352795D01*
X97069690Y-28392946D01*
X97029910Y-28399500D01*
X55670940Y-28399500D01*
X55630019Y-28410464D01*
X55630019Y-28410465D01*
X55592751Y-28420451D01*
X55518214Y-28440423D01*
X55518209Y-28440426D01*
X55381290Y-28519475D01*
X55381282Y-28519481D01*
X55269478Y-28631286D01*
X54174759Y-29726004D01*
X54113436Y-29759489D01*
X54100966Y-29761543D01*
X54092673Y-29762477D01*
X54081941Y-29763687D01*
X54081940Y-29763687D01*
X53922307Y-29819544D01*
X53922302Y-29819547D01*
X53779115Y-29909518D01*
X53779109Y-29909523D01*
X53659523Y-30029109D01*
X53659518Y-30029115D01*
X53569547Y-30172302D01*
X53569545Y-30172305D01*
X53513685Y-30331943D01*
X53494751Y-30499997D01*
X53494751Y-30500002D01*
X53513685Y-30668056D01*
X53569545Y-30827694D01*
X53569547Y-30827697D01*
X53659518Y-30970884D01*
X53659523Y-30970890D01*
X53779109Y-31090476D01*
X53779115Y-31090481D01*
X53922302Y-31180452D01*
X53922305Y-31180454D01*
X53922309Y-31180455D01*
X53922310Y-31180456D01*
X53994913Y-31205860D01*
X54081943Y-31236314D01*
X54249997Y-31255249D01*
X54250000Y-31255249D01*
X54250003Y-31255249D01*
X54418056Y-31236314D01*
X54418059Y-31236313D01*
X54577690Y-31180456D01*
X54577692Y-31180454D01*
X54577694Y-31180454D01*
X54577697Y-31180452D01*
X54720884Y-31090481D01*
X54720885Y-31090480D01*
X54720890Y-31090477D01*
X54840477Y-30970890D01*
X54930454Y-30827694D01*
X54930455Y-30827691D01*
X54930456Y-30827690D01*
X54986313Y-30668059D01*
X54988456Y-30649037D01*
X55015519Y-30584625D01*
X55023985Y-30575248D01*
X55962416Y-29636819D01*
X56023739Y-29603334D01*
X56050097Y-29600500D01*
X97029911Y-29600500D01*
X97096950Y-29620185D01*
X97142705Y-29672989D01*
X97153269Y-29711898D01*
X97160001Y-29777797D01*
X97160001Y-29777799D01*
X97203649Y-29909518D01*
X97215186Y-29944334D01*
X97225098Y-29960404D01*
X97243538Y-30027795D01*
X97222616Y-30094459D01*
X97168974Y-30139229D01*
X97119559Y-30149500D01*
X56420940Y-30149500D01*
X56380019Y-30160464D01*
X56380019Y-30160465D01*
X56342751Y-30170451D01*
X56268214Y-30190423D01*
X56268211Y-30190425D01*
X56178118Y-30242439D01*
X56130006Y-30258270D01*
X56081941Y-30263687D01*
X55922307Y-30319544D01*
X55922302Y-30319547D01*
X55779115Y-30409518D01*
X55779109Y-30409523D01*
X55659523Y-30529109D01*
X55659518Y-30529115D01*
X55569547Y-30672302D01*
X55569545Y-30672305D01*
X55513685Y-30831943D01*
X55494751Y-30999997D01*
X55494751Y-31000002D01*
X55513685Y-31168056D01*
X55569545Y-31327694D01*
X55569547Y-31327697D01*
X55659518Y-31470884D01*
X55659523Y-31470890D01*
X55776452Y-31587819D01*
X55809937Y-31649142D01*
X55804953Y-31718834D01*
X55763081Y-31774767D01*
X55697617Y-31799184D01*
X55688771Y-31799500D01*
X42081035Y-31799500D01*
X42081019Y-31799499D01*
X42073423Y-31799499D01*
X41915308Y-31799499D01*
X41838944Y-31819961D01*
X41762579Y-31840423D01*
X41762574Y-31840426D01*
X41625655Y-31919475D01*
X41625647Y-31919481D01*
X40984838Y-32560290D01*
X40923515Y-32593775D01*
X40853823Y-32588791D01*
X40809477Y-32560291D01*
X40749139Y-32499953D01*
X40749138Y-32499952D01*
X40749137Y-32499951D01*
X40562734Y-32369432D01*
X40562732Y-32369431D01*
X40356497Y-32273261D01*
X40356488Y-32273258D01*
X40136697Y-32214366D01*
X40136693Y-32214365D01*
X40136692Y-32214365D01*
X40136691Y-32214364D01*
X40136686Y-32214364D01*
X39910002Y-32194532D01*
X39909998Y-32194532D01*
X39683313Y-32214364D01*
X39683302Y-32214366D01*
X39463511Y-32273258D01*
X39463502Y-32273261D01*
X39257267Y-32369431D01*
X39257265Y-32369432D01*
X39070858Y-32499954D01*
X38909954Y-32660858D01*
X38779432Y-32847265D01*
X38779431Y-32847267D01*
X38752382Y-32905275D01*
X38706209Y-32957714D01*
X38639016Y-32976866D01*
X38572135Y-32956650D01*
X38527618Y-32905275D01*
X38500568Y-32847266D01*
X38370047Y-32660861D01*
X38370045Y-32660858D01*
X38209141Y-32499954D01*
X38022734Y-32369432D01*
X38022732Y-32369431D01*
X37816497Y-32273261D01*
X37816488Y-32273258D01*
X37596697Y-32214366D01*
X37596693Y-32214365D01*
X37596692Y-32214365D01*
X37596691Y-32214364D01*
X37596686Y-32214364D01*
X37370002Y-32194532D01*
X37369998Y-32194532D01*
X37143313Y-32214364D01*
X37143302Y-32214366D01*
X36923511Y-32273258D01*
X36923502Y-32273261D01*
X36717267Y-32369431D01*
X36717265Y-32369432D01*
X36530858Y-32499954D01*
X36369954Y-32660858D01*
X36239432Y-32847265D01*
X36239428Y-32847272D01*
X36212105Y-32905866D01*
X36165932Y-32958305D01*
X36098738Y-32977456D01*
X36031858Y-32957239D01*
X35987342Y-32905864D01*
X35960136Y-32847521D01*
X35960132Y-32847513D01*
X35909025Y-32774526D01*
X35353787Y-33329764D01*
X35342518Y-33287708D01*
X35270110Y-33162292D01*
X35167708Y-33059890D01*
X35042292Y-32987482D01*
X35000234Y-32976212D01*
X35555472Y-32420974D01*
X35482478Y-32369863D01*
X35276331Y-32273735D01*
X35276317Y-32273730D01*
X35056610Y-32214860D01*
X35056599Y-32214858D01*
X34830002Y-32195034D01*
X34829998Y-32195034D01*
X34603400Y-32214858D01*
X34603389Y-32214860D01*
X34383682Y-32273730D01*
X34383673Y-32273734D01*
X34177516Y-32369866D01*
X34177512Y-32369868D01*
X34104526Y-32420973D01*
X34104526Y-32420974D01*
X34659765Y-32976212D01*
X34617708Y-32987482D01*
X34492292Y-33059890D01*
X34389890Y-33162292D01*
X34317482Y-33287708D01*
X34306212Y-33329764D01*
X33750974Y-32774526D01*
X33750973Y-32774526D01*
X33699868Y-32847512D01*
X33699868Y-32847513D01*
X33672657Y-32905867D01*
X33626484Y-32958306D01*
X33559290Y-32977457D01*
X33492409Y-32957241D01*
X33447893Y-32905865D01*
X33420682Y-32847512D01*
X33420568Y-32847266D01*
X33290047Y-32660861D01*
X33290045Y-32660858D01*
X33129141Y-32499954D01*
X32942734Y-32369432D01*
X32942732Y-32369431D01*
X32736497Y-32273261D01*
X32736488Y-32273258D01*
X32516697Y-32214366D01*
X32516693Y-32214365D01*
X32516692Y-32214365D01*
X32516691Y-32214364D01*
X32516686Y-32214364D01*
X32290002Y-32194532D01*
X32289998Y-32194532D01*
X32063313Y-32214364D01*
X32063302Y-32214366D01*
X31843511Y-32273258D01*
X31843502Y-32273262D01*
X31656905Y-32360274D01*
X31587827Y-32370766D01*
X31524043Y-32342246D01*
X31485804Y-32283770D01*
X31480500Y-32247892D01*
X31480500Y-25664500D01*
X31500185Y-25597461D01*
X31552989Y-25551706D01*
X31604500Y-25540500D01*
X138855500Y-25540500D01*
X138922539Y-25560185D01*
G37*
%TD.AperFunction*%
M02*
