%TF.GenerationSoftware,KiCad,Pcbnew,8.0.0*%
%TF.CreationDate,2025-02-04T21:38:50+01:00*%
%TF.ProjectId,ni404,6e693430-342e-46b6-9963-61645f706362,rev?*%
%TF.SameCoordinates,Original*%
%TF.FileFunction,Legend,Bot*%
%TF.FilePolarity,Positive*%
%FSLAX46Y46*%
G04 Gerber Fmt 4.6, Leading zero omitted, Abs format (unit mm)*
G04 Created by KiCad (PCBNEW 8.0.0) date 2025-02-04 21:38:50*
%MOMM*%
%LPD*%
G01*
G04 APERTURE LIST*
G04 Aperture macros list*
%AMRoundRect*
0 Rectangle with rounded corners*
0 $1 Rounding radius*
0 $2 $3 $4 $5 $6 $7 $8 $9 X,Y pos of 4 corners*
0 Add a 4 corners polygon primitive as box body*
4,1,4,$2,$3,$4,$5,$6,$7,$8,$9,$2,$3,0*
0 Add four circle primitives for the rounded corners*
1,1,$1+$1,$2,$3*
1,1,$1+$1,$4,$5*
1,1,$1+$1,$6,$7*
1,1,$1+$1,$8,$9*
0 Add four rect primitives between the rounded corners*
20,1,$1+$1,$2,$3,$4,$5,0*
20,1,$1+$1,$4,$5,$6,$7,0*
20,1,$1+$1,$6,$7,$8,$9,0*
20,1,$1+$1,$8,$9,$2,$3,0*%
G04 Aperture macros list end*
%ADD10R,1.600000X1.600000*%
%ADD11C,1.600000*%
%ADD12C,1.524000*%
%ADD13RoundRect,0.250000X-0.350000X-0.625000X0.350000X-0.625000X0.350000X0.625000X-0.350000X0.625000X0*%
%ADD14O,1.200000X1.750000*%
G04 APERTURE END LIST*
%LPC*%
D10*
X32290000Y-48740000D03*
D11*
X34830000Y-48740000D03*
X37370000Y-48740000D03*
X39910000Y-48740000D03*
X42450000Y-48740000D03*
X44990000Y-48740000D03*
X47530000Y-48740000D03*
X50070000Y-48740000D03*
X52610000Y-48740000D03*
X55150000Y-48740000D03*
X57690000Y-48740000D03*
X60230000Y-48740000D03*
X62770000Y-48740000D03*
X65310000Y-48740000D03*
X67850000Y-48740000D03*
X70390000Y-48740000D03*
X72930000Y-48740000D03*
X75470000Y-48740000D03*
X78010000Y-48740000D03*
X80550000Y-48740000D03*
X83090000Y-48740000D03*
X85630000Y-48740000D03*
X88170000Y-48740000D03*
X90710000Y-48740000D03*
X90710000Y-33500000D03*
X88170000Y-33500000D03*
X85630000Y-33500000D03*
X83090000Y-33500000D03*
X80550000Y-33500000D03*
X78010000Y-33500000D03*
X75470000Y-33500000D03*
X72930000Y-33500000D03*
X70390000Y-33500000D03*
X67850000Y-33500000D03*
X65310000Y-33500000D03*
X62770000Y-33500000D03*
X60230000Y-33500000D03*
X57690000Y-33500000D03*
X55150000Y-33500000D03*
X52610000Y-33500000D03*
X50070000Y-33500000D03*
X47530000Y-33500000D03*
X44990000Y-33500000D03*
X42450000Y-33500000D03*
X39910000Y-33500000D03*
X37370000Y-33500000D03*
X34830000Y-33500000D03*
X32290000Y-33500000D03*
D12*
X33000000Y-39620000D03*
X33000000Y-42620000D03*
D13*
X112250000Y-55250000D03*
D14*
X114250000Y-55250000D03*
X116250000Y-55250000D03*
X118250000Y-55250000D03*
X120250000Y-55250000D03*
X135500000Y-42750000D03*
X133500000Y-42750000D03*
X131500000Y-42750000D03*
X129500000Y-42750000D03*
D13*
X127500000Y-42750000D03*
X81750000Y-55250000D03*
D14*
X83750000Y-55250000D03*
X85750000Y-55250000D03*
X87750000Y-55250000D03*
X89750000Y-55250000D03*
D13*
X98250000Y-29000000D03*
D14*
X100250000Y-29000000D03*
X102250000Y-29000000D03*
X135500000Y-55250000D03*
X133500000Y-55250000D03*
X131500000Y-55250000D03*
X129500000Y-55250000D03*
D13*
X127500000Y-55250000D03*
X97000000Y-55250000D03*
D14*
X99000000Y-55250000D03*
X101000000Y-55250000D03*
X103000000Y-55250000D03*
X105000000Y-55250000D03*
%LPD*%
M02*
