0
SECTION
2
HEADER
9
$INSUNITS
70
4
9
$ACADVER
1
AC1014
9
$HANDSEED
5
FFFF
0
ENDSEC
0
SECTION
2
TABLES
0
TABLE
2
VPORT
5
8
100
AcDbSymbolTable
0
ENDTAB
0
TABLE
2
LTYPE
5
5
100
AcDbSymbolTable
0
LTYPE
5
14
100
AcDbSymbolTableRecord
100
AcDbLinetypeTableRecord
2
BYBLOCK
70
0
0
LTYPE
5
15
100
AcDbSymbolTableRecord
100
AcDbLinetypeTableRecord
2
BYLAYER
70
0
0
LTYPE
5
16
100
AcDbSymbolTableRecord
100
AcDbLinetypeTableRecord
2
DASHED
70
0
3
Dashed __ __ __ __ __ __ __ __ __ __ __ __ __ _
72
65
73
2
40
0.75
49
0.5
74
0
49
-0.25
74
0
0
ENDTAB
0
TABLE
2
LAYER
5
2
100
AcDbSymbolTable
70
3
0
LAYER
5
50
100
AcDbSymbolTableRecord
100
AcDbLayerTableRecord
2
1
70
0
62
7
6
DASHED
0
LAYER
5
51
100
AcDbSymbolTableRecord
100
AcDbLayerTableRecord
2
0
70
0
62
7
6
CONTINUOUS
0
ENDTAB
0
TABLE
2
STYLE
5
3
100
AcDbSymbolTable
70
1
0
STYLE
5
11
100
AcDbSymbolTableRecord
100
AcDbTextStyleTableRecord
2
STANDARD
70
0
0
ENDTAB
0
TABLE
2
VIEW
5
6
100
AcDbSymbolTable
70
0
0
ENDTAB
0
TABLE
2
UCS
5
7
100
AcDbSymbolTable
70
0
0
ENDTAB
0
TABLE
2
APPID
5
9
100
AcDbSymbolTable
70
2
0
APPID
5
12
100
AcDbSymbolTableRecord
100
AcDbRegAppTableRecord
2
ACAD
70
0
0
ENDTAB
0
TABLE
2
DIMSTYLE
5
A
100
AcDbSymbolTable
70
1
0
ENDTAB
0
TABLE
2
BLOCK_RECORD
5
1
100
AcDbSymbolTable
70
1
0
BLOCK_RECORD
5
1F
100
AcDbSymbolTableRecord
100
AcDbBlockTableRecord
2
*MODEL_SPACE
0
BLOCK_RECORD
5
1B
100
AcDbSymbolTableRecord
100
AcDbBlockTableRecord
2
*PAPER_SPACE
0
ENDTAB
0
ENDSEC
0
SECTION
2
BLOCKS
0
BLOCK
5
20
100
AcDbEntity
100
AcDbBlockBegin
2
*MODEL_SPACE
0
ENDBLK
5
21
100
AcDbEntity
100
AcDbBlockEnd
0
BLOCK
5
1C
100
AcDbEntity
100
AcDbBlockBegin
2
*PAPER_SPACE
0
ENDBLK
5
1D
100
AcDbEntity
100
AcDbBlockEnd
0
ENDSEC
0
SECTION
2
ENTITIES
0
POINT
5
100
100
AcDbEntity
8
0
100
AcDbPoint
10
0
20
0
30
0
0
POINT
5
101
100
AcDbEntity
8
0
100
AcDbPoint
10
290.00000000000006
20
0
30
0
0
LINE
5
102
100
AcDbEntity
8
0
100
AcDbLine
10
0
20
0
30
0
11
-8.4946022333088837e-18
21
12.99999999989339
31
0
0
LINE
5
103
100
AcDbEntity
8
0
100
AcDbLine
10
-8.4946022333088837e-18
20
12.99999999989339
30
0
11
3.2000000000124729
21
12.999999999887512
31
0
0
LINE
5
104
100
AcDbEntity
8
0
100
AcDbLine
10
3.2000000000124729
20
12.999999999887512
30
0
11
3.200000000004751
21
32.999999999887514
31
0
0
LINE
5
105
100
AcDbEntity
8
0
100
AcDbLine
10
3.200000000004751
20
32.999999999887514
30
0
11
3.4935863958014258e-15
21
32.999999999890036
31
0
0
LINE
5
106
100
AcDbEntity
8
0
100
AcDbLine
10
3.4935863958014258e-15
20
32.999999999890036
30
0
11
6.9956673937840396e-15
21
53.000000000515008
31
0
0
LINE
5
107
100
AcDbEntity
8
0
100
AcDbLine
10
6.9956673937840396e-15
20
53.000000000515008
30
0
11
3.1999999999970297
21
53.000000000505381
31
0
0
LINE
5
108
100
AcDbEntity
8
0
100
AcDbLine
10
3.1999999999970297
20
53.000000000505381
30
0
11
3.2000000000054185
21
73.000000000505381
31
0
0
LINE
5
109
100
AcDbEntity
8
0
100
AcDbLine
10
3.2000000000054185
20
73.000000000505381
30
0
11
6.2888679393503978e-15
21
73.000000000511648
31
0
0
LINE
5
110
100
AcDbEntity
8
0
100
AcDbLine
10
6.2888679393503978e-15
20
73.000000000511648
30
0
11
5.5820684848481718e-15
21
92.999999999460385
31
0
0
LINE
5
111
100
AcDbEntity
8
0
100
AcDbLine
10
5.5820684848481718e-15
20
92.999999999460385
30
0
11
3.2000000000138078
21
92.999999999464592
31
0
0
LINE
5
112
100
AcDbEntity
8
0
100
AcDbLine
10
3.2000000000138078
20
92.999999999464592
30
0
11
3.2000000000050428
21
112.99999999946459
31
0
0
LINE
5
113
100
AcDbEntity
8
0
100
AcDbLine
10
3.2000000000050428
20
112.99999999946459
30
0
11
2.3695046785733619e-15
21
112.9999999994846
31
0
0
LINE
5
114
100
AcDbEntity
8
0
100
AcDbLine
10
2.3695046785733619e-15
20
112.9999999994846
30
0
11
-8.4305912770003609e-16
21
132.99999999994978
31
0
0
LINE
5
115
100
AcDbEntity
8
0
100
AcDbLine
10
-8.4305912770003609e-16
20
132.99999999994978
30
0
11
3.1999999999962765
21
132.99999999995075
31
0
0
LINE
5
116
100
AcDbEntity
8
0
100
AcDbLine
10
3.1999999999962765
20
132.99999999995075
30
0
11
3.200000000005808
21
152.99999999995075
31
0
0
LINE
5
117
100
AcDbEntity
8
0
100
AcDbLine
10
3.200000000005808
20
152.99999999995075
30
0
11
5.8075292863829374e-12
21
152.99999999994958
31
0
0
LINE
5
118
100
AcDbEntity
8
0
100
AcDbLine
10
5.8075292863829374e-12
20
152.99999999994958
30
0
11
9.0847824492964172e-12
21
165.99999999997695
31
0
0
LINE
5
119
100
AcDbEntity
8
0
100
AcDbLine
10
9.0847824492964172e-12
20
165.99999999997695
30
0
11
13.000000000012964
21
165.99999999997695
31
0
0
LINE
5
120
100
AcDbEntity
8
0
100
AcDbLine
10
13.000000000012964
20
165.99999999997695
30
0
11
13.000000000024006
21
162.79999999997696
31
0
0
LINE
5
121
100
AcDbEntity
8
0
100
AcDbLine
10
13.000000000024006
20
162.79999999997696
30
0
11
33.000000000024016
21
162.80000000004375
31
0
0
LINE
5
122
100
AcDbEntity
8
0
100
AcDbLine
10
33.000000000024016
20
162.80000000004375
30
0
11
33.000000000013259
21
166.00000000005144
31
0
0
LINE
5
123
100
AcDbEntity
8
0
100
AcDbLine
10
33.000000000013259
20
166.00000000005144
30
0
11
53.000000000013266
21
166.00000000012597
31
0
0
LINE
5
124
100
AcDbEntity
8
0
100
AcDbLine
10
53.000000000013266
20
166.00000000012597
30
0
11
52.999999999983672
21
162.80000000012581
31
0
0
LINE
5
125
100
AcDbEntity
8
0
100
AcDbLine
10
52.999999999983672
20
162.80000000012581
30
0
11
72.999999999983672
21
162.80000000020789
31
0
0
LINE
5
126
100
AcDbEntity
8
0
100
AcDbLine
10
72.999999999983672
20
162.80000000020789
30
0
11
73.00000000001296
21
166.00000000021834
31
0
0
LINE
5
127
100
AcDbEntity
8
0
100
AcDbLine
10
73.00000000001296
20
166.00000000021834
30
0
11
93.00000000001296
21
166.00000000031071
31
0
0
LINE
5
128
100
AcDbEntity
8
0
100
AcDbLine
10
93.00000000001296
20
166.00000000031071
30
0
11
92.999999999984169
21
162.80000000028937
31
0
0
LINE
5
129
100
AcDbEntity
8
0
100
AcDbLine
10
92.999999999984169
20
162.80000000028937
30
0
11
112.99999999998417
21
162.80000000037117
31
0
0
LINE
5
130
100
AcDbEntity
8
0
100
AcDbLine
10
112.99999999998417
20
162.80000000037117
30
0
11
113.00000000000109
21
166.00000000040208
31
0
0
LINE
5
131
100
AcDbEntity
8
0
100
AcDbLine
10
113.00000000000109
20
166.00000000040208
30
0
11
133.00000000000108
21
166.00000000049346
31
0
0
LINE
5
132
100
AcDbEntity
8
0
100
AcDbLine
10
133.00000000000108
20
166.00000000049346
30
0
11
132.99999999998383
21
162.80000000045328
31
0
0
LINE
5
133
100
AcDbEntity
8
0
100
AcDbLine
10
132.99999999998383
20
162.80000000045328
30
0
11
152.99999999998383
21
162.80000000053536
31
0
0
LINE
5
134
100
AcDbEntity
8
0
100
AcDbLine
10
152.99999999998383
20
162.80000000053536
30
0
11
153.00000000000057
21
166.00000000058586
31
0
0
LINE
5
135
100
AcDbEntity
8
0
100
AcDbLine
10
153.00000000000057
20
166.00000000058586
30
0
11
173.00000000000054
21
166.00000000067826
31
0
0
LINE
5
136
100
AcDbEntity
8
0
100
AcDbLine
10
173.00000000000054
20
166.00000000067826
30
0
11
172.9999999999809
21
162.80000000061736
31
0
0
LINE
5
137
100
AcDbEntity
8
0
100
AcDbLine
10
172.9999999999809
20
162.80000000061736
30
0
11
192.9999999999809
21
162.80000000069936
31
0
0
LINE
5
138
100
AcDbEntity
8
0
100
AcDbLine
10
192.9999999999809
20
162.80000000069936
30
0
11
193.00000000000068
21
166.00000000077003
31
0
0
LINE
5
139
100
AcDbEntity
8
0
100
AcDbLine
10
193.00000000000068
20
166.00000000077003
30
0
11
213.00000000000068
21
166.00000000086212
31
0
0
LINE
5
140
100
AcDbEntity
8
0
100
AcDbLine
10
213.00000000000068
20
166.00000000086212
30
0
11
213.00000000000716
21
162.80000000084596
31
0
0
LINE
5
141
100
AcDbEntity
8
0
100
AcDbLine
10
213.00000000000716
20
162.80000000084596
30
0
11
233.00000000000711
21
162.80000000099253
31
0
0
LINE
5
142
100
AcDbEntity
8
0
100
AcDbLine
10
233.00000000000711
20
162.80000000099253
30
0
11
233.00000000000065
21
166.00000000093905
31
0
0
LINE
5
143
100
AcDbEntity
8
0
100
AcDbLine
10
233.00000000000065
20
166.00000000093905
30
0
11
246.00000000000452
21
166.00000000098908
31
0
0
LINE
5
144
100
AcDbEntity
8
0
100
AcDbLine
10
246.00000000000452
20
166.00000000098908
30
0
11
246.00000000000452
21
152.99999999976177
31
0
0
LINE
5
145
100
AcDbEntity
8
0
100
AcDbLine
10
246.00000000000452
20
152.99999999976177
30
0
11
242.80000000000456
21
152.99999999976055
31
0
0
LINE
5
146
100
AcDbEntity
8
0
100
AcDbLine
10
242.80000000000456
20
152.99999999976055
30
0
11
242.80000000003329
21
132.99999999976055
31
0
0
LINE
5
147
100
AcDbEntity
8
0
100
AcDbLine
10
242.80000000003329
20
132.99999999976055
30
0
11
246.00000000015424
21
132.99999999975802
31
0
0
LINE
5
148
100
AcDbEntity
8
0
100
AcDbLine
10
246.00000000015424
20
132.99999999975802
30
0
11
246.00000000024482
21
112.99999999975802
31
0
0
LINE
5
149
100
AcDbEntity
8
0
100
AcDbLine
10
246.00000000024482
20
112.99999999975802
30
0
11
242.80000000003514
21
112.99999999976053
31
0
0
LINE
5
150
100
AcDbEntity
8
0
100
AcDbLine
10
242.80000000003514
20
112.99999999976053
30
0
11
242.80000000003699
21
92.999999999760547
31
0
0
LINE
5
151
100
AcDbEntity
8
0
100
AcDbLine
10
242.80000000003699
20
92.999999999760547
30
0
11
246.00000000033518
21
92.999999999784023
31
0
0
LINE
5
152
100
AcDbEntity
8
0
100
AcDbLine
10
246.00000000033518
20
92.999999999784023
30
0
11
246.00000000042553
21
72.999999999784023
31
0
0
LINE
5
153
100
AcDbEntity
8
0
100
AcDbLine
10
246.00000000042553
20
72.999999999784023
30
0
11
242.8000000000352
21
72.999999999760576
31
0
0
LINE
5
154
100
AcDbEntity
8
0
100
AcDbLine
10
242.8000000000352
20
72.999999999760576
30
0
11
242.80000000003338
21
52.999999999760576
31
0
0
LINE
5
155
100
AcDbEntity
8
0
100
AcDbLine
10
242.80000000003338
20
52.999999999760576
30
0
11
246.00000000009771
21
52.999999999774865
31
0
0
LINE
5
156
100
AcDbEntity
8
0
100
AcDbLine
10
246.00000000009771
20
52.999999999774865
30
0
11
246.0000000001923
21
32.999999999774865
31
0
0
LINE
5
157
100
AcDbEntity
8
0
100
AcDbLine
10
246.0000000001923
20
32.999999999774865
30
0
11
242.80000000003719
21
32.999999999771582
31
0
0
LINE
5
158
100
AcDbEntity
8
0
100
AcDbLine
10
242.80000000003719
20
32.999999999771582
30
0
11
242.80000000004097
21
12.999999999771582
31
0
0
LINE
5
159
100
AcDbEntity
8
0
100
AcDbLine
10
242.80000000004097
20
12.999999999771582
30
0
11
246.00000000036206
21
12.999999999769976
31
0
0
LINE
5
160
100
AcDbEntity
8
0
100
AcDbLine
10
246.00000000036206
20
12.999999999769976
30
0
11
246.00000000034834
21
-4.0002230052823717e-10
31
0
0
LINE
5
161
100
AcDbEntity
8
0
100
AcDbLine
10
246.00000000034834
20
-4.0002230052823717e-10
30
0
11
233.00000000033742
21
-3.3293686268059428e-10
31
0
0
LINE
5
162
100
AcDbEntity
8
0
100
AcDbLine
10
233.00000000033742
20
-3.3293686268059428e-10
30
0
11
233.00000000036786
21
3.1999999978683684
31
0
0
LINE
5
163
100
AcDbEntity
8
0
100
AcDbLine
10
233.00000000036786
20
3.1999999978683684
30
0
11
213.00000000036786
21
3.1999999980442668
31
0
0
LINE
5
164
100
AcDbEntity
8
0
100
AcDbLine
10
213.00000000036786
20
3.1999999980442668
30
0
11
213.00000000033609
21
-4.8193736194759264e-10
31
0
0
LINE
5
165
100
AcDbEntity
8
0
100
AcDbLine
10
213.00000000033609
20
-4.8193736194759264e-10
30
0
11
192.99999999950447
21
-5.315828537162726e-10
31
0
0
LINE
5
166
100
AcDbEntity
8
0
100
AcDbLine
10
192.99999999950447
20
-5.315828537162726e-10
30
0
11
192.99999999950526
21
3.1999999982201648
31
0
0
LINE
5
167
100
AcDbEntity
8
0
100
AcDbLine
10
192.99999999950526
20
3.1999999982201648
30
0
11
172.99999999950526
21
3.1999999984046261
31
0
0
LINE
5
168
100
AcDbEntity
8
0
100
AcDbLine
10
172.99999999950526
20
3.1999999984046261
30
0
11
172.99999999949551
21
-5.4093057183065727e-10
31
0
0
LINE
5
169
100
AcDbEntity
8
0
100
AcDbLine
10
172.99999999949551
20
-5.4093057183065727e-10
30
0
11
152.99999999912004
21
-5.5027828994345478e-10
31
0
0
LINE
5
170
100
AcDbEntity
8
0
100
AcDbLine
10
152.99999999912004
20
-5.5027828994345478e-10
30
0
11
152.99999999912467
21
3.1999999985890875
31
0
0
LINE
5
171
100
AcDbEntity
8
0
100
AcDbLine
10
152.99999999912467
20
3.1999999985890875
30
0
11
132.99999999912467
21
3.1999999987735324
31
0
0
LINE
5
172
100
AcDbEntity
8
0
100
AcDbLine
10
132.99999999912467
20
3.1999999987735324
30
0
11
132.99999999912444
21
-5.4111126425322192e-10
31
0
0
LINE
5
173
100
AcDbEntity
8
0
100
AcDbLine
10
132.99999999912444
20
-5.4111126425322192e-10
30
0
11
112.99999999995855
21
-5.3194423856312368e-10
31
0
0
LINE
5
174
100
AcDbEntity
8
0
100
AcDbLine
10
112.99999999995855
20
-5.3194423856312368e-10
30
0
11
112.99999999995961
21
3.1999999989576215
31
0
0
LINE
5
175
100
AcDbEntity
8
0
100
AcDbLine
10
112.99999999995961
20
3.1999999989576215
30
0
11
92.999999999959613
21
3.1999999991424217
31
0
0
LINE
5
176
100
AcDbEntity
8
0
100
AcDbLine
10
92.999999999959613
20
3.1999999991424217
30
0
11
92.999999999958561
21
-5.2795024938381134e-10
31
0
0
LINE
5
177
100
AcDbEntity
8
0
100
AcDbLine
10
92.999999999958561
20
-5.2795024938381134e-10
30
0
11
72.999999999470703
21
-5.2395626020439468e-10
31
0
0
LINE
5
178
100
AcDbEntity
8
0
100
AcDbLine
10
72.999999999470703
20
-5.2395626020439468e-10
30
0
11
72.999999999472379
21
3.1999999993272215
31
0
0
LINE
5
179
100
AcDbEntity
8
0
100
AcDbLine
10
72.999999999472379
20
3.1999999993272215
30
0
11
52.999999999472386
21
3.1999999995116664
31
0
0
LINE
5
180
100
AcDbEntity
8
0
100
AcDbLine
10
52.999999999472386
20
3.1999999995116664
30
0
11
52.99999999946175
21
-4.9752752229452794e-10
31
0
0
LINE
5
181
100
AcDbEntity
8
0
100
AcDbLine
10
52.99999999946175
20
-4.9752752229452794e-10
30
0
11
32.999999998560781
21
-4.7109878437967123e-10
31
0
0
LINE
5
182
100
AcDbEntity
8
0
100
AcDbLine
10
32.999999998560781
20
-4.7109878437967123e-10
30
0
11
32.999999998561876
21
3.1999999996961108
31
0
0
LINE
5
183
100
AcDbEntity
8
0
100
AcDbLine
10
32.999999998561876
20
3.1999999996961108
30
0
11
12.999999998561876
21
3.1999999998779662
31
0
0
LINE
5
184
100
AcDbEntity
8
0
100
AcDbLine
10
12.999999998561876
20
3.1999999998779662
30
0
11
12.999999998532568
21
-1.2203505262567271e-10
31
0
0
LINE
5
185
100
AcDbEntity
8
0
100
AcDbLine
10
12.999999998532568
20
-1.2203505262567271e-10
30
0
11
0
21
0
31
0
0
LWPOLYLINE
5
186
100
AcDbEntity
8
0
100
AcDbPolyline
90
70
70
1
43
0.0
10
0.0061840588635102183
20
-19.627503551947729
10
13.006023481081105
20
-19.627503551947729
10
13.006022953314648
20
-16.42750355194773
10
33.006022953314648
20
-16.427503551946806
10
33.006022953314655
20
-19.627503551947733
10
53.006022953314641
20
-19.627503551921073
10
53.006022953314258
20
-16.427503551917479
10
73.006022953314286
20
-16.427503551902351
10
73.006022953324205
20
-19.627503551947736
10
93.006022953324219
20
-19.62750355194774
10
93.006022953314286
20
-16.427501352477943
10
113.00602295331429
20
-16.427501352477943
10
113.00602295332423
20
-19.627503551947726
10
133.00602348097476
20
-19.627503551947722
10
133.00602348096487
20
-16.427501352304049
10
153.00602348096487
20
-16.427501352237446
10
153.00602348098511
20
-19.62750355217737
10
173.00602348098508
20
-19.62750355229219
10
173.00602348097379
20
-16.427501352237449
10
193.00602348097379
20
-16.427501352237449
10
193.00602348098369
20
-19.627503552287831
10
213.00602348098369
20
-19.627503552283471
10
213.00634463664653
20
-16.427502450355014
10
233.00634463664653
20
-16.427502450355014
10
233.00634463664653
20
-19.627503552351726
10
246.00618405886416
20
-19.627503552372492
10
246.00618405886823
20
-22.127503546179618
10
232.99999842289481
20
-22.127503546179618
10
232.99999842249423
20
-25.327504652695374
10
212.99999895051121
20
-25.327504652695374
10
212.99999895011064
20
-22.127503548683386
10
192.99999895011064
20
-22.12750355118715
10
192.99999895011067
20
-25.327504652695474
10
172.99999947812753
20
-25.327504652695573
10
172.99999947812753
20
-22.12750355118715
10
152.99999947812753
20
-22.12750355118715
10
152.99999947818674
20
-25.327504652695573
10
132.99999947818674
20
-25.327504652695573
10
132.99999947818674
20
-22.12750355194752
10
112.99999947818675
20
-22.127503551947633
10
112.99999947815971
20
-25.327504652695396
10
93.000000005776144
20
-25.327504652695218
10
93.00000000536005
20
-22.127503551947743
10
81.801619057957552
20
-22.127503551947928
10
81.801619058741849
20
-25.327504652695403
10
79.44993432416284
20
-23.157346604549353
10
75.2292647584203
20
-27.731061498005868
10
77.580949492362478
20
-29.901219545509829
10
74.190078708547972
20
-33.57572567932759
10
71.838393974359917
20
-31.405567631463018
10
67.617724408953507
20
-35.979282525229699
10
69.969409143424372
20
-38.149440573492924
10
66.57853835933021
20
-41.823946707053814
10
64.226853624528715
20
-39.653788658495131
10
62.006836872142273
20
-42.059502615944297
10
64.356184058779348
20
-44.22750355194772
10
60.006184058779361
20
-44.22750355194772
10
46.672850725367205
20
-44.22750355194772
10
46.672850725367212
20
-47.427503551947723
10
36.672850725367219
20
-47.427503551947723
10
36.672850725323165
20
-44.227503551947713
10
23.339517391911016
20
-44.227503551947706
10
23.339517392173022
20
-47.427503551947737
10
13.339517392173025
20
-47.42750355276641
10
13.3395173921928
20
-44.227503551947692
10
0.0061840587806484297
20
-44.227503551947706
10
0.0061840588146373707
20
-36.927503551954729
10
3.2061840588509716
20
-36.927503552002619
10
3.2061840588588604
20
-26.927503552002623
10
0.006184058858246369
20
-26.927503551940699
0
LWPOLYLINE
5
187
100
AcDbEntity
8
0
100
AcDbPolyline
90
36
70
1
43
0.0
10
263.53246863035082
20
2.9686083313257194
10
263.53246863038061
20
12.995629903111983
10
260.33246862951239
20
12.995629903108368
10
260.33246862948795
20
32.995629903114803
10
263.5324685060059
20
32.995629905153564
10
263.53246850591165
20
52.995629903149677
10
260.33246862946322
20
52.995629903257928
10
260.33246862946385
20
72.995629903257935
10
263.53246850565984
20
72.995629903244904
10
263.53246850548675
20
92.995629901241017
10
260.33246862946447
20
92.995629901240747
10
260.33246862946504
20
112.99562990124075
10
263.53246850531372
20
112.99562990102865
10
263.53246850514063
20
132.99562989902478
10
260.33246862946567
20
132.99562989902472
10
260.33246862946623
20
152.99562989902475
10
263.53246850548675
20
152.99562989902461
10
263.53246850548675
20
163.02265147081087
10
266.03246850548675
20
163.02265147081067
10
266.03246850548675
20
152.99562989902429
10
269.23246850548674
20
152.99562989902401
10
269.23246850565999
20
132.99562989902401
10
266.03246850548675
20
132.99562989908756
10
266.03246850548675
20
112.99562990109145
10
269.23246850628425
20
112.99562990109145
10
269.2324685063071
20
92.995629901091448
10
266.03246850548675
20
92.995629901240662
10
266.03246850548675
20
72.995629903244549
10
269.23246850636389
20
72.995629903254638
10
269.23246850635292
20
52.995629903254638
10
266.03246850548675
20
52.995629901110917
10
266.03246850461449
20
32.995629903114803
10
269.23246850637082
20
32.995629903114803
10
269.23246850633109
20
12.995629903114807
10
266.03246850546225
20
12.995629903114807
10
266.03246850546122
20
2.9678181112306001
0
LWPOLYLINE
5
188
100
AcDbEntity
8
0
100
AcDbPolyline
90
44
70
1
43
0.0
10
-12.807216406513742
20
3.000000436868782
10
-12.807216406489166
20
12.999999996520531
10
-9.6072164064224914
20
12.999999996500694
10
-9.6072164064104211
20
32.999999996500684
10
-12.80721640640637
20
32.999999996500698
10
-12.807216406323574
20
52.999999996500684
10
-9.6072164063983898
20
52.999999996500108
10
-9.6072164063863301
20
72.999999996500108
10
-12.807216406240773
20
72.999999996492733
10
-12.807216406157975
20
92.999999996492733
10
-9.6072164062248024
20
92.999999996484519
10
-9.607216406063273
20
112.99999999648452
10
-12.807216406075179
20
112.99999999648452
10
-12.807216405925105
20
132.99999999647059
10
-9.6072164059017418
20
132.9999999964835
10
-9.6072164058724638
20
152.99999999648347
10
-12.807216405860569
20
152.99999999650166
10
-12.807216405828136
20
162.99999955614101
10
-20.107223313122752
20
162.99999955605676
10
-20.10722331301567
20
166.19999955605678
10
-30.107223313022736
20
166.19999955616271
10
-30.107223313078151
20
163.00000964085999
10
-37.407230220241622
20
162.99999955626052
10
-37.407216405746304
20
152.99999999661833
10
-40.607216405698722
20
152.99999999661767
10
-40.607216405819379
20
132.99999999661765
10
-37.407216406793722
20
132.99999999660093
10
-37.407216406898208
20
112.99999999660095
10
-40.607216405940036
20
112.99999999660123
10
-40.607216406060687
20
92.999999996601233
10
-37.407216406897867
20
92.999999996601389
10
-37.407216406897604
20
72.999999996601332
10
-40.607216406181337
20
72.999999996601133
10
-40.607216406301909
20
52.999999996601119
10
-37.407216406897362
20
52.999999996602241
10
-37.407216406945842
20
32.99999999660227
10
-40.607216406410451
20
32.999999996613269
10
-40.607216406543046
20
12.999999996613269
10
-37.407216406994351
20
12.999999996617033
10
-37.407216406994202
20
3.0000004369652871
10
-30.107209499823774
20
3.0000004369005602
10
-30.107209499828297
20
-0.19999956264813132
10
-20.107223312460366
20
-0.1999995626664906
10
-20.107223312473359
20
3.0000004368821886
0
LWPOLYLINE
5
189
100
AcDbEntity
8
0
100
AcDbPolyline
90
36
70
1
43
0.0
10
-45.357073529370794
20
-0.1865545347863114
10
-45.357073529455604
20
12.82335367040724
10
-48.557073529455614
20
12.823353670386384
10
-48.557073529443535
20
32.823353670384236
10
-45.357073529585975
20
32.823353670382581
10
-45.357073529573988
20
52.823353670380868
10
-48.557073529431804
20
52.823353670382929
10
-48.557073529443961
20
72.823353670376903
10
-45.357073529562072
20
72.823353670370295
10
-45.357073529537558
20
92.823353670365776
10
-48.557073529332904
20
92.82335367036778
10
-48.55707352929165
20
112.82335367036923
10
-45.357073529517287
20
112.84426419360607
10
-45.357073529492773
20
132.84426419360744
10
-48.557073529230017
20
132.84426419360796
10
-48.557073529170268
20
152.84426419360813
10
-45.357073529349179
20
152.80353725974408
10
-45.357073529454183
20
165.81344546493764
10
-58.690407029223898
20
165.81344546482421
10
-58.690407029198106
20
162.6134454648242
10
-68.690407029198084
20
162.61344546474197
10
-68.690407029223877
20
165.81344546473866
10
-82.023740528993585
20
165.81344546474216
10
-82.023740528980525
20
162.61344546462382
10
-92.023740528980511
20
162.6134454645526
10
-92.023740529003419
20
165.81344546474418
10
-109.95707353019375
20
165.81344546474909
10
-109.95707352885525
20
-0.18655453524425669
10
-92.023740528899381
20
-0.18655453511812162
10
-92.023740528922133
20
3.0134454650349243
10
-82.023740528921977
20
3.0134454651109173
10
-82.023740528896226
20
-0.18655453504440481
10
-68.69040702912649
20
-0.18655453494988561
10
-68.690407029137617
20
3.0134454651272859
10
-58.690407029137255
20
3.0134454651173175
10
-58.690407029140488
20
-0.18655453488083032
0
CIRCLE
5
190
100
AcDbEntity
8
0
100
AcDbCircle
10
-79.957073529489804
20
17.813445464741573
30
0
40
3.4000000000000004
210
0
220
0
230
1
0
CIRCLE
5
191
100
AcDbEntity
8
0
100
AcDbCircle
10
-79.957073529350083
20
61.146778798074912
30
0
40
3.4000000000000004
210
0
220
0
230
1
0
CIRCLE
5
192
100
AcDbEntity
8
0
100
AcDbCircle
10
-79.957073529489804
20
104.48011213140825
30
0
40
3.4000000000000004
210
0
220
0
230
1
0
CIRCLE
5
193
100
AcDbEntity
8
0
100
AcDbCircle
10
-79.957073529489804
20
147.81344546474159
30
0
40
3.4000000000000004
210
0
220
0
230
1
0
LWPOLYLINE
5
194
100
AcDbEntity
8
0
100
AcDbPolyline
90
20
70
1
43
0.0
10
0.17823735580219902
20
-72.549570797627069
10
166.17823735580328
20
-72.549570797627069
10
166.17823735579827
20
-78.773148507418384
10
162.97823735579362
20
-78.773148507418384
10
162.97823735579473
20
-83.773148507418384
10
166.17823735579452
20
-83.773148507418341
10
166.17823735579458
20
-89.996726217209641
10
162.97823735579456
20
-89.99672621720967
10
162.97823735579524
20
-94.996726217209314
10
166.17823735579205
20
-94.996726217209314
10
166.17823735579336
20
-98.270726217209315
10
0.17823735577701749
20
-98.270726217209557
10
0.17823735577380423
20
-94.996726217209584
10
3.378237355773805
20
-94.996726217209599
10
3.3782373557737921
20
-89.996726217209599
10
0.17823735577048333
20
-89.996726217209627
10
0.17823735580674033
20
-83.773148507418327
10
3.3782373558058367
20
-83.773148507418284
10
3.3782373558063949
20
-78.773148507418313
10
0.17823735580959998
20
-78.773148507418384
0
LINE
5
195
100
AcDbEntity
8
0
100
AcDbLine
10
343.00000000001768
20
162.80000000012581
30
0
11
362.99999999998369
21
162.80000000020789
31
0
0
LINE
5
196
100
AcDbEntity
8
0
100
AcDbLine
10
362.9999999995087
20
3.1999999993272215
30
0
11
342.9999999995087
21
3.1999999995116664
31
0
0
LINE
5
197
100
AcDbEntity
8
0
100
AcDbLine
10
423.00000000000114
20
166.00000000049346
30
0
11
422.99999999998386
21
162.80000000045328
31
0
0
LINE
5
198
100
AcDbEntity
8
0
100
AcDbLine
10
454.19838094820943
20
166.00000000063758
30
0
11
454.19838094770449
21
-5.450443245221985e-10
31
0
0
LINE
5
199
100
AcDbEntity
8
0
100
AcDbLine
10
293.2000000000051
20
113.00000000000847
30
0
11
290.00000000000006
21
113.00000000002846
31
0
0
LINE
5
200
100
AcDbEntity
8
0
100
AcDbLine
10
362.99999999998369
20
162.80000000020789
30
0
11
363.00000000001296
21
166.00000000021834
31
0
0
LINE
5
201
100
AcDbEntity
8
0
100
AcDbLine
10
293.19999999999703
20
53.000000000998845
30
0
11
293.20000000000545
21
73.000000000998838
31
0
0
LINE
5
202
100
AcDbEntity
8
0
100
AcDbLine
10
422.99999999998386
20
162.80000000045328
30
0
11
442.99999999960949
21
162.80000000053536
31
0
0
LINE
5
203
100
AcDbEntity
8
0
100
AcDbLine
10
363.00000000001296
20
166.00000000021834
30
0
11
383.00000000001296
21
166.00000000031071
31
0
0
LINE
5
204
100
AcDbEntity
8
0
100
AcDbLine
10
442.99999999960949
20
162.80000000053536
30
0
11
442.99999999960949
21
166.00000000058577
31
0
0
LINE
5
205
100
AcDbEntity
8
0
100
AcDbLine
10
442.99999999960949
20
166.00000000058577
30
0
11
454.19838094820943
21
166.00000000063758
31
0
0
LINE
5
206
100
AcDbEntity
8
0
100
AcDbLine
10
290.00000000000534
20
153.00000000000398
30
0
11
290.00000000000915
21
165.99999999989737
31
0
0
LINE
5
207
100
AcDbEntity
8
0
100
AcDbLine
10
290.00000000000006
20
133.00000000000415
30
0
11
293.19999999999629
21
133.00000000000512
31
0
0
LINE
5
208
100
AcDbEntity
8
0
100
AcDbLine
10
442.99999999910915
20
3.1999999985872214
30
0
11
422.99999999912473
21
3.1999999987735324
31
0
0
LINE
5
209
100
AcDbEntity
8
0
100
AcDbLine
10
290.00000000000006
20
73.000000001005105
30
0
11
290.00000000000006
21
93.000000000004249
31
0
0
LINE
5
210
100
AcDbEntity
8
0
100
AcDbLine
10
422.99999999912473
20
3.1999999987735324
30
0
11
422.99999999912444
21
-5.4111126425322192e-10
31
0
0
LINE
5
211
100
AcDbEntity
8
0
100
AcDbLine
10
343.00000000004729
20
166.00000000012591
30
0
11
343.00000000001768
21
162.80000000012581
31
0
0
LINE
5
212
100
AcDbEntity
8
0
100
AcDbLine
10
442.99999999910449
20
-5.521437957465009e-10
30
0
11
442.99999999910915
21
3.1999999985872214
31
0
0
LINE
5
213
100
AcDbEntity
8
0
100
AcDbLine
10
293.20000000000584
20
153.00000000000514
30
0
11
290.00000000000534
21
153.00000000000398
31
0
0
LINE
5
214
100
AcDbEntity
8
0
100
AcDbLine
10
454.19838094770449
20
-5.450443245221985e-10
30
0
11
442.99999999910449
21
-5.521437957465009e-10
31
0
0
LINE
5
215
100
AcDbEntity
8
0
100
AcDbLine
10
303.00000000005809
20
162.79999999997696
30
0
11
323.00000000005804
21
162.80000000004375
31
0
0
LINE
5
216
100
AcDbEntity
8
0
100
AcDbLine
10
323.00000000005804
20
162.80000000004375
30
0
11
323.00000000004729
21
166.00000000005141
31
0
0
LINE
5
217
100
AcDbEntity
8
0
100
AcDbLine
10
290.00000000000915
20
165.99999999989737
30
0
11
303.00000000004707
21
165.99999999997692
31
0
0
LINE
5
218
100
AcDbEntity
8
0
100
AcDbLine
10
293.20000000001249
20
12.999999999887512
30
0
11
293.20000000000482
21
32.999999999887514
31
0
0
LINE
5
219
100
AcDbEntity
8
0
100
AcDbLine
10
293.19999999999629
20
133.00000000000512
30
0
11
293.20000000000584
21
153.00000000000514
31
0
0
LINE
5
220
100
AcDbEntity
8
0
100
AcDbLine
10
290.00000000000006
20
113.00000000002846
30
0
11
290.00000000000006
21
133.00000000000415
31
0
0
LINE
5
221
100
AcDbEntity
8
0
100
AcDbLine
10
293.20000000001386
20
93.00000000000847
30
0
11
293.2000000000051
21
113.00000000000847
31
0
0
LINE
5
222
100
AcDbEntity
8
0
100
AcDbLine
10
290.00000000000006
20
12.99999999989339
30
0
11
293.20000000001249
21
12.999999999887512
31
0
0
LINE
5
223
100
AcDbEntity
8
0
100
AcDbLine
10
290.00000000000006
20
93.000000000004249
30
0
11
293.20000000001386
21
93.00000000000847
31
0
0
LINE
5
224
100
AcDbEntity
8
0
100
AcDbLine
10
293.20000000000545
20
73.000000000998838
30
0
11
290.00000000000006
21
73.000000001005105
31
0
0
LINE
5
225
100
AcDbEntity
8
0
100
AcDbLine
10
322.99999999856084
20
-4.7109878437967123e-10
30
0
11
322.99999999856192
21
3.1999999996961108
31
0
0
LINE
5
226
100
AcDbEntity
8
0
100
AcDbLine
10
290.00000000000006
20
53.000000001008473
30
0
11
293.19999999999703
21
53.000000000998845
31
0
0
LINE
5
227
100
AcDbEntity
8
0
100
AcDbLine
10
362.99999999950705
20
-5.2395626020392205e-10
30
0
11
362.9999999995087
21
3.1999999993272215
31
0
0
LINE
5
228
100
AcDbEntity
8
0
100
AcDbLine
10
290.00000000000006
20
32.999999999890036
30
0
11
290.00000000000006
21
53.000000001008473
31
0
0
LINE
5
229
100
AcDbEntity
8
0
100
AcDbLine
10
303.00000000004707
20
165.99999999997692
30
0
11
303.00000000005809
21
162.79999999997696
31
0
0
LINE
5
230
100
AcDbEntity
8
0
100
AcDbLine
10
382.99999999995873
20
3.1999999991405552
30
0
11
382.99999999995771
21
-5.2981575518574449e-10
31
0
0
LINE
5
231
100
AcDbEntity
8
0
100
AcDbLine
10
293.20000000000482
20
32.999999999887514
30
0
11
290.00000000000006
21
32.999999999890036
31
0
0
LINE
5
232
100
AcDbEntity
8
0
100
AcDbLine
10
323.00000000004729
20
166.00000000005141
30
0
11
343.00000000004729
21
166.00000000012591
31
0
0
LINE
5
233
100
AcDbEntity
8
0
100
AcDbLine
10
382.99999999995771
20
-5.2981575518574449e-10
30
0
11
362.99999999950705
21
-5.2395626020392205e-10
31
0
0
LINE
5
234
100
AcDbEntity
8
0
100
AcDbLine
10
342.99999999949813
20
-4.9752752229072384e-10
30
0
11
322.99999999856084
21
-4.7109878437967123e-10
31
0
0
LINE
5
235
100
AcDbEntity
8
0
100
AcDbLine
10
402.99999999998602
20
3.1999999989576215
30
0
11
382.99999999995873
21
3.1999999991405552
31
0
0
LINE
5
236
100
AcDbEntity
8
0
100
AcDbLine
10
342.9999999995087
20
3.1999999995116664
30
0
11
342.99999999949813
21
-4.9752752229072384e-10
31
0
0
LINE
5
237
100
AcDbEntity
8
0
100
AcDbLine
10
322.99999999856192
20
3.1999999996961108
30
0
11
302.99999999859625
21
3.1999999998760997
31
0
0
LINE
5
238
100
AcDbEntity
8
0
100
AcDbLine
10
402.99999999998499
20
-5.3194423856270585e-10
30
0
11
402.99999999998602
21
3.1999999989576215
31
0
0
LINE
5
239
100
AcDbEntity
8
0
100
AcDbLine
10
422.99999999912444
20
-5.4111126425322192e-10
30
0
11
402.99999999998499
21
-5.3194423856270585e-10
31
0
0
LINE
5
240
100
AcDbEntity
8
0
100
AcDbLine
10
290.00000000000006
20
0
30
0
11
290.00000000000006
21
12.99999999989339
31
0
0
LINE
5
241
100
AcDbEntity
8
0
100
AcDbLine
10
302.99999999856698
20
-1.2390055842792008e-10
30
0
11
290.00000000000006
21
0
31
0
0
LINE
5
242
100
AcDbEntity
8
0
100
AcDbLine
10
302.99999999859625
20
3.1999999998760997
30
0
11
302.99999999856698
21
-1.2390055842792008e-10
31
0
0
LINE
5
243
100
AcDbEntity
8
0
100
AcDbLine
10
402.9999999999842
20
162.80000000037117
30
0
11
403.00000000000114
21
166.00000000040208
31
0
0
LINE
5
244
100
AcDbEntity
8
0
100
AcDbLine
10
383.00000000001296
20
166.00000000031071
30
0
11
382.9999999999842
21
162.80000000028937
31
0
0
LINE
5
245
100
AcDbEntity
8
0
100
AcDbLine
10
403.00000000000114
20
166.00000000040208
30
0
11
423.00000000000114
21
166.00000000049346
31
0
0
LINE
5
246
100
AcDbEntity
8
0
100
AcDbLine
10
382.9999999999842
20
162.80000000028937
30
0
11
402.9999999999842
21
162.80000000037117
31
0
0
ENDSEC
0
SECTION
2
OBJECTS
0
DICTIONARY
5
C
100
AcDbDictionary
3
ACAD_GROUP
350
D
3
ACAD_MLINESTYLE
350
17
0
DICTIONARY
5
D
100
AcDbDictionary
0
DICTIONARY
5
1A
330
C
100
AcDbDictionary
0
DICTIONARY
5
17
100
AcDbDictionary
0
ENDSEC
0
EOF
